<?xml version="1.0" encoding="UTF-8"?>
<svg xmlns="http://www.w3.org/2000/svg" width="1120" height="440" viewBox="-10 -10 1120 440"><defs><filter id="shadow" x="-4%" y="-4%" width="112%" height="112%"><feFlood flood-color="#000000" flood-opacity="0.08" result="color"/><feComposite in="color" in2="SourceGraphic" operator="in" result="shadow"/><feGaussianBlur in="shadow" stdDeviation="3" result="blur"/><feOffset in="blur" dx="2" dy="3" result="offsetBlur"/><feMerge><feMergeNode in="offsetBlur"/><feMergeNode in="SourceGraphic"/></feMerge></filter><filter id="shadow-light" x="-4%" y="-4%" width="112%" height="112%"><feFlood flood-color="#000000" flood-opacity="0.04" result="color"/><feComposite in="color" in2="SourceGraphic" operator="in" result="shadow"/><feGaussianBlur in="shadow" stdDeviation="2" result="blur"/><feOffset in="blur" dx="1" dy="2" result="offsetBlur"/><feMerge><feMergeNode in="offsetBlur"/><feMergeNode in="SourceGraphic"/></feMerge></filter></defs><rect x="-10" y="-10" width="1120" height="440" fill="#ffffff" rx="8"/><g id="layer-zones"><rect x="10" y="8" width="280" height="310" fill="#E3EDFA" rx="12" ry="12"/><rect x="350" y="8" width="300" height="310" fill="#EDF0F6" rx="12" ry="12"/><rect x="710" y="8" width="290" height="310" fill="#FBEAE5" rx="12" ry="12"/></g><g id="layer-connectors"><g><path d="M273.0025324020535 86.74157952331007 C294.71085145157764 90.07888820857927, 314.08234356363306 94.32165946250036, 376.33451221324503 101.73904555104673 M273.8780231727287 87.5565707879141 C303.97354853085244 91.80496950350329, 334.8307886828389 96.2935364674367, 376.31213998328894 102.8091333406046" stroke="#3B7DD8" stroke-width="1.3" fill="none"/></g><polygon points="376,102.5 368.36392594597106,104.88545028063587 369.37396557181154,98.0171808249204" fill="#3B7DD8" stroke="none"/><g><path d="M623.0025324020535 101.74157952331007 C645.7000206558266 99.58102225316874, 666.072456841194 98.31860110387392, 731.334512213245 89.23904555104673 M623.8780231727287 102.5565707879141 C655.5059549987084 98.65655349040962, 687.8470924390248 94.98368536852858, 731.312139983289 90.3091333406046" stroke="#D4644B" stroke-width="1.3" fill="none"/></g><polygon points="731,90 724.2436949140199,94.28396330343291 723.4381753002835,87.38871540984938" fill="#D4644B" stroke="none"/><line x1="30" y1="330" x2="1070" y2="330" stroke="#DDD" stroke-width="1.2" stroke-dasharray="6,4" stroke-linecap="round"/></g><g id="layer-boxes"><g filter="url(#shadow)"><g><path d="M36.68301911302461 56.095072331135505 C116.97130124965744 56.317190679137155, 195.91223970943236 54.23462864307202, 261.5435557536065 52.31746681973696 C266.9519162476063 54.94918820261955, 268.46372864842414 56.44558808207512, 270.70722420811654 61.819749993085864 C267.4172828798115 78.45210130084305, 269.1662950639546 103.12744275666773, 269.0786922156811 115.151943141222 C272.9148452460766 116.49487336277961, 266.8320947349072 121.64494870305062, 266.2473699271679 122.79375432133675 C205.68745126509228 121.72375792869776, 150.62875225924176 120.3047300634749, 34.084218392100844 122.3022444599743 C29.759221202135087 121.76664826273918, 27.878290683031082 120.16956059336663, 26.931295520067216 112.56604916453361 C31.741583832472564 104.09184011947364, 29.226014717787507 90.89421993158759, 27.871750420331956 61.06453984379768 C27.549248665571213 54.38233578801155, 29.930823105573655 52.162129145860675, 34.60279995799065 53.95677216649055 C36 55, 36 55, 36 55" stroke="none" stroke-width="0" fill="#E3EDFA"/><path d="M34.63817169246221 53.96453932308282 C82.03238787383927 54.67326318873151, 126.24493627448268 56.36613429509957, 264.45670476128953 53.96107972683545 M35.83346677467654 55.0772352911711 C103.2950459078744 55.24760586496003, 171.7604585521129 55.29795091244647, 264.42616027431103 55.42205534786869 M264 55 C268.92853334844114 53.83326260149479, 270.41903675496576 57.123198953270915, 270.5615498393774 60.37229658663273 M265.3366733402014 55.9588048607111 C269.36812529757617 54.496239300221205, 270.40726097777485 57.334658170193435, 270.9998460932076 61.370765223950144 M271.40010038912294 61.24588335454464 C270.0905237884134 74.40518224965781, 269.52589471050203 86.85802057348192, 269.9479123741388 114.87821205556392 M270.7571195051074 60.71563103944063 C269.7576221713096 71.82929015178235, 270.55252292242346 84.06026646383107, 269.2342533990741 113.84582670480013 M270 114 C268.89490850865843 118.12862145006656, 268.68601616322997 121.08621527254581, 263.00173481404784 121.54120890200139 M270.6974210590124 115.21193958818913 C270.6813183040917 117.75585681006312, 266.3240785570443 119.03602708384395, 263.0062406988442 119.04477390810847 M263.2187930622939 119.55260118885903 C174.6908866651314 121.87418416977698, 87.0088388148915 120.93884477271243, 37.2633911705597 120.57086640731382 M263.6662585710925 120.33945320497854 C205.79756030907592 119.81669018177627, 149.0761905580219 118.5726480404712, 36.22366684190617 119.94233557280164 M36 120 C30.926261696219445 119.9783382087946, 30.763676723837854 117.43913637697696, 30.698694691061974 112.69143225252628 M34.5520530551672 120.5530259758234 C32.30822041705251 119.86775154158472, 31.03466383650899 117.29805212542415, 30.824410817176105 113.61455590769648 M29.684568086266516 113.38609217107296 C31.426852932444213 93.63238273728639, 29.642460670939087 72.79604085721076, 30.335590520501135 61.8900151103735 M30.202706091105938 113.22572377473116 C29.087864191123845 103.02574790995568, 29.62926762778461 91.05305018238724, 30.538098041713237 61.13057153970003 M30 61 C31.48274916112423 56.38475662767887, 32.78717468678951 55.90930601656437, 36.83758572041988 54.10031038820743 M28.710725578665734 60.03440777361393 C31.123011323958636 55.79961880728602, 33.67944650366903 53.162178607434036, 37.26228613570333 53.37405653521419 M36 55 C36 55, 36 55, 36 55 M36 55 C36 55, 36 55, 36 55" stroke="#3B7DD8" stroke-width="1.5" fill="none"/></g></g><g><path d="M44.51478699892759 235.68322523385285 L62.76526331156492 234.2253125503659 L62.26211871355772 254.932422144711 L45.34934734553099 254.34571612626314" stroke="none" stroke-width="0" fill="#E3EDFA"/><path d="M44.32172203339636 234.48427407585083 C48.59712524536997 234.63001352635175, 51.287853545844555 235.47317206946164, 62.227468305006624 234.48255097471178 M44.91705575745553 235.03846813578159 C49.86063309326768 234.7550400952071, 55.30418399322778 234.7801151624888, 62.21225518863648 235.21021067161112 M61.4166313007474 235.20951837748288 C62.04276837423444 242.37027396932245, 62.46057132795453 248.83859029114245, 62.161202271282676 255.5948370859027 M61.80098552331329 234.7721958555281 C61.67676639711857 240.8024591192603, 62.072095038056375 245.96371985003353, 62.0355310164392 254.91769453659654 M61.394007003679874 255.35207463108003 C58.044368645660576 255.66594598675817, 52.97798994645476 254.70441352034658, 44.70460022963584 255.3576847513765 M61.787868647985164 255.32750689167528 C55.16358381934464 255.01946922008395, 48.94260995719582 255.2229579073608, 45.14820197504014 255.2575371624902 M44.89385078698397 254.27133850306274 C44.60580028232932 250.80337499305605, 44.3009195202291 245.78428080677986, 44.54224561005831 234.73784312456846 M45.06167616471648 255.37014702931046 C45.12696653419733 249.25016656816007, 44.828680978357795 243.54443552717566, 44.804441567510366 235.19890529289842" stroke="#3B7DD8" stroke-width="1.5" fill="none"/></g><g><path d="M68.51478699892759 230.68322523385285 L86.76526331156492 229.2253125503659 L86.26211871355773 254.932422144711 L69.34934734553099 254.34571612626314" stroke="none" stroke-width="0" fill="#E3EDFA"/><path d="M68.32172203339637 229.48427407585083 C72.59712524536997 229.63001352635175, 75.28785354584456 230.47317206946164, 86.22746830500662 229.48255097471178 M68.91705575745553 230.03846813578159 C73.86063309326768 229.7550400952071, 79.30418399322778 229.7801151624888, 86.21225518863648 230.21021067161112 M85.4166313007474 230.20951837748288 C86.03806059863417 239.0457582941279, 86.45586355235427 247.18955894075333, 86.16120227128268 255.5948370859027 M85.80098552331329 229.7721958555281 C85.67942244697362 237.1655676247552, 86.07475108791142 243.6899368610233, 86.0355310164392 254.91769453659654 M85.39400700367987 255.35207463108003 C82.04436864566058 255.66594598675817, 76.97798994645476 254.70441352034658, 68.70460022963583 255.3576847513765 M85.78786864798516 255.32750689167528 C79.16358381934464 255.01946922008395, 72.94260995719581 255.2229579073608, 69.14820197504014 255.2575371624902 M68.89385078698396 254.27133850306274 C68.61203001771122 249.5734182814136, 68.30714925561101 243.32436738349497, 68.5422456100583 229.73784312456846 M69.06167616471649 255.37014702931046 C69.11689520638437 247.8592502905056, 68.81860965054483 240.76260297186673, 68.80444156751037 230.19890529289842" stroke="#3B7DD8" stroke-width="1.5" fill="none"/></g><g><path d="M92.51478699892759 237.68322523385285 L110.76526331156492 236.2253125503659 L110.26211871355773 254.932422144711 L93.34934734553099 254.34571612626314" stroke="none" stroke-width="0" fill="#E3EDFA"/><path d="M92.32172203339637 236.48427407585083 C96.59712524536997 236.63001352635175, 99.28785354584456 237.47317206946164, 110.22746830500662 236.48255097471178 M92.91705575745553 237.03846813578159 C97.86063309326768 236.7550400952071, 103.30418399322778 236.7801151624888, 110.21225518863648 237.21021067161112 M109.47496817067265 237.1885665397346 C110.038491536811 243.6332465723902, 110.41451419515907 249.45473126202822, 110.1450820441544 255.53535337731242 M109.82088697098196 236.7949762699753 C109.70908975740672 242.22221320733428, 110.06488553425073 246.86734786503018, 110.03197791479528 254.92592508293689 M109.39400700367987 255.35207463108003 C106.04436864566058 255.66594598675817, 100.97798994645476 254.70441352034658, 92.70460022963583 255.3576847513765 M109.78786864798516 255.32750689167528 C103.16358381934464 255.01946922008395, 96.94260995719581 255.2229579073608, 93.14820197504014 255.2575371624902 M92.90446570828557 254.34420465275645 C92.64522025409639 251.22303749375047, 92.3708275682062 246.70585272610188, 92.58802104905247 236.7640588121116 M93.05550854824483 255.33313232637943 C93.1142698807776 249.82514991134406, 92.84581288052202 244.68999197445808, 92.82399741075933 237.17901476360856" stroke="#3B7DD8" stroke-width="1.5" fill="none"/></g><g><path d="M116.51478699892759 210.68322523385285 L134.76526331156492 209.2253125503659 L134.26211871355773 254.932422144711 L117.34934734553099 254.34571612626314" stroke="none" stroke-width="0" fill="#E3EDFA"/><path d="M116.32172203339637 209.48427407585083 C120.59712524536997 209.63001352635175, 123.28785354584456 210.47317206946164, 134.22746830500662 209.48255097471178 M116.91705575745553 210.03846813578159 C121.86063309326768 209.7550400952071, 127.30418399322778 209.7801151624888, 134.21225518863648 210.21021067161112 M133.41663130074738 210.20951837748288 C134.01922949623315 225.74769559334965, 134.43703244995325 240.59343353919684, 134.16120227128266 255.5948370859027 M133.80098552331327 209.7721958555281 C133.69004664639382 222.61800164673477, 134.08537528733163 234.59480490498245, 134.0355310164392 254.91769453659654 M133.39400700367986 255.35207463108003 C130.0443686456606 255.66594598675817, 124.97798994645476 254.70441352034658, 116.70460022963583 255.3576847513765 M133.78786864798516 255.32750689167528 C127.16358381934464 255.01946922008395, 120.94260995719581 255.2229579073608, 117.14820197504014 255.2575371624902 M116.89385078698396 254.27133850306274 C116.63694895923882 244.65359143484383, 116.33206819713861 233.48471369035542, 116.5422456100583 209.73784312456846 M117.06167616471649 255.37014702931046 C117.07660989513249 242.29558517988772, 116.77832433929295 229.63527275063097, 116.80444156751037 210.19890529289842" stroke="#3B7DD8" stroke-width="1.5" fill="none"/></g><g><path d="M140.5147869989276 190.68322523385285 L158.76526331156492 189.2253125503659 L158.26211871355773 254.932422144711 L141.349347345531 254.34571612626314" stroke="none" stroke-width="0" fill="#E3EDFA"/><path d="M140.32172203339636 189.48427407585083 C144.59712524536997 189.63001352635175, 147.28785354584454 190.47317206946164, 158.22746830500662 189.48255097471178 M140.91705575745553 190.03846813578159 C145.86063309326767 189.7550400952071, 151.30418399322778 189.7801151624888, 158.21225518863648 190.21021067161112 M157.41663130074738 190.20951837748288 C158.00039839383214 212.4496328925714, 158.41820134755224 233.99730813764035, 158.16120227128266 255.5948370859027 M157.80098552331327 189.7721958555281 C157.70067084581405 208.07043566871434, 158.09599948675185 225.4996729489416, 158.0355310164392 254.91769453659654 M157.39400700367986 255.35207463108003 C154.0443686456606 255.66594598675817, 148.97798994645476 254.70441352034658, 140.70460022963584 255.3576847513765 M157.78786864798516 255.32750689167528 C151.16358381934464 255.01946922008395, 144.9426099571958 255.2229579073608, 141.14820197504014 255.2575371624902 M140.89385078698396 254.27133850306274 C140.66186790076642 239.73376458827406, 140.3569871386662 223.64505999721587, 140.5422456100583 189.73784312456846 M141.0616761647165 255.37014702931046 C141.0363245838806 236.73192006926985, 140.73803902804104 218.50794252939522, 140.80444156751037 190.19890529289842" stroke="#3B7DD8" stroke-width="1.5" fill="none"/></g><g><path d="M164.5147869989276 175.68322523385285 L182.76526331156492 174.2253125503659 L182.26211871355773 254.932422144711 L165.349347345531 254.34571612626314" stroke="none" stroke-width="0" fill="#E3EDFA"/><path d="M164.32172203339636 174.48427407585083 C168.59712524536997 174.63001352635175, 171.28785354584454 175.47317206946164, 182.22746830500662 174.48255097471178 M164.91705575745553 175.03846813578159 C169.86063309326767 174.7550400952071, 175.30418399322778 174.7801151624888, 182.21225518863648 175.21021067161112 M181.41663130074738 175.20951837748288 C181.98627506703139 202.47608586698772, 182.40407802075148 229.05021408647298, 182.16120227128266 255.5948370859027 M181.80098552331327 174.7721958555281 C181.7086389953792 197.15976118519902, 182.103967636317 218.67832398191095, 182.0355310164392 254.91769453659654 M181.39400700367986 255.35207463108003 C178.0443686456606 255.66594598675817, 172.97798994645476 254.70441352034658, 164.70460022963584 255.3576847513765 M181.78786864798516 255.32750689167528 C175.16358381934464 255.01946922008395, 168.9426099571958 255.2229579073608, 165.14820197504014 255.2575371624902 M164.89385078698396 254.27133850306274 C164.68055710691212 236.04389445334672, 164.3756763448119 216.2653197273612, 164.5422456100583 174.73784312456846 M165.0616761647165 255.37014702931046 C165.0061106004417 232.55917123630644, 164.70782504460215 210.1624448634684, 164.80444156751037 175.19890529289842" stroke="#3B7DD8" stroke-width="1.5" fill="none"/></g><g><path d="M188.5147869989276 183.68322523385285 L206.76526331156492 182.2253125503659 L206.26211871355773 254.932422144711 L189.349347345531 254.34571612626314" stroke="none" stroke-width="0" fill="#E3EDFA"/><path d="M188.32172203339636 182.48427407585083 C192.59712524536997 182.63001352635175, 195.28785354584454 183.47317206946164, 206.22746830500662 182.48255097471178 M188.91705575745553 183.03846813578159 C193.86063309326767 182.7550400952071, 199.30418399322778 182.7801151624888, 206.21225518863648 183.21021067161112 M205.41663130074738 183.20951837748288 C205.9938075079918 207.79531094729901, 206.4116104617119 231.68866424709557, 206.16120227128266 255.5948370859027 M205.80098552331327 182.7721958555281 C205.7043893156111 202.9787875764072, 206.09971795654891 222.3163767643273, 206.0355310164392 254.91769453659654 M205.39400700367986 255.35207463108003 C202.0443686456606 255.66594598675817, 196.97798994645476 254.70441352034658, 188.70460022963584 255.3576847513765 M205.78786864798516 255.32750689167528 C199.16358381934464 255.01946922008395, 192.9426099571958 255.2229579073608, 189.14820197504014 255.2575371624902 M188.89385078698396 254.27133850306274 C188.6705895303011 238.01182519197462, 188.36570876820088 220.20118120461703, 188.5422456100583 182.73784312456846 M189.0616761647165 255.37014702931046 C189.02222472494245 234.7846372805536, 188.7239391691029 214.61337695196272, 188.80444156751037 183.19890529289842" stroke="#3B7DD8" stroke-width="1.5" fill="none"/></g><g><path d="M212.5147869989276 200.68322523385285 L230.76526331156492 199.2253125503659 L230.26211871355773 254.932422144711 L213.349347345531 254.34571612626314" stroke="none" stroke-width="0" fill="#E3EDFA"/><path d="M212.32172203339636 199.48427407585083 C216.59712524536997 199.63001352635175, 219.28785354584454 200.47317206946164, 230.22746830500662 199.48255097471178 M212.91705575745553 200.03846813578159 C217.86063309326767 199.7550400952071, 223.30418399322778 199.7801151624888, 230.21225518863648 200.21021067161112 M229.41663130074738 200.20951837748288 C230.00981394503265 219.09866424296052, 230.42761689875275 237.2953708384186, 230.16120227128266 255.5948370859027 M229.80098552331327 199.7721958555281 C229.69535874610395 215.34421865772455, 230.09068738704175 230.04723892696202, 230.0355310164392 254.91769453659654 M229.39400700367986 255.35207463108003 C226.0443686456606 255.66594598675817, 220.97798994645476 254.70441352034658, 212.70460022963584 255.3576847513765 M229.78786864798516 255.32750689167528 C223.16358381934464 255.01946922008395, 216.9426099571958 255.2229579073608, 213.14820197504014 255.2575371624902 M212.89385078698396 254.27133850306274 C212.64940843000264 242.19367801155894, 212.3445276679024 228.56488684378564, 212.5422456100583 199.73784312456846 M213.0616761647165 255.37014702931046 C213.05646723950656 239.51375262457879, 212.758181683667 224.0716076400131, 212.80444156751037 200.19890529289842" stroke="#3B7DD8" stroke-width="1.5" fill="none"/></g><g><path d="M236.5147869989276 225.68322523385285 L254.76526331156492 224.2253125503659 L254.26211871355773 254.932422144711 L237.349347345531 254.34571612626314" stroke="none" stroke-width="0" fill="#E3EDFA"/><path d="M236.32172203339636 224.48427407585083 C240.59712524536997 224.63001352635175, 243.28785354584454 225.47317206946164, 254.22746830500662 224.48255097471178 M236.91705575745553 225.03846813578159 C241.86063309326767 224.7550400952071, 247.30418399322778 224.7801151624888, 254.21225518863648 225.21021067161112 M253.41663130074738 225.20951837748288 C254.03335282303394 235.72124261893333, 254.45115577675404 245.5405275903642, 254.16120227128266 255.5948370859027 M253.80098552331327 224.7721958555281 C253.68207849682867 233.5286761302501, 254.07740713776647 241.4161538720131, 254.0355310164392 254.91769453659654 M253.39400700367986 255.35207463108003 C250.0443686456606 255.66594598675817, 244.97798994645476 254.70441352034658, 236.70460022963584 255.3576847513765 M253.78786864798516 255.32750689167528 C247.16358381934464 255.01946922008395, 240.9426099571958 255.2229579073608, 237.14820197504014 255.2575371624902 M236.89385078698396 254.27133850306274 C236.61825975309313 248.34346156977116, 236.3133789909929 240.86445396021008, 236.5422456100583 224.73784312456846 M237.0616761647165 255.37014702931046 C237.1068238785714 246.46833401285113, 236.80853832273183 237.9807704165578, 236.80444156751037 225.19890529289842" stroke="#3B7DD8" stroke-width="1.5" fill="none"/></g><g filter="url(#shadow)"><g><path d="M386.6830191130246 61.095072331135505 C466.9713012496575 61.317190679137155, 545.9122397094324 59.23462864307202, 611.5435557536065 57.31746681973696 C616.9519162476063 59.94918820261955, 618.4637286484242 61.44558808207512, 620.7072242081165 66.81974999308586 C617.4700034514486 91.1910449558869, 619.2190156355917 123.60533006675541, 619.078692215681 140.151943141222 C622.9148452460765 141.49487336277963, 616.8320947349072 146.6449487030506, 616.2473699271679 147.79375432133673 C555.6874512650922 146.72375792869775, 500.62875225924176 145.3047300634749, 384.08421839210087 147.3022444599743 C379.7592212021351 146.76664826273918, 377.8782906830311 145.1695605933666, 376.93129552006724 137.5660491645336 C381.5607880693376 124.80471361931414, 379.04521895465257 107.31996693126858, 377.871750420332 66.06453984379769 C377.5492486655712 59.38233578801155, 379.93082310557367 57.162129145860675, 384.60279995799067 58.95677216649055 C386 60, 386 60, 386 60" stroke="none" stroke-width="0" fill="#E0E8F8"/><path d="M384.6381716924622 58.96453932308282 C432.03238787383924 59.67326318873151, 476.24493627448265 61.36613429509957, 614.4567047612895 58.96107972683545 M385.83346677467654 60.0772352911711 C453.29504590787434 60.24760586496003, 521.7604585521128 60.29795091244647, 614.4261602743111 60.42205534786869 M614 60 C618.9285333484411 58.83326260149479, 620.4190367549658 62.123198953270915, 620.5615498393774 65.37229658663273 M615.3366733402014 60.9588048607111 C619.3681252975762 59.496239300221205, 620.4072609777749 62.334658170193435, 620.9998460932076 66.37076522395014 M621.4001003891229 66.24588335454465 C620.0358507937402 84.41010986622423, 619.4712217158288 101.86787580661475, 619.9479123741388 139.87821205556392 M620.7571195051074 65.71563103944064 C619.807326825109 81.04695780966432, 620.602227576223 97.49560177959502, 619.2342533990741 138.84582670480012 M620 139 C618.8949085086584 143.12862145006656, 618.68601616323 146.08621527254581, 613.0017348140478 146.5412089020014 M620.6974210590124 140.21193958818913 C620.6813183040917 142.75585681006314, 616.3240785570442 144.03602708384395, 613.0062406988442 144.04477390810848 M613.2187930622939 144.55260118885903 C524.6908866651314 146.87418416977698, 437.0088388148915 145.93884477271243, 387.2633911705597 145.57086640731382 M613.6662585710925 145.33945320497855 C555.797560309076 144.81669018177624, 499.0761905580219 143.5726480404712, 386.22366684190615 144.94233557280162 M386 145 C380.92626169621946 144.97833820879458, 380.7636767238379 142.43913637697696, 380.698694691062 137.69143225252628 M384.5520530551672 145.5530259758234 C382.3082204170525 144.86775154158474, 381.03466383650897 142.29805212542414, 380.8244108171761 138.61455590769648 M379.6845680862665 138.38609217107296 C381.4916314492732 110.76918018404395, 379.7072391877681 82.06963575072587, 380.3355905205011 66.8900151103735 M380.20270609110594 138.22572377473116 C379.00316009427013 123.62650686111301, 379.5445635309309 107.2545680847019, 380.5380980417132 66.13057153970003 M380 66 C381.4827491611242 61.38475662767887, 382.7871746867895 60.90930601656437, 386.8375857204199 59.10031038820743 M378.71072557866574 65.03440777361394 C381.1230113239586 60.79961880728602, 383.679446503669 58.162178607434036, 387.26228613570333 58.37405653521419 M386 60 C386 60, 386 60, 386 60 M386 60 C386 60, 386 60, 386 60" stroke="#326CE5" stroke-width="1.5" fill="none"/></g></g><g><path d="M399.6360902491957 180.51241892538965 L600.5739474836737 179.41898441277445 L600.1965890351682 197.94931660853325 L400.26201050914824 197.50928709469736" stroke="none" stroke-width="0" fill="#F0F0F0"/><path d="M399.4613830576034 179.59046477394688 C440.1917501219188 179.84861773083153, 479.6637352284682 180.51816546613458, 600.1806313767618 179.58909646845464 M399.934134416112 180.03054734296933 C459.20928760529415 180.05856209863126, 518.8814671548473 180.07847407680933, 600.1685507215923 180.16692718144637 M599.6062261280044 180.14142490480094 C600.0288686526083 186.48287082161755, 600.3108856463693 192.35692023117096, 600.1088115331158 198.40151503298432 M599.8656652282365 179.84623220248147 C599.781817318055 185.1434575604461, 600.0486641506881 189.85410620866344, 600.0239834360965 197.94444381220265 M599.5187841698204 198.27958060061613 C548.6962449704755 198.6888737058283, 496.5104513548198 197.92532586471688, 399.76542460623494 198.28403556744294 M599.8315476164133 198.26007148881934 C522.1478242717421 197.95926586194076, 444.7843680303863 198.12085515121424, 400.1176864037807 198.20450889730142 M399.9283492812142 197.50815348956735 C399.7339151905723 194.06031707983465, 399.52812067615463 189.56546746362, 399.69101578678936 179.82304410908372 M400.04163141118363 198.24984924478457 C400.0857024105832 192.867037783619, 399.8843596603915 187.7638446810655, 399.8679980580695 180.13426107270644" stroke="#CCC" stroke-width="1.5" fill="none"/></g><g><path d="M399.6360902491957 180.51241892538965 L600.5739474836737 179.41898441277445 L600.1965890351682 197.94931660853325 L400.26201050914824 197.50928709469736" stroke="none" stroke-width="0" fill="#D4644B"/><path d="M399.4613830576034 179.59046477394688 C440.1917501219188 179.84861773083153, 479.6637352284682 180.51816546613458, 600.1806313767618 179.58909646845464 M399.934134416112 180.03054734296933 C459.20928760529415 180.05856209863126, 518.8814671548473 180.07847407680933, 600.1685507215923 180.16692718144637 M599.6062261280044 180.14142490480094 C600.0288686526083 186.48287082161755, 600.3108856463693 192.35692023117096, 600.1088115331158 198.40151503298432 M599.8656652282365 179.84623220248147 C599.781817318055 185.1434575604461, 600.0486641506881 189.85410620866344, 600.0239834360965 197.94444381220265 M599.5187841698204 198.27958060061613 C548.6962449704755 198.6888737058283, 496.5104513548198 197.92532586471688, 399.76542460623494 198.28403556744294 M599.8315476164133 198.26007148881934 C522.1478242717421 197.95926586194076, 444.7843680303863 198.12085515121424, 400.1176864037807 198.20450889730142 M399.9283492812142 197.50815348956735 C399.7339151905723 194.06031707983465, 399.52812067615463 189.56546746362, 399.69101578678936 179.82304410908372 M400.04163141118363 198.24984924478457 C400.0857024105832 192.867037783619, 399.8843596603915 187.7638446810655, 399.8679980580695 180.13426107270644" stroke="#D4644B" stroke-width="1.5" fill="none"/></g><g filter="url(#shadow)"><g><path d="M741.6830191130247 56.095072331135505 C821.9713012496574 56.317190679137155, 900.9122397094324 54.23462864307202, 966.5435557536065 52.31746681973696 C971.9519162476063 54.94918820261955, 973.4637286484242 56.44558808207512, 975.7072242081165 61.819749993085864 C972.4304630227208 80.38683721460401, 974.1794752068639 106.99691458418965, 974.078692215681 120.151943141222 C977.9148452460765 121.49487336277961, 971.8320947349072 126.64494870305062, 971.2473699271679 127.79375432133675 C910.6874512650922 126.72375792869776, 855.6287522592418 125.3047300634749, 739.0842183921009 127.3022444599743 C734.7592212021351 126.76664826273918, 732.8782906830311 125.16956059336663, 731.9312955200672 117.56604916453361 C736.6963848916888 108.02005849443377, 734.1808157770038 93.75065668150783, 732.871750420332 61.06453984379768 C732.5492486655712 54.38233578801155, 734.9308231055736 52.162129145860675, 739.6027999579907 53.95677216649055 C741 55, 741 55, 741 55" stroke="none" stroke-width="0" fill="#FBEAE5"/><path d="M739.6381716924622 53.96453932308282 C787.0323878738393 54.67326318873151, 831.2449362744827 56.36613429509957, 969.4567047612895 53.96107972683545 M740.8334667746766 55.0772352911711 C808.2950459078744 55.24760586496003, 876.7604585521128 55.29795091244647, 969.4261602743111 55.42205534786869 M969 55 C973.9285333484411 53.83326260149479, 975.4190367549658 57.123198953270915, 975.5615498393774 60.37229658663273 M970.3366733402014 55.9588048607111 C974.3681252975762 54.496239300221205, 975.4072609777749 57.334658170193435, 975.9998460932076 61.370765223950144 M976.4001003891229 61.24588335454464 C975.0768555397451 75.65641415379942, 974.5122264618337 89.36048438176513, 974.9479123741388 119.87821205556392 M975.7571195051074 60.71563103944063 C974.7700483347594 72.88370706625284, 975.5649490858733 86.16910029277206, 974.2342533990741 118.84582670480013 M975 119 C973.8949085086584 123.12862145006656, 973.68601616323 126.08621527254581, 968.0017348140478 126.54120890200139 M975.6974210590124 120.21193958818913 C975.6813183040917 122.75585681006312, 971.3240785570442 124.03602708384395, 968.0062406988442 124.04477390810847 M968.2187930622939 124.55260118885903 C879.6908866651314 126.87418416977698, 792.0088388148915 125.93884477271243, 742.2633911705597 125.57086640731382 M968.6662585710925 125.33945320497854 C910.797560309076 124.81669018177627, 854.076190558022 123.5726480404712, 741.2236668419062 124.94233557280164 M741 125 C735.9262616962194 124.9783382087946, 735.7636767238379 122.43913637697696, 735.698694691062 117.69143225252628 M739.5520530551672 125.5530259758234 C737.3082204170526 124.86775154158472, 736.034663836509 122.29805212542415, 735.8244108171762 118.61455590769648 M734.6845680862665 118.38609217107296 C736.4430475616515 96.66658209897578, 734.6586553001463 73.86443958058953, 735.3355905205011 61.8900151103735 M735.2027060911059 118.22572377473116 C734.0666881669104 106.92593764774502, 734.6080916035712 93.8534296579659, 735.5380980417133 61.13057153970003 M735 61 C736.4827491611243 56.38475662767887, 737.7871746867895 55.90930601656437, 741.8375857204198 54.10031038820743 M733.7107255786657 60.03440777361393 C736.1230113239586 55.79961880728602, 738.679446503669 53.162178607434036, 742.2622861357033 53.37405653521419 M741 55 C741 55, 741 55, 741 55 M741 55 C741 55, 741 55, 741 55" stroke="#D4644B" stroke-width="1.5" fill="none"/></g></g><g filter="url(#shadow)"><g><path d="M751.7984154377294 166.2800851951816 C825.3390341097519 166.39304589607073, 897.3046749063141 163.95863425528898, 956.1285386150366 161.8642518745063 C961.8209057785571 164.942836727947, 963.2716947294772 166.3762865923345, 965.7956272341311 171.9222187422216 C962.0499602574691 182.26588113643228, 964.0175989646301 201.6579074472189, 963.9635287426412 210.29593603387474 C968.2792009018361 211.30673253312708, 961.6861065767705 216.85056729093193, 961.5282911680639 218.14297361150383 C905.6830359307926 216.83163823515503, 856.1696606721918 215.17286510193338, 748.7605464006838 217.69120948919067 C744.4791238524019 216.98747929558158, 742.61307701841 215.44075566753745, 741.5477074600756 207.38680531010033 C747.1118282366767 202.48877566270528, 744.281812982656 192.27690847963095, 742.6057192228734 171.07260732427238 C742.2429047487676 164.055127761513, 744.6721759937703 161.80739528909325, 749.4281499527394 163.82636868730188 C751 165, 751 165, 751 165" stroke="none" stroke-width="0" fill="#FFF5F3"/><path d="M749.2312114558874 163.65510874383165 C793.1449589475436 164.5236558577641, 832.9262489990189 166.72241395599806, 959.5931835498934 163.6506153035237 M750.7837010293179 165.1003158015357 C812.2486879233401 165.2292530464131, 875.0174876436173 165.29464289236793, 959.5535113398546 165.54817972292065 M959 165 C964.1606666855514 163.5415782518685, 965.5237959437072 167.15399869158864, 965.7019372992218 170.2153707332909 M960.6708416752517 166.19850607588887 C964.7101566219702 164.37029912527652, 965.5090762222186 167.4183227127418, 966.2498076165095 171.46345652993767 M966.7501254864037 171.3073541931808 C965.1644106680229 180.6870175536722, 964.4586243206337 189.18360520005226, 964.9348904676735 210.0977650694549 M965.9463993813843 170.6445387993008 C964.6504296011999 178.57915712296963, 965.6440555400923 187.91042194627227, 964.0428167488426 208.80728338100016 M965 209 C963.618635635823 213.1607768125832, 963.8575202040374 216.35776909068227, 957.7521685175598 216.92651112750173 M965.8717763237655 210.5149244852364 C965.8516478801146 212.6948210125789, 960.9050981963053 213.79503385480493, 957.7578008735552 213.8059673851356 M957.9853420770096 214.41890333207533 C877.4098803779405 217.3512728658716, 797.9330482927919 216.13642250534699, 752.6409350700451 215.74146054674173 M958.566525374102 215.44089327333333 C905.7429913770654 214.84921867019793, 854.4096463526707 213.2334147720457, 751.2905060391766 214.92510349677215 M751 215 C745.6578271202743 214.97292276099324, 745.9545959047973 212.2989204712212, 745.8733683638275 207.36429031565785 M749.190066318959 215.69128246977925 C747.3852755213156 214.8346894269809, 746.2933297956363 212.12256515678018, 746.0305135214701 208.5181948846206 M744.6057101078331 208.2326152138412 C746.7228363060281 194.64725202806295, 744.4923459791466 179.70859828442335, 745.4194881506264 172.11251888796687 M745.2533826138824 208.03215471841395 C743.9392403297052 201.49611286893486, 744.6159946255311 192.74416869096459, 745.6726225521415 171.16321442462504 M745 171 C746.8534364514053 166.2309457845986, 747.9839683584869 166.13663252070546, 752.0469821505249 163.8753879852593 M743.3884069733322 169.7930097170174 C746.4037641549482 165.49952350910752, 749.0993081295862 162.70272325929255, 752.5778576696291 162.96757066901773 M751 165 C751 165, 751 165, 751 165 M751 165 C751 165, 751 165, 751 165" stroke="#D4644B" stroke-width="1.5" fill="none"/></g></g></g><g id="layer-text"><text x="24" y="26" text-anchor="start" font-family="Inter, &quot;IBM Plex Sans&quot;, system-ui, sans-serif" font-size="10" font-weight="600" fill="#3B7DD8" letter-spacing="1">DOMAIN A — PAYMENT PROCESSING</text><text x="364" y="26" text-anchor="start" font-family="Inter, &quot;IBM Plex Sans&quot;, system-ui, sans-serif" font-size="10" font-weight="600" fill="#999" letter-spacing="1">SHARED INFRASTRUCTURE</text><text x="724" y="26" text-anchor="start" font-family="Inter, &quot;IBM Plex Sans&quot;, system-ui, sans-serif" font-size="10" font-weight="600" fill="#D4644B" letter-spacing="1">DOMAIN B — FRAUD DETECTION</text><text x="150" y="80.005" text-anchor="middle" font-family="Inter, &quot;IBM Plex Sans&quot;, system-ui, sans-serif" font-size="13" font-weight="700" fill="#3B7DD8" letter-spacing="0.2">Payment Processing</text><text x="150" y="101.55499999999999" text-anchor="middle" font-family="Inter, &quot;IBM Plex Sans&quot;, system-ui, sans-serif" font-size="10" font-weight="400" fill="#2A5FA4">All HPAs scaling out</text><text x="145" y="271" text-anchor="middle" font-family="Inter, &quot;IBM Plex Sans&quot;, system-ui, sans-serif" font-size="9" font-weight="600" fill="#3B7DD8">traffic spike: 3× normal ↑</text><text x="500" y="86.575" text-anchor="middle" font-family="Inter, &quot;IBM Plex Sans&quot;, system-ui, sans-serif" font-size="14" font-weight="700" fill="#326CE5" letter-spacing="0.5">Shared Node Pool</text><text x="500" y="109.47500000000001" text-anchor="middle" font-family="Inter, &quot;IBM Plex Sans&quot;, system-ui, sans-serif" font-size="11" font-weight="400" fill="#D4644B">Capacity: 100%</text><text x="500" y="125.42500000000001" text-anchor="middle" font-family="Inter, &quot;IBM Plex Sans&quot;, system-ui, sans-serif" font-size="11" font-weight="400" fill="#D4644B">Headroom: 0%</text><text x="500" y="193" text-anchor="middle" font-family="Inter, &quot;IBM Plex Sans&quot;, system-ui, sans-serif" font-size="9" font-weight="700" fill="#FFF">100% allocated</text><text x="855" y="74.39" text-anchor="middle" font-family="Inter, &quot;IBM Plex Sans&quot;, system-ui, sans-serif" font-size="13" font-weight="700" fill="#D4644B" letter-spacing="0.2">Fraud Detection</text><text x="855" y="95.94" text-anchor="middle" font-family="Inter, &quot;IBM Plex Sans&quot;, system-ui, sans-serif" font-size="11" font-weight="400" fill="#B04A33">Pods: Pending</text><text x="855" y="111.89" text-anchor="middle" font-family="Inter, &quot;IBM Plex Sans&quot;, system-ui, sans-serif" font-size="11" font-weight="400" fill="#B04A33">Latency: ↑↑↑</text><text x="855" y="183.135" text-anchor="middle" font-family="Inter, &quot;IBM Plex Sans&quot;, system-ui, sans-serif" font-size="11" font-weight="700" fill="#D4644B" letter-spacing="0.2">SLO VIOLATION</text><text x="855" y="201.98499999999999" text-anchor="middle" font-family="Inter, &quot;IBM Plex Sans&quot;, system-ui, sans-serif" font-size="10" font-weight="400" fill="#D4644B">p99 &gt; 500ms budget</text><text x="325" y="87" text-anchor="middle" font-family="Inter, &quot;IBM Plex Sans&quot;, system-ui, sans-serif" font-size="10" font-weight="500" fill="#888">saturates</text><text x="677.5" y="88.25" text-anchor="middle" font-family="Inter, &quot;IBM Plex Sans&quot;, system-ui, sans-serif" font-size="10" font-weight="500" fill="#888">starves</text><text x="550" y="358" text-anchor="middle" font-family="Inter, &quot;IBM Plex Sans&quot;, system-ui, sans-serif" font-size="12" font-weight="600" fill="#999">Domain B had no traffic event — degraded by proximity alone</text><text x="550" y="402" text-anchor="middle" font-family="Inter, &quot;IBM Plex Sans&quot;, system-ui, sans-serif" font-size="10" font-weight="400" fill="#BBB">Cascade propagation: scaling in one domain starves structurally unrelated domains</text></g></svg>