<?xml version="1.0" encoding="UTF-8"?>
<svg xmlns="http://www.w3.org/2000/svg" width="980" height="470" viewBox="-10 -10 980 470"><defs><filter id="shadow" x="-4%" y="-4%" width="112%" height="112%"><feFlood flood-color="#000000" flood-opacity="0.08" result="color"/><feComposite in="color" in2="SourceGraphic" operator="in" result="shadow"/><feGaussianBlur in="shadow" stdDeviation="3" result="blur"/><feOffset in="blur" dx="2" dy="3" result="offsetBlur"/><feMerge><feMergeNode in="offsetBlur"/><feMergeNode in="SourceGraphic"/></feMerge></filter><filter id="shadow-light" x="-4%" y="-4%" width="112%" height="112%"><feFlood flood-color="#000000" flood-opacity="0.04" result="color"/><feComposite in="color" in2="SourceGraphic" operator="in" result="shadow"/><feGaussianBlur in="shadow" stdDeviation="2" result="blur"/><feOffset in="blur" dx="1" dy="2" result="offsetBlur"/><feMerge><feMergeNode in="offsetBlur"/><feMergeNode in="SourceGraphic"/></feMerge></filter></defs><rect x="-10" y="-10" width="980" height="470" fill="#ffffff" rx="8"/><g id="layer-zones"><rect x="10" y="8" width="940" height="180" fill="#FDF6F4" rx="12" ry="12"/><rect x="10" y="230" width="940" height="180" fill="#E4F1EA" rx="12" ry="12"/></g><g id="layer-connectors"><g><path d="M221.00253240205348 80.74157952331007 C246.50544721196965 79.90276360232941, 269.68052680261064 79.94156974834017, 343.33451221324503 74.73904555104673 M221.87802317272872 81.5565707879141 C257.6494015999623 79.62207336885669, 294.1454514476024 77.87827172180452, 343.31213998328894 75.8091333406046" stroke="#7A7A7A" stroke-width="1.3" fill="none"/></g><polygon points="343,75.5 335.97300208336935,79.32378088803067 335.62918618097626,72.39016018977037" fill="#7A7A7A" stroke="none"/><g><path d="M221.00253240205348 137.24157952331007 C246.4898187493952 129.09587186715194, 269.6648983400362 121.82778627798521, 343.33451221324503 94.73904555104673 M221.87802317272872 138.0565707879141 C257.7137865109695 125.28962316404841, 294.2098363586096 112.71337131218797, 343.31213998328894 95.8091333406046" stroke="#3B7DD8" stroke-width="1.3" fill="none"/></g><polygon points="343,95.5 337.34982229405847,101.16352292228795 335.0492512993318,94.61366197259562" fill="#3B7DD8" stroke="none"/><g><path d="M566.0025324020535 74.74157952331007 C591.5048049463844 73.60248038033582, 614.6798845370254 73.34100330435298, 688.334512213245 67.23904555104673 M566.8780231727287 75.5565707879141 C602.652047555209 73.17690418235772, 639.1480974028492 70.98793334880658, 688.312139983289 68.3091333406046" stroke="#7A7A7A" stroke-width="1.3" fill="none"/></g><polygon points="688,68 681.0207920522378,71.91032689450535 680.5913183466531,64.98148444440638" fill="#7A7A7A" stroke="none"/><g><path d="M566.0025324020535 94.74157952331007 C591.5242870024704 102.71107144747488, 614.6993665931113 111.5581854386311, 688.334512213245 132.73904555104673 M566.8780231727287 95.5565707879141 C602.5717869127207 106.6803695061598, 639.0678367603608 117.99486399641074, 688.312139983289 133.8091333406046" stroke="#D4644B" stroke-width="1.3" fill="none"/></g><polygon points="688,133.5 680.0833792085544,134.65200488039437 682.1633939879018,128.0287999251043" fill="#D4644B" stroke="none"/><g><path d="M221.00253240205348 302.74157952331007 C246.50651765461174 302.4032356389854, 269.6815972452527 302.94251382165214, 343.33451221324503 299.23904555104673 M221.87802317272872 303.5565707879141 C257.6449916745508 302.3640220130216, 294.1410415221909 301.3621690101344, 343.31213998328894 300.3091333406046" stroke="#3B7DD8" stroke-width="1.3" fill="none"/></g><polygon points="343,300 335.89562336979094,303.6780202142103 335.6949016258777,296.7387827817828" fill="#3B7DD8" stroke="none"/><g><path d="M221.00253240205348 359.24157952331007 C246.4887483067531 350.5953998304959, 269.66382789739407 342.8268422046732, 343.33451221324503 314.23904555104673 M221.87802317272872 360.0565707879141 C257.718196436381 346.54767451988346, 294.2142462840211 333.2294740238581, 343.31213998328894 315.3091333406046" stroke="#BBB" stroke-width="1.3" fill="none"/></g><polygon points="343,315 337.45424387399765,320.7658120842521 335.03438420237904,314.2590783005665" fill="#BBB" stroke="none"/><g><path d="M566.0025324020535 299.24157952331007 C591.5037345037423 297.6020083436798, 614.6788140943833 296.840059231041, 688.334512213245 289.23904555104673 M566.8780231727287 300.0565707879141 C602.6564574806206 296.93495553819275, 639.1525073282608 294.00403606047666, 688.312139983289 290.3091333406046" stroke="#5FA384" stroke-width="1.3" fill="none"/></g><polygon points="688,290 681.102629239865,294.0529343193832 680.5308480241482,287.1343816092107" fill="#5FA384" stroke="none"/><g><path d="M566.0025324020535 314.24157952331007 C591.5221461171861 321.2101273741629, 614.6972257078271 329.0562972920071, 688.334512213245 347.23904555104673 M566.8780231727287 315.0565707879141 C602.5806067635435 324.69647221782986, 639.0766566111837 334.52706941975094, 688.312139983289 348.3091333406046" stroke="#BBB" stroke-width="1.3" fill="none"/></g><polygon points="688,348 680.1329237466739,349.45227794321625 681.9595215683057,342.7547525972327" fill="#BBB" stroke="none"/><line x1="30" y1="194" x2="930" y2="194" stroke="#D4644B" stroke-width="1.2" stroke-dasharray="6,3" stroke-linecap="round"/></g><g id="layer-boxes"><g filter="url(#shadow)"><g><path d="M36.8004409134388 49.28333260416984 C99.93153707496822 49.17599475921392, 161.48365984782575 46.73540733398199, 211.1212540924549 44.85629689097404 C216.95191624760628 47.94918820261955, 218.46372864842414 49.44558808207512, 220.70722420811654 54.819749993085864 C217.42255493697525 72.22599566634744, 219.1715671211183 97.6752314876765, 219.0786922156811 110.151943141222 C222.9148452460766 111.49487336277961, 216.83209473490714 116.64494870305062, 216.24736992716788 117.79375432133675 C168.29307182319462 116.56056333967447, 126.3993816651404 114.89758211561441, 33.75486519932747 117.69803673624992 C29.759221202135087 116.76664826273918, 27.878290683031082 115.16956059336663, 26.931295520067216 107.56604916453361 C31.723504256159067 98.66312746945769, 29.20793514147401 85.03679463155568, 27.871750420331956 54.06453984379768 C27.549248665571213 47.38233578801155, 29.930823105573655 45.162129145860675, 34.60279995799065 46.95677216649055 C36 48, 36 48, 36 48" stroke="none" stroke-width="0" fill="#EEEEEE"/><path d="M34.40405184328556 46.786527237296106 C72.08988053016364 47.49986879245639, 106.04706236645579 49.48377124683261, 214.53521954119205 46.782472881674764 M35.80483707636595 48.090513260662554 C88.39234890677035 48.08186807019114, 142.15626912340522 48.140868228501084, 214.4994239732623 48.49461334496736 M214 48 C218.92853334844114 46.83326260149479, 220.4190367549658 50.123198953270915, 220.5615498393774 53.37229658663273 M215.33667334020137 48.9588048607111 C219.3681252975762 47.496239300221205, 220.40726097777485 50.334658170193435, 220.9998460932076 54.370765223950144 M221.40010038912297 54.24588335454464 C220.08505648894607 67.90567501131446, 219.5204274110347 80.8590060967952, 219.94791237413884 109.87821205556392 M220.7571195051074 53.71563103944063 C219.76259263668956 65.25105691757054, 220.55749338780345 77.90379999540747, 219.23425339907408 108.84582670480013 M220 109 C218.8949085086584 113.12862145006656, 218.68601616322994 116.08621527254581, 213.0017348140478 116.54120890200139 M220.6974210590124 110.21193958818913 C220.6813183040917 112.75585681006312, 216.32407855704426 114.03602708384395, 213.00624069884418 114.04477390810847 M213.0844912201166 114.47568624913693 C144.15969115681946 117.00920575430989, 76.22616611793637 115.91306670477985, 37.48058811724186 115.66900738179683 M213.60888313502073 115.39781058579683 C168.39927729330958 114.98211687245966, 124.53424390032887 113.52420418897272, 36.26211871355772 114.93242214471101 M36 115 C30.926261696219445 114.9783382087946, 30.763676723837854 112.43913637697696, 30.698694691061974 107.69143225252628 M34.5520530551672 115.5530259758234 C32.30822041705251 114.86775154158472, 31.03466383650899 112.29805212542415, 30.824410817176105 108.61455590769648 M29.684568086266516 108.38609217107296 C31.433330784127115 87.84606248196215, 29.64893852262199 66.22340034656227, 30.335590520501135 54.8900151103735 M30.202706091105938 108.22572377473116 C29.07939378143847 97.58582380507141, 29.620797218099234 85.1732019726187, 30.538098041713237 54.13057153970003 M30 54 C31.48274916112423 49.38475662767887, 32.78717468678951 48.90930601656437, 36.83758572041988 47.10031038820743 M28.710725578665734 53.03440777361393 C31.123011323958636 48.79961880728602, 33.67944650366903 46.162178607434036, 37.26228613570333 46.37405653521419 M36 48 C36 48, 36 48, 36 48 M36 48 C36 48, 36 48, 36 48" stroke="#7A7A7A" stroke-width="1.5" fill="none"/></g></g><g><g><path d="M36.8004409134388 124.28333260416984 C99.93153707496822 124.17599475921394, 161.48365984782575 121.735407333982, 211.1212540924549 119.85629689097405 C216.95191624760628 122.94918820261955, 218.46372864842414 124.44558808207512, 220.70722420811654 129.81974999308585 C217.5972645429492 133.21455984301863, 219.17137550867795 143.93003582552075, 219.17082299411297 148.0367488270998 C222.9148452460766 149.49487336277963, 216.83209473490714 154.6449487030506, 216.24736992716788 155.79375432133673 C168.29307182319462 154.56056333967447, 126.3993816651404 152.8975821156144, 33.75486519932747 155.69803673624992 C29.759221202135087 154.76664826273918, 27.878290683031082 153.1695605933666, 26.931295520067216 145.5660491645336 C31.83590715748072 144.44903896026312, 29.571894954264167 138.93756364390254, 28.08457537829876 129.05808585941793 C27.549248665571213 122.38233578801155, 29.930823105573655 120.16212914586067, 34.60279995799065 121.95677216649055 C36 123, 36 123, 36 123" stroke="none" stroke-width="0" fill="#E3EDFA"/><path d="M34.40405184328556 121.7865272372961 C72.08988053016364 122.49986879245638, 106.04706236645579 124.4837712468326, 214.53521954119205 121.78247288167476 M35.80483707636595 123.09051326066256 C88.39234890677035 123.08186807019115, 142.15626912340522 123.14086822850109, 214.4994239732623 123.49461334496736 M214 123 C218.92853334844114 121.8332626014948, 220.4190367549658 125.12319895327092, 220.5615498393774 128.37229658663273 M215.33667334020137 123.9588048607111 C219.3681252975762 122.4962393002212, 220.40726097777485 125.33465817019344, 220.9998460932076 129.37076522395014 M221.26009035021067 129.22129501909018 C220.16266080666185 133.6323465140909, 219.6544946365416 137.40758349493146, 219.95312113672495 147.79039085000753 M220.68140755459666 128.74406793549656 C219.7080485432863 132.48312466464938, 220.42345921928882 137.2277668735385, 219.31082805916668 146.86124403432012 M220 147 C218.8949085086584 151.12862145006656, 218.68601616322994 154.08621527254581, 213.0017348140478 154.5412089020014 M220.6974210590124 148.21193958818913 C220.6813183040917 150.75585681006314, 216.32407855704426 152.03602708384395, 213.00624069884418 152.04477390810848 M213.0844912201166 152.4756862491369 C144.15969115681946 155.00920575430987, 76.22616611793637 153.91306670477985, 37.48058811724186 153.66900738179683 M213.60888313502073 153.39781058579683 C168.39927729330958 152.98211687245964, 124.53424390032887 151.5242041889727, 36.26211871355772 152.932422144711 M36 153 C30.926261696219445 152.97833820879458, 30.763676723837854 150.43913637697696, 30.698694691061974 145.69143225252628 M34.5520530551672 153.5530259758234 C32.30822041705251 152.86775154158474, 31.03466383650899 150.29805212542414, 30.824410817176105 146.61455590769648 M29.716111277639865 146.44748295396568 C31.18797154170871 140.3460002551228, 29.582018506354096 133.27014835461975, 30.302031468451023 129.80101359933616 M30.182435481995345 146.30315139725803 C29.304863355839252 143.65604607649146, 29.792126448833944 139.41349107921124, 30.484288237541914 129.11751438573003 M30 129 C31.48274916112423 124.38475662767887, 32.78717468678951 123.90930601656437, 36.83758572041988 122.10031038820743 M28.710725578665734 128.03440777361394 C31.123011323958636 123.79961880728602, 33.67944650366903 121.16217860743403, 37.26228613570333 121.37405653521418 M36 123 C36 123, 36 123, 36 123 M36 123 C36 123, 36 123, 36 123" stroke="#3B7DD8" stroke-width="1.5" fill="none"/></g></g><g filter="url(#shadow)"><g><path d="M351.70970261131504 54.13785350682811 C425.1009563172884 54.238263018729526, 497.0922296895192 52.074341560256855, 556.4475898800326 50.212668332894474 C561.9519162476063 52.94918820261955, 563.4637286484242 54.44558808207512, 565.7072242081165 59.819749993085864 C562.4172828798115 76.45210130084305, 564.1662950639546 101.12744275666773, 564.078692215681 113.151943141222 C567.9148452460765 114.49487336277961, 561.8320947349072 119.64494870305062, 561.2473699271679 120.79375432133675 C505.74353280347816 119.62812287569335, 455.8680334386066 118.15365786838522, 349.00937457838563 120.39218621261394 C344.7592212021351 119.76664826273918, 342.8782906830311 118.16956059336663, 341.93129552006724 110.56604916453361 C346.74158383247254 102.09184011947364, 344.2260147177875 88.89421993158759, 342.871750420332 59.06453984379768 C342.5492486655712 52.38233578801155, 344.93082310557367 50.162129145860675, 349.60279995799067 51.95677216649055 C351 53, 351 53, 351 53" stroke="none" stroke-width="0" fill="#E0E8F8"/><path d="M349.58496916470995 51.92408699506532 C393.0438218479906 52.618924686211294, 433.1967085791265 54.37793116479845, 559.4745468399148 51.920492242818966 M350.82696082345427 53.08025264122855 C412.3449757775768 53.18340243713048, 474.9060409927034 53.23571431389434, 559.4428090718837 53.43854377833652 M559 53 C563.9285333484411 51.83326260149479, 565.4190367549658 55.123198953270915, 565.5615498393774 58.37229658663273 M560.3366733402014 53.9588048607111 C564.3681252975762 52.496239300221205, 565.4072609777749 55.334658170193435, 565.9998460932076 59.370765223950144 M566.4001003891229 59.24588335454464 C565.0905237884134 72.40518224965781, 564.525894710502 84.85802057348192, 564.9479123741388 112.87821205556392 M565.7571195051074 58.71563103944063 C564.7576221713095 69.82929015178235, 565.5525229224235 82.06026646383107, 564.2342533990741 111.84582670480013 M565 112 C563.8949085086584 116.12862145006656, 563.68601616323 119.08621527254581, 558.0017348140478 119.54120890200139 M565.6974210590124 113.21193958818913 C565.6813183040917 115.75585681006312, 561.3240785570442 117.03602708384395, 558.0062406988442 117.04477390810847 M558.1882736616077 117.53512266566027 C477.48725473629804 119.88101829269728, 397.6651395021248 118.9091380042776, 352.31274805603607 118.59316843739339 M558.6532202992815 118.35271461866667 C505.85054364236186 117.87937493615834, 454.24001816355553 116.58673181763656, 351.23240483134134 117.94008279741772 M351 118 C345.92626169621946 117.9783382087946, 345.7636767238379 115.43913637697696, 345.698694691062 110.69143225252628 M349.5520530551672 118.5530259758234 C347.3082204170525 117.86775154158472, 346.03466383650897 115.29805212542415, 345.8244108171761 111.61455590769648 M344.6845680862665 111.38609217107296 C346.4268529324442 91.63238273728639, 344.6424606709391 70.79604085721076, 345.3355905205011 59.8900151103735 M345.20270609110594 111.22572377473116 C344.08786419112386 101.02574790995568, 344.6292676277846 89.05305018238724, 345.5380980417132 59.13057153970003 M345 59 C346.4827491611242 54.38475662767887, 347.7871746867895 53.90930601656437, 351.8375857204199 52.10031038820743 M343.71072557866574 58.03440777361393 C346.1230113239586 53.79961880728602, 348.679446503669 51.162178607434036, 352.26228613570333 51.37405653521419 M351 53 C351 53, 351 53, 351 53 M351 53 C351 53, 351 53, 351 53" stroke="#326CE5" stroke-width="1.5" fill="none"/></g></g><g><g><path d="M696.8004409134388 47.28333260416984 C766.8734922651201 47.32305150080919, 835.3675702281297 44.88246407557726, 891.1212540924549 42.85629689097404 C896.9519162476063 45.94918820261955, 898.4637286484242 47.44558808207512, 900.7072242081165 52.819749993085864 C897.3619262795925 61.32621046304703, 899.1109384637356 77.87566108107566, 899.078692215681 85.151943141222 C902.9148452460765 86.49487336277961, 896.8320947349072 91.64494870305062, 896.2473699271679 92.79375432133675 C843.2187937255949 91.74437768801451, 796.2508254699409 90.08139646395445, 693.7548651993275 92.69803673624992 C689.7592212021351 91.76664826273918, 687.8782906830311 90.16956059336663, 686.9312955200672 82.56604916453361 C691.9314193837643 78.59332294464112, 689.4158502690792 69.89718558192253, 687.871750420332 52.06453984379768 C687.5492486655712 45.38233578801155, 689.9308231055736 43.162129145860675, 694.6027999579907 44.95677216649055 C696 46, 696 46, 696 46" stroke="none" stroke-width="0" fill="#E8FFE8"/><path d="M694.4040518432855 44.786527237296106 C736.0936568234116 45.54675805841088, 774.0546149529516 47.5306605127871, 894.5352195411921 44.782472881674764 M695.804837076366 46.090513260662554 C754.3279380600899 46.16519013560414, 814.0274474300444 46.224190293914084, 894.4994239732623 46.49461334496736 M894 46 C898.9285333484411 44.83326260149479, 900.4190367549658 48.123198953270915, 900.5615498393774 51.37229658663273 M895.3366733402014 46.9588048607111 C899.3681252975762 45.496239300221205, 900.4072609777749 48.334658170193435, 900.9998460932076 52.370765223950144 M901.4001003891229 52.24588335454464 C900.1479304328203 60.15000825226307, 899.5833013549089 67.34767257869244, 899.9479123741388 84.87821205556392 M900.7571195051074 51.71563103944063 C899.7054322848201 58.40073911100626, 900.500333035934 66.20316438227893, 899.2342533990741 83.84582670480013 M900 84 C898.8949085086584 88.12862145006656, 898.68601616323 91.08621527254581, 893.0017348140478 91.54120890200139 M900.6974210590124 85.21193958818913 C900.6813183040917 87.75585681006312, 896.3240785570442 89.03602708384395, 893.0062406988442 89.04477390810847 M893.0844912201167 89.47568624913693 C816.3516865577549 92.08407789430022, 740.6101569198072 90.98793884477018, 697.4805881172418 90.66900738179683 M893.6088831350207 90.39781058579683 C843.3301188994199 89.9033406520784, 794.3959271125495 88.44542796859146, 696.2621187135577 89.93242214471101 M696 90 C690.9262616962194 89.9783382087946, 690.7636767238379 87.43913637697696, 690.698694691062 82.69143225252628 M694.5520530551672 90.5530259758234 C692.3082204170526 89.86775154158472, 691.034663836509 87.29805212542415, 690.8244108171762 83.61455590769648 M689.6845680862665 83.38609217107296 C691.3588354897738 71.88874541819096, 689.5744432282686 59.30876621901989, 690.3355905205011 52.8900151103735 M690.2027060911059 83.22572377473116 C689.1768034928202 77.64495101124048, 689.7182069294811 70.29145638495683, 690.5380980417133 52.13057153970003 M690 52 C691.4827491611243 47.38475662767887, 692.7871746867895 46.90930601656437, 696.8375857204198 45.10031038820743 M688.7107255786657 51.03440777361393 C691.1230113239586 46.79961880728602, 693.679446503669 44.162178607434036, 697.2622861357033 44.37405653521419 M696 46 C696 46, 696 46, 696 46 M696 46 C696 46, 696 46, 696 46" stroke="#7A7A7A" stroke-width="1.5" fill="none"/></g></g><g><g><path d="M696.9004960276186 106.44374917969108 C767.1420092504471 106.48843293841034, 835.6071774110198 103.74277208502441, 890.7614108540117 101.4633340023458 C896.8209057785571 104.942836727947, 898.2716947294772 106.37628659233451, 900.7956272341311 111.92221874222159 C897.0707189825512 124.97451141569763, 899.0383576897121 147.0751680057496, 898.9635287426412 157.29593603387474 C903.2792009018361 158.30673253312708, 896.6861065767705 163.85056729093193, 896.5282911680639 165.14297361150383 C843.1505620870739 163.96242489901633, 796.5910169452429 162.09157102194877, 693.4742233492434 165.03529132828118 C689.4791238524019 163.98747929558158, 687.61307701841 162.44075566753745, 686.5477074600756 154.38680531010033 C692.0406399049424 147.98828138764947, 689.2106246509217 136.2759199295193, 687.6057192228734 111.0726073242724 C687.2429047487676 104.05512776151299, 689.6721759937703 101.80739528909325, 694.4281499527394 103.82636868730188 C696 105, 696 105, 696 105" stroke="none" stroke-width="0" fill="#FFF5F3"/><path d="M694.005064804107 103.48315904662013 C736.2077247034758 104.43344757301361, 773.7495760396123 106.91332564098389, 894.6690244264901 103.47809110209346 M695.7560463454574 105.1131415758282 C754.2193394206464 105.20648766950518, 814.1531429786235 105.2802378673926, 894.6242799665779 105.6182666812092 M894 105 C899.1606666855514 103.54157825186849, 900.5237959437072 107.15399869158864, 900.7019372992218 110.21537073329091 M895.6708416752517 106.19850607588887 C899.7101566219702 104.3702991252765, 900.5090762222186 107.4183227127418, 901.2498076165095 111.46345652993769 M901.7501254864037 111.3073541931808 C900.1404912328534 122.43874221947044, 899.4347048854642 132.68705453164876, 899.9348904676735 157.0977650694549 M900.9463993813843 110.64453879930079 C899.6721753872372 120.05534080322832, 900.6658013261296 130.86278930678964, 899.0428167488426 155.80728338100016 M900 156 C898.618635635823 160.1607768125832, 898.8575202040374 163.35776909068227, 892.7521685175598 163.92651112750173 M900.8717763237655 157.5149244852364 C900.8516478801146 159.6948210125789, 895.9050981963053 160.79503385480493, 892.7578008735552 160.8059673851356 M892.8556140251458 161.34460781142116 C816.2644195798784 164.6050973678753, 740.9123189151287 163.23492355596275, 697.8507351465523 162.83625922724605 M893.5111039187759 162.49726323224604 C843.2088156491518 161.879175815098, 794.5872429404408 160.05678496073932, 696.3276483919472 161.91552768088877 M696 162 C690.6578271202743 161.97292276099324, 690.9545959047973 159.2989204712212, 690.8733683638275 154.36429031565785 M694.190066318959 162.69128246977925 C692.3852755213156 161.8346894269809, 691.2933297956363 159.12256515678018, 691.0305135214701 155.5181948846206 M689.6057101078331 155.2326152138412 C691.7511769071408 138.89513113442808, 689.5206865802594 121.20435649715364, 690.4194881506264 112.11251888796687 M690.2533826138824 155.03215471841395 C688.9021822873317 146.95637850183994, 689.5789365831577 136.6646999567747, 690.6726225521415 111.16321442462504 M690 111 C691.8534364514053 106.23094578459859, 692.9839683584869 106.13663252070546, 697.0469821505249 103.8753879852593 M688.3884069733322 109.79300971701741 C691.4037641549482 105.49952350910753, 694.0993081295862 102.70272325929254, 697.5778576696291 102.96757066901773 M696 105 C696 105, 696 105, 696 105 M696 105 C696 105, 696 105, 696 105" stroke="#D4644B" stroke-width="1.5" fill="none"/></g></g><g filter="url(#shadow)"><g><path d="M36.8004409134388 271.28333260416986 C99.93153707496822 271.1759947592139, 161.48365984782575 268.735407333982, 211.1212540924549 266.856296890974 C216.95191624760628 269.94918820261955, 218.46372864842414 271.4455880820751, 220.70722420811654 276.81974999308585 C217.42255493697525 294.22599566634744, 219.1715671211183 319.6752314876765, 219.0786922156811 332.151943141222 C222.9148452460766 333.49487336277963, 216.83209473490714 338.6449487030506, 216.24736992716788 339.79375432133673 C168.29307182319462 338.5605633396745, 126.3993816651404 336.89758211561445, 33.75486519932747 339.69803673624995 C29.759221202135087 338.7666482627392, 27.878290683031082 337.1695605933666, 26.931295520067216 329.56604916453364 C31.723504256159067 320.66312746945766, 29.20793514147401 307.03679463155567, 27.871750420331956 276.06453984379766 C27.549248665571213 269.3823357880116, 29.930823105573655 267.16212914586066, 34.60279995799065 268.95677216649057 C36 270, 36 270, 36 270" stroke="none" stroke-width="0" fill="#E3EDFA"/><path d="M34.40405184328556 268.7865272372961 C72.08988053016364 269.49986879245637, 106.04706236645579 271.4837712468326, 214.53521954119205 268.7824728816748 M35.80483707636595 270.09051326066253 C88.39234890677035 270.08186807019115, 142.15626912340522 270.14086822850106, 214.4994239732623 270.4946133449674 M214 270 C218.92853334844114 268.83326260149477, 220.4190367549658 272.1231989532709, 220.5615498393774 275.37229658663273 M215.33667334020137 270.9588048607111 C219.3681252975762 269.4962393002212, 220.40726097777485 272.33465817019345, 220.9998460932076 276.3707652239502 M221.40010038912297 276.2458833545446 C220.08505648894607 289.90567501131443, 219.5204274110347 302.8590060967952, 219.94791237413884 331.87821205556395 M220.7571195051074 275.7156310394406 C219.76259263668956 287.2510569175705, 220.55749338780345 299.90379999540744, 219.23425339907408 330.8458267048001 M220 331 C218.8949085086584 335.1286214500666, 218.68601616322994 338.0862152725458, 213.0017348140478 338.54120890200136 M220.6974210590124 332.2119395881891 C220.6813183040917 334.7558568100631, 216.32407855704426 336.0360270838439, 213.00624069884418 336.0447739081085 M213.0844912201166 336.4756862491369 C144.15969115681946 339.0092057543099, 76.22616611793637 337.9130667047799, 37.48058811724186 337.66900738179686 M213.60888313502073 337.39781058579683 C168.39927729330958 336.98211687245964, 124.53424390032887 335.5242041889727, 36.26211871355772 336.93242214471104 M36 337 C30.926261696219445 336.9783382087946, 30.763676723837854 334.439136376977, 30.698694691061974 329.6914322525263 M34.5520530551672 337.5530259758234 C32.30822041705251 336.8677515415847, 31.03466383650899 334.29805212542414, 30.824410817176105 330.6145559076965 M29.684568086266516 330.38609217107296 C31.433330784127115 309.8460624819621, 29.64893852262199 288.22340034656224, 30.335590520501135 276.8900151103735 M30.202706091105938 330.22572377473114 C29.07939378143847 319.5858238050714, 29.620797218099234 307.1732019726187, 30.538098041713237 276.13057153970004 M30 276 C31.48274916112423 271.3847566276789, 32.78717468678951 270.90930601656436, 36.83758572041988 269.10031038820745 M28.710725578665734 275.0344077736139 C31.123011323958636 270.79961880728604, 33.67944650366903 268.16217860743404, 37.26228613570333 268.3740565352142 M36 270 C36 270, 36 270, 36 270 M36 270 C36 270, 36 270, 36 270" stroke="#3B7DD8" stroke-width="1.5" fill="none"/></g></g><g><g><path d="M36.8004409134388 346.28333260416986 C99.93153707496822 346.1759947592139, 161.48365984782575 343.735407333982, 211.1212540924549 341.856296890974 C216.95191624760628 344.94918820261955, 218.46372864842414 346.4455880820751, 220.70722420811654 351.81974999308585 C217.5972645429492 355.21455984301866, 219.17137550867795 365.93003582552075, 219.17082299411297 370.0367488270998 C222.9148452460766 371.49487336277963, 216.83209473490714 376.6449487030506, 216.24736992716788 377.79375432133673 C168.29307182319462 376.5605633396745, 126.3993816651404 374.89758211561445, 33.75486519932747 377.69803673624995 C29.759221202135087 376.7666482627392, 27.878290683031082 375.1695605933666, 26.931295520067216 367.56604916453364 C31.83590715748072 366.4490389602631, 29.571894954264167 360.93756364390254, 28.08457537829876 351.05808585941793 C27.549248665571213 344.3823357880116, 29.930823105573655 342.16212914586066, 34.60279995799065 343.95677216649057 C36 345, 36 345, 36 345" stroke="none" stroke-width="0" fill="#EEEEEE"/><path d="M34.40405184328556 343.7865272372961 C72.08988053016364 344.49986879245637, 106.04706236645579 346.4837712468326, 214.53521954119205 343.7824728816748 M35.80483707636595 345.09051326066253 C88.39234890677035 345.08186807019115, 142.15626912340522 345.14086822850106, 214.4994239732623 345.4946133449674 M214 345 C218.92853334844114 343.83326260149477, 220.4190367549658 347.1231989532709, 220.5615498393774 350.37229658663273 M215.33667334020137 345.9588048607111 C219.3681252975762 344.4962393002212, 220.40726097777485 347.33465817019345, 220.9998460932076 351.3707652239502 M221.26009035021067 351.2212950190902 C220.16266080666185 355.6323465140909, 219.6544946365416 359.4075834949315, 219.95312113672495 369.79039085000755 M220.68140755459666 350.74406793549656 C219.7080485432863 354.4831246646493, 220.42345921928882 359.2277668735385, 219.31082805916668 368.8612440343201 M220 369 C218.8949085086584 373.1286214500666, 218.68601616322994 376.0862152725458, 213.0017348140478 376.54120890200136 M220.6974210590124 370.2119395881891 C220.6813183040917 372.7558568100631, 216.32407855704426 374.0360270838439, 213.00624069884418 374.0447739081085 M213.0844912201166 374.4756862491369 C144.15969115681946 377.0092057543099, 76.22616611793637 375.9130667047799, 37.48058811724186 375.66900738179686 M213.60888313502073 375.39781058579683 C168.39927729330958 374.98211687245964, 124.53424390032887 373.5242041889727, 36.26211871355772 374.93242214471104 M36 375 C30.926261696219445 374.9783382087946, 30.763676723837854 372.439136376977, 30.698694691061974 367.6914322525263 M34.5520530551672 375.5530259758234 C32.30822041705251 374.8677515415847, 31.03466383650899 372.29805212542414, 30.824410817176105 368.6145559076965 M29.716111277639865 368.4474829539657 C31.18797154170871 362.3460002551228, 29.582018506354096 355.2701483546198, 30.302031468451023 351.80101359933616 M30.182435481995345 368.30315139725803 C29.304863355839252 365.65604607649146, 29.792126448833944 361.4134910792112, 30.484288237541914 351.11751438573003 M30 351 C31.48274916112423 346.3847566276789, 32.78717468678951 345.90930601656436, 36.83758572041988 344.10031038820745 M28.710725578665734 350.0344077736139 C31.123011323958636 345.79961880728604, 33.67944650366903 343.16217860743404, 37.26228613570333 343.3740565352142 M36 345 C36 345, 36 345, 36 345 M36 345 C36 345, 36 345, 36 345" stroke="#7A7A7A" stroke-width="1.5" fill="none"/></g></g><g filter="url(#shadow)"><g><path d="M351.70970261131504 276.1378535068281 C425.1009563172884 276.2382630187295, 497.0922296895192 274.07434156025687, 556.4475898800326 272.21266833289445 C561.9519162476063 274.94918820261955, 563.4637286484242 276.4455880820751, 565.7072242081165 281.81974999308585 C562.4041027369022 296.5173653870821, 564.1531149210454 319.2579709291458, 564.078692215681 330.151943141222 C567.9148452460765 331.49487336277963, 561.8320947349072 336.6449487030506, 561.2473699271679 337.79375432133673 C505.74353280347816 336.62812287569335, 455.8680334386066 335.1536578683852, 349.00937457838563 337.3921862126139 C344.7592212021351 336.7666482627392, 342.8782906830311 335.1695605933666, 341.93129552006724 327.56604916453364 C346.7867827732563 320.1636217445135, 344.27121365857124 308.0377831816673, 342.871750420332 281.06453984379766 C342.5492486655712 274.3823357880116, 344.93082310557367 272.16212914586066, 349.60279995799067 273.95677216649057 C351 275, 351 275, 351 275" stroke="none" stroke-width="0" fill="#E0E8F8"/><path d="M349.58496916470995 273.9240869950653 C393.0438218479906 274.6189246862113, 433.1967085791265 276.37793116479844, 559.4745468399148 273.92049224281897 M350.82696082345427 275.0802526412285 C412.3449757775768 275.18340243713044, 474.9060409927034 275.23571431389433, 559.4428090718837 275.4385437783365 M559 275 C563.9285333484411 273.83326260149477, 565.4190367549658 277.1231989532709, 565.5615498393774 280.37229658663273 M560.3366733402014 275.9588048607111 C564.3681252975762 274.4962393002212, 565.4072609777749 277.33465817019345, 565.9998460932076 281.3707652239502 M566.4001003891229 281.2458833545446 C565.1041920370817 293.1539503455162, 564.5395629591703 304.35555676519874, 564.9479123741388 329.87821205556395 M565.7571195051074 280.7156310394406 C564.7451960078597 290.7748732373118, 565.5400967589736 301.95143263489007, 564.2342533990741 328.8458267048001 M565 329 C563.8949085086584 333.1286214500666, 563.68601616323 336.0862152725458, 558.0017348140478 336.54120890200136 M565.6974210590124 330.2119395881891 C565.6813183040917 332.7558568100631, 561.3240785570442 334.0360270838439, 558.0062406988442 334.0447739081085 M558.1882736616077 334.53512266566025 C477.48725473629804 336.8810182926973, 397.6651395021248 335.9091380042776, 352.31274805603607 335.5931684373934 M558.6532202992815 335.35271461866665 C505.85054364236186 334.87937493615834, 454.24001816355553 333.5867318176366, 351.23240483134134 334.94008279741774 M351 335 C345.92626169621946 334.9783382087946, 345.7636767238379 332.439136376977, 345.698694691062 327.6914322525263 M349.5520530551672 335.5530259758234 C347.3082204170525 334.8677515415847, 346.03466383650897 332.29805212542414, 345.8244108171761 328.6145559076965 M344.6845680862665 328.38609217107296 C346.41065830323697 310.598183375597, 344.62626604173187 291.727642133832, 345.3355905205011 281.8900151103735 M345.20270609110594 328.22572377473114 C344.1090402153373 319.12555817216634, 344.65044365199805 308.25267070680854, 345.5380980417132 281.13057153970004 M345 281 C346.4827491611242 276.3847566276789, 347.7871746867895 275.90930601656436, 351.8375857204199 274.10031038820745 M343.71072557866574 280.0344077736139 C346.1230113239586 275.79961880728604, 348.679446503669 273.16217860743404, 352.26228613570333 273.3740565352142 M351 275 C351 275, 351 275, 351 275 M351 275 C351 275, 351 275, 351 275" stroke="#326CE5" stroke-width="1.5" fill="none"/></g></g><g><g><path d="M696.8004409134388 269.28333260416986 C766.8734922651201 269.3230515008092, 835.3675702281297 266.8824640755773, 891.1212540924549 264.856296890974 C896.9519162476063 267.94918820261955, 898.4637286484242 269.4455880820751, 900.7072242081165 274.81974999308585 C897.3619262795925 283.326210463047, 899.1109384637356 299.8756610810757, 899.078692215681 307.151943141222 C902.9148452460765 308.49487336277963, 896.8320947349072 313.6449487030506, 896.2473699271679 314.79375432133673 C843.2187937255949 313.74437768801454, 796.2508254699409 312.0813964639545, 693.7548651993275 314.69803673624995 C689.7592212021351 313.7666482627392, 687.8782906830311 312.1695605933666, 686.9312955200672 304.56604916453364 C691.9314193837643 300.5933229446411, 689.4158502690792 291.89718558192254, 687.871750420332 274.06453984379766 C687.5492486655712 267.3823357880116, 689.9308231055736 265.16212914586066, 694.6027999579907 266.95677216649057 C696 268, 696 268, 696 268" stroke="none" stroke-width="0" fill="#E8FFE8"/><path d="M694.4040518432855 266.7865272372961 C736.0936568234116 267.5467580584109, 774.0546149529516 269.5306605127871, 894.5352195411921 266.7824728816748 M695.804837076366 268.09051326066253 C754.3279380600899 268.1651901356042, 814.0274474300444 268.2241902939141, 894.4994239732623 268.4946133449674 M894 268 C898.9285333484411 266.83326260149477, 900.4190367549658 270.1231989532709, 900.5615498393774 273.37229658663273 M895.3366733402014 268.9588048607111 C899.3681252975762 267.4962393002212, 900.4072609777749 270.33465817019345, 900.9998460932076 274.3707652239502 M901.4001003891229 274.2458833545446 C900.1479304328203 282.15000825226304, 899.5833013549089 289.3476725786924, 899.9479123741388 306.87821205556395 M900.7571195051074 273.7156310394406 C899.7054322848201 280.40073911100626, 900.500333035934 288.2031643822789, 899.2342533990741 305.8458267048001 M900 306 C898.8949085086584 310.1286214500666, 898.68601616323 313.0862152725458, 893.0017348140478 313.54120890200136 M900.6974210590124 307.2119395881891 C900.6813183040917 309.7558568100631, 896.3240785570442 311.0360270838439, 893.0062406988442 311.0447739081085 M893.0844912201167 311.4756862491369 C816.3516865577549 314.0840778943002, 740.6101569198072 312.9879388447702, 697.4805881172418 312.66900738179686 M893.6088831350207 312.39781058579683 C843.3301188994199 311.9033406520784, 794.3959271125495 310.44542796859145, 696.2621187135577 311.93242214471104 M696 312 C690.9262616962194 311.9783382087946, 690.7636767238379 309.439136376977, 690.698694691062 304.6914322525263 M694.5520530551672 312.5530259758234 C692.3082204170526 311.8677515415847, 691.034663836509 309.29805212542414, 690.8244108171762 305.6145559076965 M689.6845680862665 305.38609217107296 C691.3588354897738 293.8887454181909, 689.5744432282686 281.30876621901984, 690.3355905205011 274.8900151103735 M690.2027060911059 305.22572377473114 C689.1768034928202 299.6449510112405, 689.7182069294811 292.29145638495686, 690.5380980417133 274.13057153970004 M690 274 C691.4827491611243 269.3847566276789, 692.7871746867895 268.90930601656436, 696.8375857204198 267.10031038820745 M688.7107255786657 273.0344077736139 C691.1230113239586 268.79961880728604, 693.679446503669 266.16217860743404, 697.2622861357033 266.3740565352142 M696 268 C696 268, 696 268, 696 268 M696 268 C696 268, 696 268, 696 268" stroke="#5FA384" stroke-width="1.5" fill="none"/></g></g><g><g><path d="M696.8004409134388 328.28333260416986 C766.8734922651201 328.3230515008092, 835.3675702281297 325.8824640755773, 891.1212540924549 323.856296890974 C896.9519162476063 326.94918820261955, 898.4637286484242 328.4455880820751, 900.7072242081165 333.81974999308585 C897.3566542224288 341.55231609754264, 899.1056664065719 357.3278723500669, 899.078692215681 364.151943141222 C902.9148452460765 365.49487336277963, 896.8320947349072 370.6449487030506, 896.2473699271679 371.79375432133673 C843.2187937255949 370.74437768801454, 796.2508254699409 369.0813964639545, 693.7548651993275 371.69803673624995 C689.7592212021351 370.7666482627392, 687.8782906830311 369.1695605933666, 686.9312955200672 361.56604916453364 C691.9494989600778 358.02203559465704, 689.4339298453928 349.7546108819544, 687.871750420332 333.06453984379766 C687.5492486655712 326.3823357880116, 689.9308231055736 324.16212914586066, 694.6027999579907 325.95677216649057 C696 327, 696 327, 696 327" stroke="none" stroke-width="0" fill="#F8F8F8"/><path d="M694.4040518432855 325.7865272372961 C736.0936568234116 326.5467580584109, 774.0546149529516 328.5306605127871, 894.5352195411921 325.7824728816748 M695.804837076366 327.09051326066253 C754.3279380600899 327.1651901356042, 814.0274474300444 327.2241902939141, 894.4994239732623 327.4946133449674 M894 327 C898.9285333484411 325.83326260149477, 900.4190367549658 329.1231989532709, 900.5615498393774 332.37229658663273 M895.3366733402014 327.9588048607111 C899.3681252975762 326.4962393002212, 900.4072609777749 329.33465817019345, 900.9998460932076 333.3707652239502 M901.4001003891229 333.2458833545446 C900.1533977322877 340.6495154906064, 899.5887686543763 347.34668705537916, 899.9479123741388 363.87821205556395 M900.7571195051074 332.7156310394406 C899.7004618194401 338.97897234521804, 900.495362570554 346.3596308507025, 899.2342533990741 362.8458267048001 M900 363 C898.8949085086584 367.1286214500666, 898.68601616323 370.0862152725458, 893.0017348140478 370.54120890200136 M900.6974210590124 364.2119395881891 C900.6813183040917 366.7558568100631, 896.3240785570442 368.0360270838439, 893.0062406988442 368.0447739081085 M893.0844912201167 368.4756862491369 C816.3516865577549 371.0840778943002, 740.6101569198072 369.9879388447702, 697.4805881172418 369.66900738179686 M893.6088831350207 369.39781058579683 C843.3301188994199 368.9033406520784, 794.3959271125495 367.44542796859145, 696.2621187135577 368.93242214471104 M696 369 C690.9262616962194 368.9783382087946, 690.7636767238379 366.439136376977, 690.698694691062 361.6914322525263 M694.5520530551672 369.5530259758234 C692.3082204170526 368.8677515415847, 691.034663836509 366.29805212542414, 690.8244108171762 362.6145559076965 M689.6845680862665 362.38609217107296 C691.3523576380909 351.6750656735152, 689.5679653765857 339.88140672966836, 690.3355905205011 333.8900151103735 M690.2027060911059 362.22572377473114 C689.1852739025056 357.08487511612475, 689.7266773391665 350.17130459472537, 690.5380980417133 333.13057153970004 M690 333 C691.4827491611243 328.3847566276789, 692.7871746867895 327.90930601656436, 696.8375857204198 326.10031038820745 M688.7107255786657 332.0344077736139 C691.1230113239586 327.79961880728604, 693.679446503669 325.16217860743404, 697.2622861357033 325.3740565352142 M696 327 C696 327, 696 327, 696 327 M696 327 C696 327, 696 327, 696 327" stroke="#7A7A7A" stroke-width="1.5" fill="none"/></g></g></g><g id="layer-text"><text x="24" y="26" text-anchor="start" font-family="Inter, &quot;IBM Plex Sans&quot;, system-ui, sans-serif" font-size="10" font-weight="600" fill="#C97755" letter-spacing="1">WHAT HPA DOES (NO PRIORITY AWARENESS)</text><text x="24" y="248" text-anchor="start" font-family="Inter, &quot;IBM Plex Sans&quot;, system-ui, sans-serif" font-size="10" font-weight="600" fill="#3D7A5E" letter-spacing="1">WHAT SHOULD HAPPEN (PRIORITY-AWARE)</text><text x="125" y="67.07" text-anchor="middle" font-family="Inter, &quot;IBM Plex Sans&quot;, system-ui, sans-serif" font-size="12" font-weight="700" fill="#7A7A7A" letter-spacing="0.2">D5 Platform</text><text x="125" y="87.27" text-anchor="middle" font-family="Inter, &quot;IBM Plex Sans&quot;, system-ui, sans-serif" font-size="10" font-weight="400" fill="#777">Internal tooling</text><text x="125" y="101.77" text-anchor="middle" font-family="Inter, &quot;IBM Plex Sans&quot;, system-ui, sans-serif" font-size="10" font-weight="400" fill="#777">Priority: P3</text><text x="125" y="140.42" text-anchor="middle" font-family="Inter, &quot;IBM Plex Sans&quot;, system-ui, sans-serif" font-size="11" font-weight="700" fill="#3B7DD8" letter-spacing="0.2">D1 Payment (P0)</text><text x="455" y="78.005" text-anchor="middle" font-family="Inter, &quot;IBM Plex Sans&quot;, system-ui, sans-serif" font-size="13" font-weight="700" fill="#326CE5" letter-spacing="0.2">Node Capacity</text><text x="455" y="99.55499999999999" text-anchor="middle" font-family="Inter, &quot;IBM Plex Sans&quot;, system-ui, sans-serif" font-size="10" font-weight="400" fill="#5577AA">Limited availability</text><text x="795" y="60.96" text-anchor="middle" font-family="Inter, &quot;IBM Plex Sans&quot;, system-ui, sans-serif" font-size="12" font-weight="700" fill="#7A7A7A" letter-spacing="0.2">D5: Scheduled ✓</text><text x="795" y="81.16" text-anchor="middle" font-family="Inter, &quot;IBM Plex Sans&quot;, system-ui, sans-serif" font-size="9" font-weight="400" fill="#5FA384">Got nodes first</text><text x="795" y="119.935" text-anchor="middle" font-family="Inter, &quot;IBM Plex Sans&quot;, system-ui, sans-serif" font-size="12" font-weight="700" fill="#D4644B" letter-spacing="0.2">D1: Pending ✗</text><text x="795" y="140.135" text-anchor="middle" font-family="Inter, &quot;IBM Plex Sans&quot;, system-ui, sans-serif" font-size="9" font-weight="400" fill="#D4644B">Stuck waiting for nodes</text><text x="795" y="153.185" text-anchor="middle" font-family="Inter, &quot;IBM Plex Sans&quot;, system-ui, sans-serif" font-size="9" font-weight="400" fill="#D4644B">Revenue impact</text><text x="282.5" y="70.5" text-anchor="middle" font-family="Inter, &quot;IBM Plex Sans&quot;, system-ui, sans-serif" font-size="10" font-weight="500" fill="#888">requests first</text><text x="125" y="289.07" text-anchor="middle" font-family="Inter, &quot;IBM Plex Sans&quot;, system-ui, sans-serif" font-size="12" font-weight="700" fill="#3B7DD8" letter-spacing="0.2">D1 Payment</text><text x="125" y="309.27" text-anchor="middle" font-family="Inter, &quot;IBM Plex Sans&quot;, system-ui, sans-serif" font-size="10" font-weight="400" fill="#2A5FA4">Auth &amp; checkout</text><text x="125" y="323.77" text-anchor="middle" font-family="Inter, &quot;IBM Plex Sans&quot;, system-ui, sans-serif" font-size="10" font-weight="400" fill="#2A5FA4">Priority: P0</text><text x="125" y="362.2" text-anchor="middle" font-family="Inter, &quot;IBM Plex Sans&quot;, system-ui, sans-serif" font-size="10" font-weight="700" fill="#7A7A7A" letter-spacing="0.2">D5 Platform (P3)</text><text x="455" y="297.505" text-anchor="middle" font-family="Inter, &quot;IBM Plex Sans&quot;, system-ui, sans-serif" font-size="13" font-weight="700" fill="#326CE5" letter-spacing="0.2">Node Capacity</text><text x="455" y="319.055" text-anchor="middle" font-family="Inter, &quot;IBM Plex Sans&quot;, system-ui, sans-serif" font-size="10" font-weight="400" fill="#5577AA">Priority-aware allocation</text><text x="795" y="282.96" text-anchor="middle" font-family="Inter, &quot;IBM Plex Sans&quot;, system-ui, sans-serif" font-size="12" font-weight="700" fill="#5FA384" letter-spacing="0.2">D1: Scheduled ✓</text><text x="795" y="303.15999999999997" text-anchor="middle" font-family="Inter, &quot;IBM Plex Sans&quot;, system-ui, sans-serif" font-size="9" font-weight="400" fill="#5FA384">SLO protected</text><text x="795" y="341.27500000000003" text-anchor="middle" font-family="Inter, &quot;IBM Plex Sans&quot;, system-ui, sans-serif" font-size="11" font-weight="700" fill="#7A7A7A" letter-spacing="0.2">D5: Deferred (OK)</text><text x="795" y="360.12500000000006" text-anchor="middle" font-family="Inter, &quot;IBM Plex Sans&quot;, system-ui, sans-serif" font-size="9" font-weight="400" fill="#999">Non-critical, can wait</text><text x="282.5" y="293.75" text-anchor="middle" font-family="Inter, &quot;IBM Plex Sans&quot;, system-ui, sans-serif" font-size="10" font-weight="500" fill="#888">priority: P0</text><rect x="390.8" y="200.25" width="178.4" height="15" fill="white" opacity="0.75" rx="4"/><text x="480" y="210" text-anchor="middle" font-family="Inter, &quot;IBM Plex Sans&quot;, system-ui, sans-serif" font-size="10" font-weight="600" fill="#D4644B">No priority awareness in HPA</text><text x="480" y="432" text-anchor="middle" font-family="Inter, &quot;IBM Plex Sans&quot;, system-ui, sans-serif" font-size="11" font-weight="600" fill="#999">Priority exists in runbooks, not in the autoscaler</text></g></svg>