<?xml version="1.0" encoding="UTF-8"?>
<svg xmlns="http://www.w3.org/2000/svg" width="1100" height="400" viewBox="-10 -10 1100 400"><defs><filter id="shadow" x="-4%" y="-4%" width="112%" height="112%"><feFlood flood-color="#000000" flood-opacity="0.08" result="color"/><feComposite in="color" in2="SourceGraphic" operator="in" result="shadow"/><feGaussianBlur in="shadow" stdDeviation="3" result="blur"/><feOffset in="blur" dx="2" dy="3" result="offsetBlur"/><feMerge><feMergeNode in="offsetBlur"/><feMergeNode in="SourceGraphic"/></feMerge></filter><filter id="shadow-light" x="-4%" y="-4%" width="112%" height="112%"><feFlood flood-color="#000000" flood-opacity="0.04" result="color"/><feComposite in="color" in2="SourceGraphic" operator="in" result="shadow"/><feGaussianBlur in="shadow" stdDeviation="2" result="blur"/><feOffset in="blur" dx="1" dy="2" result="offsetBlur"/><feMerge><feMergeNode in="offsetBlur"/><feMergeNode in="SourceGraphic"/></feMerge></filter></defs><rect x="-10" y="-10" width="1100" height="400" fill="#ffffff" rx="8"/><g id="layer-zones"><rect x="10" y="8" width="280" height="275" fill="#FDF6F4" rx="12" ry="12"/><rect x="340" y="8" width="180" height="275" fill="#EDF0F6" rx="12" ry="12"/><rect x="570" y="8" width="500" height="275" fill="#F4F5F8" rx="12" ry="12"/></g><g id="layer-connectors"><g><path d="M96.20856213183049 89.3982333997783 C148.69517662015815 101.8551593262775, 199.31235421381584 114.85031435509885, 354.26541777745194 149.39622282659255 M96.90321782848847 90.04488593301635 C172.97292537460973 108.010579362602, 249.7099961607741 125.84660526640063, 354.24766659433675 150.24528098213105" stroke="#AAB5CC" stroke-width="0.8" fill="none"/></g><polygon points="354,150 346.19185095465696,151.74149604814613 347.7701422618013,144.98114828254452" fill="#AAB5CC" stroke="none"/><g><path d="M180.00253240205348 89.24157952331007 C215.94352526016533 101.69142042722366, 249.52842321325093 114.94268834095261, 354.33451221324503 149.23904555104673 M180.87802317272872 90.0565707879141 C231.9655113677308 107.84491593110748, 283.8940930140019 125.68855849001, 354.31213998328894 150.3091333406046" stroke="#AAB5CC" stroke-width="0.8" fill="none"/></g><polygon points="354,150 346.05280425591116,150.91764906425928 348.3275575718902,144.35877700318628" fill="#AAB5CC" stroke="none"/><g><path d="M264.0025324020535 89.24157952331007 C283.127664828524 101.56833610409312, 299.8967023499683 114.81960401782207, 354.33451221324503 149.23904555104673 M264.8780231727287 90.0565707879141 C291.03603692378846 107.62619550939836, 318.0351441261172 125.46983806830087, 354.31213998328894 150.3091333406046" stroke="#AAB5CC" stroke-width="0.8" fill="none"/></g><polygon points="354,150 346.0832278841993,148.84903550598642 349.9638335987814,143.092803696023" fill="#AAB5CC" stroke="none"/><g><path d="M96.1971529556508 154.38955847855314 C148.67633111145716 153.84063507085034, 199.28152419741284 153.83769974554937, 354.26924397569945 149.38751892143242 M96.90182264019859 155.0455329977303 C173.06089595732738 153.72285271722487, 249.8046664690631 152.26863565535845, 354.2512368958377 150.24881689322555" stroke="#AAB5CC" stroke-width="0.8" fill="none"/></g><polygon points="354,150 346.861130527568,153.61061527382503 346.7260949949817,146.66978889888802" fill="#AAB5CC" stroke="none"/><g><path d="M180.00253240205348 154.24157952331007 C215.9156937514711 153.67914747416788, 249.5005917045567 153.91814243484103, 354.33451221324503 149.23904555104673 M180.87802317272872 155.0565707879141 C232.08016942842863 153.55425118281877, 284.0087510746997 152.10722899343259, 354.31213998328894 150.3091333406046" stroke="#AAB5CC" stroke-width="0.8" fill="none"/></g><polygon points="354,150 346.89553559299713,153.67785066168125 346.69497945944704,146.73860844084925" fill="#AAB5CC" stroke="none"/><g><path d="M264.0025324020535 154.24157952331007 C283.09983331982977 153.5560631510373, 299.86887084127403 153.79505811171046, 354.33451221324503 149.23904555104673 M264.8780231727287 155.0565707879141 C291.15069498448634 153.33553076110965, 318.1498021868151 151.88850857172346, 354.31213998328894 150.3091333406046" stroke="#AAB5CC" stroke-width="0.8" fill="none"/></g><polygon points="354,150 346.99829355779866,153.8698975305861 346.60889971434136,146.9386871170465" fill="#AAB5CC" stroke="none"/><g><path d="M96.2126380524085 219.4013325095981 C148.64996815036687 205.831417696436, 199.27142720140506 192.7969600951394, 354.2640508706809 149.39933229090377 M96.90371625857415 220.044654769579 C173.15548045212984 199.42820023071977, 249.89015776580388 178.6827459563801, 354.24639110650764 150.2440177802517" stroke="#AAB5CC" stroke-width="0.8" fill="none"/></g><polygon points="354,150 347.9577947811351,155.24325815625375 346.13340236803367,148.54513172529562" fill="#AAB5CC" stroke="none"/><g><path d="M180.00253240205348 219.24157952331007 C215.8878622427769 205.66687452111208, 249.4727601958625 192.89359652872943, 354.33451221324503 149.23904555104673 M180.87802317272872 220.0565707879141 C232.19482748912648 199.26358643453008, 284.12340913539754 178.5258994968552, 354.31213998328894 150.3091333406046" stroke="#AAB5CC" stroke-width="0.8" fill="none"/></g><polygon points="354,150 348.62041825655115,155.92115700396062 346.01653868636174,149.4858546376353" fill="#AAB5CC" stroke="none"/><g><path d="M264.0025324020535 219.24157952331007 C283.0720018111356 205.5437901979815, 299.84103933257984 192.77051220559886, 354.33451221324503 149.23904555104673 M264.8780231727287 220.0565707879141 C291.26535304518416 199.04486601282096, 318.26446024751294 178.30717907514608, 354.31213998328894 150.3091333406046" stroke="#AAB5CC" stroke-width="0.8" fill="none"/></g><polygon points="354,150 350.4804782181802,157.18421647970717 346.188767440915,151.72761277718422" fill="#AAB5CC" stroke="none"/><g><path d="M506.0025324020535 149.24157952331007 C524.3012189464644 149.551146066105, 540.269501209259 150.79108510009013, 592.334512213245 149.23904555104673 M506.8780231727287 150.0565707879141 C531.9547573029995 149.80901279126294, 557.7667466746643 149.84588789020665, 592.312139983289 150.3091333406046" stroke="#D4644B" stroke-width="1.3" fill="none"/></g><polygon points="592,150 584.7922490567806,153.47106991294046 584.7922490567806,146.52893008705954" fill="#D4644B" stroke="none"/><line x1="570" y1="293" x2="1050" y2="293" stroke="#D4644B" stroke-width="1.2" stroke-dasharray="4,3" stroke-linecap="round"/></g><g id="layer-boxes"><g><g><path d="M30.700385799258946 71.12291602864862 C52.705484467744824 70.2698149858266, 73.32898142114281 68.13430098874866, 87.48109733089805 67.24925977960228 C93.08292671665549 69.95553967729211, 94.65576256737113 71.51488957181573, 96.61882118210197 76.71728124395013 C93.68245939460695 84.16043415516614, 95.21284505573213 98.64120344594122, 95.19385568872094 105.00795024856924 C98.55048959031701 106.68301419243217, 92.97808289304376 111.43933011516928, 91.9664486862719 112.44453503116965 C74.29954423755407 110.41655134890973, 61.9356717415154 108.96144277785719, 28.035507049411535 112.36078214421869 C24.0393185518682 111.54581722989678, 22.143504347652197 109.89836551919579, 21.31488358005881 102.74529301896692 C25.721631219342353 99.26915757656097, 23.520508243992925 91.66003738418222, 22.13778161779046 76.05647236332297 C21.85559258237481 69.70954381451011, 24.189470217376947 67.51686300262809, 28.777449963241814 69.08717564567924 C30 70, 30 70, 30 70" stroke="none" stroke-width="0" fill="#E3EDFA"/><path d="M28.803038882464172 69.08989542797208 C42.353532519936564 69.41741659249365, 53.1075410194695 70.90534343327582, 90.40141465589404 69.08685466125607 M29.85362780727446 70.06788494549691 C47.48097154162824 69.69270091319083, 65.99062156565488 69.7369510319233, 90.37456797994673 70.37096000872552 M90 70 C94.69640001133084 69.12494695112109, 96.31427756622433 72.09239921495319, 96.42116237953306 75.52922243997455 M91.00250500515104 70.71910364553332 C95.02609397318214 69.62217947516591, 96.30544573333114 72.25099362764507, 96.7498845699057 76.27807391796262 M97.05007529184222 76.18441251590848 C96.11914877381624 83.11349171251058, 95.6956769653827 89.51272548064588, 95.96093428060412 104.65865904167295 M96.56783962883055 75.78672327958047 C95.77161851554513 81.64408786483109, 96.36779407888055 88.33944034986197, 95.42569004930556 103.8843700286001 M96 104 C95.17118138149381 108.09646608754993, 94.51451212242246 110.81466145440936, 89.25130111053586 111.15590667650103 M96.52306579425931 104.90895469114184 C96.51098872806877 107.81689260754735, 92.7430589177832 109.27702031288295, 89.25468052413315 109.28358043108136 M89.31336841508747 109.6067646868527 C66.31418526917696 111.17559509627522, 44.058458391577005 110.35349080912769, 31.110441087931395 110.50175553634763 M89.70666235126555 110.29835793934762 C74.42861506752669 110.33517242953182, 60.1589971203357 109.24173791691662, 30.19658903516829 109.94931660853327 M30 110 C25.194696272164585 109.98375365659595, 24.57275754287839 107.57935228273273, 24.52402101829648 103.01857418939471 M28.914039791375398 110.41476948186755 C26.23116531278938 109.90081365618855, 24.77599787738174 107.47353909406812, 24.618308112882076 103.71091693077237 M23.76342606469989 103.53956912830472 C25.009409839805958 93.34391855299472, 23.671115643677116 82.33629364296793, 24.251692890375853 76.66751133278012 M24.152029568329453 103.41929283104837 C23.395308234143258 98.35386504866183, 23.80136081163883 91.95889586918057, 24.403573531284927 76.09792865477502 M24 76 C25.11206187084317 71.53856747075915, 26.590381015092134 70.68197951242328, 30.628189290314914 69.32523279115557 M23.0330441839993 75.27580583021044 C24.842258492968977 71.09971410546451, 27.259584877751767 68.62163395557553, 30.946714601777494 68.78054240141064 M30 70 C30 70, 30 70, 30 70 M30 70 C30 70, 30 70, 30 70" stroke="#3B7DD8" stroke-width="1.5" fill="none"/></g></g><g><g><path d="M114.70038579925895 71.12291602864862 C136.70548446774484 70.2698149858266, 157.32898142114283 68.13430098874866, 171.48109733089805 67.24925977960228 C177.0829267166555 69.95553967729211, 178.65576256737114 71.51488957181573, 180.61882118210195 76.71728124395013 C177.68245939460692 84.16043415516614, 179.21284505573212 98.64120344594122, 179.19385568872093 105.00795024856924 C182.550489590317 106.68301419243217, 176.97808289304376 111.43933011516928, 175.96644868627192 112.44453503116965 C158.29954423755407 110.41655134890973, 145.9356717415154 108.96144277785719, 112.03550704941154 112.36078214421869 C108.0393185518682 111.54581722989678, 106.1435043476522 109.89836551919579, 105.31488358005882 102.74529301896692 C109.72163121934236 99.26915757656097, 107.52050824399294 91.66003738418222, 106.13778161779047 76.05647236332297 C105.85559258237481 69.70954381451011, 108.18947021737695 67.51686300262809, 112.77744996324182 69.08717564567924 C114 70, 114 70, 114 70" stroke="none" stroke-width="0" fill="#E3EDFA"/><path d="M112.80303888246416 69.08989542797208 C126.35353251993656 69.41741659249365, 137.1075410194695 70.90534343327582, 174.40141465589403 69.08685466125607 M113.85362780727446 70.06788494549691 C131.48097154162824 69.69270091319083, 149.99062156565486 69.7369510319233, 174.37456797994673 70.37096000872552 M174 70 C178.69640001133084 69.12494695112109, 180.31427756622435 72.09239921495319, 180.42116237953306 75.52922243997455 M175.00250500515102 70.71910364553332 C179.02609397318213 69.62217947516591, 180.30544573333114 72.25099362764507, 180.7498845699057 76.27807391796262 M181.05007529184223 76.18441251590848 C180.11914877381622 83.11349171251058, 179.6956769653827 89.51272548064588, 179.96093428060414 104.65865904167295 M180.56783962883054 75.78672327958047 C179.77161851554513 81.64408786483109, 180.36779407888056 88.33944034986197, 179.42569004930556 103.8843700286001 M180 104 C179.1711813814938 108.09646608754993, 178.51451212242245 110.81466145440936, 173.25130111053585 111.15590667650103 M180.5230657942593 104.90895469114184 C180.51098872806878 107.81689260754735, 176.7430589177832 109.27702031288295, 173.25468052413314 109.28358043108136 M173.31336841508747 109.6067646868527 C150.31418526917696 111.17559509627522, 128.058458391577 110.35349080912769, 115.11044108793139 110.50175553634763 M173.70666235126555 110.29835793934762 C158.4286150675267 110.33517242953182, 144.1589971203357 109.24173791691662, 114.19658903516829 109.94931660853327 M114 110 C109.19469627216458 109.98375365659595, 108.57275754287839 107.57935228273273, 108.52402101829648 103.01857418939471 M112.9140397913754 110.41476948186755 C110.23116531278939 109.90081365618855, 108.77599787738174 107.47353909406812, 108.61830811288208 103.71091693077237 M107.76342606469989 103.53956912830472 C109.00940983980597 93.34391855299472, 107.67111564367711 82.33629364296793, 108.25169289037585 76.66751133278012 M108.15202956832945 103.41929283104837 C107.39530823414326 98.35386504866183, 107.80136081163884 91.95889586918057, 108.40357353128493 76.09792865477502 M108 76 C109.11206187084318 71.53856747075915, 110.59038101509213 70.68197951242328, 114.62818929031491 69.32523279115557 M107.0330441839993 75.27580583021044 C108.84225849296898 71.09971410546451, 111.25958487775176 68.62163395557553, 114.9467146017775 68.78054240141064 M114 70 C114 70, 114 70, 114 70 M114 70 C114 70, 114 70, 114 70" stroke="#3B7DD8" stroke-width="1.5" fill="none"/></g></g><g><g><path d="M198.70038579925895 71.12291602864862 C220.70548446774484 70.2698149858266, 241.32898142114283 68.13430098874866, 255.48109733089805 67.24925977960228 C261.0829267166555 69.95553967729211, 262.65576256737114 71.51488957181573, 264.61882118210195 76.71728124395013 C261.68245939460695 84.16043415516614, 263.21284505573215 98.64120344594122, 263.19385568872093 105.00795024856924 C266.550489590317 106.68301419243217, 260.97808289304373 111.43933011516928, 259.9664486862719 112.44453503116965 C242.29954423755407 110.41655134890973, 229.9356717415154 108.96144277785719, 196.03550704941154 112.36078214421869 C192.0393185518682 111.54581722989678, 190.1435043476522 109.89836551919579, 189.31488358005882 102.74529301896692 C193.72163121934236 99.26915757656097, 191.52050824399294 91.66003738418222, 190.13778161779047 76.05647236332297 C189.8555925823748 69.70954381451011, 192.18947021737694 67.51686300262809, 196.77744996324182 69.08717564567924 C198 70, 198 70, 198 70" stroke="none" stroke-width="0" fill="#E3EDFA"/><path d="M196.80303888246416 69.08989542797208 C210.35353251993655 69.41741659249365, 221.1075410194695 70.90534343327582, 258.40141465589403 69.08685466125607 M197.85362780727445 70.06788494549691 C215.48097154162824 69.69270091319083, 233.99062156565486 69.7369510319233, 258.37456797994673 70.37096000872552 M258 70 C262.69640001133087 69.12494695112109, 264.31427756622435 72.09239921495319, 264.42116237953303 75.52922243997455 M259.002505005151 70.71910364553332 C263.0260939731821 69.62217947516591, 264.30544573333117 72.25099362764507, 264.7498845699057 76.27807391796262 M265.05007529184223 76.18441251590848 C264.1191487738162 83.11349171251058, 263.6956769653827 89.51272548064588, 263.96093428060414 104.65865904167295 M264.56783962883054 75.78672327958047 C263.77161851554513 81.64408786483109, 264.36779407888054 88.33944034986197, 263.42569004930556 103.8843700286001 M264 104 C263.1711813814938 108.09646608754993, 262.51451212242245 110.81466145440936, 257.25130111053585 111.15590667650103 M264.5230657942593 104.90895469114184 C264.51098872806875 107.81689260754735, 260.7430589177832 109.27702031288295, 257.25468052413316 109.28358043108136 M257.31336841508744 109.6067646868527 C234.31418526917696 111.17559509627522, 212.058458391577 110.35349080912769, 199.1104410879314 110.50175553634763 M257.70666235126555 110.29835793934762 C242.4286150675267 110.33517242953182, 228.1589971203357 109.24173791691662, 198.1965890351683 109.94931660853327 M198 110 C193.19469627216458 109.98375365659595, 192.57275754287838 107.57935228273273, 192.52402101829648 103.01857418939471 M196.9140397913754 110.41476948186755 C194.2311653127894 109.90081365618855, 192.77599787738174 107.47353909406812, 192.6183081128821 103.71091693077237 M191.7634260646999 103.53956912830472 C193.00940983980595 93.34391855299472, 191.6711156436771 82.33629364296793, 192.25169289037586 76.66751133278012 M192.15202956832945 103.41929283104837 C191.39530823414324 98.35386504866183, 191.80136081163883 91.95889586918057, 192.40357353128493 76.09792865477502 M192 76 C193.11206187084318 71.53856747075915, 194.59038101509213 70.68197951242328, 198.6281892903149 69.32523279115557 M191.0330441839993 75.27580583021044 C192.84225849296897 71.09971410546451, 195.25958487775176 68.62163395557553, 198.9467146017775 68.78054240141064 M198 70 C198 70, 198 70, 198 70 M198 70 C198 70, 198 70, 198 70" stroke="#3B7DD8" stroke-width="1.5" fill="none"/></g></g><g><g><path d="M30.700385799258946 136.1229160286486 C52.705484467744824 135.2698149858266, 73.32898142114281 133.13430098874866, 87.48109733089805 132.24925977960228 C93.08292671665549 134.9555396772921, 94.65576256737113 136.51488957181573, 96.61882118210197 141.71728124395014 C93.68245939460695 149.16043415516614, 95.21284505573213 163.6412034459412, 95.19385568872094 170.00795024856924 C98.55048959031701 171.68301419243215, 92.97808289304376 176.4393301151693, 91.9664486862719 177.44453503116966 C74.29954423755407 175.41655134890973, 61.9356717415154 173.9614427778572, 28.035507049411535 177.3607821442187 C24.0393185518682 176.54581722989678, 22.143504347652197 174.8983655191958, 21.31488358005881 167.74529301896692 C25.721631219342353 164.26915757656096, 23.520508243992925 156.66003738418223, 22.13778161779046 141.05647236332297 C21.85559258237481 134.7095438145101, 24.189470217376947 132.5168630026281, 28.777449963241814 134.08717564567922 C30 135, 30 135, 30 135" stroke="none" stroke-width="0" fill="#E3EDFA"/><path d="M28.803038882464172 134.08989542797207 C42.353532519936564 134.41741659249365, 53.1075410194695 135.90534343327582, 90.40141465589404 134.08685466125607 M29.85362780727446 135.06788494549693 C47.48097154162824 134.69270091319083, 65.99062156565488 134.7369510319233, 90.37456797994673 135.37096000872552 M90 135 C94.69640001133084 134.1249469511211, 96.31427756622433 137.0923992149532, 96.42116237953306 140.52922243997455 M91.00250500515104 135.71910364553332 C95.02609397318214 134.6221794751659, 96.30544573333114 137.25099362764507, 96.7498845699057 141.27807391796262 M97.05007529184222 141.1844125159085 C96.11914877381624 148.1134917125106, 95.6956769653827 154.51272548064588, 95.96093428060412 169.65865904167293 M96.56783962883055 140.78672327958049 C95.77161851554513 146.6440878648311, 96.36779407888055 153.339440349862, 95.42569004930556 168.8843700286001 M96 169 C95.17118138149381 173.0964660875499, 94.51451212242246 175.81466145440936, 89.25130111053586 176.15590667650105 M96.52306579425931 169.90895469114184 C96.51098872806877 172.81689260754735, 92.7430589177832 174.27702031288297, 89.25468052413315 174.28358043108136 M89.31336841508747 174.6067646868527 C66.31418526917696 176.1755950962752, 44.058458391577005 175.35349080912766, 31.110441087931395 175.50175553634762 M89.70666235126555 175.29835793934762 C74.42861506752669 175.3351724295318, 60.1589971203357 174.2417379169166, 30.19658903516829 174.94931660853325 M30 175 C25.194696272164585 174.98375365659595, 24.57275754287839 172.5793522827327, 24.52402101829648 168.0185741893947 M28.914039791375398 175.41476948186755 C26.23116531278938 174.90081365618855, 24.77599787738174 172.47353909406812, 24.618308112882076 168.71091693077236 M23.76342606469989 168.53956912830472 C25.009409839805958 158.34391855299475, 23.671115643677116 147.33629364296795, 24.251692890375853 141.66751133278012 M24.152029568329453 168.41929283104838 C23.395308234143258 163.35386504866182, 23.80136081163883 156.95889586918057, 24.403573531284927 141.09792865477502 M24 141 C25.11206187084317 136.53856747075915, 26.590381015092134 135.68197951242328, 30.628189290314914 134.32523279115557 M23.0330441839993 140.27580583021046 C24.842258492968977 136.09971410546453, 27.259584877751767 133.62163395557553, 30.946714601777494 133.78054240141063 M30 135 C30 135, 30 135, 30 135 M30 135 C30 135, 30 135, 30 135" stroke="#3B7DD8" stroke-width="1.5" fill="none"/></g></g><g><g><path d="M114.70038579925895 136.1229160286486 C136.70548446774484 135.2698149858266, 157.32898142114283 133.13430098874866, 171.48109733089805 132.24925977960228 C177.0829267166555 134.9555396772921, 178.65576256737114 136.51488957181573, 180.61882118210195 141.71728124395014 C177.68245939460692 149.16043415516614, 179.21284505573212 163.6412034459412, 179.19385568872093 170.00795024856924 C182.550489590317 171.68301419243215, 176.97808289304376 176.4393301151693, 175.96644868627192 177.44453503116966 C158.29954423755407 175.41655134890973, 145.9356717415154 173.9614427778572, 112.03550704941154 177.3607821442187 C108.0393185518682 176.54581722989678, 106.1435043476522 174.8983655191958, 105.31488358005882 167.74529301896692 C109.72163121934236 164.26915757656096, 107.52050824399294 156.66003738418223, 106.13778161779047 141.05647236332297 C105.85559258237481 134.7095438145101, 108.18947021737695 132.5168630026281, 112.77744996324182 134.08717564567922 C114 135, 114 135, 114 135" stroke="none" stroke-width="0" fill="#E3EDFA"/><path d="M112.80303888246416 134.08989542797207 C126.35353251993656 134.41741659249365, 137.1075410194695 135.90534343327582, 174.40141465589403 134.08685466125607 M113.85362780727446 135.06788494549693 C131.48097154162824 134.69270091319083, 149.99062156565486 134.7369510319233, 174.37456797994673 135.37096000872552 M174 135 C178.69640001133084 134.1249469511211, 180.31427756622435 137.0923992149532, 180.42116237953306 140.52922243997455 M175.00250500515102 135.71910364553332 C179.02609397318213 134.6221794751659, 180.30544573333114 137.25099362764507, 180.7498845699057 141.27807391796262 M181.05007529184223 141.1844125159085 C180.11914877381622 148.1134917125106, 179.6956769653827 154.51272548064588, 179.96093428060414 169.65865904167293 M180.56783962883054 140.78672327958049 C179.77161851554513 146.6440878648311, 180.36779407888056 153.339440349862, 179.42569004930556 168.8843700286001 M180 169 C179.1711813814938 173.0964660875499, 178.51451212242245 175.81466145440936, 173.25130111053585 176.15590667650105 M180.5230657942593 169.90895469114184 C180.51098872806878 172.81689260754735, 176.7430589177832 174.27702031288297, 173.25468052413314 174.28358043108136 M173.31336841508747 174.6067646868527 C150.31418526917696 176.1755950962752, 128.058458391577 175.35349080912766, 115.11044108793139 175.50175553634762 M173.70666235126555 175.29835793934762 C158.4286150675267 175.3351724295318, 144.1589971203357 174.2417379169166, 114.19658903516829 174.94931660853325 M114 175 C109.19469627216458 174.98375365659595, 108.57275754287839 172.5793522827327, 108.52402101829648 168.0185741893947 M112.9140397913754 175.41476948186755 C110.23116531278939 174.90081365618855, 108.77599787738174 172.47353909406812, 108.61830811288208 168.71091693077236 M107.76342606469989 168.53956912830472 C109.00940983980597 158.34391855299475, 107.67111564367711 147.33629364296795, 108.25169289037585 141.66751133278012 M108.15202956832945 168.41929283104838 C107.39530823414326 163.35386504866182, 107.80136081163884 156.95889586918057, 108.40357353128493 141.09792865477502 M108 141 C109.11206187084318 136.53856747075915, 110.59038101509213 135.68197951242328, 114.62818929031491 134.32523279115557 M107.0330441839993 140.27580583021046 C108.84225849296898 136.09971410546453, 111.25958487775176 133.62163395557553, 114.9467146017775 133.78054240141063 M114 135 C114 135, 114 135, 114 135 M114 135 C114 135, 114 135, 114 135" stroke="#3B7DD8" stroke-width="1.5" fill="none"/></g></g><g><g><path d="M198.70038579925895 136.1229160286486 C220.70548446774484 135.2698149858266, 241.32898142114283 133.13430098874866, 255.48109733089805 132.24925977960228 C261.0829267166555 134.9555396772921, 262.65576256737114 136.51488957181573, 264.61882118210195 141.71728124395014 C261.68245939460695 149.16043415516614, 263.21284505573215 163.6412034459412, 263.19385568872093 170.00795024856924 C266.550489590317 171.68301419243215, 260.97808289304373 176.4393301151693, 259.9664486862719 177.44453503116966 C242.29954423755407 175.41655134890973, 229.9356717415154 173.9614427778572, 196.03550704941154 177.3607821442187 C192.0393185518682 176.54581722989678, 190.1435043476522 174.8983655191958, 189.31488358005882 167.74529301896692 C193.72163121934236 164.26915757656096, 191.52050824399294 156.66003738418223, 190.13778161779047 141.05647236332297 C189.8555925823748 134.7095438145101, 192.18947021737694 132.5168630026281, 196.77744996324182 134.08717564567922 C198 135, 198 135, 198 135" stroke="none" stroke-width="0" fill="#E3EDFA"/><path d="M196.80303888246416 134.08989542797207 C210.35353251993655 134.41741659249365, 221.1075410194695 135.90534343327582, 258.40141465589403 134.08685466125607 M197.85362780727445 135.06788494549693 C215.48097154162824 134.69270091319083, 233.99062156565486 134.7369510319233, 258.37456797994673 135.37096000872552 M258 135 C262.69640001133087 134.1249469511211, 264.31427756622435 137.0923992149532, 264.42116237953303 140.52922243997455 M259.002505005151 135.71910364553332 C263.0260939731821 134.6221794751659, 264.30544573333117 137.25099362764507, 264.7498845699057 141.27807391796262 M265.05007529184223 141.1844125159085 C264.1191487738162 148.1134917125106, 263.6956769653827 154.51272548064588, 263.96093428060414 169.65865904167293 M264.56783962883054 140.78672327958049 C263.77161851554513 146.6440878648311, 264.36779407888054 153.339440349862, 263.42569004930556 168.8843700286001 M264 169 C263.1711813814938 173.0964660875499, 262.51451212242245 175.81466145440936, 257.25130111053585 176.15590667650105 M264.5230657942593 169.90895469114184 C264.51098872806875 172.81689260754735, 260.7430589177832 174.27702031288297, 257.25468052413316 174.28358043108136 M257.31336841508744 174.6067646868527 C234.31418526917696 176.1755950962752, 212.058458391577 175.35349080912766, 199.1104410879314 175.50175553634762 M257.70666235126555 175.29835793934762 C242.4286150675267 175.3351724295318, 228.1589971203357 174.2417379169166, 198.1965890351683 174.94931660853325 M198 175 C193.19469627216458 174.98375365659595, 192.57275754287838 172.5793522827327, 192.52402101829648 168.0185741893947 M196.9140397913754 175.41476948186755 C194.2311653127894 174.90081365618855, 192.77599787738174 172.47353909406812, 192.6183081128821 168.71091693077236 M191.7634260646999 168.53956912830472 C193.00940983980595 158.34391855299475, 191.6711156436771 147.33629364296795, 192.25169289037586 141.66751133278012 M192.15202956832945 168.41929283104838 C191.39530823414324 163.35386504866182, 191.80136081163883 156.95889586918057, 192.40357353128493 141.09792865477502 M192 141 C193.11206187084318 136.53856747075915, 194.59038101509213 135.68197951242328, 198.6281892903149 134.32523279115557 M191.0330441839993 140.27580583021046 C192.84225849296897 136.09971410546453, 195.25958487775176 133.62163395557553, 198.9467146017775 133.78054240141063 M198 135 C198 135, 198 135, 198 135 M198 135 C198 135, 198 135, 198 135" stroke="#3B7DD8" stroke-width="1.5" fill="none"/></g></g><g><g><path d="M30.700385799258946 201.1229160286486 C52.705484467744824 200.2698149858266, 73.32898142114281 198.13430098874866, 87.48109733089805 197.24925977960228 C93.08292671665549 199.9555396772921, 94.65576256737113 201.51488957181573, 96.61882118210197 206.71728124395014 C93.68245939460695 214.16043415516614, 95.21284505573213 228.6412034459412, 95.19385568872094 235.00795024856924 C98.55048959031701 236.68301419243215, 92.97808289304376 241.4393301151693, 91.9664486862719 242.44453503116966 C74.29954423755407 240.41655134890973, 61.9356717415154 238.9614427778572, 28.035507049411535 242.3607821442187 C24.0393185518682 241.54581722989678, 22.143504347652197 239.8983655191958, 21.31488358005881 232.74529301896692 C25.721631219342353 229.26915757656096, 23.520508243992925 221.66003738418223, 22.13778161779046 206.05647236332297 C21.85559258237481 199.7095438145101, 24.189470217376947 197.5168630026281, 28.777449963241814 199.08717564567922 C30 200, 30 200, 30 200" stroke="none" stroke-width="0" fill="#E3EDFA"/><path d="M28.803038882464172 199.08989542797207 C42.353532519936564 199.41741659249365, 53.1075410194695 200.90534343327582, 90.40141465589404 199.08685466125607 M29.85362780727446 200.06788494549693 C47.48097154162824 199.69270091319083, 65.99062156565488 199.7369510319233, 90.37456797994673 200.37096000872552 M90 200 C94.69640001133084 199.1249469511211, 96.31427756622433 202.0923992149532, 96.42116237953306 205.52922243997455 M91.00250500515104 200.71910364553332 C95.02609397318214 199.6221794751659, 96.30544573333114 202.25099362764507, 96.7498845699057 206.27807391796262 M97.05007529184222 206.1844125159085 C96.11914877381624 213.1134917125106, 95.6956769653827 219.51272548064588, 95.96093428060412 234.65865904167293 M96.56783962883055 205.78672327958049 C95.77161851554513 211.6440878648311, 96.36779407888055 218.339440349862, 95.42569004930556 233.8843700286001 M96 234 C95.17118138149381 238.0964660875499, 94.51451212242246 240.81466145440936, 89.25130111053586 241.15590667650105 M96.52306579425931 234.90895469114184 C96.51098872806877 237.81689260754735, 92.7430589177832 239.27702031288297, 89.25468052413315 239.28358043108136 M89.31336841508747 239.6067646868527 C66.31418526917696 241.1755950962752, 44.058458391577005 240.35349080912766, 31.110441087931395 240.50175553634762 M89.70666235126555 240.29835793934762 C74.42861506752669 240.3351724295318, 60.1589971203357 239.2417379169166, 30.19658903516829 239.94931660853325 M30 240 C25.194696272164585 239.98375365659595, 24.57275754287839 237.5793522827327, 24.52402101829648 233.0185741893947 M28.914039791375398 240.41476948186755 C26.23116531278938 239.90081365618855, 24.77599787738174 237.47353909406812, 24.618308112882076 233.71091693077236 M23.76342606469989 233.53956912830472 C25.009409839805958 223.34391855299475, 23.671115643677116 212.33629364296795, 24.251692890375853 206.66751133278012 M24.152029568329453 233.41929283104838 C23.395308234143258 228.35386504866182, 23.80136081163883 221.95889586918057, 24.403573531284927 206.09792865477502 M24 206 C25.11206187084317 201.53856747075915, 26.590381015092134 200.68197951242328, 30.628189290314914 199.32523279115557 M23.0330441839993 205.27580583021046 C24.842258492968977 201.09971410546453, 27.259584877751767 198.62163395557553, 30.946714601777494 198.78054240141063 M30 200 C30 200, 30 200, 30 200 M30 200 C30 200, 30 200, 30 200" stroke="#3B7DD8" stroke-width="1.5" fill="none"/></g></g><g><g><path d="M114.70038579925895 201.1229160286486 C136.70548446774484 200.2698149858266, 157.32898142114283 198.13430098874866, 171.48109733089805 197.24925977960228 C177.0829267166555 199.9555396772921, 178.65576256737114 201.51488957181573, 180.61882118210195 206.71728124395014 C177.68245939460692 214.16043415516614, 179.21284505573212 228.6412034459412, 179.19385568872093 235.00795024856924 C182.550489590317 236.68301419243215, 176.97808289304376 241.4393301151693, 175.96644868627192 242.44453503116966 C158.29954423755407 240.41655134890973, 145.9356717415154 238.9614427778572, 112.03550704941154 242.3607821442187 C108.0393185518682 241.54581722989678, 106.1435043476522 239.8983655191958, 105.31488358005882 232.74529301896692 C109.72163121934236 229.26915757656096, 107.52050824399294 221.66003738418223, 106.13778161779047 206.05647236332297 C105.85559258237481 199.7095438145101, 108.18947021737695 197.5168630026281, 112.77744996324182 199.08717564567922 C114 200, 114 200, 114 200" stroke="none" stroke-width="0" fill="#E3EDFA"/><path d="M112.80303888246416 199.08989542797207 C126.35353251993656 199.41741659249365, 137.1075410194695 200.90534343327582, 174.40141465589403 199.08685466125607 M113.85362780727446 200.06788494549693 C131.48097154162824 199.69270091319083, 149.99062156565486 199.7369510319233, 174.37456797994673 200.37096000872552 M174 200 C178.69640001133084 199.1249469511211, 180.31427756622435 202.0923992149532, 180.42116237953306 205.52922243997455 M175.00250500515102 200.71910364553332 C179.02609397318213 199.6221794751659, 180.30544573333114 202.25099362764507, 180.7498845699057 206.27807391796262 M181.05007529184223 206.1844125159085 C180.11914877381622 213.1134917125106, 179.6956769653827 219.51272548064588, 179.96093428060414 234.65865904167293 M180.56783962883054 205.78672327958049 C179.77161851554513 211.6440878648311, 180.36779407888056 218.339440349862, 179.42569004930556 233.8843700286001 M180 234 C179.1711813814938 238.0964660875499, 178.51451212242245 240.81466145440936, 173.25130111053585 241.15590667650105 M180.5230657942593 234.90895469114184 C180.51098872806878 237.81689260754735, 176.7430589177832 239.27702031288297, 173.25468052413314 239.28358043108136 M173.31336841508747 239.6067646868527 C150.31418526917696 241.1755950962752, 128.058458391577 240.35349080912766, 115.11044108793139 240.50175553634762 M173.70666235126555 240.29835793934762 C158.4286150675267 240.3351724295318, 144.1589971203357 239.2417379169166, 114.19658903516829 239.94931660853325 M114 240 C109.19469627216458 239.98375365659595, 108.57275754287839 237.5793522827327, 108.52402101829648 233.0185741893947 M112.9140397913754 240.41476948186755 C110.23116531278939 239.90081365618855, 108.77599787738174 237.47353909406812, 108.61830811288208 233.71091693077236 M107.76342606469989 233.53956912830472 C109.00940983980597 223.34391855299475, 107.67111564367711 212.33629364296795, 108.25169289037585 206.66751133278012 M108.15202956832945 233.41929283104838 C107.39530823414326 228.35386504866182, 107.80136081163884 221.95889586918057, 108.40357353128493 206.09792865477502 M108 206 C109.11206187084318 201.53856747075915, 110.59038101509213 200.68197951242328, 114.62818929031491 199.32523279115557 M107.0330441839993 205.27580583021046 C108.84225849296898 201.09971410546453, 111.25958487775176 198.62163395557553, 114.9467146017775 198.78054240141063 M114 200 C114 200, 114 200, 114 200 M114 200 C114 200, 114 200, 114 200" stroke="#3B7DD8" stroke-width="1.5" fill="none"/></g></g><g><g><path d="M198.70038579925895 201.1229160286486 C220.70548446774484 200.2698149858266, 241.32898142114283 198.13430098874866, 255.48109733089805 197.24925977960228 C261.0829267166555 199.9555396772921, 262.65576256737114 201.51488957181573, 264.61882118210195 206.71728124395014 C261.68245939460695 214.16043415516614, 263.21284505573215 228.6412034459412, 263.19385568872093 235.00795024856924 C266.550489590317 236.68301419243215, 260.97808289304373 241.4393301151693, 259.9664486862719 242.44453503116966 C242.29954423755407 240.41655134890973, 229.9356717415154 238.9614427778572, 196.03550704941154 242.3607821442187 C192.0393185518682 241.54581722989678, 190.1435043476522 239.8983655191958, 189.31488358005882 232.74529301896692 C193.72163121934236 229.26915757656096, 191.52050824399294 221.66003738418223, 190.13778161779047 206.05647236332297 C189.8555925823748 199.7095438145101, 192.18947021737694 197.5168630026281, 196.77744996324182 199.08717564567922 C198 200, 198 200, 198 200" stroke="none" stroke-width="0" fill="#E3EDFA"/><path d="M196.80303888246416 199.08989542797207 C210.35353251993655 199.41741659249365, 221.1075410194695 200.90534343327582, 258.40141465589403 199.08685466125607 M197.85362780727445 200.06788494549693 C215.48097154162824 199.69270091319083, 233.99062156565486 199.7369510319233, 258.37456797994673 200.37096000872552 M258 200 C262.69640001133087 199.1249469511211, 264.31427756622435 202.0923992149532, 264.42116237953303 205.52922243997455 M259.002505005151 200.71910364553332 C263.0260939731821 199.6221794751659, 264.30544573333117 202.25099362764507, 264.7498845699057 206.27807391796262 M265.05007529184223 206.1844125159085 C264.1191487738162 213.1134917125106, 263.6956769653827 219.51272548064588, 263.96093428060414 234.65865904167293 M264.56783962883054 205.78672327958049 C263.77161851554513 211.6440878648311, 264.36779407888054 218.339440349862, 263.42569004930556 233.8843700286001 M264 234 C263.1711813814938 238.0964660875499, 262.51451212242245 240.81466145440936, 257.25130111053585 241.15590667650105 M264.5230657942593 234.90895469114184 C264.51098872806875 237.81689260754735, 260.7430589177832 239.27702031288297, 257.25468052413316 239.28358043108136 M257.31336841508744 239.6067646868527 C234.31418526917696 241.1755950962752, 212.058458391577 240.35349080912766, 199.1104410879314 240.50175553634762 M257.70666235126555 240.29835793934762 C242.4286150675267 240.3351724295318, 228.1589971203357 239.2417379169166, 198.1965890351683 239.94931660853325 M198 240 C193.19469627216458 239.98375365659595, 192.57275754287838 237.5793522827327, 192.52402101829648 233.0185741893947 M196.9140397913754 240.41476948186755 C194.2311653127894 239.90081365618855, 192.77599787738174 237.47353909406812, 192.6183081128821 233.71091693077236 M191.7634260646999 233.53956912830472 C193.00940983980595 223.34391855299475, 191.6711156436771 212.33629364296795, 192.25169289037586 206.66751133278012 M192.15202956832945 233.41929283104838 C191.39530823414324 228.35386504866182, 191.80136081163883 221.95889586918057, 192.40357353128493 206.09792865477502 M192 206 C193.11206187084318 201.53856747075915, 194.59038101509213 200.68197951242328, 198.6281892903149 199.32523279115557 M191.0330441839993 205.27580583021046 C192.84225849296897 201.09971410546453, 195.25958487775176 198.62163395557553, 198.9467146017775 198.78054240141063 M198 200 C198 200, 198 200, 198 200 M198 200 C198 200, 198 200, 198 200" stroke="#3B7DD8" stroke-width="1.5" fill="none"/></g></g><g filter="url(#shadow)"><g><path d="M361.8004409134388 96.28333260416984 C411.04762669466436 95.88188127602339, 458.71583908721806 93.44129385079145, 496.12125409245493 91.85629689097405 C501.9519162476063 94.94918820261955, 503.46372864842414 96.44558808207512, 505.70722420811654 101.81974999308586 C502.53590416599513 135.8647245246917, 504.2849163501382 177.95268920436502, 504.0786922156811 200.151943141222 C507.9148452460766 201.49487336277963, 501.8320947349072 206.6449487030506, 501.2473699271679 207.79375432133673 C463.4416280183941 206.1929346429944, 431.69649405553935 204.52995341893433, 358.75486519932747 207.69803673624992 C354.7592212021351 206.76664826273918, 352.8782906830311 205.1695605933666, 351.93129552006724 197.5660491645336 C356.33479336541893 179.44580549411475, 353.8192242507339 156.6021506808698, 352.871750420332 101.06453984379769 C352.5492486655712 94.38233578801155, 354.93082310557367 92.16212914586067, 359.60279995799067 93.95677216649055 C361 95, 361 95, 361 95" stroke="none" stroke-width="0" fill="#E0E8F8"/><path d="M359.4040518432856 93.7865272372961 C389.0823279436678 94.4060902605474, 415.03195719346405 96.38999271492362, 499.5352195411921 93.78247288167476 M360.80483707636597 95.09051326066256 C401.52117060013114 94.91522393936515, 443.41391251012686 94.97422409767509, 499.4994239732623 95.49461334496736 M499 95 C503.92853334844114 93.8332626014948, 505.41903675496576 97.12319895327092, 505.5615498393774 100.37229658663273 M500.3366733402014 95.9588048607111 C504.36812529757617 94.4962393002212, 505.40726097777485 97.33465817019344, 505.9998460932076 101.37076522395014 M506.40010038912294 101.24588335454465 C504.96750955039863 125.66626938693227, 504.40288047248725 149.38019484803084, 504.9479123741388 199.87821205556392 M505.7571195051074 100.71563103944064 C504.86945764235855 121.31904238201679, 505.6643583934724 143.03977092429997, 504.2342533990741 198.84582670480012 M505 199 C503.89490850865843 203.12862145006656, 503.68601616322997 206.08621527254581, 498.00173481404784 206.5412089020014 M505.6974210590124 200.21193958818913 C505.6813183040917 202.75585681006314, 501.3240785570443 204.03602708384395, 498.0062406988442 204.04477390810848 M498.0844912201166 204.4756862491369 C444.77570035494864 206.8594614743292, 392.4581845141947 205.76332242479918, 362.48058811724184 205.66900738179683 M498.60888313502073 205.39781058579683 C463.5375940810889 205.13966931322216, 429.81087747588754 203.68175662973522, 361.2621187135577 204.932422144711 M361 205 C355.92626169621946 204.97833820879458, 355.7636767238379 202.43913637697696, 355.698694691062 197.69143225252628 M359.5520530551672 205.5530259758234 C357.3082204170525 204.86775154158474, 356.03466383650897 202.29805212542414, 355.8244108171761 198.61455590769648 M354.6845680862665 198.38609217107296 C356.5726045953095 160.9401769924909, 354.7882123338044 122.41162936761975, 355.3355905205011 101.8900151103735 M355.20270609110594 198.22572377473116 C353.89727997320296 178.12745555005966, 354.4386834098637 156.25646546259523, 355.5380980417132 101.13057153970003 M355 101 C356.4827491611242 96.38475662767887, 357.7871746867895 95.90930601656437, 361.8375857204199 94.10031038820743 M353.71072557866574 100.03440777361394 C356.1230113239586 95.79961880728602, 358.679446503669 93.16217860743403, 362.26228613570333 93.37405653521418 M361 95 C361 95, 361 95, 361 95 M361 95 C361 95, 361 95, 361 95" stroke="#326CE5" stroke-width="1.5" fill="none"/></g></g><g><g><path d="M606.4122012161795 58.66087483950436 C720.9542857132499 59.17357035628052, 834.6832499159948 57.916746663259914, 932.5175388411071 56.38109444046206 C937.2139371857047 57.961891151964664, 938.8477964863181 59.58419106155634, 940.5304181560874 64.6148124948144 C938.3981763619662 68.3574952930212, 939.447583672452 77.04893467903138, 939.4472153294087 80.6911658847332 C942.1861339345575 82.87115502208471, 937.1240710511804 87.23371152728797, 935.6855274453759 88.09531574100257 C850.5007424797133 87.51357810517398, 768.9651793714953 86.6571964890766, 604.8438280955077 87.38940177258213 C600.3194159016014 87.32498619705439, 598.4087180122733 85.62717044502497, 597.6984716400505 78.92453687340021 C601.2239381049872 77.4419340068102, 599.7145966361761 72.91019182920455, 598.7230502521992 64.0387239062786 C598.1619364991784 58.036751841008666, 600.4481173291803 55.8715968593955, 604.952099968493 57.21757912486792 C606 58, 606 58, 606 58" stroke="none" stroke-width="0" fill="#FFF5F3"/><path d="M605.4520921656117 57.58340048158515 C671.8185746061744 57.949031342118396, 736.904968584898 58.63012846475472, 934.1837471840818 57.58200857345895 M605.932998265394 58.031074270441934 C703.1945293369017 58.242647136464754, 800.8599352890216 58.26290258701442, 934.1714581432238 58.16980659776477 M934 58 C938.4642666742205 57.4166313007474, 940.2095183774829 60.06159947663546, 940.2807749196887 63.686148293316364 M934.6683366701006 58.47940243035555 C938.6840626487881 57.7481196501106, 940.2036304888875 60.16732908509672, 940.4999230466038 64.18538261197507 M940.5600401556492 64.09835334181786 C940.0722936918497 68.06079171955585, 939.8464420606853 71.74064586877823, 939.9791649496556 80.35128482222557 M940.302847802043 63.886252415776255 C939.8702437970162 67.23512246966362, 940.1882040974617 71.0309194034338, 939.6937013596296 79.93833068192005 M940 80 C939.4474542543292 84.06431072503328, 938.3430080816149 86.54310763627291, 933.5008674070239 86.7706044510007 M940.3487105295062 80.60596979409456 C940.3406591520459 83.87792840503157, 937.1620392785221 85.51801354192197, 933.5031203494221 85.52238695405424 M933.6856950328624 85.81999690242644 C805.8288854423195 86.88256771270697, 678.3123922647031 86.50625024256253, 606.5083033715889 86.22967812845796 M933.8657249650736 86.13657306826896 C850.6992229914279 85.79102446617235, 767.9943286053863 85.29050583856161, 606.0899884473652 85.9767997248606 M606 86 C601.4631308481097 85.98916910439729, 600.3818383619189 83.71956818848848, 600.349347345531 79.34571612626314 M605.2760265275836 86.2765129879117 C602.1541102085263 85.93387577079237, 600.5173319182545 83.64902606271207, 600.4122054085881 79.80727795384824 M599.8738272345066 79.75443686842918 C600.5279873518705 73.89738575875758, 599.8142304472684 67.60728167057037, 600.1342362082005 64.3560060441494 M600.0810824364423 79.69028950989247 C599.691050380373 76.75410183668137, 599.9076117550374 73.10882541835308, 600.2152392166853 64.05222861588001 M600 64 C600.7413745805621 59.692378313839434, 602.3935873433948 58.454653008282186, 606.4187928602099 57.550155194103716 M599.3553627893328 63.51720388680697 C600.5615056619794 59.39980940364301, 602.8397232518345 57.081089303717015, 606.6311430678517 57.18702826760709 M606 58 C606 58, 606 58, 606 58 M606 58 C606 58, 606 58, 606 58" stroke="#D4644B" stroke-width="1.5" fill="none"/></g></g><g><g><path d="M606.4122012161795 92.66087483950436 C720.9542857132499 93.17357035628052, 834.6832499159948 91.91674666325991, 932.5175388411071 90.38109444046205 C937.2139371857047 91.96189115196466, 938.8477964863181 93.58419106155634, 940.5304181560874 98.6148124948144 C938.3981763619662 102.3574952930212, 939.447583672452 111.04893467903138, 939.4472153294087 114.6911658847332 C942.1861339345575 116.87115502208471, 937.1240710511804 121.23371152728797, 935.6855274453759 122.09531574100257 C850.5007424797133 121.51357810517398, 768.9651793714953 120.6571964890766, 604.8438280955077 121.38940177258213 C600.3194159016014 121.32498619705439, 598.4087180122733 119.62717044502497, 597.6984716400505 112.92453687340021 C601.2239381049872 111.4419340068102, 599.7145966361761 106.91019182920455, 598.7230502521992 98.0387239062786 C598.1619364991784 92.03675184100867, 600.4481173291803 89.87159685939551, 604.952099968493 91.21757912486791 C606 92, 606 92, 606 92" stroke="none" stroke-width="0" fill="#FFF5F3"/><path d="M605.4520921656117 91.58340048158516 C671.8185746061744 91.9490313421184, 736.904968584898 92.63012846475472, 934.1837471840818 91.58200857345895 M605.932998265394 92.03107427044193 C703.1945293369017 92.24264713646475, 800.8599352890216 92.26290258701442, 934.1714581432238 92.16980659776476 M934 92 C938.4642666742205 91.4166313007474, 940.2095183774829 94.06159947663545, 940.2807749196887 97.68614829331636 M934.6683366701006 92.47940243035555 C938.6840626487881 91.7481196501106, 940.2036304888875 94.16732908509671, 940.4999230466038 98.18538261197507 M940.5600401556492 98.09835334181786 C940.0722936918497 102.06079171955585, 939.8464420606853 105.74064586877823, 939.9791649496556 114.35128482222557 M940.302847802043 97.88625241577626 C939.8702437970162 101.23512246966362, 940.1882040974617 105.0309194034338, 939.6937013596296 113.93833068192005 M940 114 C939.4474542543292 118.06431072503328, 938.3430080816149 120.54310763627291, 933.5008674070239 120.7706044510007 M940.3487105295062 114.60596979409456 C940.3406591520459 117.87792840503157, 937.1620392785221 119.51801354192197, 933.5031203494221 119.52238695405424 M933.6856950328624 119.81999690242644 C805.8288854423195 120.88256771270697, 678.3123922647031 120.50625024256253, 606.5083033715889 120.22967812845796 M933.8657249650736 120.13657306826896 C850.6992229914279 119.79102446617235, 767.9943286053863 119.29050583856161, 606.0899884473652 119.9767997248606 M606 120 C601.4631308481097 119.98916910439729, 600.3818383619189 117.71956818848848, 600.349347345531 113.34571612626314 M605.2760265275836 120.2765129879117 C602.1541102085263 119.93387577079237, 600.5173319182545 117.64902606271207, 600.4122054085881 113.80727795384824 M599.8738272345066 113.75443686842918 C600.5279873518705 107.89738575875758, 599.8142304472684 101.60728167057037, 600.1342362082005 98.3560060441494 M600.0810824364423 113.69028950989247 C599.691050380373 110.75410183668137, 599.9076117550374 107.10882541835308, 600.2152392166853 98.05222861588001 M600 98 C600.7413745805621 93.69237831383944, 602.3935873433948 92.45465300828218, 606.4187928602099 91.55015519410372 M599.3553627893328 97.51720388680697 C600.5615056619794 93.39980940364302, 602.8397232518345 91.08108930371702, 606.6311430678517 91.18702826760709 M606 92 C606 92, 606 92, 606 92 M606 92 C606 92, 606 92, 606 92" stroke="#D4644B" stroke-width="1.5" fill="none"/></g></g><g><g><path d="M606.4122012161795 126.66087483950436 C720.9542857132499 127.17357035628052, 834.6832499159948 125.91674666325991, 932.5175388411071 124.38109444046205 C937.2139371857047 125.96189115196466, 938.8477964863181 127.58419106155634, 940.5304181560874 132.6148124948144 C938.3981763619662 136.3574952930212, 939.447583672452 145.0489346790314, 939.4472153294087 148.6911658847332 C942.1861339345575 150.8711550220847, 937.1240710511804 155.23371152728797, 935.6855274453759 156.09531574100257 C850.5007424797133 155.513578105174, 768.9651793714953 154.6571964890766, 604.8438280955077 155.38940177258212 C600.3194159016014 155.3249861970544, 598.4087180122733 153.62717044502497, 597.6984716400505 146.9245368734002 C601.2239381049872 145.4419340068102, 599.7145966361761 140.91019182920456, 598.7230502521992 132.03872390627862 C598.1619364991784 126.03675184100867, 600.4481173291803 123.87159685939551, 604.952099968493 125.21757912486791 C606 126, 606 126, 606 126" stroke="none" stroke-width="0" fill="#FFF5F3"/><path d="M605.4520921656117 125.58340048158516 C671.8185746061744 125.9490313421184, 736.904968584898 126.63012846475472, 934.1837471840818 125.58200857345895 M605.932998265394 126.03107427044193 C703.1945293369017 126.24264713646475, 800.8599352890216 126.26290258701442, 934.1714581432238 126.16980659776476 M934 126 C938.4642666742205 125.4166313007474, 940.2095183774829 128.06159947663545, 940.2807749196887 131.68614829331636 M934.6683366701006 126.47940243035555 C938.6840626487881 125.7481196501106, 940.2036304888875 128.16732908509672, 940.4999230466038 132.1853826119751 M940.5600401556492 132.09835334181787 C940.0722936918497 136.06079171955585, 939.8464420606853 139.74064586877822, 939.9791649496556 148.35128482222558 M940.302847802043 131.88625241577626 C939.8702437970162 135.23512246966362, 940.1882040974617 139.03091940343378, 939.6937013596296 147.93833068192006 M940 148 C939.4474542543292 152.0643107250333, 938.3430080816149 154.5431076362729, 933.5008674070239 154.77060445100068 M940.3487105295062 148.60596979409456 C940.3406591520459 151.87792840503155, 937.1620392785221 153.51801354192196, 933.5031203494221 153.52238695405424 M933.6856950328624 153.81999690242645 C805.8288854423195 154.882567712707, 678.3123922647031 154.50625024256254, 606.5083033715889 154.22967812845795 M933.8657249650736 154.13657306826897 C850.6992229914279 153.79102446617233, 767.9943286053863 153.29050583856161, 606.0899884473652 153.9767997248606 M606 154 C601.4631308481097 153.9891691043973, 600.3818383619189 151.7195681884885, 600.349347345531 147.34571612626314 M605.2760265275836 154.2765129879117 C602.1541102085263 153.93387577079235, 600.5173319182545 151.64902606271207, 600.4122054085881 147.80727795384826 M599.8738272345066 147.7544368684292 C600.5279873518705 141.8973857587576, 599.8142304472684 135.60728167057036, 600.1342362082005 132.3560060441494 M600.0810824364423 147.69028950989247 C599.691050380373 144.75410183668137, 599.9076117550374 141.1088254183531, 600.2152392166853 132.05222861588 M600 132 C600.7413745805621 127.69237831383944, 602.3935873433948 126.45465300828218, 606.4187928602099 125.55015519410372 M599.3553627893328 131.51720388680695 C600.5615056619794 127.39980940364302, 602.8397232518345 125.08108930371702, 606.6311430678517 125.18702826760709 M606 126 C606 126, 606 126, 606 126 M606 126 C606 126, 606 126, 606 126" stroke="#D4644B" stroke-width="1.5" fill="none"/></g></g><g><g><path d="M606.4122012161795 160.66087483950434 C720.9542857132499 161.17357035628052, 834.6832499159948 159.91674666325991, 932.5175388411071 158.38109444046205 C937.2139371857047 159.96189115196466, 938.8477964863181 161.58419106155634, 940.5304181560874 166.6148124948144 C938.3981763619662 170.3574952930212, 939.447583672452 179.0489346790314, 939.4472153294087 182.6911658847332 C942.1861339345575 184.8711550220847, 937.1240710511804 189.23371152728797, 935.6855274453759 190.09531574100257 C850.5007424797133 189.513578105174, 768.9651793714953 188.6571964890766, 604.8438280955077 189.38940177258212 C600.3194159016014 189.3249861970544, 598.4087180122733 187.62717044502497, 597.6984716400505 180.9245368734002 C601.2239381049872 179.4419340068102, 599.7145966361761 174.91019182920456, 598.7230502521992 166.03872390627862 C598.1619364991784 160.03675184100865, 600.4481173291803 157.8715968593955, 604.952099968493 159.2175791248679 C606 160, 606 160, 606 160" stroke="none" stroke-width="0" fill="#FFF5F3"/><path d="M605.4520921656117 159.58340048158516 C671.8185746061744 159.9490313421184, 736.904968584898 160.6301284647547, 934.1837471840818 159.58200857345895 M605.932998265394 160.03107427044193 C703.1945293369017 160.24264713646474, 800.8599352890216 160.26290258701442, 934.1714581432238 160.16980659776476 M934 160 C938.4642666742205 159.41663130074738, 940.2095183774829 162.06159947663545, 940.2807749196887 165.68614829331636 M934.6683366701006 160.47940243035555 C938.6840626487881 159.7481196501106, 940.2036304888875 162.16732908509672, 940.4999230466038 166.1853826119751 M940.5600401556492 166.09835334181787 C940.0722936918497 170.06079171955585, 939.8464420606853 173.74064586877822, 939.9791649496556 182.35128482222558 M940.302847802043 165.88625241577626 C939.8702437970162 169.23512246966362, 940.1882040974617 173.03091940343378, 939.6937013596296 181.93833068192006 M940 182 C939.4474542543292 186.0643107250333, 938.3430080816149 188.5431076362729, 933.5008674070239 188.77060445100068 M940.3487105295062 182.60596979409456 C940.3406591520459 185.87792840503155, 937.1620392785221 187.51801354192196, 933.5031203494221 187.52238695405424 M933.6856950328624 187.81999690242645 C805.8288854423195 188.882567712707, 678.3123922647031 188.50625024256254, 606.5083033715889 188.22967812845795 M933.8657249650736 188.13657306826897 C850.6992229914279 187.79102446617233, 767.9943286053863 187.29050583856161, 606.0899884473652 187.9767997248606 M606 188 C601.4631308481097 187.9891691043973, 600.3818383619189 185.7195681884885, 600.349347345531 181.34571612626314 M605.2760265275836 188.2765129879117 C602.1541102085263 187.93387577079235, 600.5173319182545 185.64902606271207, 600.4122054085881 181.80727795384826 M599.8738272345066 181.7544368684292 C600.5279873518705 175.8973857587576, 599.8142304472684 169.60728167057036, 600.1342362082005 166.3560060441494 M600.0810824364423 181.69028950989247 C599.691050380373 178.75410183668137, 599.9076117550374 175.1088254183531, 600.2152392166853 166.05222861588 M600 166 C600.7413745805621 161.69237831383944, 602.3935873433948 160.45465300828218, 606.4187928602099 159.55015519410372 M599.3553627893328 165.51720388680695 C600.5615056619794 161.39980940364302, 602.8397232518345 159.08108930371702, 606.6311430678517 159.1870282676071 M606 160 C606 160, 606 160, 606 160 M606 160 C606 160, 606 160, 606 160" stroke="#D4644B" stroke-width="1.5" fill="none"/></g></g><g><g><path d="M606.4122012161795 194.66087483950434 C720.9542857132499 195.17357035628052, 834.6832499159948 193.91674666325991, 932.5175388411071 192.38109444046205 C937.2139371857047 193.96189115196466, 938.8477964863181 195.58419106155634, 940.5304181560874 200.6148124948144 C938.3981763619662 204.3574952930212, 939.447583672452 213.0489346790314, 939.4472153294087 216.6911658847332 C942.1861339345575 218.8711550220847, 937.1240710511804 223.23371152728797, 935.6855274453759 224.09531574100257 C850.5007424797133 223.513578105174, 768.9651793714953 222.6571964890766, 604.8438280955077 223.38940177258212 C600.3194159016014 223.3249861970544, 598.4087180122733 221.62717044502497, 597.6984716400505 214.9245368734002 C601.2239381049872 213.4419340068102, 599.7145966361761 208.91019182920456, 598.7230502521992 200.03872390627862 C598.1619364991784 194.03675184100865, 600.4481173291803 191.8715968593955, 604.952099968493 193.2175791248679 C606 194, 606 194, 606 194" stroke="none" stroke-width="0" fill="#FFF5F3"/><path d="M605.4520921656117 193.58340048158516 C671.8185746061744 193.9490313421184, 736.904968584898 194.6301284647547, 934.1837471840818 193.58200857345895 M605.932998265394 194.03107427044193 C703.1945293369017 194.24264713646474, 800.8599352890216 194.26290258701442, 934.1714581432238 194.16980659776476 M934 194 C938.4642666742205 193.41663130074738, 940.2095183774829 196.06159947663545, 940.2807749196887 199.68614829331636 M934.6683366701006 194.47940243035555 C938.6840626487881 193.7481196501106, 940.2036304888875 196.16732908509672, 940.4999230466038 200.1853826119751 M940.5600401556492 200.09835334181787 C940.0722936918497 204.06079171955585, 939.8464420606853 207.74064586877822, 939.9791649496556 216.35128482222558 M940.302847802043 199.88625241577626 C939.8702437970162 203.23512246966362, 940.1882040974617 207.03091940343378, 939.6937013596296 215.93833068192006 M940 216 C939.4474542543292 220.0643107250333, 938.3430080816149 222.5431076362729, 933.5008674070239 222.77060445100068 M940.3487105295062 216.60596979409456 C940.3406591520459 219.87792840503155, 937.1620392785221 221.51801354192196, 933.5031203494221 221.52238695405424 M933.6856950328624 221.81999690242645 C805.8288854423195 222.882567712707, 678.3123922647031 222.50625024256254, 606.5083033715889 222.22967812845795 M933.8657249650736 222.13657306826897 C850.6992229914279 221.79102446617233, 767.9943286053863 221.29050583856161, 606.0899884473652 221.9767997248606 M606 222 C601.4631308481097 221.9891691043973, 600.3818383619189 219.7195681884885, 600.349347345531 215.34571612626314 M605.2760265275836 222.2765129879117 C602.1541102085263 221.93387577079235, 600.5173319182545 219.64902606271207, 600.4122054085881 215.80727795384826 M599.8738272345066 215.7544368684292 C600.5279873518705 209.8973857587576, 599.8142304472684 203.60728167057036, 600.1342362082005 200.3560060441494 M600.0810824364423 215.69028950989247 C599.691050380373 212.75410183668137, 599.9076117550374 209.1088254183531, 600.2152392166853 200.05222861588 M600 200 C600.7413745805621 195.69237831383944, 602.3935873433948 194.45465300828218, 606.4187928602099 193.55015519410372 M599.3553627893328 199.51720388680695 C600.5615056619794 195.39980940364302, 602.8397232518345 193.08108930371702, 606.6311430678517 193.1870282676071 M606 194 C606 194, 606 194, 606 194 M606 194 C606 194, 606 194, 606 194" stroke="#D4644B" stroke-width="1.5" fill="none"/></g></g><g><g><path d="M606.4122012161795 228.66087483950434 C720.9542857132499 229.17357035628052, 834.6832499159948 227.91674666325991, 932.5175388411071 226.38109444046205 C937.2139371857047 227.96189115196466, 938.8477964863181 229.58419106155634, 940.5304181560874 234.6148124948144 C938.3981763619662 238.3574952930212, 939.447583672452 247.0489346790314, 939.4472153294087 250.6911658847332 C942.1861339345575 252.8711550220847, 937.1240710511804 257.23371152728794, 935.6855274453759 258.09531574100254 C850.5007424797133 257.51357810517396, 768.9651793714953 256.65719648907657, 604.8438280955077 257.3894017725821 C600.3194159016014 257.3249861970544, 598.4087180122733 255.62717044502497, 597.6984716400505 248.9245368734002 C601.2239381049872 247.4419340068102, 599.7145966361761 242.91019182920456, 598.7230502521992 234.03872390627862 C598.1619364991784 228.03675184100865, 600.4481173291803 225.8715968593955, 604.952099968493 227.2175791248679 C606 228, 606 228, 606 228" stroke="none" stroke-width="0" fill="#F4F4F4"/><path d="M605.4520921656117 227.58340048158516 C671.8185746061744 227.9490313421184, 736.904968584898 228.6301284647547, 934.1837471840818 227.58200857345895 M605.932998265394 228.03107427044193 C703.1945293369017 228.24264713646474, 800.8599352890216 228.26290258701442, 934.1714581432238 228.16980659776476 M934 228 C938.4642666742205 227.41663130074738, 940.2095183774829 230.06159947663545, 940.2807749196887 233.68614829331636 M934.6683366701006 228.47940243035555 C938.6840626487881 227.7481196501106, 940.2036304888875 230.16732908509672, 940.4999230466038 234.1853826119751 M940.5600401556492 234.09835334181787 C940.0722936918497 238.06079171955585, 939.8464420606853 241.74064586877822, 939.9791649496556 250.35128482222558 M940.302847802043 233.88625241577626 C939.8702437970162 237.23512246966362, 940.1882040974617 241.03091940343378, 939.6937013596296 249.93833068192006 M940 250 C939.4474542543292 254.0643107250333, 938.3430080816149 256.5431076362729, 933.5008674070239 256.7706044510007 M940.3487105295062 250.60596979409456 C940.3406591520459 253.87792840503155, 937.1620392785221 255.51801354192196, 933.5031203494221 255.52238695405424 M933.6856950328624 255.81999690242645 C805.8288854423195 256.88256771270693, 678.3123922647031 256.5062502425625, 606.5083033715889 256.229678128458 M933.8657249650736 256.13657306826894 C850.6992229914279 255.79102446617233, 767.9943286053863 255.29050583856161, 606.0899884473652 255.9767997248606 M606 256 C601.4631308481097 255.9891691043973, 600.3818383619189 253.7195681884885, 600.349347345531 249.34571612626314 M605.2760265275836 256.2765129879117 C602.1541102085263 255.93387577079235, 600.5173319182545 253.64902606271207, 600.4122054085881 249.80727795384826 M599.8738272345066 249.7544368684292 C600.5279873518705 243.8973857587576, 599.8142304472684 237.60728167057036, 600.1342362082005 234.3560060441494 M600.0810824364423 249.69028950989247 C599.691050380373 246.75410183668137, 599.9076117550374 243.1088254183531, 600.2152392166853 234.05222861588 M600 234 C600.7413745805621 229.69237831383944, 602.3935873433948 228.45465300828218, 606.4187928602099 227.55015519410372 M599.3553627893328 233.51720388680695 C600.5615056619794 229.39980940364302, 602.8397232518345 227.08108930371702, 606.6311430678517 227.1870282676071 M606 228 C606 228, 606 228, 606 228 M606 228 C606 228, 606 228, 606 228" stroke="#999" stroke-width="1.5" fill="none"/></g></g></g><g id="layer-text"><text x="24" y="26" text-anchor="start" font-family="Inter, &quot;IBM Plex Sans&quot;, system-ui, sans-serif" font-size="10" font-weight="600" fill="#C97755" letter-spacing="1">CORRELATED TRAFFIC EVENT</text><text x="354" y="26" text-anchor="start" font-family="Inter, &quot;IBM Plex Sans&quot;, system-ui, sans-serif" font-size="10" font-weight="600" fill="#999" letter-spacing="1">PROVISIONER</text><text x="584" y="26" text-anchor="start" font-family="Inter, &quot;IBM Plex Sans&quot;, system-ui, sans-serif" font-size="10" font-weight="600" fill="#999" letter-spacing="1">PROVISIONER QUEUE</text><text x="60" y="83.73" text-anchor="middle" font-family="Inter, &quot;IBM Plex Sans&quot;, system-ui, sans-serif" font-size="10" font-weight="700" fill="#3B7DD8" letter-spacing="0.2">HPA</text><text x="60" y="101.23" text-anchor="middle" font-family="Inter, &quot;IBM Plex Sans&quot;, system-ui, sans-serif" font-size="8" font-weight="400" fill="#888">svc-1</text><text x="144" y="83.73" text-anchor="middle" font-family="Inter, &quot;IBM Plex Sans&quot;, system-ui, sans-serif" font-size="10" font-weight="700" fill="#3B7DD8" letter-spacing="0.2">HPA</text><text x="144" y="101.23" text-anchor="middle" font-family="Inter, &quot;IBM Plex Sans&quot;, system-ui, sans-serif" font-size="8" font-weight="400" fill="#888">svc-2</text><text x="228" y="83.73" text-anchor="middle" font-family="Inter, &quot;IBM Plex Sans&quot;, system-ui, sans-serif" font-size="10" font-weight="700" fill="#3B7DD8" letter-spacing="0.2">HPA</text><text x="228" y="101.23" text-anchor="middle" font-family="Inter, &quot;IBM Plex Sans&quot;, system-ui, sans-serif" font-size="8" font-weight="400" fill="#888">svc-3</text><text x="60" y="148.73" text-anchor="middle" font-family="Inter, &quot;IBM Plex Sans&quot;, system-ui, sans-serif" font-size="10" font-weight="700" fill="#3B7DD8" letter-spacing="0.2">HPA</text><text x="60" y="166.23" text-anchor="middle" font-family="Inter, &quot;IBM Plex Sans&quot;, system-ui, sans-serif" font-size="8" font-weight="400" fill="#888">svc-4</text><text x="144" y="148.73" text-anchor="middle" font-family="Inter, &quot;IBM Plex Sans&quot;, system-ui, sans-serif" font-size="10" font-weight="700" fill="#3B7DD8" letter-spacing="0.2">HPA</text><text x="144" y="166.23" text-anchor="middle" font-family="Inter, &quot;IBM Plex Sans&quot;, system-ui, sans-serif" font-size="8" font-weight="400" fill="#888">svc-5</text><text x="228" y="148.73" text-anchor="middle" font-family="Inter, &quot;IBM Plex Sans&quot;, system-ui, sans-serif" font-size="10" font-weight="700" fill="#3B7DD8" letter-spacing="0.2">HPA</text><text x="228" y="166.23" text-anchor="middle" font-family="Inter, &quot;IBM Plex Sans&quot;, system-ui, sans-serif" font-size="8" font-weight="400" fill="#888">svc-6</text><text x="60" y="213.73" text-anchor="middle" font-family="Inter, &quot;IBM Plex Sans&quot;, system-ui, sans-serif" font-size="10" font-weight="700" fill="#3B7DD8" letter-spacing="0.2">HPA</text><text x="60" y="231.23" text-anchor="middle" font-family="Inter, &quot;IBM Plex Sans&quot;, system-ui, sans-serif" font-size="8" font-weight="400" fill="#888">svc-7</text><text x="144" y="213.73" text-anchor="middle" font-family="Inter, &quot;IBM Plex Sans&quot;, system-ui, sans-serif" font-size="10" font-weight="700" fill="#3B7DD8" letter-spacing="0.2">HPA</text><text x="144" y="231.23" text-anchor="middle" font-family="Inter, &quot;IBM Plex Sans&quot;, system-ui, sans-serif" font-size="8" font-weight="400" fill="#888">svc-8</text><text x="228" y="213.73" text-anchor="middle" font-family="Inter, &quot;IBM Plex Sans&quot;, system-ui, sans-serif" font-size="10" font-weight="700" fill="#3B7DD8" letter-spacing="0.2">HPA</text><text x="228" y="231.23" text-anchor="middle" font-family="Inter, &quot;IBM Plex Sans&quot;, system-ui, sans-serif" font-size="8" font-weight="400" fill="#888">svc-9</text><text x="430" y="152.64" text-anchor="middle" font-family="Inter, &quot;IBM Plex Sans&quot;, system-ui, sans-serif" font-size="12" font-weight="700" fill="#326CE5" letter-spacing="0.2">Node Provisioner</text><text x="770" y="74.2" text-anchor="middle" font-family="Inter, &quot;IBM Plex Sans&quot;, system-ui, sans-serif" font-size="10" font-weight="700" fill="#D4644B" letter-spacing="0.2">svc-1: 4 nodes requested</text><text x="948" y="75" text-anchor="start" font-family="Inter, &quot;IBM Plex Sans&quot;, system-ui, sans-serif" font-size="9" font-weight="400" fill="#BBB">+0s</text><text x="770" y="108.2" text-anchor="middle" font-family="Inter, &quot;IBM Plex Sans&quot;, system-ui, sans-serif" font-size="10" font-weight="700" fill="#D4644B" letter-spacing="0.2">svc-3: 2 nodes requested</text><text x="948" y="109" text-anchor="start" font-family="Inter, &quot;IBM Plex Sans&quot;, system-ui, sans-serif" font-size="9" font-weight="400" fill="#BBB">+15s</text><text x="770" y="142.2" text-anchor="middle" font-family="Inter, &quot;IBM Plex Sans&quot;, system-ui, sans-serif" font-size="10" font-weight="700" fill="#D4644B" letter-spacing="0.2">svc-5: 6 nodes requested</text><text x="948" y="143" text-anchor="start" font-family="Inter, &quot;IBM Plex Sans&quot;, system-ui, sans-serif" font-size="9" font-weight="400" fill="#BBB">+45s</text><text x="770" y="176.2" text-anchor="middle" font-family="Inter, &quot;IBM Plex Sans&quot;, system-ui, sans-serif" font-size="10" font-weight="700" fill="#D4644B" letter-spacing="0.2">svc-7: 3 nodes requested</text><text x="948" y="177" text-anchor="start" font-family="Inter, &quot;IBM Plex Sans&quot;, system-ui, sans-serif" font-size="9" font-weight="400" fill="#BBB">+1m 20s</text><text x="770" y="210.2" text-anchor="middle" font-family="Inter, &quot;IBM Plex Sans&quot;, system-ui, sans-serif" font-size="10" font-weight="700" fill="#D4644B" letter-spacing="0.2">svc-9: 5 nodes requested</text><text x="948" y="211" text-anchor="start" font-family="Inter, &quot;IBM Plex Sans&quot;, system-ui, sans-serif" font-size="9" font-weight="400" fill="#BBB">+2m 40s</text><text x="770" y="244.2" text-anchor="middle" font-family="Inter, &quot;IBM Plex Sans&quot;, system-ui, sans-serif" font-size="10" font-weight="700" fill="#999" letter-spacing="0.2">... 4 more pending</text><text x="948" y="245" text-anchor="start" font-family="Inter, &quot;IBM Plex Sans&quot;, system-ui, sans-serif" font-size="9" font-weight="400" fill="#BBB">+3m 50s</text><text x="810" y="311" text-anchor="middle" font-family="Inter, &quot;IBM Plex Sans&quot;, system-ui, sans-serif" font-size="11" font-weight="600" fill="#D4644B">≈ 4 min provisioning delay under burst</text><text x="540" y="362" text-anchor="middle" font-family="Inter, &quot;IBM Plex Sans&quot;, system-ui, sans-serif" font-size="11" font-weight="600" fill="#999">Hundreds of independent HPAs → 1 provisioner queue</text></g></svg>