<?xml version="1.0" encoding="UTF-8"?>
<svg xmlns="http://www.w3.org/2000/svg" width="980" height="740" viewBox="-10 -10 980 740"><defs><filter id="shadow" x="-4%" y="-4%" width="112%" height="112%"><feFlood flood-color="#000000" flood-opacity="0.08" result="color"/><feComposite in="color" in2="SourceGraphic" operator="in" result="shadow"/><feGaussianBlur in="shadow" stdDeviation="3" result="blur"/><feOffset in="blur" dx="2" dy="3" result="offsetBlur"/><feMerge><feMergeNode in="offsetBlur"/><feMergeNode in="SourceGraphic"/></feMerge></filter><filter id="shadow-light" x="-4%" y="-4%" width="112%" height="112%"><feFlood flood-color="#000000" flood-opacity="0.04" result="color"/><feComposite in="color" in2="SourceGraphic" operator="in" result="shadow"/><feGaussianBlur in="shadow" stdDeviation="2" result="blur"/><feOffset in="blur" dx="1" dy="2" result="offsetBlur"/><feMerge><feMergeNode in="offsetBlur"/><feMergeNode in="SourceGraphic"/></feMerge></filter></defs><g id="layer-zones"><rect x="20" y="10" width="920" height="110" fill="#F2F4F8" rx="12" ry="12"/><rect x="240" y="135" width="480" height="370" fill="#F0F0F5" rx="12" ry="12"/><rect x="20" y="520" width="920" height="95" fill="#F0ECF3" rx="12" ry="12"/></g><g id="layer-connectors"><path d="M480,203 C480,213 480,213 480,223" fill="none" stroke="#999" stroke-width="1.3" stroke-linecap="round"/><polygon points="480,223 476.5289300870595,215.79224905678063 483.4710699129405,215.79224905678063" fill="#999" stroke="none"/><circle cx="480" cy="203" r="2.5" fill="#999"/><path d="M480,271 C480,281 480,281 480,291" fill="none" stroke="#999" stroke-width="1.3" stroke-linecap="round"/><polygon points="480,291 476.5289300870595,283.79224905678063 483.4710699129405,283.79224905678063" fill="#999" stroke="none"/><circle cx="480" cy="271" r="2.5" fill="#999"/><path d="M480,339 C480,349 480,349 480,359" fill="none" stroke="#999" stroke-width="1.3" stroke-linecap="round"/><polygon points="480,359 476.5289300870595,351.79224905678063 483.4710699129405,351.79224905678063" fill="#999" stroke="none"/><circle cx="480" cy="339" r="2.5" fill="#999"/><path d="M480,407 C480,417 480,417 480,427" fill="none" stroke="#999" stroke-width="1.3" stroke-linecap="round"/><polygon points="480,427 476.5289300870595,419.79224905678063 483.4710699129405,419.79224905678063" fill="#999" stroke="none"/><circle cx="480" cy="407" r="2.5" fill="#999"/><path d="M206.25,105 C343.125,105 343.125,155 480,155" fill="none" stroke="#AAA" stroke-width="1.3" stroke-linecap="round"/><polygon points="480,155 472.79224905678063,158.47106991294046 472.79224905678063,151.52893008705954" fill="#AAA" stroke="none"/><circle cx="206.25" cy="105" r="2.5" fill="#AAA"/><path d="M480,105 C480,130 480,130 480,155" fill="none" stroke="#AAA" stroke-width="1.3" stroke-linecap="round"/><polygon points="480,155 476.5289300870595,147.79224905678063 483.4710699129405,147.79224905678063" fill="#AAA" stroke="none"/><circle cx="480" cy="105" r="2.5" fill="#AAA"/><path d="M753.75,105 C616.875,105 616.875,155 480,155" fill="none" stroke="#AAA" stroke-width="1.3" stroke-linecap="round"/><polygon points="480,155 487.20775094321937,151.52893008705954 487.20775094321937,158.47106991294046" fill="#AAA" stroke="none"/><circle cx="753.75" cy="105" r="2.5" fill="#AAA"/><path d="M480,475 C348.75,475 348.75,540 217.5,540" fill="none" stroke="#999" stroke-width="1.3" stroke-linecap="round"/><polygon points="217.5,540 224.70775094321937,536.5289300870595 224.70775094321937,543.4710699129405" fill="#999" stroke="none"/><circle cx="480" cy="475" r="2.5" fill="#999"/><path d="M480,475 C480,507.5 480,507.5 480,540" fill="none" stroke="#999" stroke-width="1.3" stroke-linecap="round"/><polygon points="480,540 476.5289300870595,532.7922490567806 483.4710699129405,532.7922490567806" fill="#999" stroke="none"/><circle cx="480" cy="475" r="2.5" fill="#999"/><path d="M480,475 C611.25,475 611.25,540 742.5,540" fill="none" stroke="#999" stroke-width="1.3" stroke-linecap="round"/><polygon points="742.5,540 735.2922490567806,543.4710699129405 735.2922490567806,536.5289300870595" fill="#999" stroke="none"/><circle cx="480" cy="475" r="2.5" fill="#999"/></g><g id="layer-boxes"><g filter="url(#shadow)"><g><path d="M105.46637348588762 31.14854880075126 C177.13337008419614 31.216999140022054, 247.38722718454082 29.0327378259475, 305.1735984116391 27.18646871118385 C310.7019162476063 29.949188202619553, 312.21372864842414 31.44558808207512, 314.45722420811654 36.819749993085864 C311.19364316563014 57.32157312836498, 312.9426553497732 85.86638641171157, 312.8286922156811 100.151943141222 C316.6648452460766 101.49487336277961, 310.5820947349072 106.64494870305062, 309.9973699271679 107.79375432133675 C255.7575531880746 106.6022992264684, 207.1778537334478 105.11397493363897, 102.74066362495682 107.41467165077384 C98.50922120213508 106.76664826273918, 96.62829068303108 105.16956059336663, 95.68129552006721 97.56604916453361 C100.40118595090509 86.9482768693939, 97.88561683622002 71.60709343142808, 96.62175042033195 36.06453984379768 C96.29924866557121 29.382335788011552, 98.68082310557365 27.16212914586067, 103.35279995799064 28.956772166490556 C104.75 30, 104.75 30, 104.75 30" stroke="none" stroke-width="0" fill="#E3EDFA"/><path d="M103.32166853277191 28.91397391306095 C145.79668034152846 29.604851591653162, 184.93465165528744 31.38039191329508, 308.229007359571 28.91034537181484 M104.5753343356487 30.081006978742906 C164.60745824500245 30.166483572556654, 225.69243660285107 30.21928715663987, 308.1969712712769 30.442665885953485 M307.75 30 C312.67853334844114 28.833262601494788, 314.16903675496576 32.123198953270915, 314.3115498393774 35.37229658663273 M309.0866733402014 30.958804860711098 C313.11812529757617 29.496239300221205, 314.15726097777485 32.334658170193435, 314.7498460932076 36.370765223950144 M315.15010038912294 36.24588335454464 C313.8131872910768 51.90764605794102, 313.24855821316544 66.86294819004834, 313.6979123741388 99.87821205556392 M314.5071195051074 35.71563103944063 C313.53247449820935 48.93812398072332, 314.3273752493232 63.27793412171304, 312.9842533990741 98.84582670480013 M313.75 99 C312.64490850865843 103.12862145006656, 312.43601616322997 106.08621527254581, 306.75173481404784 106.54120890200139 M314.4474210590124 100.21193958818913 C314.4313183040917 102.75585681006312, 310.0740785570443 104.03602708384395, 306.7562406988442 104.04477390810847 M306.93064381143614 104.53075303486057 C228.1863467540897 106.881946842909, 150.32921467393317 105.90093133165054, 106.07508727740517 105.5987439449133 M307.3999607313288 105.3560299720887 C255.86378947568332 104.89586677602969, 205.53097506493896 103.59107341320372, 104.98458932870012 104.93951960357174 M104.75 105 C99.67626169621944 104.9783382087946, 99.51367672383785 102.43913637697696, 99.44869469106197 97.69143225252628 M103.30205305516719 105.5530259758234 C101.05822041705251 104.86775154158472, 99.78466383650898 102.29805212542415, 99.5744108171761 98.61455590769648 M98.43456808626652 98.38609217107296 C100.20924219085873 74.70078146066517, 98.4248499293536 49.9328383039683, 99.08559052050114 36.8900151103735 M98.95270609110594 98.22572377473116 C97.79551214269698 85.82612738553435, 98.33691557935775 71.65380913354457, 99.28809804171324 36.13057153970003 M98.75 36 C100.23274916112423 31.384756627678872, 101.53717468678951 30.90930601656437, 105.58758572041988 29.100310388207436 M97.46072557866573 35.03440777361393 C99.87301132395864 30.799618807286024, 102.42944650366903 28.162178607434036, 106.01228613570332 28.374056535214187 M104.75 30 C104.75 30, 104.75 30, 104.75 30 M104.75 30 C104.75 30, 104.75 30, 104.75 30" stroke="#3B7DD8" stroke-width="1.5" fill="none"/></g></g><g filter="url(#shadow)"><g><path d="M379.21637348588763 31.14854880075126 C450.88337008419614 31.216999140022054, 521.1372271845408 29.0327378259475, 578.9235984116391 27.18646871118385 C584.4519162476063 29.949188202619553, 585.9637286484242 31.44558808207512, 588.2072242081165 36.819749993085864 C584.9436431656301 57.32157312836498, 586.6926553497732 85.86638641171157, 586.578692215681 100.151943141222 C590.4148452460765 101.49487336277961, 584.3320947349072 106.64494870305062, 583.7473699271679 107.79375432133675 C529.5075531880746 106.6022992264684, 480.92785373344776 105.11397493363897, 376.4906636249568 107.41467165077384 C372.2592212021351 106.76664826273918, 370.3782906830311 105.16956059336663, 369.43129552006724 97.56604916453361 C374.1511859509051 86.9482768693939, 371.63561683622004 71.60709343142808, 370.371750420332 36.06453984379768 C370.0492486655712 29.382335788011552, 372.43082310557367 27.16212914586067, 377.10279995799067 28.956772166490556 C378.5 30, 378.5 30, 378.5 30" stroke="none" stroke-width="0" fill="#FBEAE5"/><path d="M377.0716685327719 28.91397391306095 C419.54668034152843 29.604851591653162, 458.68465165528744 31.38039191329508, 581.979007359571 28.91034537181484 M378.32533433564873 30.081006978742906 C438.3574582450024 30.166483572556654, 499.44243660285105 30.21928715663987, 581.9469712712769 30.442665885953485 M581.5 30 C586.4285333484411 28.833262601494788, 587.9190367549658 32.123198953270915, 588.0615498393774 35.37229658663273 M582.8366733402014 30.958804860711098 C586.8681252975762 29.496239300221205, 587.9072609777749 32.334658170193435, 588.4998460932076 36.370765223950144 M588.9001003891229 36.24588335454464 C587.5631872910768 51.90764605794102, 586.9985582131654 66.86294819004834, 587.4479123741388 99.87821205556392 M588.2571195051074 35.71563103944063 C587.2824744982094 48.93812398072332, 588.0773752493233 63.27793412171304, 586.7342533990741 98.84582670480013 M587.5 99 C586.3949085086584 103.12862145006656, 586.18601616323 106.08621527254581, 580.5017348140478 106.54120890200139 M588.1974210590124 100.21193958818913 C588.1813183040917 102.75585681006312, 583.8240785570442 104.03602708384395, 580.5062406988442 104.04477390810847 M580.6806438114362 104.53075303486057 C501.9363467540897 106.881946842909, 424.07921467393317 105.90093133165054, 379.82508727740515 105.5987439449133 M581.1499607313287 105.3560299720887 C529.6137894756833 104.89586677602969, 479.28097506493896 103.59107341320372, 378.7345893287001 104.93951960357174 M378.5 105 C373.42626169621946 104.9783382087946, 373.2636767238379 102.43913637697696, 373.198694691062 97.69143225252628 M377.0520530551672 105.5530259758234 C374.8082204170525 104.86775154158472, 373.53466383650897 102.29805212542415, 373.3244108171761 98.61455590769648 M372.1845680862665 98.38609217107296 C373.95924219085873 74.70078146066517, 372.1748499293536 49.9328383039683, 372.8355905205011 36.8900151103735 M372.70270609110594 98.22572377473116 C371.54551214269696 85.82612738553435, 372.0869155793577 71.65380913354457, 373.0380980417132 36.13057153970003 M372.5 36 C373.9827491611242 31.384756627678872, 375.2871746867895 30.90930601656437, 379.3375857204199 29.100310388207436 M371.21072557866574 35.03440777361393 C373.6230113239586 30.799618807286024, 376.179446503669 28.162178607434036, 379.76228613570333 28.374056535214187 M378.5 30 C378.5 30, 378.5 30, 378.5 30 M378.5 30 C378.5 30, 378.5 30, 378.5 30" stroke="#D4644B" stroke-width="1.5" fill="none"/></g></g><g filter="url(#shadow)"><g><path d="M652.9663734858876 31.14854880075126 C724.6333700841961 31.216999140022054, 794.8872271845408 29.0327378259475, 852.6735984116391 27.18646871118385 C858.2019162476063 29.949188202619553, 859.7137286484242 31.44558808207512, 861.9572242081165 36.819749993085864 C858.6936431656301 57.32157312836498, 860.4426553497732 85.86638641171157, 860.328692215681 100.151943141222 C864.1648452460765 101.49487336277961, 858.0820947349072 106.64494870305062, 857.4973699271679 107.79375432133675 C803.2575531880746 106.6022992264684, 754.6778537334478 105.11397493363897, 650.2406636249568 107.41467165077384 C646.0092212021351 106.76664826273918, 644.1282906830311 105.16956059336663, 643.1812955200672 97.56604916453361 C647.9011859509051 86.9482768693939, 645.38561683622 71.60709343142808, 644.121750420332 36.06453984379768 C643.7992486655712 29.382335788011552, 646.1808231055736 27.16212914586067, 650.8527999579907 28.956772166490556 C652.25 30, 652.25 30, 652.25 30" stroke="none" stroke-width="0" fill="#E4F1EA"/><path d="M650.8216685327719 28.91397391306095 C693.2966803415285 29.604851591653162, 732.4346516552874 31.38039191329508, 855.729007359571 28.91034537181484 M652.0753343356487 30.081006978742906 C712.1074582450025 30.166483572556654, 773.192436602851 30.21928715663987, 855.6969712712769 30.442665885953485 M855.25 30 C860.1785333484411 28.833262601494788, 861.6690367549658 32.123198953270915, 861.8115498393774 35.37229658663273 M856.5866733402014 30.958804860711098 C860.6181252975762 29.496239300221205, 861.6572609777749 32.334658170193435, 862.2498460932076 36.370765223950144 M862.6501003891229 36.24588335454464 C861.3131872910768 51.90764605794102, 860.7485582131654 66.86294819004834, 861.1979123741388 99.87821205556392 M862.0071195051074 35.71563103944063 C861.0324744982094 48.93812398072332, 861.8273752493233 63.27793412171304, 860.4842533990741 98.84582670480013 M861.25 99 C860.1449085086584 103.12862145006656, 859.93601616323 106.08621527254581, 854.2517348140478 106.54120890200139 M861.9474210590124 100.21193958818913 C861.9313183040917 102.75585681006312, 857.5740785570442 104.03602708384395, 854.2562406988442 104.04477390810847 M854.4306438114362 104.53075303486057 C775.6863467540896 106.881946842909, 697.8292146739332 105.90093133165054, 653.5750872774051 105.5987439449133 M854.8999607313287 105.3560299720887 C803.3637894756833 104.89586677602969, 753.030975064939 103.59107341320372, 652.4845893287002 104.93951960357174 M652.25 105 C647.1762616962194 104.9783382087946, 647.0136767238379 102.43913637697696, 646.948694691062 97.69143225252628 M650.8020530551672 105.5530259758234 C648.5582204170526 104.86775154158472, 647.284663836509 102.29805212542415, 647.0744108171762 98.61455590769648 M645.9345680862665 98.38609217107296 C647.7092421908587 74.70078146066517, 645.9248499293535 49.9328383039683, 646.5855905205011 36.8900151103735 M646.4527060911059 98.22572377473116 C645.2955121426969 85.82612738553435, 645.8369155793578 71.65380913354457, 646.7880980417133 36.13057153970003 M646.25 36 C647.7327491611243 31.384756627678872, 649.0371746867895 30.90930601656437, 653.0875857204198 29.100310388207436 M644.9607255786657 35.03440777361393 C647.3730113239586 30.799618807286024, 649.929446503669 28.162178607434036, 653.5122861357033 28.374056535214187 M652.25 30 C652.25 30, 652.25 30, 652.25 30 M652.25 30 C652.25 30, 652.25 30, 652.25 30" stroke="#5FA384" stroke-width="1.5" fill="none"/></g></g><g filter="url(#shadow)"><g><path d="M346.6296521164438 156.0095099797503 C440.7119911143955 156.44563229872549, 533.5522597492588 154.52578910747542, 611.7354875007544 152.52706379342195 C616.9519162476063 154.94918820261955, 618.4637286484242 156.44558808207512, 620.7072242081165 161.81974999308585 C617.3724703939199 171.87399919405578, 619.121482578063 189.97123854309322, 619.078692215681 198.151943141222 C622.9148452460765 199.49487336277963, 616.8320947349072 204.6449487030506, 616.2473699271679 205.79375432133673 C545.5752881883205 204.878262224009, 480.1501899005121 203.57010864295668, 344.2339060195313 205.12236095469507 C339.7592212021351 204.76664826273918, 337.8782906830311 203.1695605933666, 336.93129552006724 195.5660491645336 C341.8952602311373 190.73589764460922, 339.37969111645225 181.18233498185873, 337.871750420332 161.0645398437977 C337.5492486655712 154.38233578801155, 339.93082310557367 152.16212914586066, 344.60279995799067 153.95677216649057 C346 155, 346 155, 346 155" stroke="none" stroke-width="0" fill="#EDEEF2"/><path d="M344.7445767479667 154.0454439791178 C400.00951992553655 154.77256159035278, 452.3413916651951 156.33316195228267, 614.4210206040392 154.04225469486843 M345.84647867712107 155.0712005910562 C425.1951861684695 155.35934697438347, 505.46929367093185 155.40575836331507, 614.3928626791657 155.38907848693304 M614 155 C618.9285333484411 153.8332626014948, 620.4190367549658 157.1231989532709, 620.5615498393774 160.37229658663273 M615.3366733402014 155.9588048607111 C619.3681252975762 154.4962393002212, 620.4072609777749 157.33465817019342, 620.9998460932076 161.37076522395014 M621.4001003891229 161.24588335454465 C620.1369958338857 170.15099377557635, 619.5723667559744 178.349643625319, 619.9479123741388 197.87821205556392 M620.7571195051074 160.71563103944064 C619.7153732155799 168.24427264258267, 620.5102739666938 176.8902314454317, 619.2342533990741 196.84582670480012 M620 197 C618.8949085086584 201.12862145006656, 618.68601616323 204.08621527254581, 613.0017348140478 204.5412089020014 M620.6974210590124 198.21193958818913 C620.6813183040917 200.75585681006314, 616.3240785570442 202.03602708384395, 613.0062406988442 202.04477390810848 M613.2798318636662 202.58755823525658 C509.0981505227981 204.8455402979841, 405.69623744042485 203.9832826836298, 347.16467739960694 203.52626234715467 M613.6923351147144 203.3129303776023 C545.6915936425041 202.70707717750787, 478.74853534695455 201.56023699063624, 346.20619086303583 202.94684112356947 M346 203 C340.92626169621946 202.97833820879458, 340.7636767238379 200.43913637697696, 340.698694691062 195.69143225252628 M344.5520530551672 203.5530259758234 C342.3082204170525 202.86775154158474, 341.03466383650897 200.29805212542414, 340.8244108171761 196.61455590769648 M339.6845680862665 196.38609217107296 C341.37179119313953 183.31610490754247, 339.5873989316344 169.1634851977229, 340.3355905205011 161.8900151103735 M340.20270609110594 196.22572377473116 C339.15986267344954 189.76510280147195, 339.7012661101103 181.53175996541978, 340.5380980417132 161.13057153970004 M340 161 C341.4827491611242 156.38475662767888, 342.7871746867895 155.90930601656436, 346.8375857204199 154.10031038820745 M338.71072557866574 160.03440777361394 C341.1230113239586 155.79961880728604, 343.679446503669 153.16217860743404, 347.26228613570333 153.37405653521418 M346 155 C346 155, 346 155, 346 155 M346 155 C346 155, 346 155, 346 155" stroke="#2D3142" stroke-width="1.5" fill="none"/></g></g><g filter="url(#shadow)"><g><path d="M346.6296521164438 224.0095099797503 C440.7119911143955 224.44563229872549, 533.5522597492588 222.52578910747542, 611.7354875007544 220.52706379342195 C616.9519162476063 222.94918820261955, 618.4637286484242 224.44558808207512, 620.7072242081165 229.81974999308585 C617.3724703939199 239.87399919405578, 619.121482578063 257.9712385430932, 619.078692215681 266.151943141222 C622.9148452460765 267.49487336277963, 616.8320947349072 272.6449487030506, 616.2473699271679 273.79375432133673 C545.5752881883205 272.878262224009, 480.1501899005121 271.5701086429567, 344.2339060195313 273.12236095469507 C339.7592212021351 272.7666482627392, 337.8782906830311 271.1695605933666, 336.93129552006724 263.56604916453364 C341.8952602311373 258.73589764460917, 339.37969111645225 249.18233498185873, 337.871750420332 229.0645398437977 C337.5492486655712 222.38233578801155, 339.93082310557367 220.16212914586066, 344.60279995799067 221.95677216649057 C346 223, 346 223, 346 223" stroke="none" stroke-width="0" fill="#EDEEF2"/><path d="M344.7445767479667 222.0454439791178 C400.00951992553655 222.77256159035278, 452.3413916651951 224.33316195228267, 614.4210206040392 222.04225469486843 M345.84647867712107 223.0712005910562 C425.1951861684695 223.35934697438347, 505.46929367093185 223.40575836331507, 614.3928626791657 223.38907848693304 M614 223 C618.9285333484411 221.8332626014948, 620.4190367549658 225.1231989532709, 620.5615498393774 228.37229658663273 M615.3366733402014 223.9588048607111 C619.3681252975762 222.4962393002212, 620.4072609777749 225.33465817019342, 620.9998460932076 229.37076522395014 M621.4001003891229 229.24588335454465 C620.1369958338857 238.15099377557635, 619.5723667559744 246.349643625319, 619.9479123741388 265.87821205556395 M620.7571195051074 228.71563103944064 C619.7153732155799 236.24427264258267, 620.5102739666938 244.8902314454317, 619.2342533990741 264.8458267048001 M620 265 C618.8949085086584 269.1286214500666, 618.68601616323 272.0862152725458, 613.0017348140478 272.54120890200136 M620.6974210590124 266.2119395881891 C620.6813183040917 268.7558568100631, 616.3240785570442 270.0360270838439, 613.0062406988442 270.0447739081085 M613.2798318636662 270.58755823525655 C509.0981505227981 272.8455402979841, 405.69623744042485 271.9832826836298, 347.16467739960694 271.52626234715467 M613.6923351147144 271.3129303776023 C545.6915936425041 270.70707717750787, 478.74853534695455 269.5602369906362, 346.20619086303583 270.94684112356947 M346 271 C340.92626169621946 270.9783382087946, 340.7636767238379 268.439136376977, 340.698694691062 263.6914322525263 M344.5520530551672 271.5530259758234 C342.3082204170525 270.8677515415847, 341.03466383650897 268.29805212542414, 340.8244108171761 264.6145559076965 M339.6845680862665 264.38609217107296 C341.37179119313953 251.31610490754247, 339.5873989316344 237.1634851977229, 340.3355905205011 229.8900151103735 M340.20270609110594 264.22572377473114 C339.15986267344954 257.7651028014719, 339.7012661101103 249.53175996541978, 340.5380980417132 229.13057153970004 M340 229 C341.4827491611242 224.38475662767888, 342.7871746867895 223.90930601656436, 346.8375857204199 222.10031038820745 M338.71072557866574 228.03440777361394 C341.1230113239586 223.79961880728604, 343.679446503669 221.16217860743404, 347.26228613570333 221.37405653521418 M346 223 C346 223, 346 223, 346 223 M346 223 C346 223, 346 223, 346 223" stroke="#2D3142" stroke-width="1.5" fill="none"/></g></g><g filter="url(#shadow)"><g><path d="M346.6296521164438 292.0095099797503 C440.7119911143955 292.44563229872546, 533.5522597492588 290.5257891074754, 611.7354875007544 288.5270637934219 C616.9519162476063 290.94918820261955, 618.4637286484242 292.4455880820751, 620.7072242081165 297.81974999308585 C617.3724703939199 307.8739991940558, 619.121482578063 325.9712385430932, 619.078692215681 334.151943141222 C622.9148452460765 335.49487336277963, 616.8320947349072 340.6449487030506, 616.2473699271679 341.79375432133673 C545.5752881883205 340.878262224009, 480.1501899005121 339.5701086429567, 344.2339060195313 341.12236095469507 C339.7592212021351 340.7666482627392, 337.8782906830311 339.1695605933666, 336.93129552006724 331.56604916453364 C341.8952602311373 326.73589764460917, 339.37969111645225 317.18233498185873, 337.871750420332 297.06453984379766 C337.5492486655712 290.3823357880116, 339.93082310557367 288.16212914586066, 344.60279995799067 289.95677216649057 C346 291, 346 291, 346 291" stroke="none" stroke-width="0" fill="#EDEEF2"/><path d="M344.7445767479667 290.0454439791178 C400.00951992553655 290.7725615903528, 452.3413916651951 292.3331619522827, 614.4210206040392 290.0422546948684 M345.84647867712107 291.0712005910562 C425.1951861684695 291.35934697438347, 505.46929367093185 291.40575836331504, 614.3928626791657 291.38907848693304 M614 291 C618.9285333484411 289.83326260149477, 620.4190367549658 293.1231989532709, 620.5615498393774 296.37229658663273 M615.3366733402014 291.9588048607111 C619.3681252975762 290.4962393002212, 620.4072609777749 293.33465817019345, 620.9998460932076 297.3707652239502 M621.4001003891229 297.2458833545446 C620.1369958338857 306.15099377557635, 619.5723667559744 314.349643625319, 619.9479123741388 333.87821205556395 M620.7571195051074 296.7156310394406 C619.7153732155799 304.24427264258264, 620.5102739666938 312.8902314454317, 619.2342533990741 332.8458267048001 M620 333 C618.8949085086584 337.1286214500666, 618.68601616323 340.0862152725458, 613.0017348140478 340.54120890200136 M620.6974210590124 334.2119395881891 C620.6813183040917 336.7558568100631, 616.3240785570442 338.0360270838439, 613.0062406988442 338.0447739081085 M613.2798318636662 338.58755823525655 C509.0981505227981 340.8455402979841, 405.69623744042485 339.9832826836298, 347.16467739960694 339.52626234715467 M613.6923351147144 339.3129303776023 C545.6915936425041 338.70707717750787, 478.74853534695455 337.5602369906362, 346.20619086303583 338.94684112356947 M346 339 C340.92626169621946 338.9783382087946, 340.7636767238379 336.439136376977, 340.698694691062 331.6914322525263 M344.5520530551672 339.5530259758234 C342.3082204170525 338.8677515415847, 341.03466383650897 336.29805212542414, 340.8244108171761 332.6145559076965 M339.6845680862665 332.38609217107296 C341.37179119313953 319.31610490754247, 339.5873989316344 305.1634851977229, 340.3355905205011 297.8900151103735 M340.20270609110594 332.22572377473114 C339.15986267344954 325.7651028014719, 339.7012661101103 317.5317599654198, 340.5380980417132 297.13057153970004 M340 297 C341.4827491611242 292.3847566276789, 342.7871746867895 291.90930601656436, 346.8375857204199 290.10031038820745 M338.71072557866574 296.0344077736139 C341.1230113239586 291.79961880728604, 343.679446503669 289.16217860743404, 347.26228613570333 289.3740565352142 M346 291 C346 291, 346 291, 346 291 M346 291 C346 291, 346 291, 346 291" stroke="#2D3142" stroke-width="1.5" fill="none"/></g></g><g filter="url(#shadow)"><g><path d="M346.6296521164438 360.0095099797503 C440.7119911143955 360.44563229872546, 533.5522597492588 358.5257891074754, 611.7354875007544 356.5270637934219 C616.9519162476063 358.94918820261955, 618.4637286484242 360.4455880820751, 620.7072242081165 365.81974999308585 C617.3724703939199 375.8739991940558, 619.121482578063 393.9712385430932, 619.078692215681 402.151943141222 C622.9148452460765 403.49487336277963, 616.8320947349072 408.6449487030506, 616.2473699271679 409.79375432133673 C545.5752881883205 408.878262224009, 480.1501899005121 407.5701086429567, 344.2339060195313 409.12236095469507 C339.7592212021351 408.7666482627392, 337.8782906830311 407.1695605933666, 336.93129552006724 399.56604916453364 C341.8952602311373 394.73589764460917, 339.37969111645225 385.18233498185873, 337.871750420332 365.06453984379766 C337.5492486655712 358.3823357880116, 339.93082310557367 356.16212914586066, 344.60279995799067 357.95677216649057 C346 359, 346 359, 346 359" stroke="none" stroke-width="0" fill="#EDEEF2"/><path d="M344.7445767479667 358.0454439791178 C400.00951992553655 358.7725615903528, 452.3413916651951 360.3331619522827, 614.4210206040392 358.0422546948684 M345.84647867712107 359.0712005910562 C425.1951861684695 359.35934697438347, 505.46929367093185 359.40575836331504, 614.3928626791657 359.38907848693304 M614 359 C618.9285333484411 357.83326260149477, 620.4190367549658 361.1231989532709, 620.5615498393774 364.37229658663273 M615.3366733402014 359.9588048607111 C619.3681252975762 358.4962393002212, 620.4072609777749 361.33465817019345, 620.9998460932076 365.3707652239502 M621.4001003891229 365.2458833545446 C620.1369958338857 374.15099377557635, 619.5723667559744 382.349643625319, 619.9479123741388 401.87821205556395 M620.7571195051074 364.7156310394406 C619.7153732155799 372.24427264258264, 620.5102739666938 380.8902314454317, 619.2342533990741 400.8458267048001 M620 401 C618.8949085086584 405.1286214500666, 618.68601616323 408.0862152725458, 613.0017348140478 408.54120890200136 M620.6974210590124 402.2119395881891 C620.6813183040917 404.7558568100631, 616.3240785570442 406.0360270838439, 613.0062406988442 406.0447739081085 M613.2798318636662 406.58755823525655 C509.0981505227981 408.8455402979841, 405.69623744042485 407.9832826836298, 347.16467739960694 407.52626234715467 M613.6923351147144 407.3129303776023 C545.6915936425041 406.70707717750787, 478.74853534695455 405.5602369906362, 346.20619086303583 406.94684112356947 M346 407 C340.92626169621946 406.9783382087946, 340.7636767238379 404.439136376977, 340.698694691062 399.6914322525263 M344.5520530551672 407.5530259758234 C342.3082204170525 406.8677515415847, 341.03466383650897 404.29805212542414, 340.8244108171761 400.6145559076965 M339.6845680862665 400.38609217107296 C341.37179119313953 387.31610490754247, 339.5873989316344 373.1634851977229, 340.3355905205011 365.8900151103735 M340.20270609110594 400.22572377473114 C339.15986267344954 393.7651028014719, 339.7012661101103 385.5317599654198, 340.5380980417132 365.13057153970004 M340 365 C341.4827491611242 360.3847566276789, 342.7871746867895 359.90930601656436, 346.8375857204199 358.10031038820745 M338.71072557866574 364.0344077736139 C341.1230113239586 359.79961880728604, 343.679446503669 357.16217860743404, 347.26228613570333 357.3740565352142 M346 359 C346 359, 346 359, 346 359 M346 359 C346 359, 346 359, 346 359" stroke="#2D3142" stroke-width="1.5" fill="none"/></g></g><g filter="url(#shadow)"><g><path d="M346.6296521164438 428.0095099797503 C440.7119911143955 428.44563229872546, 533.5522597492588 426.5257891074754, 611.7354875007544 424.5270637934219 C616.9519162476063 426.94918820261955, 618.4637286484242 428.4455880820751, 620.7072242081165 433.81974999308585 C617.3724703939199 443.8739991940558, 619.121482578063 461.9712385430932, 619.078692215681 470.151943141222 C622.9148452460765 471.49487336277963, 616.8320947349072 476.6449487030506, 616.2473699271679 477.79375432133673 C545.5752881883205 476.878262224009, 480.1501899005121 475.5701086429567, 344.2339060195313 477.12236095469507 C339.7592212021351 476.7666482627392, 337.8782906830311 475.1695605933666, 336.93129552006724 467.56604916453364 C341.8952602311373 462.73589764460917, 339.37969111645225 453.18233498185873, 337.871750420332 433.06453984379766 C337.5492486655712 426.3823357880116, 339.93082310557367 424.16212914586066, 344.60279995799067 425.95677216649057 C346 427, 346 427, 346 427" stroke="none" stroke-width="0" fill="#EDEEF2"/><path d="M344.7445767479667 426.0454439791178 C400.00951992553655 426.7725615903528, 452.3413916651951 428.3331619522827, 614.4210206040392 426.0422546948684 M345.84647867712107 427.0712005910562 C425.1951861684695 427.35934697438347, 505.46929367093185 427.40575836331504, 614.3928626791657 427.38907848693304 M614 427 C618.9285333484411 425.83326260149477, 620.4190367549658 429.1231989532709, 620.5615498393774 432.37229658663273 M615.3366733402014 427.9588048607111 C619.3681252975762 426.4962393002212, 620.4072609777749 429.33465817019345, 620.9998460932076 433.3707652239502 M621.4001003891229 433.2458833545446 C620.1369958338857 442.15099377557635, 619.5723667559744 450.349643625319, 619.9479123741388 469.87821205556395 M620.7571195051074 432.7156310394406 C619.7153732155799 440.24427264258264, 620.5102739666938 448.8902314454317, 619.2342533990741 468.8458267048001 M620 469 C618.8949085086584 473.1286214500666, 618.68601616323 476.0862152725458, 613.0017348140478 476.54120890200136 M620.6974210590124 470.2119395881891 C620.6813183040917 472.7558568100631, 616.3240785570442 474.0360270838439, 613.0062406988442 474.0447739081085 M613.2798318636662 474.58755823525655 C509.0981505227981 476.8455402979841, 405.69623744042485 475.9832826836298, 347.16467739960694 475.52626234715467 M613.6923351147144 475.3129303776023 C545.6915936425041 474.70707717750787, 478.74853534695455 473.5602369906362, 346.20619086303583 474.94684112356947 M346 475 C340.92626169621946 474.9783382087946, 340.7636767238379 472.439136376977, 340.698694691062 467.6914322525263 M344.5520530551672 475.5530259758234 C342.3082204170525 474.8677515415847, 341.03466383650897 472.29805212542414, 340.8244108171761 468.6145559076965 M339.6845680862665 468.38609217107296 C341.37179119313953 455.31610490754247, 339.5873989316344 441.1634851977229, 340.3355905205011 433.8900151103735 M340.20270609110594 468.22572377473114 C339.15986267344954 461.7651028014719, 339.7012661101103 453.5317599654198, 340.5380980417132 433.13057153970004 M340 433 C341.4827491611242 428.3847566276789, 342.7871746867895 427.90930601656436, 346.8375857204199 426.10031038820745 M338.71072557866574 432.0344077736139 C341.1230113239586 427.79961880728604, 343.679446503669 425.16217860743404, 347.26228613570333 425.3740565352142 M346 427 C346 427, 346 427, 346 427 M346 427 C346 427, 346 427, 346 427" stroke="#2D3142" stroke-width="1.5" fill="none"/></g></g><g filter="url(#shadow)"><g><path d="M139.3004409134388 541.2833326041698 C195.4895818848163 541.0289380176187, 250.0997494675219 538.5883505923867, 293.62125409245493 536.856296890974 C299.4519162476063 539.9491882026196, 300.96372864842414 541.4455880820751, 303.20722420811654 546.8197499930859 C299.90410273690225 561.5173653870821, 301.6531149210453 584.2579709291458, 301.5786922156811 595.151943141222 C305.4148452460766 596.4948733627796, 299.3320947349072 601.6449487030507, 298.7473699271679 602.7937543213368 C255.86734992079437 601.3767489913344, 219.04793786033989 599.7137677672744, 136.25486519932747 602.69803673625 C132.25922120213508 601.7666482627392, 130.37829068303108 600.1695605933667, 129.4312955200672 592.5660491645336 C134.2867827732563 585.1636217445135, 131.77121365857124 573.0377831816674, 130.37175042033195 546.0645398437977 C130.0492486655712 539.3823357880116, 132.43082310557367 537.1621291458607, 137.10279995799064 538.9567721664905 C138.5 540, 138.5 540, 138.5 540" stroke="none" stroke-width="0" fill="#EDE6F2"/><path d="M136.90405184328557 538.7865272372961 C170.5861042369157 539.4529795265018, 200.53950977995993 541.4368819808781, 297.0352195411921 538.7824728816747 M138.30483707636594 540.0905132606625 C184.95675975345077 539.9985460047781, 232.78509081676603 540.0575461630881, 296.9994239732623 540.4946133449673 M296.5 540 C301.42853334844114 538.8332626014948, 302.91903675496576 542.123198953271, 303.0615498393774 545.3722965866327 M297.8366733402014 540.9588048607111 C301.86812529757617 539.4962393002212, 302.90726097777485 542.3346581701934, 303.4998460932076 546.3707652239501 M303.90010038912294 546.2458833545446 C302.60419203708176 558.1539503455161, 302.0395629591704 569.3555567651987, 302.4479123741388 594.878212055564 M303.2571195051074 545.7156310394406 C302.2451960078597 555.7748732373118, 303.04009675897356 566.95143263489, 301.7342533990741 593.8458267048002 M302.5 594 C301.39490850865843 598.1286214500666, 301.18601616322997 601.0862152725458, 295.50173481404784 601.5412089020014 M303.1974210590124 595.2119395881891 C303.1813183040917 597.7558568100632, 298.8240785570443 599.0360270838439, 295.5062406988442 599.0447739081085 M295.5844912201166 599.475686249137 C234.46769575588405 601.9343336143196, 174.34217531606555 600.8381945647895, 139.98058811724187 600.6690073817969 M296.10888313502073 600.3978105857968 C255.96843568719925 600.060893092841, 217.1725606881082 598.602980409354, 138.76211871355773 599.932422144711 M138.5 600 C133.42626169621946 599.9783382087946, 133.26367672383785 597.439136376977, 133.19869469106197 592.6914322525263 M137.0520530551672 600.5530259758234 C134.8082204170525 599.8677515415848, 133.534663836509 597.2980521254242, 133.3244108171761 593.6145559076965 M132.18456808626652 593.386092171073 C133.91065830323694 575.5981833755969, 132.12626604173184 556.727642133832, 132.83559052050114 546.8900151103735 M132.70270609110594 593.2257237747311 C131.6090402153373 584.1255581721664, 132.15044365199805 573.2526707068085, 133.03809804171323 546.1305715397 M132.5 546 C133.98274916112422 541.3847566276788, 135.2871746867895 540.9093060165644, 139.3375857204199 539.1003103882074 M131.21072557866574 545.0344077736139 C133.62301132395862 540.799618807286, 136.17944650366903 538.162178607434, 139.76228613570333 538.3740565352142 M138.5 540 C138.5 540, 138.5 540, 138.5 540 M138.5 540 C138.5 540, 138.5 540, 138.5 540" stroke="#8B5FA0" stroke-width="1.5" fill="none"/></g></g><g filter="url(#shadow)"><g><path d="M401.8004409134388 541.2833326041698 C457.9895818848163 541.0289380176187, 512.599749467522 538.5883505923867, 556.1212540924549 536.856296890974 C561.9519162476063 539.9491882026196, 563.4637286484242 541.4455880820751, 565.7072242081165 546.8197499930859 C562.4041027369022 561.5173653870821, 564.1531149210454 584.2579709291458, 564.078692215681 595.151943141222 C567.9148452460765 596.4948733627796, 561.8320947349072 601.6449487030507, 561.2473699271679 602.7937543213368 C518.3673499207944 601.3767489913344, 481.54793786033986 599.7137677672744, 398.75486519932747 602.69803673625 C394.7592212021351 601.7666482627392, 392.8782906830311 600.1695605933667, 391.93129552006724 592.5660491645336 C396.7867827732563 585.1636217445135, 394.27121365857124 573.0377831816674, 392.871750420332 546.0645398437977 C392.5492486655712 539.3823357880116, 394.93082310557367 537.1621291458607, 399.60279995799067 538.9567721664905 C401 540, 401 540, 401 540" stroke="none" stroke-width="0" fill="#EDE6F2"/><path d="M399.4040518432856 538.7865272372961 C433.08610423691573 539.4529795265018, 463.03950977995993 541.4368819808781, 559.5352195411921 538.7824728816747 M400.80483707636597 540.0905132606625 C447.45675975345074 539.9985460047781, 495.28509081676606 540.0575461630881, 559.4994239732623 540.4946133449673 M559 540 C563.9285333484411 538.8332626014948, 565.4190367549658 542.123198953271, 565.5615498393774 545.3722965866327 M560.3366733402014 540.9588048607111 C564.3681252975762 539.4962393002212, 565.4072609777749 542.3346581701934, 565.9998460932076 546.3707652239501 M566.4001003891229 546.2458833545446 C565.1041920370817 558.1539503455161, 564.5395629591703 569.3555567651987, 564.9479123741388 594.878212055564 M565.7571195051074 545.7156310394406 C564.7451960078597 555.7748732373118, 565.5400967589736 566.95143263489, 564.2342533990741 593.8458267048002 M565 594 C563.8949085086584 598.1286214500666, 563.68601616323 601.0862152725458, 558.0017348140478 601.5412089020014 M565.6974210590124 595.2119395881891 C565.6813183040917 597.7558568100632, 561.3240785570442 599.0360270838439, 558.0062406988442 599.0447739081085 M558.0844912201167 599.475686249137 C496.96769575588405 601.9343336143196, 436.84217531606555 600.8381945647895, 402.48058811724184 600.6690073817969 M558.6088831350207 600.3978105857968 C518.4684356871992 600.060893092841, 479.6725606881082 598.602980409354, 401.2621187135577 599.932422144711 M401 600 C395.92626169621946 599.9783382087946, 395.7636767238379 597.439136376977, 395.698694691062 592.6914322525263 M399.5520530551672 600.5530259758234 C397.3082204170525 599.8677515415848, 396.03466383650897 597.2980521254242, 395.8244108171761 593.6145559076965 M394.6845680862665 593.386092171073 C396.41065830323697 575.5981833755969, 394.62626604173187 556.727642133832, 395.3355905205011 546.8900151103735 M395.20270609110594 593.2257237747311 C394.1090402153373 584.1255581721664, 394.65044365199805 573.2526707068085, 395.5380980417132 546.1305715397 M395 546 C396.4827491611242 541.3847566276788, 397.7871746867895 540.9093060165644, 401.8375857204199 539.1003103882074 M393.71072557866574 545.0344077736139 C396.1230113239586 540.799618807286, 398.679446503669 538.162178607434, 402.26228613570333 538.3740565352142 M401 540 C401 540, 401 540, 401 540 M401 540 C401 540, 401 540, 401 540" stroke="#8B5FA0" stroke-width="1.5" fill="none"/></g></g><g filter="url(#shadow)"><g><path d="M664.3004409134388 541.2833326041698 C720.4895818848163 541.0289380176187, 775.099749467522 538.5883505923867, 818.6212540924549 536.856296890974 C824.4519162476063 539.9491882026196, 825.9637286484242 541.4455880820751, 828.2072242081165 546.8197499930859 C824.9041027369022 561.5173653870821, 826.6531149210454 584.2579709291458, 826.578692215681 595.151943141222 C830.4148452460765 596.4948733627796, 824.3320947349072 601.6449487030507, 823.7473699271679 602.7937543213368 C780.8673499207944 601.3767489913344, 744.0479378603399 599.7137677672744, 661.2548651993275 602.69803673625 C657.2592212021351 601.7666482627392, 655.3782906830311 600.1695605933667, 654.4312955200672 592.5660491645336 C659.2867827732563 585.1636217445135, 656.7712136585712 573.0377831816674, 655.371750420332 546.0645398437977 C655.0492486655712 539.3823357880116, 657.4308231055736 537.1621291458607, 662.1027999579907 538.9567721664905 C663.5 540, 663.5 540, 663.5 540" stroke="none" stroke-width="0" fill="#EDE6F2"/><path d="M661.9040518432855 538.7865272372961 C695.5861042369157 539.4529795265018, 725.5395097799599 541.4368819808781, 822.0352195411921 538.7824728816747 M663.304837076366 540.0905132606625 C709.9567597534507 539.9985460047781, 757.785090816766 540.0575461630881, 821.9994239732623 540.4946133449673 M821.5 540 C826.4285333484411 538.8332626014948, 827.9190367549658 542.123198953271, 828.0615498393774 545.3722965866327 M822.8366733402014 540.9588048607111 C826.8681252975762 539.4962393002212, 827.9072609777749 542.3346581701934, 828.4998460932076 546.3707652239501 M828.9001003891229 546.2458833545446 C827.6041920370817 558.1539503455161, 827.0395629591703 569.3555567651987, 827.4479123741388 594.878212055564 M828.2571195051074 545.7156310394406 C827.2451960078597 555.7748732373118, 828.0400967589736 566.95143263489, 826.7342533990741 593.8458267048002 M827.5 594 C826.3949085086584 598.1286214500666, 826.18601616323 601.0862152725458, 820.5017348140478 601.5412089020014 M828.1974210590124 595.2119395881891 C828.1813183040917 597.7558568100632, 823.8240785570442 599.0360270838439, 820.5062406988442 599.0447739081085 M820.5844912201167 599.475686249137 C759.467695755884 601.9343336143196, 699.3421753160655 600.8381945647895, 664.9805881172418 600.6690073817969 M821.1088831350207 600.3978105857968 C780.9684356871992 600.060893092841, 742.1725606881082 598.602980409354, 663.7621187135577 599.932422144711 M663.5 600 C658.4262616962194 599.9783382087946, 658.2636767238379 597.439136376977, 658.198694691062 592.6914322525263 M662.0520530551672 600.5530259758234 C659.8082204170526 599.8677515415848, 658.534663836509 597.2980521254242, 658.3244108171762 593.6145559076965 M657.1845680862665 593.386092171073 C658.910658303237 575.5981833755969, 657.1262660417318 556.727642133832, 657.8355905205011 546.8900151103735 M657.7027060911059 593.2257237747311 C656.6090402153372 584.1255581721664, 657.1504436519981 573.2526707068085, 658.0380980417133 546.1305715397 M657.5 546 C658.9827491611243 541.3847566276788, 660.2871746867895 540.9093060165644, 664.3375857204198 539.1003103882074 M656.2107255786657 545.0344077736139 C658.6230113239586 540.799618807286, 661.179446503669 538.162178607434, 664.7622861357033 538.3740565352142 M663.5 540 C663.5 540, 663.5 540, 663.5 540 M663.5 540 C663.5 540, 663.5 540, 663.5 540" stroke="#8B5FA0" stroke-width="1.5" fill="none"/></g></g></g><g id="layer-text"><text x="34" y="28" text-anchor="start" font-family="Inter, &quot;IBM Plex Sans&quot;, system-ui, sans-serif" font-size="10" font-weight="600" fill="#B0B0B0" letter-spacing="1">INPUT CHANNELS</text><text x="254" y="153" text-anchor="start" font-family="Inter, &quot;IBM Plex Sans&quot;, system-ui, sans-serif" font-size="10" font-weight="600" fill="#B0B0B0" letter-spacing="1">TFT PROCESSING PIPELINE</text><text x="34" y="538" text-anchor="start" font-family="Inter, &quot;IBM Plex Sans&quot;, system-ui, sans-serif" font-size="10" font-weight="600" fill="#B0B0B0" letter-spacing="1">FORECAST OUTPUTS</text><text x="206.25" y="47.099999999999994" text-anchor="middle" font-family="Inter, &quot;IBM Plex Sans&quot;, system-ui, sans-serif" font-size="12" font-weight="700" fill="#3B7DD8" letter-spacing="0.2">Static Covariates</text><text x="206.25" y="67.3" text-anchor="middle" font-family="Inter, &quot;IBM Plex Sans&quot;, system-ui, sans-serif" font-size="10" font-weight="400" fill="#666">domain_id, priority_tier</text><text x="206.25" y="81.8" text-anchor="middle" font-family="Inter, &quot;IBM Plex Sans&quot;, system-ui, sans-serif" font-size="10" font-weight="400" fill="#666">traffic_character</text><text x="480" y="47.099999999999994" text-anchor="middle" font-family="Inter, &quot;IBM Plex Sans&quot;, system-ui, sans-serif" font-size="12" font-weight="700" fill="#D4644B" letter-spacing="0.2">Past Observed</text><text x="480" y="67.3" text-anchor="middle" font-family="Inter, &quot;IBM Plex Sans&quot;, system-ui, sans-serif" font-size="10" font-weight="400" fill="#666">traffic_rps, alert_count</text><text x="480" y="81.8" text-anchor="middle" font-family="Inter, &quot;IBM Plex Sans&quot;, system-ui, sans-serif" font-size="10" font-weight="400" fill="#666">cpu_util (24h, 1-min res)</text><text x="753.75" y="47.099999999999994" text-anchor="middle" font-family="Inter, &quot;IBM Plex Sans&quot;, system-ui, sans-serif" font-size="12" font-weight="700" fill="#5FA384" letter-spacing="0.2">Known Future</text><text x="753.75" y="67.3" text-anchor="middle" font-family="Inter, &quot;IBM Plex Sans&quot;, system-ui, sans-serif" font-size="10" font-weight="400" fill="#666">hour/day, is_payday</text><text x="753.75" y="81.8" text-anchor="middle" font-family="Inter, &quot;IBM Plex Sans&quot;, system-ui, sans-serif" font-size="10" font-weight="400" fill="#666">is_promotion, settlement</text><text x="480" y="175.1" text-anchor="middle" font-family="Inter, &quot;IBM Plex Sans&quot;, system-ui, sans-serif" font-size="12" font-weight="700" fill="#2D3142" letter-spacing="0.2">Variable Selection Networks</text><text x="480" y="243.1" text-anchor="middle" font-family="Inter, &quot;IBM Plex Sans&quot;, system-ui, sans-serif" font-size="12" font-weight="700" fill="#2D3142" letter-spacing="0.2">LSTM Encoder</text><text x="480" y="311.09999999999997" text-anchor="middle" font-family="Inter, &quot;IBM Plex Sans&quot;, system-ui, sans-serif" font-size="12" font-weight="700" fill="#2D3142" letter-spacing="0.2">LSTM Decoder</text><text x="480" y="379.09999999999997" text-anchor="middle" font-family="Inter, &quot;IBM Plex Sans&quot;, system-ui, sans-serif" font-size="12" font-weight="700" fill="#2D3142" letter-spacing="0.2">Multi-head Self-Attention</text><text x="480" y="447.09999999999997" text-anchor="middle" font-family="Inter, &quot;IBM Plex Sans&quot;, system-ui, sans-serif" font-size="12" font-weight="700" fill="#2D3142" letter-spacing="0.2">Quantile Output Head</text><text x="217.5" y="556.525" text-anchor="middle" font-family="Inter, &quot;IBM Plex Sans&quot;, system-ui, sans-serif" font-size="13" font-weight="700" fill="#8B5FA0" letter-spacing="0.2">t + 5 min</text><text x="217.5" y="578.0749999999999" text-anchor="middle" font-family="Inter, &quot;IBM Plex Sans&quot;, system-ui, sans-serif" font-size="10" font-weight="400" fill="#777">p10  p50  p80  p90</text><text x="480" y="556.525" text-anchor="middle" font-family="Inter, &quot;IBM Plex Sans&quot;, system-ui, sans-serif" font-size="13" font-weight="700" fill="#8B5FA0" letter-spacing="0.2">t + 15 min</text><text x="480" y="578.0749999999999" text-anchor="middle" font-family="Inter, &quot;IBM Plex Sans&quot;, system-ui, sans-serif" font-size="10" font-weight="400" fill="#777">p10  p50  p80  p90</text><text x="742.5" y="556.525" text-anchor="middle" font-family="Inter, &quot;IBM Plex Sans&quot;, system-ui, sans-serif" font-size="13" font-weight="700" fill="#8B5FA0" letter-spacing="0.2">t + 30 min</text><text x="742.5" y="578.0749999999999" text-anchor="middle" font-family="Inter, &quot;IBM Plex Sans&quot;, system-ui, sans-serif" font-size="10" font-weight="400" fill="#777">p10  p50  p80  p90</text><text x="480" y="705" text-anchor="middle" font-family="Inter, &quot;IBM Plex Sans&quot;, system-ui, sans-serif" font-size="10" font-weight="400" fill="#AAA">Quantile forecasts with calibrated uncertainty intervals per domain</text></g></svg>