<?xml version="1.0" encoding="UTF-8"?>
<svg xmlns="http://www.w3.org/2000/svg" width="980" height="280" viewBox="-10 -10 980 280"><defs><filter id="shadow" x="-4%" y="-4%" width="112%" height="112%"><feFlood flood-color="#000000" flood-opacity="0.08" result="color"/><feComposite in="color" in2="SourceGraphic" operator="in" result="shadow"/><feGaussianBlur in="shadow" stdDeviation="3" result="blur"/><feOffset in="blur" dx="2" dy="3" result="offsetBlur"/><feMerge><feMergeNode in="offsetBlur"/><feMergeNode in="SourceGraphic"/></feMerge></filter><filter id="shadow-light" x="-4%" y="-4%" width="112%" height="112%"><feFlood flood-color="#000000" flood-opacity="0.04" result="color"/><feComposite in="color" in2="SourceGraphic" operator="in" result="shadow"/><feGaussianBlur in="shadow" stdDeviation="2" result="blur"/><feOffset in="blur" dx="1" dy="2" result="offsetBlur"/><feMerge><feMergeNode in="offsetBlur"/><feMergeNode in="SourceGraphic"/></feMerge></filter></defs><g id="layer-zones"><rect x="10" y="8" width="618" height="200" fill="#F3F4F8" rx="12" ry="12"/><rect x="636" y="8" width="314" height="200" fill="#FDF6F4" rx="12" ry="12"/></g><g id="layer-connectors"><g><path d="M133.60101296082138 77.19663180932403 C135.71557839736343 77.28236089785398, 136.89798212125896 77.77833651144803, 142.13380488529802 77.1956182204187 M133.9512092690915 77.52262831516563 C136.26563702188432 77.35590593835711, 138.8741668712348 77.37065597793459, 142.12485599331558 77.62365333624184" stroke="#CCC" stroke-width="1.3" fill="none"/></g><polygon points="142,77.5 134.79224905678063,80.97106991294046 134.79224905678063,74.02893008705954" fill="#CCC" stroke="none"/><g><path d="M255.60101296082138 77.19663180932403 C257.7155783973634 77.28236089785398, 258.89798212125896 77.77833651144803, 264.133804885298 77.1956182204187 M255.9512092690915 77.52262831516563 C258.2656370218843 77.35590593835711, 260.87416687123476 77.37065597793459, 264.1248559933156 77.62365333624184" stroke="#CCC" stroke-width="1.3" fill="none"/></g><polygon points="264,77.5 256.79224905678063,80.97106991294046 256.79224905678063,74.02893008705954" fill="#CCC" stroke="none"/><g><path d="M377.6010129608214 77.19663180932403 C379.7155783973634 77.28236089785398, 380.89798212125896 77.77833651144803, 386.133804885298 77.1956182204187 M377.95120926909146 77.52262831516563 C380.2656370218843 77.35590593835711, 382.87416687123476 77.37065597793459, 386.1248559933156 77.62365333624184" stroke="#CCC" stroke-width="1.3" fill="none"/></g><polygon points="386,77.5 378.79224905678063,80.97106991294046 378.79224905678063,74.02893008705954" fill="#CCC" stroke="none"/><g><path d="M499.6010129608214 77.19663180932403 C501.7155783973634 77.28236089785398, 502.89798212125896 77.77833651144803, 508.133804885298 77.1956182204187 M499.95120926909146 77.52262831516563 C502.2656370218843 77.35590593835711, 504.87416687123476 77.37065597793459, 508.1248559933156 77.62365333624184" stroke="#CCC" stroke-width="1.3" fill="none"/></g><polygon points="508,77.5 500.79224905678063,80.97106991294046 500.79224905678063,74.02893008705954" fill="#CCC" stroke="none"/><g><path d="M621.6010129608214 77.19663180932403 C623.7155783973634 77.28236089785398, 624.897982121259 77.77833651144803, 630.133804885298 77.1956182204187 M621.9512092690915 77.52262831516563 C624.2656370218843 77.35590593835711, 626.8741668712347 77.37065597793459, 630.1248559933156 77.62365333624184" stroke="#CCC" stroke-width="1.3" fill="none"/></g><polygon points="630,77.5 622.7922490567806,80.97106991294046 622.7922490567806,74.02893008705954" fill="#CCC" stroke="none"/></g><g id="layer-boxes"><g filter="url(#shadow)"><g><path d="M28.8004409134388 46.28333260416984 C64.1637163143605 45.58776779283285, 97.94801832661032 43.14718036760092, 123.1212540924549 41.85629689097404 C128.95191624760628 44.94918820261955, 130.46372864842414 46.44558808207512, 132.70722420811654 51.819749993085864 C129.41728287981152 68.45210130084305, 131.16629506395458 93.12744275666773, 131.0786922156811 105.151943141222 C134.9148452460766 106.49487336277961, 128.83209473490714 111.64494870305062, 128.24736992716788 112.79375432133675 C100.5901842135936 110.82530594631433, 78.99360644593835 109.16232472225427, 25.75486519932747 112.69803673624992 C21.759221202135087 111.76664826273918, 19.878290683031082 110.16956059336663, 18.931295520067216 102.56604916453361 C23.741583832472564 94.09184011947364, 21.226014717787507 80.89421993158759, 19.871750420331956 51.06453984379768 C19.549248665571213 44.38233578801155, 21.930823105573655 42.162129145860675, 26.602799957990648 43.95677216649055 C28 45, 28 45, 28 45" stroke="none" stroke-width="0" fill="#E3EDFA"/><path d="M26.40405184328556 43.786527237296106 C48.074775357171895 44.31231172863841, 66.01685202047229 46.296214183014634, 126.53521954119205 43.782472881674764 M27.80483707636595 45.090513260662554 C56.64999229349196 44.74857980853915, 86.67155589684845 44.80757996684909, 126.49942397326231 45.49461334496736 M126 45 C130.92853334844114 43.83326260149479, 132.4190367549658 47.123198953270915, 132.5615498393774 50.37229658663273 M127.33667334020137 45.9588048607111 C131.3681252975762 44.496239300221205, 132.40726097777485 47.334658170193435, 132.9998460932076 51.370765223950144 M133.40010038912297 51.24588335454464 C132.0905237884134 64.40518224965781, 131.52589471050203 76.85802057348192, 131.94791237413884 104.87821205556392 M132.7571195051074 50.71563103944063 C131.7576221713096 61.82929015178233, 132.5525229224235 74.06026646383107, 131.23425339907408 103.84582670480013 M132 104 C130.8949085086584 108.12862145006656, 130.68601616322994 111.08621527254581, 125.00173481404781 111.54120890200139 M132.6974210590124 105.21193958818913 C132.6813183040917 107.75585681006312, 128.32407855704426 109.03602708384395, 125.0062406988442 109.04477390810847 M125.08449122011662 109.47568624913693 C87.39170955307782 111.70971719434857, 50.69020291045308 110.61357814481853, 29.480588117241858 110.66900738179683 M125.60888313502073 110.39781058579683 C100.67591086886823 110.29722175398469, 77.0875110514462 108.83930907049775, 28.26211871355772 109.93242214471101 M28 110 C22.926261696219445 109.9783382087946, 22.763676723837854 107.43913637697696, 22.698694691061974 102.69143225252628 M26.5520530551672 110.5530259758234 C24.308220417052507 109.86775154158472, 23.03466383650899 107.29805212542415, 22.824410817176105 103.61455590769648 M21.684568086266516 103.38609217107296 C23.426852932444213 83.63238273728639, 21.642460670939087 62.79604085721075, 22.335590520501135 51.8900151103735 M22.202706091105938 103.22572377473116 C21.087864191123845 93.02574790995568, 21.62926762778461 81.05305018238724, 22.538098041713237 51.13057153970003 M22 51 C23.48274916112423 46.38475662767887, 24.787174686789513 45.90930601656437, 28.837585720419884 44.10031038820743 M20.710725578665734 50.03440777361393 C23.123011323958636 45.79961880728602, 25.679446503669023 43.162178607434036, 29.262286135703324 43.37405653521419 M28 45 C28 45, 28 45, 28 45 M28 45 C28 45, 28 45, 28 45" stroke="#3B7DD8" stroke-width="1.5" fill="none"/></g></g><g filter="url(#shadow)"><g><path d="M150.8004409134388 46.28333260416984 C186.1637163143605 45.58776779283285, 219.9480183266103 43.14718036760092, 245.1212540924549 41.85629689097404 C250.95191624760628 44.94918820261955, 252.46372864842414 46.44558808207512, 254.70722420811654 51.819749993085864 C251.41728287981152 68.45210130084305, 253.16629506395458 93.12744275666773, 253.0786922156811 105.151943141222 C256.9148452460766 106.49487336277961, 250.83209473490714 111.64494870305062, 250.24736992716788 112.79375432133675 C222.5901842135936 110.82530594631433, 200.99360644593835 109.16232472225427, 147.75486519932747 112.69803673624992 C143.75922120213508 111.76664826273918, 141.87829068303108 110.16956059336663, 140.9312955200672 102.56604916453361 C145.74158383247257 94.09184011947364, 143.2260147177875 80.89421993158759, 141.87175042033195 51.06453984379768 C141.5492486655712 44.38233578801155, 143.93082310557367 42.162129145860675, 148.60279995799064 43.95677216649055 C150 45, 150 45, 150 45" stroke="none" stroke-width="0" fill="#FBEAE5"/><path d="M148.40405184328557 43.786527237296106 C170.0747753571719 44.31231172863841, 188.0168520204723 46.296214183014634, 248.53521954119205 43.782472881674764 M149.80483707636594 45.090513260662554 C178.64999229349198 44.74857980853915, 208.67155589684845 44.80757996684909, 248.4994239732623 45.49461334496736 M248 45 C252.92853334844114 43.83326260149479, 254.4190367549658 47.123198953270915, 254.5615498393774 50.37229658663273 M249.33667334020137 45.9588048607111 C253.3681252975762 44.496239300221205, 254.40726097777485 47.334658170193435, 254.9998460932076 51.370765223950144 M255.40010038912297 51.24588335454464 C254.0905237884134 64.40518224965781, 253.52589471050203 76.85802057348192, 253.94791237413884 104.87821205556392 M254.7571195051074 50.71563103944063 C253.7576221713096 61.82929015178233, 254.5525229224235 74.06026646383107, 253.23425339907408 103.84582670480013 M254 104 C252.8949085086584 108.12862145006656, 252.68601616322994 111.08621527254581, 247.0017348140478 111.54120890200139 M254.6974210590124 105.21193958818913 C254.6813183040917 107.75585681006312, 250.32407855704426 109.03602708384395, 247.00624069884418 109.04477390810847 M247.0844912201166 109.47568624913693 C209.39170955307782 111.70971719434857, 172.69020291045308 110.61357814481853, 151.48058811724187 110.66900738179683 M247.60888313502073 110.39781058579683 C222.67591086886824 110.29722175398469, 199.0875110514462 108.83930907049775, 150.26211871355773 109.93242214471101 M150 110 C144.92626169621946 109.9783382087946, 144.76367672383785 107.43913637697696, 144.69869469106197 102.69143225252628 M148.5520530551672 110.5530259758234 C146.3082204170525 109.86775154158472, 145.034663836509 107.29805212542415, 144.8244108171761 103.61455590769648 M143.68456808626652 103.38609217107296 C145.4268529324442 83.63238273728639, 143.6424606709391 62.79604085721075, 144.33559052050114 51.8900151103735 M144.20270609110594 103.22572377473116 C143.08786419112386 93.02574790995568, 143.6292676277846 81.05305018238724, 144.53809804171323 51.13057153970003 M144 51 C145.48274916112422 46.38475662767887, 146.7871746867895 45.90930601656437, 150.8375857204199 44.10031038820743 M142.71072557866574 50.03440777361393 C145.12301132395862 45.79961880728602, 147.67944650366903 43.162178607434036, 151.26228613570333 43.37405653521419 M150 45 C150 45, 150 45, 150 45 M150 45 C150 45, 150 45, 150 45" stroke="#D4644B" stroke-width="1.5" fill="none"/></g></g><g filter="url(#shadow)"><g><path d="M272.8004409134388 46.28333260416984 C308.1637163143605 45.58776779283285, 341.94801832661034 43.14718036760092, 367.12125409245493 41.85629689097404 C372.9519162476063 44.94918820261955, 374.46372864842414 46.44558808207512, 376.70722420811654 51.819749993085864 C373.4172828798115 68.45210130084305, 375.1662950639546 93.12744275666773, 375.0786922156811 105.151943141222 C378.9148452460766 106.49487336277961, 372.8320947349072 111.64494870305062, 372.2473699271679 112.79375432133675 C344.5901842135936 110.82530594631433, 322.9936064459383 109.16232472225427, 269.75486519932747 112.69803673624992 C265.7592212021351 111.76664826273918, 263.8782906830311 110.16956059336663, 262.93129552006724 102.56604916453361 C267.74158383247254 94.09184011947364, 265.2260147177875 80.89421993158759, 263.871750420332 51.06453984379768 C263.5492486655712 44.38233578801155, 265.93082310557367 42.162129145860675, 270.60279995799067 43.95677216649055 C272 45, 272 45, 272 45" stroke="none" stroke-width="0" fill="#E2E3E8"/><path d="M270.4040518432856 43.786527237296106 C292.0747753571719 44.31231172863841, 310.0168520204723 46.296214183014634, 370.5352195411921 43.782472881674764 M271.80483707636597 45.090513260662554 C300.64999229349195 44.74857980853915, 330.6715558968485 44.80757996684909, 370.4994239732623 45.49461334496736 M370 45 C374.92853334844114 43.83326260149479, 376.41903675496576 47.123198953270915, 376.5615498393774 50.37229658663273 M371.3366733402014 45.9588048607111 C375.36812529757617 44.496239300221205, 376.40726097777485 47.334658170193435, 376.9998460932076 51.370765223950144 M377.40010038912294 51.24588335454464 C376.0905237884134 64.40518224965781, 375.52589471050203 76.85802057348192, 375.9479123741388 104.87821205556392 M376.7571195051074 50.71563103944063 C375.7576221713096 61.82929015178233, 376.55252292242346 74.06026646383107, 375.2342533990741 103.84582670480013 M376 104 C374.89490850865843 108.12862145006656, 374.68601616322997 111.08621527254581, 369.00173481404784 111.54120890200139 M376.6974210590124 105.21193958818913 C376.6813183040917 107.75585681006312, 372.3240785570443 109.03602708384395, 369.0062406988442 109.04477390810847 M369.0844912201166 109.47568624913693 C331.3917095530778 111.70971719434857, 294.6902029104531 110.61357814481853, 273.48058811724184 110.66900738179683 M369.60888313502073 110.39781058579683 C344.67591086886824 110.29722175398469, 321.0875110514462 108.83930907049775, 272.2621187135577 109.93242214471101 M272 110 C266.92626169621946 109.9783382087946, 266.7636767238379 107.43913637697696, 266.698694691062 102.69143225252628 M270.5520530551672 110.5530259758234 C268.3082204170525 109.86775154158472, 267.03466383650897 107.29805212542415, 266.8244108171761 103.61455590769648 M265.6845680862665 103.38609217107296 C267.4268529324442 83.63238273728639, 265.6424606709391 62.79604085721075, 266.3355905205011 51.8900151103735 M266.20270609110594 103.22572377473116 C265.08786419112386 93.02574790995568, 265.6292676277846 81.05305018238724, 266.5380980417132 51.13057153970003 M266 51 C267.4827491611242 46.38475662767887, 268.7871746867895 45.90930601656437, 272.8375857204199 44.10031038820743 M264.71072557866574 50.03440777361393 C267.1230113239586 45.79961880728602, 269.679446503669 43.162178607434036, 273.26228613570333 43.37405653521419 M272 45 C272 45, 272 45, 272 45 M272 45 C272 45, 272 45, 272 45" stroke="#2D3142" stroke-width="1.5" fill="none"/></g></g><g filter="url(#shadow)"><g><path d="M394.8004409134388 46.28333260416984 C430.1637163143605 45.58776779283285, 463.94801832661034 43.14718036760092, 489.12125409245493 41.85629689097404 C494.9519162476063 44.94918820261955, 496.46372864842414 46.44558808207512, 498.70722420811654 51.819749993085864 C495.4172828798115 68.45210130084305, 497.1662950639546 93.12744275666773, 497.0786922156811 105.151943141222 C500.9148452460766 106.49487336277961, 494.8320947349072 111.64494870305062, 494.2473699271679 112.79375432133675 C466.5901842135936 110.82530594631433, 444.9936064459383 109.16232472225427, 391.75486519932747 112.69803673624992 C387.7592212021351 111.76664826273918, 385.8782906830311 110.16956059336663, 384.93129552006724 102.56604916453361 C389.74158383247254 94.09184011947364, 387.2260147177875 80.89421993158759, 385.871750420332 51.06453984379768 C385.5492486655712 44.38233578801155, 387.93082310557367 42.162129145860675, 392.60279995799067 43.95677216649055 C394 45, 394 45, 394 45" stroke="none" stroke-width="0" fill="#E4F1EA"/><path d="M392.4040518432856 43.786527237296106 C414.0747753571719 44.31231172863841, 432.0168520204723 46.296214183014634, 492.5352195411921 43.782472881674764 M393.80483707636597 45.090513260662554 C422.64999229349195 44.74857980853915, 452.6715558968485 44.80757996684909, 492.4994239732623 45.49461334496736 M492 45 C496.92853334844114 43.83326260149479, 498.41903675496576 47.123198953270915, 498.5615498393774 50.37229658663273 M493.3366733402014 45.9588048607111 C497.36812529757617 44.496239300221205, 498.40726097777485 47.334658170193435, 498.9998460932076 51.370765223950144 M499.40010038912294 51.24588335454464 C498.0905237884134 64.40518224965781, 497.52589471050203 76.85802057348192, 497.9479123741388 104.87821205556392 M498.7571195051074 50.71563103944063 C497.7576221713096 61.82929015178233, 498.55252292242346 74.06026646383107, 497.2342533990741 103.84582670480013 M498 104 C496.89490850865843 108.12862145006656, 496.68601616322997 111.08621527254581, 491.00173481404784 111.54120890200139 M498.6974210590124 105.21193958818913 C498.6813183040917 107.75585681006312, 494.3240785570443 109.03602708384395, 491.0062406988442 109.04477390810847 M491.0844912201166 109.47568624913693 C453.3917095530778 111.70971719434857, 416.6902029104531 110.61357814481853, 395.48058811724184 110.66900738179683 M491.60888313502073 110.39781058579683 C466.67591086886824 110.29722175398469, 443.0875110514462 108.83930907049775, 394.2621187135577 109.93242214471101 M394 110 C388.92626169621946 109.9783382087946, 388.7636767238379 107.43913637697696, 388.698694691062 102.69143225252628 M392.5520530551672 110.5530259758234 C390.3082204170525 109.86775154158472, 389.03466383650897 107.29805212542415, 388.8244108171761 103.61455590769648 M387.6845680862665 103.38609217107296 C389.4268529324442 83.63238273728639, 387.6424606709391 62.79604085721075, 388.3355905205011 51.8900151103735 M388.20270609110594 103.22572377473116 C387.08786419112386 93.02574790995568, 387.6292676277846 81.05305018238724, 388.5380980417132 51.13057153970003 M388 51 C389.4827491611242 46.38475662767887, 390.7871746867895 45.90930601656437, 394.8375857204199 44.10031038820743 M386.71072557866574 50.03440777361393 C389.1230113239586 45.79961880728602, 391.679446503669 43.162178607434036, 395.26228613570333 43.37405653521419 M394 45 C394 45, 394 45, 394 45 M394 45 C394 45, 394 45, 394 45" stroke="#5FA384" stroke-width="1.5" fill="none"/></g></g><g filter="url(#shadow)"><g><path d="M516.8004409134388 46.28333260416984 C552.1637163143605 45.58776779283285, 585.9480183266104 43.14718036760092, 611.1212540924549 41.85629689097404 C616.9519162476063 44.94918820261955, 618.4637286484242 46.44558808207512, 620.7072242081165 51.819749993085864 C617.4172828798115 68.45210130084305, 619.1662950639546 93.12744275666773, 619.078692215681 105.151943141222 C622.9148452460765 106.49487336277961, 616.8320947349072 111.64494870305062, 616.2473699271679 112.79375432133675 C588.5901842135936 110.82530594631433, 566.9936064459383 109.16232472225427, 513.7548651993275 112.69803673624992 C509.7592212021351 111.76664826273918, 507.8782906830311 110.16956059336663, 506.93129552006724 102.56604916453361 C511.74158383247254 94.09184011947364, 509.2260147177875 80.89421993158759, 507.871750420332 51.06453984379768 C507.5492486655712 44.38233578801155, 509.93082310557367 42.162129145860675, 514.6027999579907 43.95677216649055 C516 45, 516 45, 516 45" stroke="none" stroke-width="0" fill="#EDE6F2"/><path d="M514.4040518432855 43.786527237296106 C536.0747753571719 44.31231172863841, 554.0168520204722 46.296214183014634, 614.5352195411921 43.782472881674764 M515.804837076366 45.090513260662554 C544.6499922934919 44.74857980853915, 574.6715558968484 44.80757996684909, 614.4994239732623 45.49461334496736 M614 45 C618.9285333484411 43.83326260149479, 620.4190367549658 47.123198953270915, 620.5615498393774 50.37229658663273 M615.3366733402014 45.9588048607111 C619.3681252975762 44.496239300221205, 620.4072609777749 47.334658170193435, 620.9998460932076 51.370765223950144 M621.4001003891229 51.24588335454464 C620.0905237884134 64.40518224965781, 619.525894710502 76.85802057348192, 619.9479123741388 104.87821205556392 M620.7571195051074 50.71563103944063 C619.7576221713095 61.82929015178233, 620.5525229224235 74.06026646383107, 619.2342533990741 103.84582670480013 M620 104 C618.8949085086584 108.12862145006656, 618.68601616323 111.08621527254581, 613.0017348140478 111.54120890200139 M620.6974210590124 105.21193958818913 C620.6813183040917 107.75585681006312, 616.3240785570442 109.03602708384395, 613.0062406988442 109.04477390810847 M613.0844912201167 109.47568624913693 C575.3917095530778 111.70971719434857, 538.6902029104531 110.61357814481853, 517.4805881172418 110.66900738179683 M613.6088831350207 110.39781058579683 C588.6759108688682 110.29722175398469, 565.0875110514462 108.83930907049775, 516.2621187135577 109.93242214471101 M516 110 C510.92626169621946 109.9783382087946, 510.7636767238379 107.43913637697696, 510.698694691062 102.69143225252628 M514.5520530551672 110.5530259758234 C512.3082204170526 109.86775154158472, 511.03466383650897 107.29805212542415, 510.8244108171761 103.61455590769648 M509.6845680862665 103.38609217107296 C511.4268529324442 83.63238273728639, 509.6424606709391 62.79604085721075, 510.3355905205011 51.8900151103735 M510.20270609110594 103.22572377473116 C509.08786419112386 93.02574790995568, 509.6292676277846 81.05305018238724, 510.5380980417132 51.13057153970003 M510 51 C511.4827491611242 46.38475662767887, 512.7871746867895 45.90930601656437, 516.8375857204198 44.10031038820743 M508.71072557866574 50.03440777361393 C511.1230113239586 45.79961880728602, 513.679446503669 43.162178607434036, 517.2622861357033 43.37405653521419 M516 45 C516 45, 516 45, 516 45 M516 45 C516 45, 516 45, 516 45" stroke="#8B5FA0" stroke-width="1.5" fill="none"/></g></g><g filter="url(#shadow)"><g><path d="M638.8004409134388 46.28333260416984 C674.1637163143605 45.58776779283285, 707.9480183266104 43.14718036760092, 733.1212540924549 41.85629689097404 C738.9519162476063 44.94918820261955, 740.4637286484242 46.44558808207512, 742.7072242081165 51.819749993085864 C739.4172828798115 68.45210130084305, 741.1662950639546 93.12744275666773, 741.078692215681 105.151943141222 C744.9148452460765 106.49487336277961, 738.8320947349072 111.64494870305062, 738.2473699271679 112.79375432133675 C710.5901842135936 110.82530594631433, 688.9936064459383 109.16232472225427, 635.7548651993275 112.69803673624992 C631.7592212021351 111.76664826273918, 629.8782906830311 110.16956059336663, 628.9312955200672 102.56604916453361 C633.7415838324725 94.09184011947364, 631.2260147177875 80.89421993158759, 629.871750420332 51.06453984379768 C629.5492486655712 44.38233578801155, 631.9308231055736 42.162129145860675, 636.6027999579907 43.95677216649055 C638 45, 638 45, 638 45" stroke="none" stroke-width="0" fill="#E0E8F8"/><path d="M636.4040518432855 43.786527237296106 C658.0747753571719 44.31231172863841, 676.0168520204722 46.296214183014634, 736.5352195411921 43.782472881674764 M637.804837076366 45.090513260662554 C666.6499922934919 44.74857980853915, 696.6715558968484 44.80757996684909, 736.4994239732623 45.49461334496736 M736 45 C740.9285333484411 43.83326260149479, 742.4190367549658 47.123198953270915, 742.5615498393774 50.37229658663273 M737.3366733402014 45.9588048607111 C741.3681252975762 44.496239300221205, 742.4072609777749 47.334658170193435, 742.9998460932076 51.370765223950144 M743.4001003891229 51.24588335454464 C742.0905237884134 64.40518224965781, 741.525894710502 76.85802057348192, 741.9479123741388 104.87821205556392 M742.7571195051074 50.71563103944063 C741.7576221713095 61.82929015178233, 742.5525229224235 74.06026646383107, 741.2342533990741 103.84582670480013 M742 104 C740.8949085086584 108.12862145006656, 740.68601616323 111.08621527254581, 735.0017348140478 111.54120890200139 M742.6974210590124 105.21193958818913 C742.6813183040917 107.75585681006312, 738.3240785570442 109.03602708384395, 735.0062406988442 109.04477390810847 M735.0844912201167 109.47568624913693 C697.3917095530778 111.70971719434857, 660.6902029104531 110.61357814481853, 639.4805881172418 110.66900738179683 M735.6088831350207 110.39781058579683 C710.6759108688682 110.29722175398469, 687.0875110514462 108.83930907049775, 638.2621187135577 109.93242214471101 M638 110 C632.9262616962194 109.9783382087946, 632.7636767238379 107.43913637697696, 632.698694691062 102.69143225252628 M636.5520530551672 110.5530259758234 C634.3082204170526 109.86775154158472, 633.034663836509 107.29805212542415, 632.8244108171762 103.61455590769648 M631.6845680862665 103.38609217107296 C633.4268529324443 83.63238273728639, 631.642460670939 62.79604085721075, 632.3355905205011 51.8900151103735 M632.2027060911059 103.22572377473116 C631.0878641911238 93.02574790995568, 631.6292676277847 81.05305018238724, 632.5380980417133 51.13057153970003 M632 51 C633.4827491611243 46.38475662767887, 634.7871746867895 45.90930601656437, 638.8375857204198 44.10031038820743 M630.7107255786657 50.03440777361393 C633.1230113239586 45.79961880728602, 635.679446503669 43.162178607434036, 639.2622861357033 43.37405653521419 M638 45 C638 45, 638 45, 638 45 M638 45 C638 45, 638 45, 638 45" stroke="#326CE5" stroke-width="1.5" fill="none"/></g></g></g><g id="layer-text"><text x="24" y="26" text-anchor="start" font-family="Inter, &quot;IBM Plex Sans&quot;, system-ui, sans-serif" font-size="10" font-weight="600" fill="#999" letter-spacing="1">OFFLINE TRAINING</text><text x="650" y="26" text-anchor="start" font-family="Inter, &quot;IBM Plex Sans&quot;, system-ui, sans-serif" font-size="10" font-weight="600" fill="#C97755" letter-spacing="1">PRODUCTION</text><text x="77" y="73" text-anchor="middle" font-family="Inter, &quot;IBM Plex Sans&quot;, system-ui, sans-serif" font-size="11" font-weight="600" fill="#2A5FA4">Forecaster</text><text x="77" y="89" text-anchor="middle" font-family="Inter, &quot;IBM Plex Sans&quot;, system-ui, sans-serif" font-size="11" font-weight="600" fill="#2A5FA4">Pre-training</text><text x="77" y="38" text-anchor="middle" font-family="Inter, &quot;IBM Plex Sans&quot;, system-ui, sans-serif" font-size="9" font-weight="600" fill="#BBB" letter-spacing="0.5">Stage 1</text><text x="77" y="128" text-anchor="middle" font-family="Inter, &quot;IBM Plex Sans&quot;, system-ui, sans-serif" font-size="10" font-weight="400" fill="#999">~2 wk</text><text x="199" y="73" text-anchor="middle" font-family="Inter, &quot;IBM Plex Sans&quot;, system-ui, sans-serif" font-size="11" font-weight="600" fill="#B04A33">Soldier</text><text x="199" y="89" text-anchor="middle" font-family="Inter, &quot;IBM Plex Sans&quot;, system-ui, sans-serif" font-size="11" font-weight="600" fill="#B04A33">Pre-training</text><text x="199" y="38" text-anchor="middle" font-family="Inter, &quot;IBM Plex Sans&quot;, system-ui, sans-serif" font-size="9" font-weight="600" fill="#BBB" letter-spacing="0.5">Stage 2</text><text x="199" y="128" text-anchor="middle" font-family="Inter, &quot;IBM Plex Sans&quot;, system-ui, sans-serif" font-size="10" font-weight="400" fill="#999">~1 wk</text><text x="321" y="73" text-anchor="middle" font-family="Inter, &quot;IBM Plex Sans&quot;, system-ui, sans-serif" font-size="11" font-weight="600" fill="#1A1E2E">Commander</text><text x="321" y="89" text-anchor="middle" font-family="Inter, &quot;IBM Plex Sans&quot;, system-ui, sans-serif" font-size="11" font-weight="600" fill="#1A1E2E">Pre-training</text><text x="321" y="38" text-anchor="middle" font-family="Inter, &quot;IBM Plex Sans&quot;, system-ui, sans-serif" font-size="9" font-weight="600" fill="#BBB" letter-spacing="0.5">Stage 3</text><text x="321" y="128" text-anchor="middle" font-family="Inter, &quot;IBM Plex Sans&quot;, system-ui, sans-serif" font-size="10" font-weight="400" fill="#999">~1 wk</text><text x="443" y="73" text-anchor="middle" font-family="Inter, &quot;IBM Plex Sans&quot;, system-ui, sans-serif" font-size="11" font-weight="600" fill="#3D7A5E">Joint</text><text x="443" y="89" text-anchor="middle" font-family="Inter, &quot;IBM Plex Sans&quot;, system-ui, sans-serif" font-size="11" font-weight="600" fill="#3D7A5E">Fine-tuning</text><text x="443" y="38" text-anchor="middle" font-family="Inter, &quot;IBM Plex Sans&quot;, system-ui, sans-serif" font-size="9" font-weight="600" fill="#BBB" letter-spacing="0.5">Stage 4</text><text x="443" y="128" text-anchor="middle" font-family="Inter, &quot;IBM Plex Sans&quot;, system-ui, sans-serif" font-size="10" font-weight="400" fill="#999">~2 wk</text><text x="565" y="73" text-anchor="middle" font-family="Inter, &quot;IBM Plex Sans&quot;, system-ui, sans-serif" font-size="11" font-weight="600" fill="#6B4280">Shadow</text><text x="565" y="89" text-anchor="middle" font-family="Inter, &quot;IBM Plex Sans&quot;, system-ui, sans-serif" font-size="11" font-weight="600" fill="#6B4280">Mode</text><text x="565" y="38" text-anchor="middle" font-family="Inter, &quot;IBM Plex Sans&quot;, system-ui, sans-serif" font-size="9" font-weight="600" fill="#BBB" letter-spacing="0.5">Stage 5</text><text x="565" y="128" text-anchor="middle" font-family="Inter, &quot;IBM Plex Sans&quot;, system-ui, sans-serif" font-size="10" font-weight="400" fill="#999">4 wk</text><text x="687" y="73" text-anchor="middle" font-family="Inter, &quot;IBM Plex Sans&quot;, system-ui, sans-serif" font-size="11" font-weight="600" fill="#1D4FAF">Canary</text><text x="687" y="89" text-anchor="middle" font-family="Inter, &quot;IBM Plex Sans&quot;, system-ui, sans-serif" font-size="11" font-weight="600" fill="#1D4FAF">Rollout</text><text x="687" y="38" text-anchor="middle" font-family="Inter, &quot;IBM Plex Sans&quot;, system-ui, sans-serif" font-size="9" font-weight="600" fill="#BBB" letter-spacing="0.5">Stage 6</text><text x="687" y="128" text-anchor="middle" font-family="Inter, &quot;IBM Plex Sans&quot;, system-ui, sans-serif" font-size="10" font-weight="400" fill="#999">variable</text><text x="480" y="244" text-anchor="middle" font-family="Inter, &quot;IBM Plex Sans&quot;, system-ui, sans-serif" font-size="10" font-weight="400" fill="#BBB">Each stage advances only when mastery threshold is met on held-out validation</text></g></svg>