<?xml version="1.0" encoding="UTF-8"?>
<svg xmlns="http://www.w3.org/2000/svg" width="980" height="640" viewBox="-10 -10 980 640"><defs><filter id="shadow" x="-4%" y="-4%" width="112%" height="112%"><feFlood flood-color="#000000" flood-opacity="0.08" result="color"/><feComposite in="color" in2="SourceGraphic" operator="in" result="shadow"/><feGaussianBlur in="shadow" stdDeviation="3" result="blur"/><feOffset in="blur" dx="2" dy="3" result="offsetBlur"/><feMerge><feMergeNode in="offsetBlur"/><feMergeNode in="SourceGraphic"/></feMerge></filter><filter id="shadow-light" x="-4%" y="-4%" width="112%" height="112%"><feFlood flood-color="#000000" flood-opacity="0.04" result="color"/><feComposite in="color" in2="SourceGraphic" operator="in" result="shadow"/><feGaussianBlur in="shadow" stdDeviation="2" result="blur"/><feOffset in="blur" dx="1" dy="2" result="offsetBlur"/><feMerge><feMergeNode in="offsetBlur"/><feMergeNode in="SourceGraphic"/></feMerge></filter></defs><g id="layer-zones"><rect x="20" y="8" width="920" height="130" fill="#F4F5F8" rx="12" ry="12"/><rect x="20" y="150" width="920" height="155" fill="#F2F3F6" rx="12" ry="12"/><rect x="20" y="318" width="920" height="105" fill="#DDDEE5" rx="12" ry="12"/><rect x="20" y="436" width="920" height="150" fill="#EDF0F6" rx="12" ry="12"/></g><g id="layer-connectors"><path d="M169.5,95 C324.75,95 324.75,168 480,168" fill="none" stroke="#AAA" stroke-width="1.3" stroke-linecap="round"/><polygon points="480,168 472.79224905678063,171.47106991294046 472.79224905678063,164.52893008705954" fill="#AAA" stroke="none"/><circle cx="169.5" cy="95" r="2.5" fill="#AAA"/><path d="M376.5,95 C376.5,131.5 480,131.5 480,168" fill="none" stroke="#AAA" stroke-width="1.3" stroke-linecap="round"/><polygon points="480,168 476.5289300870595,160.79224905678063 483.4710699129405,160.79224905678063" fill="#AAA" stroke="none"/><circle cx="376.5" cy="95" r="2.5" fill="#AAA"/><path d="M583.5,95 C583.5,131.5 480,131.5 480,168" fill="none" stroke="#AAA" stroke-width="1.3" stroke-linecap="round"/><polygon points="480,168 476.5289300870595,160.79224905678063 483.4710699129405,160.79224905678063" fill="#AAA" stroke="none"/><circle cx="583.5" cy="95" r="2.5" fill="#AAA"/><path d="M790.5,95 C635.25,95 635.25,168 480,168" fill="none" stroke="#AAA" stroke-width="1.3" stroke-linecap="round"/><polygon points="480,168 487.20775094321937,164.52893008705954 487.20775094321937,171.47106991294046" fill="#AAA" stroke="none"/><circle cx="790.5" cy="95" r="2.5" fill="#AAA"/><path d="M480,223 C480,237.5 480,237.5 480,252" fill="none" stroke="#999" stroke-width="1.3" stroke-linecap="round"/><polygon points="480,252 476.5289300870595,244.79224905678063 483.4710699129405,244.79224905678063" fill="#999" stroke="none"/><circle cx="480" cy="223" r="2.5" fill="#999"/><path d="M480,302 C362.5,302 362.5,340 245,340" fill="none" stroke="#999" stroke-width="1.3" stroke-linecap="round"/><polygon points="245,340 252.20775094321937,336.5289300870595 252.20775094321937,343.47106991294044" fill="#999" stroke="none"/><circle cx="480" cy="302" r="2.5" fill="#999"/><path d="M480,302 C480,321 555,321 555,340" fill="none" stroke="#999" stroke-width="1.3" stroke-linecap="round"/><polygon points="555,340 551.5289300870595,332.79224905678063 558.4710699129405,332.79224905678063" fill="#999" stroke="none"/><circle cx="480" cy="302" r="2.5" fill="#999"/><g><path d="M351.0025324020535 369.24157952331007 C371.5032959077507 369.56726425127687, 389.67365513183177 370.807203285262, 448.33451221324503 369.23904555104673 M351.8780231727287 370.0565707879141 C380.2193313373253 369.83765475124864, 409.2958947433159 369.87452985019235, 448.31213998328894 370.3091333406046" stroke="#888" stroke-width="1.3" fill="none"/></g><polygon points="448,370 440.79224905678063,373.4710699129405 440.79224905678063,366.5289300870595" fill="#888" stroke="none"/><path d="M245,400 C362.5,400 362.5,455 480,455" fill="none" stroke="#999" stroke-width="1.3" stroke-linecap="round"/><polygon points="480,455 472.79224905678063,458.4710699129405 472.79224905678063,451.5289300870595" fill="#999" stroke="none"/><circle cx="245" cy="400" r="2.5" fill="#999"/><path d="M555,400 C555,427.5 480,427.5 480,455" fill="none" stroke="#999" stroke-width="1.3" stroke-linecap="round"/><polygon points="480,455 476.5289300870595,447.79224905678063 483.4710699129405,447.79224905678063" fill="#999" stroke="none"/><circle cx="555" cy="400" r="2.5" fill="#999"/><path d="M480,505 C480,520 480,520 480,535" fill="none" stroke="#AAB5CC" stroke-width="1.3" stroke-linecap="round"/><polygon points="480,535 476.5289300870595,527.7922490567806 483.4710699129405,527.7922490567806" fill="#AAB5CC" stroke="none"/><circle cx="480" cy="505" r="2.5" fill="#AAB5CC"/></g><g id="layer-boxes"><g filter="url(#shadow)"><g><path d="M98.80044091343879 31.283332604169846 C149.78311549220234 30.918645461422205, 199.186816682294 28.478058036190273, 238.1212540924549 26.856296890974043 C243.95191624760628 29.949188202619553, 245.46372864842414 31.44558808207512, 247.70722420811654 36.819749993085864 C244.41728287981152 53.45210130084306, 246.16629506395458 78.12744275666773, 246.0786922156811 90.151943141222 C249.9148452460766 91.49487336277961, 243.83209473490714 96.64494870305062, 243.24736992716788 97.79375432133675 C204.17305849399418 96.23888823007941, 171.1593550067395 94.57590700601935, 95.75486519932747 97.69803673624992 C91.75922120213508 96.76664826273918, 89.87829068303108 95.16956059336663, 88.93129552006721 87.56604916453361 C93.74158383247256 79.09184011947364, 91.22601471778749 65.89421993158759, 89.87175042033195 36.06453984379768 C89.54924866557121 29.382335788011552, 91.93082310557365 27.16212914586067, 96.60279995799064 28.956772166490556 C98 30, 98 30, 98 30" stroke="none" stroke-width="0" fill="#E0E8F8"/><path d="M96.40405184328556 28.786527237296106 C127.08327201697975 29.417812577036024, 154.03384534008802 31.401715031412245, 241.53521954119205 28.782472881674767 M97.80483707636594 30.090513260662554 C140.00506788846107 29.9360544557184, 183.38170708678663 29.995054614028334, 241.4994239732623 30.494613344967366 M241 30 C245.92853334844114 28.833262601494788, 247.4190367549658 32.123198953270915, 247.5615498393774 35.37229658663273 M242.33667334020137 30.958804860711098 C246.3681252975762 29.496239300221205, 247.40726097777485 32.334658170193435, 247.9998460932076 36.370765223950144 M248.40010038912297 36.24588335454464 C247.0905237884134 49.40518224965781, 246.52589471050203 61.85802057348192, 246.94791237413884 89.87821205556392 M247.7571195051074 35.71563103944063 C246.7576221713096 46.82929015178233, 247.5525229224235 59.06026646383106, 246.23425339907408 88.84582670480013 M247 89 C245.8949085086584 93.12862145006656, 245.68601616322994 96.08621527254581, 240.0017348140478 96.54120890200139 M247.6974210590124 90.21193958818913 C247.6813183040917 92.75585681006312, 243.32407855704426 94.03602708384395, 240.00624069884418 94.04477390810847 M240.0844912201166 94.47568624913693 C184.8236992051825 96.87817950932681, 130.55418221466243 95.78204045979678, 99.48058811724187 95.66900738179683 M240.60888313502073 95.39781058579683 C204.2703044826165 95.11997525812686, 169.2762982789427 93.66206257463992, 98.26211871355773 94.93242214471101 M98 95 C92.92626169621944 94.9783382087946, 92.76367672383785 92.43913637697696, 92.69869469106197 87.69143225252628 M96.55205305516719 95.5530259758234 C94.30822041705251 94.86775154158472, 93.03466383650898 92.29805212542415, 92.8244108171761 88.61455590769648 M91.68456808626652 88.38609217107296 C93.42685293244422 68.63238273728639, 91.64246067093909 47.79604085721075, 92.33559052050114 36.8900151103735 M92.20270609110594 88.22572377473116 C91.08786419112384 78.02574790995568, 91.62926762778461 66.05305018238724, 92.53809804171324 36.13057153970003 M92 36 C93.48274916112423 31.384756627678872, 94.78717468678951 30.90930601656437, 98.83758572041988 29.100310388207436 M90.71072557866573 35.03440777361393 C93.12301132395864 30.799618807286024, 95.67944650366903 28.162178607434036, 99.26228613570332 28.374056535214187 M98 30 C98 30, 98 30, 98 30 M98 30 C98 30, 98 30, 98 30" stroke="#326CE5" stroke-width="1.5" fill="none"/></g></g><g filter="url(#shadow)"><g><path d="M305.8004409134388 31.283332604169846 C356.78311549220234 30.918645461422205, 406.186816682294 28.478058036190273, 445.12125409245493 26.856296890974043 C450.9519162476063 29.949188202619553, 452.46372864842414 31.44558808207512, 454.70722420811654 36.819749993085864 C451.4172828798115 53.45210130084306, 453.1662950639546 78.12744275666773, 453.0786922156811 90.151943141222 C456.9148452460766 91.49487336277961, 450.8320947349072 96.64494870305062, 450.2473699271679 97.79375432133675 C411.1730584939942 96.23888823007941, 378.1593550067395 94.57590700601935, 302.75486519932747 97.69803673624992 C298.7592212021351 96.76664826273918, 296.8782906830311 95.16956059336663, 295.93129552006724 87.56604916453361 C300.74158383247254 79.09184011947364, 298.2260147177875 65.89421993158759, 296.871750420332 36.06453984379768 C296.5492486655712 29.382335788011552, 298.93082310557367 27.16212914586067, 303.60279995799067 28.956772166490556 C305 30, 305 30, 305 30" stroke="none" stroke-width="0" fill="#E3EDFA"/><path d="M303.4040518432856 28.786527237296106 C334.0832720169798 29.417812577036024, 361.033845340088 31.401715031412245, 448.5352195411921 28.782472881674767 M304.80483707636597 30.090513260662554 C347.00506788846104 29.9360544557184, 390.38170708678666 29.995054614028334, 448.4994239732623 30.494613344967366 M448 30 C452.92853334844114 28.833262601494788, 454.41903675496576 32.123198953270915, 454.5615498393774 35.37229658663273 M449.3366733402014 30.958804860711098 C453.36812529757617 29.496239300221205, 454.40726097777485 32.334658170193435, 454.9998460932076 36.370765223950144 M455.40010038912294 36.24588335454464 C454.0905237884134 49.40518224965781, 453.52589471050203 61.85802057348192, 453.9479123741388 89.87821205556392 M454.7571195051074 35.71563103944063 C453.7576221713096 46.82929015178233, 454.55252292242346 59.06026646383106, 453.2342533990741 88.84582670480013 M454 89 C452.89490850865843 93.12862145006656, 452.68601616322997 96.08621527254581, 447.00173481404784 96.54120890200139 M454.6974210590124 90.21193958818913 C454.6813183040917 92.75585681006312, 450.3240785570443 94.03602708384395, 447.0062406988442 94.04477390810847 M447.0844912201166 94.47568624913693 C391.8236992051825 96.87817950932681, 337.55418221466243 95.78204045979678, 306.48058811724184 95.66900738179683 M447.60888313502073 95.39781058579683 C411.2703044826165 95.11997525812686, 376.2762982789427 93.66206257463992, 305.2621187135577 94.93242214471101 M305 95 C299.92626169621946 94.9783382087946, 299.7636767238379 92.43913637697696, 299.698694691062 87.69143225252628 M303.5520530551672 95.5530259758234 C301.3082204170525 94.86775154158472, 300.03466383650897 92.29805212542415, 299.8244108171761 88.61455590769648 M298.6845680862665 88.38609217107296 C300.4268529324442 68.63238273728639, 298.6424606709391 47.79604085721075, 299.3355905205011 36.8900151103735 M299.20270609110594 88.22572377473116 C298.08786419112386 78.02574790995568, 298.6292676277846 66.05305018238724, 299.5380980417132 36.13057153970003 M299 36 C300.4827491611242 31.384756627678872, 301.7871746867895 30.90930601656437, 305.8375857204199 29.100310388207436 M297.71072557866574 35.03440777361393 C300.1230113239586 30.799618807286024, 302.679446503669 28.162178607434036, 306.26228613570333 28.374056535214187 M305 30 C305 30, 305 30, 305 30 M305 30 C305 30, 305 30, 305 30" stroke="#3B7DD8" stroke-width="1.5" fill="none"/></g></g><g filter="url(#shadow)"><g><path d="M512.8004409134388 31.283332604169846 C563.7831154922023 30.918645461422205, 613.1868166822941 28.478058036190273, 652.1212540924549 26.856296890974043 C657.9519162476063 29.949188202619553, 659.4637286484242 31.44558808207512, 661.7072242081165 36.819749993085864 C658.4172828798115 53.45210130084306, 660.1662950639546 78.12744275666773, 660.078692215681 90.151943141222 C663.9148452460765 91.49487336277961, 657.8320947349072 96.64494870305062, 657.2473699271679 97.79375432133675 C618.1730584939942 96.23888823007941, 585.1593550067395 94.57590700601935, 509.75486519932747 97.69803673624992 C505.7592212021351 96.76664826273918, 503.8782906830311 95.16956059336663, 502.93129552006724 87.56604916453361 C507.74158383247254 79.09184011947364, 505.2260147177875 65.89421993158759, 503.871750420332 36.06453984379768 C503.5492486655712 29.382335788011552, 505.93082310557367 27.16212914586067, 510.60279995799067 28.956772166490556 C512 30, 512 30, 512 30" stroke="none" stroke-width="0" fill="#E4F1EA"/><path d="M510.4040518432856 28.786527237296106 C541.0832720169798 29.417812577036024, 568.033845340088 31.401715031412245, 655.5352195411921 28.782472881674767 M511.80483707636597 30.090513260662554 C554.005067888461 29.9360544557184, 597.3817070867866 29.995054614028334, 655.4994239732623 30.494613344967366 M655 30 C659.9285333484411 28.833262601494788, 661.4190367549658 32.123198953270915, 661.5615498393774 35.37229658663273 M656.3366733402014 30.958804860711098 C660.3681252975762 29.496239300221205, 661.4072609777749 32.334658170193435, 661.9998460932076 36.370765223950144 M662.4001003891229 36.24588335454464 C661.0905237884134 49.40518224965781, 660.525894710502 61.85802057348192, 660.9479123741388 89.87821205556392 M661.7571195051074 35.71563103944063 C660.7576221713095 46.82929015178233, 661.5525229224235 59.06026646383106, 660.2342533990741 88.84582670480013 M661 89 C659.8949085086584 93.12862145006656, 659.68601616323 96.08621527254581, 654.0017348140478 96.54120890200139 M661.6974210590124 90.21193958818913 C661.6813183040917 92.75585681006312, 657.3240785570442 94.03602708384395, 654.0062406988442 94.04477390810847 M654.0844912201167 94.47568624913693 C598.8236992051825 96.87817950932681, 544.5541822146624 95.78204045979678, 513.4805881172418 95.66900738179683 M654.6088831350207 95.39781058579683 C618.2703044826164 95.11997525812686, 583.2762982789427 93.66206257463992, 512.2621187135577 94.93242214471101 M512 95 C506.92626169621946 94.9783382087946, 506.7636767238379 92.43913637697696, 506.698694691062 87.69143225252628 M510.5520530551672 95.5530259758234 C508.3082204170525 94.86775154158472, 507.03466383650897 92.29805212542415, 506.8244108171761 88.61455590769648 M505.6845680862665 88.38609217107296 C507.4268529324442 68.63238273728639, 505.6424606709391 47.79604085721075, 506.3355905205011 36.8900151103735 M506.20270609110594 88.22572377473116 C505.08786419112386 78.02574790995568, 505.6292676277846 66.05305018238724, 506.5380980417132 36.13057153970003 M506 36 C507.4827491611242 31.384756627678872, 508.7871746867895 30.90930601656437, 512.8375857204198 29.100310388207436 M504.71072557866574 35.03440777361393 C507.1230113239586 30.799618807286024, 509.679446503669 28.162178607434036, 513.2622861357033 28.374056535214187 M512 30 C512 30, 512 30, 512 30 M512 30 C512 30, 512 30, 512 30" stroke="#5FA384" stroke-width="1.5" fill="none"/></g></g><g filter="url(#shadow)"><g><path d="M719.8004409134388 31.283332604169846 C770.7831154922023 30.918645461422205, 820.1868166822941 28.478058036190273, 859.1212540924549 26.856296890974043 C864.9519162476063 29.949188202619553, 866.4637286484242 31.44558808207512, 868.7072242081165 36.819749993085864 C865.4172828798115 53.45210130084306, 867.1662950639546 78.12744275666773, 867.078692215681 90.151943141222 C870.9148452460765 91.49487336277961, 864.8320947349072 96.64494870305062, 864.2473699271679 97.79375432133675 C825.1730584939942 96.23888823007941, 792.1593550067395 94.57590700601935, 716.7548651993275 97.69803673624992 C712.7592212021351 96.76664826273918, 710.8782906830311 95.16956059336663, 709.9312955200672 87.56604916453361 C714.7415838324725 79.09184011947364, 712.2260147177875 65.89421993158759, 710.871750420332 36.06453984379768 C710.5492486655712 29.382335788011552, 712.9308231055736 27.16212914586067, 717.6027999579907 28.956772166490556 C719 30, 719 30, 719 30" stroke="none" stroke-width="0" fill="#FBEAE5"/><path d="M717.4040518432855 28.786527237296106 C748.0832720169798 29.417812577036024, 775.033845340088 31.401715031412245, 862.5352195411921 28.782472881674767 M718.804837076366 30.090513260662554 C761.005067888461 29.9360544557184, 804.3817070867866 29.995054614028334, 862.4994239732623 30.494613344967366 M862 30 C866.9285333484411 28.833262601494788, 868.4190367549658 32.123198953270915, 868.5615498393774 35.37229658663273 M863.3366733402014 30.958804860711098 C867.3681252975762 29.496239300221205, 868.4072609777749 32.334658170193435, 868.9998460932076 36.370765223950144 M869.4001003891229 36.24588335454464 C868.0905237884134 49.40518224965781, 867.525894710502 61.85802057348192, 867.9479123741388 89.87821205556392 M868.7571195051074 35.71563103944063 C867.7576221713095 46.82929015178233, 868.5525229224235 59.06026646383106, 867.2342533990741 88.84582670480013 M868 89 C866.8949085086584 93.12862145006656, 866.68601616323 96.08621527254581, 861.0017348140478 96.54120890200139 M868.6974210590124 90.21193958818913 C868.6813183040917 92.75585681006312, 864.3240785570442 94.03602708384395, 861.0062406988442 94.04477390810847 M861.0844912201167 94.47568624913693 C805.8236992051825 96.87817950932681, 751.5541822146624 95.78204045979678, 720.4805881172418 95.66900738179683 M861.6088831350207 95.39781058579683 C825.2703044826164 95.11997525812686, 790.2762982789427 93.66206257463992, 719.2621187135577 94.93242214471101 M719 95 C713.9262616962194 94.9783382087946, 713.7636767238379 92.43913637697696, 713.698694691062 87.69143225252628 M717.5520530551672 95.5530259758234 C715.3082204170526 94.86775154158472, 714.034663836509 92.29805212542415, 713.8244108171762 88.61455590769648 M712.6845680862665 88.38609217107296 C714.4268529324443 68.63238273728639, 712.642460670939 47.79604085721075, 713.3355905205011 36.8900151103735 M713.2027060911059 88.22572377473116 C712.0878641911238 78.02574790995568, 712.6292676277847 66.05305018238724, 713.5380980417133 36.13057153970003 M713 36 C714.4827491611243 31.384756627678872, 715.7871746867895 30.90930601656437, 719.8375857204198 29.100310388207436 M711.7107255786657 35.03440777361393 C714.1230113239586 30.799618807286024, 716.679446503669 28.162178607434036, 720.2622861357033 28.374056535214187 M719 30 C719 30, 719 30, 719 30 M719 30 C719 30, 719 30, 719 30" stroke="#D4644B" stroke-width="1.5" fill="none"/></g></g><g filter="url(#shadow)"><g><path d="M331.5896268690082 168.94533821621138 C436.0175085129491 169.5162265248432, 539.2822747791288 167.71842246720442, 626.8794363111152 165.68426152368568 C631.9519162476063 167.94918820261955, 633.4637286484242 169.44558808207512, 635.7072242081165 174.81974999308585 C632.3909225939929 187.58262947332113, 634.139934778136 208.3884991016239, 634.078692215681 218.151943141222 C637.9148452460765 219.49487336277963, 631.8320947349072 224.6449487030506, 631.2473699271679 225.79375432133673 C552.9911658807417 224.9619703611321, 479.79126813146485 223.73697249320767, 329.3461717401041 224.9874483257356 C324.7592212021351 224.76664826273918, 322.8782906830311 223.1695605933666, 321.93129552006724 215.5660491645336 C326.83198171404007 209.23540336955338, 324.31641259935503 198.18134643174707, 322.871750420332 174.0645398437977 C322.5492486655712 167.38233578801155, 324.93082310557367 165.16212914586066, 329.60279995799067 166.95677216649057 C331 168, 331 168, 331 168" stroke="none" stroke-width="0" fill="#E2E3E8"/><path d="M329.82438053959504 167.10612247114406 C390.99236896430955 167.83882911357696, 449.41373320822936 169.30022641717824, 629.3942574861014 167.10313592089318 M330.85623760395447 168.06667456597003 C419.12029136391584 168.42857027849485, 508.25092001004606 168.47203142351032, 629.3678894828067 168.36434584123128 M629 168 C633.9285333484411 166.8332626014948, 635.4190367549658 170.1231989532709, 635.5615498393774 173.37229658663273 M630.3366733402014 168.9588048607111 C634.3681252975762 167.4962393002212, 635.4072609777749 170.33465817019342, 635.9998460932076 174.37076522395014 M636.4001003891229 174.24588335454465 C635.11786028575 184.90271844137462, 634.5532312078386 194.8530929569155, 634.9479123741388 217.87821205556392 M635.7571195051074 173.71563103944064 C634.7327698444097 182.72045632284136, 635.5276705955237 192.8425988059491, 634.2342533990741 216.84582670480012 M635 217 C633.8949085086584 221.12862145006656, 633.68601616323 224.08621527254581, 628.0017348140478 224.5412089020014 M635.6974210590124 218.21193958818913 C635.6813183040917 220.75585681006314, 631.3240785570442 222.03602708384395, 628.0062406988442 222.04477390810848 M628.3256109646956 222.61377602005473 C512.4035984160482 224.81095372143113, 397.21178640957487 224.00350744410954, 332.0906420713924 223.49280930203528 M628.7118925224308 223.29303825707012 C553.1121186425752 222.63865436574034, 478.50279393865407 221.5647156446938, 331.1930838788831 222.95022028664533 M331 223 C325.92626169621946 222.97833820879458, 325.7636767238379 220.43913637697696, 325.698694691062 215.69143225252628 M329.5520530551672 223.5530259758234 C327.3082204170525 222.86775154158474, 326.03466383650897 220.29805212542414, 325.8244108171761 216.61455590769648 M324.6845680862665 216.38609217107296 C326.3944636740297 200.56398401390763, 324.6100714125246 183.6592434104532, 325.3355905205011 174.8900151103735 M325.20270609110594 216.22572377473116 C324.13021623955075 208.225368434377, 324.6716196762115 198.4522912312299, 325.5380980417132 174.13057153970004 M325 174 C326.4827491611242 169.38475662767888, 327.7871746867895 168.90930601656436, 331.8375857204199 167.10031038820745 M323.71072557866574 173.03440777361394 C326.1230113239586 168.79961880728604, 328.679446503669 166.16217860743404, 332.26228613570333 166.37405653521418 M331 168 C331 168, 331 168, 331 168 M331 168 C331 168, 331 168, 331 168" stroke="#2D3142" stroke-width="1.5" fill="none"/></g></g><g filter="url(#shadow)"><g><path d="M351.642993865589 253.0309005675966 C442.276818648211 253.41719860648175, 531.6422547393023 251.45667570402793, 606.6875045639674 249.47466455000068 C611.9519162476063 251.94918820261955, 613.4637286484242 253.44558808207512, 615.7072242081165 258.81974999308585 C612.3777424510836 269.6478935595602, 614.1267546352267 288.519027274102, 614.078692215681 297.151943141222 C617.9148452460765 298.49487336277963, 611.8320947349072 303.6449487030506, 611.2473699271679 304.79375432133673 C543.1033289575134 303.8442318765184, 480.2698304901945 302.5083597244234, 349.19648411267366 304.16733183101485 C344.7592212021351 303.7666482627392, 342.8782906830311 302.1695605933666, 341.93129552006724 294.56604916453364 C346.8771806548238 289.30718499459323, 344.36161154013877 279.3249096818268, 342.871750420332 258.06453984379766 C342.5492486655712 251.38233578801155, 344.93082310557367 249.16212914586066, 349.60279995799067 250.95677216649057 C351 252, 351 252, 351 252" stroke="none" stroke-width="0" fill="#EDE6F2"/><path d="M349.7179754840906 251.02521781510907 C403.01523691261224 251.74890931537485, 453.317277817517 253.34257736341428, 609.4299416433518 251.02196095286018 M350.84322570150994 252.07270926608493 C427.2201511033207 252.33349491530706, 504.5420848912271 252.38088971887737, 609.401187077952 252.39732270216695 M609 252 C613.9285333484411 250.8332626014948, 615.4190367549658 254.1231989532709, 615.5615498393774 257.37229658663273 M610.3366733402014 252.9588048607111 C614.3681252975762 251.4962393002212, 615.4072609777749 254.33465817019342, 615.9998460932076 258.3707652239502 M616.4001003891229 258.2458833545446 C615.1315285344184 267.651486537233, 614.566899456507 276.3506291486323, 614.9479123741388 296.87821205556395 M615.7571195051074 257.7156310394406 C614.7203436809599 265.6660394083708, 615.5152444320738 274.7337649770081, 614.2342533990741 295.8458267048001 M615 296 C613.8949085086584 300.1286214500666, 613.68601616323 303.0862152725458, 608.0017348140478 303.54120890200136 M615.6974210590124 297.2119395881891 C615.6813183040917 299.7558568100631, 611.3240785570442 301.0360270838439, 608.0062406988442 301.0447739081085 M608.2645721633232 301.5788189736572 C507.9963345583814 303.85457321917636, 408.5243877840415 302.9740451591445, 352.18935584234515 302.53741336219446 M608.6858159788089 302.3195610844464 C543.218085309147 301.73251086551295, 478.8304491497214 300.56137019003296, 351.2105598577534 301.9457147358775 M351 302 C345.92626169621946 301.9783382087946, 345.7636767238379 299.439136376977, 345.698694691062 294.6914322525263 M349.5520530551672 302.5530259758234 C347.3082204170525 301.8677515415847, 346.03466383650897 299.29805212542414, 345.8244108171761 295.6145559076965 M344.6845680862665 295.38609217107296 C346.37826904482245 281.5297846522182, 344.59387678331734 266.5908446870744, 345.3355905205011 258.8900151103735 M345.20270609110594 295.22572377473114 C344.15139226376414 288.32517869658767, 344.6927957004249 279.6519117556512, 345.5380980417132 258.13057153970004 M345 258 C346.4827491611242 253.38475662767888, 347.7871746867895 252.90930601656436, 351.8375857204199 251.10031038820745 M343.71072557866574 257.0344077736139 C346.1230113239586 252.79961880728604, 348.679446503669 250.16217860743404, 352.26228613570333 250.37405653521418 M351 252 C351 252, 351 252, 351 252 M351 252 C351 252, 351 252, 351 252" stroke="#8B5FA0" stroke-width="1.5" fill="none"/></g></g><g filter="url(#shadow)"><g><path d="M146.8004409134388 341.28333260416986 C216.87349226512015 341.3230515008092, 285.36757022812964 338.8824640755773, 341.12125409245493 336.856296890974 C346.9519162476063 339.94918820261955, 348.46372864842414 341.4455880820751, 350.70722420811654 346.81974999308585 C347.40410273690225 361.5173653870821, 349.1531149210453 384.2579709291458, 349.0786922156811 395.151943141222 C352.9148452460766 396.49487336277963, 346.8320947349072 401.6449487030506, 346.2473699271679 402.79375432133673 C293.2187937255949 401.74437768801454, 246.2508254699409 400.0813964639545, 143.75486519932747 402.69803673624995 C139.75922120213508 401.7666482627392, 137.87829068303108 400.1695605933666, 136.9312955200672 392.56604916453364 C141.7867827732563 385.1636217445135, 139.27121365857124 373.0377831816673, 137.87175042033195 346.06453984379766 C137.5492486655712 339.3823357880116, 139.93082310557367 337.16212914586066, 144.60279995799064 338.95677216649057 C146 340, 146 340, 146 340" stroke="none" stroke-width="0" fill="#E2E3E8"/><path d="M144.40405184328557 338.7865272372961 C186.09365682341158 339.5467580584109, 224.05461495295168 341.5306605127871, 344.5352195411921 338.7824728816748 M145.80483707636594 340.09051326066253 C204.32793806008996 340.1651901356042, 264.02744743004445 340.2241902939141, 344.4994239732623 340.4946133449674 M344 340 C348.92853334844114 338.83326260149477, 350.41903675496576 342.1231989532709, 350.5615498393774 345.37229658663273 M345.3366733402014 340.9588048607111 C349.36812529757617 339.4962393002212, 350.40726097777485 342.33465817019345, 350.9998460932076 346.3707652239502 M351.40010038912294 346.2458833545446 C350.10419203708176 358.1539503455162, 349.5395629591704 369.35555676519874, 349.9479123741388 394.87821205556395 M350.7571195051074 345.7156310394406 C349.7451960078597 355.7748732373118, 350.54009675897356 366.95143263489007, 349.2342533990741 393.8458267048001 M350 394 C348.89490850865843 398.1286214500666, 348.68601616322997 401.0862152725458, 343.00173481404784 401.54120890200136 M350.6974210590124 395.2119395881891 C350.6813183040917 397.7558568100631, 346.3240785570443 399.0360270838439, 343.0062406988442 399.0447739081085 M343.0844912201166 399.4756862491369 C266.3516865577549 402.0840778943002, 190.6101569198072 400.9879388447702, 147.48058811724187 400.66900738179686 M343.60888313502073 400.39781058579683 C293.3301188994199 399.9033406520784, 244.39592711254954 398.44542796859145, 146.26211871355773 399.93242214471104 M146 400 C140.92626169621946 399.9783382087946, 140.76367672383785 397.439136376977, 140.69869469106197 392.6914322525263 M144.5520530551672 400.5530259758234 C142.3082204170525 399.8677515415847, 141.034663836509 397.29805212542414, 140.8244108171761 393.6145559076965 M139.68456808626652 393.38609217107296 C141.41065830323694 375.598183375597, 139.62626604173184 356.727642133832, 140.33559052050114 346.8900151103735 M140.20270609110594 393.22572377473114 C139.1090402153373 384.12555817216634, 139.65044365199805 373.25267070680854, 140.53809804171323 346.13057153970004 M140 346 C141.48274916112422 341.3847566276789, 142.7871746867895 340.90930601656436, 146.8375857204199 339.10031038820745 M138.71072557866574 345.0344077736139 C141.12301132395862 340.79961880728604, 143.67944650366903 338.16217860743404, 147.26228613570333 338.3740565352142 M146 340 C146 340, 146 340, 146 340 M146 340 C146 340, 146 340, 146 340" stroke="#2D3142" stroke-width="1.5" fill="none"/></g></g><g filter="url(#shadow)"><g><path d="M456.8004409134388 341.28333260416986 C526.8734922651201 341.3230515008092, 595.3675702281297 338.8824640755773, 651.1212540924549 336.856296890974 C656.9519162476063 339.94918820261955, 658.4637286484242 341.4455880820751, 660.7072242081165 346.81974999308585 C657.4041027369022 361.5173653870821, 659.1531149210454 384.2579709291458, 659.078692215681 395.151943141222 C662.9148452460765 396.49487336277963, 656.8320947349072 401.6449487030506, 656.2473699271679 402.79375432133673 C603.2187937255949 401.74437768801454, 556.2508254699409 400.0813964639545, 453.75486519932747 402.69803673624995 C449.7592212021351 401.7666482627392, 447.8782906830311 400.1695605933666, 446.93129552006724 392.56604916453364 C451.7867827732563 385.1636217445135, 449.27121365857124 373.0377831816673, 447.871750420332 346.06453984379766 C447.5492486655712 339.3823357880116, 449.93082310557367 337.16212914586066, 454.60279995799067 338.95677216649057 C456 340, 456 340, 456 340" stroke="none" stroke-width="0" fill="#E3EDFA"/><path d="M454.4040518432856 338.7865272372961 C496.0936568234116 339.5467580584109, 534.0546149529516 341.5306605127871, 654.5352195411921 338.7824728816748 M455.80483707636597 340.09051326066253 C514.3279380600899 340.1651901356042, 574.0274474300444 340.2241902939141, 654.4994239732623 340.4946133449674 M654 340 C658.9285333484411 338.83326260149477, 660.4190367549658 342.1231989532709, 660.5615498393774 345.37229658663273 M655.3366733402014 340.9588048607111 C659.3681252975762 339.4962393002212, 660.4072609777749 342.33465817019345, 660.9998460932076 346.3707652239502 M661.4001003891229 346.2458833545446 C660.1041920370817 358.1539503455162, 659.5395629591703 369.35555676519874, 659.9479123741388 394.87821205556395 M660.7571195051074 345.7156310394406 C659.7451960078597 355.7748732373118, 660.5400967589736 366.95143263489007, 659.2342533990741 393.8458267048001 M660 394 C658.8949085086584 398.1286214500666, 658.68601616323 401.0862152725458, 653.0017348140478 401.54120890200136 M660.6974210590124 395.2119395881891 C660.6813183040917 397.7558568100631, 656.3240785570442 399.0360270838439, 653.0062406988442 399.0447739081085 M653.0844912201167 399.4756862491369 C576.3516865577549 402.0840778943002, 500.6101569198072 400.9879388447702, 457.48058811724184 400.66900738179686 M653.6088831350207 400.39781058579683 C603.3301188994199 399.9033406520784, 554.3959271125495 398.44542796859145, 456.2621187135577 399.93242214471104 M456 400 C450.92626169621946 399.9783382087946, 450.7636767238379 397.439136376977, 450.698694691062 392.6914322525263 M454.5520530551672 400.5530259758234 C452.3082204170525 399.8677515415847, 451.03466383650897 397.29805212542414, 450.8244108171761 393.6145559076965 M449.6845680862665 393.38609217107296 C451.41065830323697 375.598183375597, 449.62626604173187 356.727642133832, 450.3355905205011 346.8900151103735 M450.20270609110594 393.22572377473114 C449.1090402153373 384.12555817216634, 449.65044365199805 373.25267070680854, 450.5380980417132 346.13057153970004 M450 346 C451.4827491611242 341.3847566276789, 452.7871746867895 340.90930601656436, 456.8375857204199 339.10031038820745 M448.71072557866574 345.0344077736139 C451.1230113239586 340.79961880728604, 453.679446503669 338.16217860743404, 457.26228613570333 338.3740565352142 M456 340 C456 340, 456 340, 456 340 M456 340 C456 340, 456 340, 456 340" stroke="#3B7DD8" stroke-width="1.5" fill="none"/></g></g><g filter="url(#shadow)"><g><path d="M351.642993865589 456.0309005675966 C442.276818648211 456.4171986064818, 531.6422547393023 454.45667570402793, 606.6875045639674 452.4746645500007 C611.9519162476063 454.94918820261955, 613.4637286484242 456.4455880820751, 615.7072242081165 461.81974999308585 C612.3777424510836 472.6478935595602, 614.1267546352267 491.519027274102, 614.078692215681 500.151943141222 C617.9148452460765 501.49487336277963, 611.8320947349072 506.6449487030506, 611.2473699271679 507.79375432133673 C543.1033289575134 506.8442318765184, 480.2698304901945 505.5083597244234, 349.19648411267366 507.16733183101485 C344.7592212021351 506.7666482627392, 342.8782906830311 505.1695605933666, 341.93129552006724 497.56604916453364 C346.8771806548238 492.30718499459323, 344.36161154013877 482.3249096818268, 342.871750420332 461.06453984379766 C342.5492486655712 454.3823357880116, 344.93082310557367 452.16212914586066, 349.60279995799067 453.95677216649057 C351 455, 351 455, 351 455" stroke="none" stroke-width="0" fill="#EDEEF2"/><path d="M349.7179754840906 454.02521781510904 C403.01523691261224 454.7489093153749, 453.317277817517 456.3425773634143, 609.4299416433518 454.0219609528602 M350.84322570150994 455.0727092660849 C427.2201511033207 455.3334949153071, 504.5420848912271 455.38088971887737, 609.401187077952 455.39732270216695 M609 455 C613.9285333484411 453.83326260149477, 615.4190367549658 457.1231989532709, 615.5615498393774 460.37229658663273 M610.3366733402014 455.9588048607111 C614.3681252975762 454.4962393002212, 615.4072609777749 457.33465817019345, 615.9998460932076 461.3707652239502 M616.4001003891229 461.2458833545446 C615.1315285344184 470.651486537233, 614.566899456507 479.3506291486323, 614.9479123741388 499.87821205556395 M615.7571195051074 460.7156310394406 C614.7203436809599 468.6660394083708, 615.5152444320738 477.7337649770081, 614.2342533990741 498.8458267048001 M615 499 C613.8949085086584 503.1286214500666, 613.68601616323 506.0862152725458, 608.0017348140478 506.54120890200136 M615.6974210590124 500.2119395881891 C615.6813183040917 502.7558568100631, 611.3240785570442 504.0360270838439, 608.0062406988442 504.0447739081085 M608.2645721633232 504.5788189736572 C507.9963345583814 506.85457321917636, 408.5243877840415 505.9740451591445, 352.18935584234515 505.53741336219446 M608.6858159788089 505.3195610844464 C543.218085309147 504.73251086551295, 478.8304491497214 503.56137019003296, 351.2105598577534 504.9457147358775 M351 505 C345.92626169621946 504.9783382087946, 345.7636767238379 502.439136376977, 345.698694691062 497.6914322525263 M349.5520530551672 505.5530259758234 C347.3082204170525 504.8677515415847, 346.03466383650897 502.29805212542414, 345.8244108171761 498.6145559076965 M344.6845680862665 498.38609217107296 C346.37826904482245 484.5297846522182, 344.59387678331734 469.5908446870744, 345.3355905205011 461.8900151103735 M345.20270609110594 498.22572377473114 C344.15139226376414 491.32517869658767, 344.6927957004249 482.6519117556512, 345.5380980417132 461.13057153970004 M345 461 C346.4827491611242 456.3847566276789, 347.7871746867895 455.90930601656436, 351.8375857204199 454.10031038820745 M343.71072557866574 460.0344077736139 C346.1230113239586 455.79961880728604, 348.679446503669 453.16217860743404, 352.26228613570333 453.3740565352142 M351 455 C351 455, 351 455, 351 455 M351 455 C351 455, 351 455, 351 455" stroke="#2D3142" stroke-width="1.5" fill="none"/></g></g><g filter="url(#shadow)"><g><path d="M326.57628511986303 535.9239476283651 C434.4526809791336 536.5348556500112, 541.1922797890853 534.7777313035762, 631.9274192479022 532.736660767107 C636.9519162476063 534.9491882026196, 638.4637286484242 536.4455880820751, 640.7072242081165 541.8197499930859 C637.3777424510836 552.6478935595602, 639.1267546352267 571.519027274102, 639.078692215681 580.151943141222 C642.9148452460765 581.4948733627796, 636.8320947349072 586.6449487030507, 636.2473699271679 587.7937543213368 C555.4631251115488 586.9837454383902, 479.67162754178247 585.7864661415084, 324.38359364696174 586.9424774494158 C319.7592212021351 586.7666482627392, 317.8782906830311 585.1695605933667, 316.93129552006724 577.5660491645336 C321.8771806548238 572.3071849945933, 319.36161154013877 562.3249096818269, 317.871750420332 541.0645398437977 C317.5492486655712 534.3823357880116, 319.93082310557367 532.1621291458607, 324.60279995799067 533.9567721664905 C326 535, 326 535, 326 535" stroke="none" stroke-width="0" fill="#E0E8F8"/><path d="M324.85098180347114 534.1263486351528 C387.98665197723386 534.8593551874152, 448.43784705590747 536.2876848049069, 634.3853364467889 534.1234296629015 M325.8594905795656 535.0651658909413 C417.09532642906464 535.4488670888261, 509.1781287897508 535.4913448192028, 634.3595650840203 535.3561016259973 M634 535 C638.9285333484411 533.8332626014948, 640.4190367549658 537.123198953271, 640.5615498393774 540.3722965866327 M635.3366733402014 535.9588048607111 C639.3681252975762 534.4962393002212, 640.4072609777749 537.3346581701934, 640.9998460932076 541.3707652239501 M641.4001003891229 541.2458833545446 C640.1315285344184 550.6514865372329, 639.566899456507 559.3506291486323, 639.9479123741388 579.878212055564 M640.7571195051074 540.7156310394406 C639.7203436809599 548.6660394083708, 640.5152444320738 557.733764977008, 639.2342533990741 578.8458267048002 M640 579 C638.8949085086584 583.1286214500666, 638.68601616323 586.0862152725458, 633.0017348140478 586.5412089020014 M640.6974210590124 580.2119395881891 C640.6813183040917 582.7558568100632, 636.3240785570442 584.0360270838439, 633.0062406988442 584.0447739081085 M633.3408706650387 584.6225152816542 C513.5054143804649 586.7969289249214, 394.38363606595817 586.0077530932774, 327.0659636286542 585.4816582869955 M633.7184116583363 585.286407550226 C555.5856269759323 584.6184728459004, 478.4208801358873 583.5688346134623, 326.1887148841655 584.9513466743373 M326 585 C320.92626169621946 584.9783382087946, 320.7636767238379 582.439136376977, 320.698694691062 577.6914322525263 M324.5520530551672 585.5530259758234 C322.3082204170525 584.8677515415848, 321.03466383650897 582.2980521254242, 320.8244108171761 578.6145559076965 M319.6845680862665 578.386092171073 C321.37826904482245 564.5297846522182, 319.59387678331734 549.5908446870744, 320.3355905205011 541.8900151103735 M320.20270609110594 578.2257237747311 C319.15139226376414 571.3251786965877, 319.6927957004249 562.6519117556512, 320.5380980417132 541.1305715397 M320 541 C321.4827491611242 536.3847566276788, 322.7871746867895 535.9093060165644, 326.8375857204199 534.1003103882074 M318.71072557866574 540.0344077736139 C321.1230113239586 535.799618807286, 323.679446503669 533.162178607434, 327.26228613570333 533.3740565352142 M326 535 C326 535, 326 535, 326 535 M326 535 C326 535, 326 535, 326 535" stroke="#326CE5" stroke-width="1.5" fill="none"/></g></g></g><g id="layer-text"><text x="34" y="26" text-anchor="start" font-family="Inter, &quot;IBM Plex Sans&quot;, system-ui, sans-serif" font-size="10" font-weight="600" fill="#B0B0B0" letter-spacing="1">METRIC SOURCES</text><text x="34" y="168" text-anchor="start" font-family="Inter, &quot;IBM Plex Sans&quot;, system-ui, sans-serif" font-size="10" font-weight="600" fill="#B0B0B0" letter-spacing="1">AGGREGATION &amp; FEATURES</text><text x="34" y="336" text-anchor="start" font-family="Inter, &quot;IBM Plex Sans&quot;, system-ui, sans-serif" font-size="10" font-weight="600" fill="#888" letter-spacing="1">RL INFERENCE</text><text x="34" y="454" text-anchor="start" font-family="Inter, &quot;IBM Plex Sans&quot;, system-ui, sans-serif" font-size="10" font-weight="600" fill="#B0B0B0" letter-spacing="1">EXECUTION</text><text x="169.5" y="49.675000000000004" text-anchor="middle" font-family="Inter, &quot;IBM Plex Sans&quot;, system-ui, sans-serif" font-size="11" font-weight="700" fill="#326CE5" letter-spacing="0.2">kube-state-metrics</text><text x="169.5" y="68.525" text-anchor="middle" font-family="Inter, &quot;IBM Plex Sans&quot;, system-ui, sans-serif" font-size="10" font-weight="400" fill="#777">replicas, pods, phase</text><text x="376.5" y="49.675000000000004" text-anchor="middle" font-family="Inter, &quot;IBM Plex Sans&quot;, system-ui, sans-serif" font-size="11" font-weight="700" fill="#3B7DD8" letter-spacing="0.2">cAdvisor</text><text x="376.5" y="68.525" text-anchor="middle" font-family="Inter, &quot;IBM Plex Sans&quot;, system-ui, sans-serif" font-size="10" font-weight="400" fill="#777">CPU per container</text><text x="583.5" y="49.675000000000004" text-anchor="middle" font-family="Inter, &quot;IBM Plex Sans&quot;, system-ui, sans-serif" font-size="11" font-weight="700" fill="#5FA384" letter-spacing="0.2">Istio / Envoy</text><text x="583.5" y="68.525" text-anchor="middle" font-family="Inter, &quot;IBM Plex Sans&quot;, system-ui, sans-serif" font-size="10" font-weight="400" fill="#777">RPS, p99, error rate</text><text x="790.5" y="49.675000000000004" text-anchor="middle" font-family="Inter, &quot;IBM Plex Sans&quot;, system-ui, sans-serif" font-size="11" font-weight="700" fill="#D4644B" letter-spacing="0.2">AlertManager</text><text x="790.5" y="68.525" text-anchor="middle" font-family="Inter, &quot;IBM Plex Sans&quot;, system-ui, sans-serif" font-size="10" font-weight="400" fill="#777">firing alerts</text><rect x="135.4" y="100.225" width="68.19999999999999" height="13.5" fill="#F4F5F8" opacity="1" rx="4"/><text x="169.5" y="109" text-anchor="middle" font-family="Inter, &quot;IBM Plex Sans&quot;, system-ui, sans-serif" font-size="9" font-weight="400" fill="#BBB">15s scrape</text><rect x="342.4" y="100.225" width="68.19999999999999" height="13.5" fill="#F4F5F8" opacity="1" rx="4"/><text x="376.5" y="109" text-anchor="middle" font-family="Inter, &quot;IBM Plex Sans&quot;, system-ui, sans-serif" font-size="9" font-weight="400" fill="#BBB">15s scrape</text><rect x="549.4" y="100.225" width="68.19999999999999" height="13.5" fill="#F4F5F8" opacity="1" rx="4"/><text x="583.5" y="109" text-anchor="middle" font-family="Inter, &quot;IBM Plex Sans&quot;, system-ui, sans-serif" font-size="9" font-weight="400" fill="#BBB">10s scrape</text><rect x="745.96" y="100.225" width="89.08" height="13.5" fill="#F4F5F8" opacity="1" rx="4"/><text x="790.5" y="109" text-anchor="middle" font-family="Inter, &quot;IBM Plex Sans&quot;, system-ui, sans-serif" font-size="9" font-weight="400" fill="#BBB">push on change</text><text x="480" y="182.025" text-anchor="middle" font-family="Inter, &quot;IBM Plex Sans&quot;, system-ui, sans-serif" font-size="13" font-weight="700" fill="#2D3142" letter-spacing="0.2">Aggregation Service</text><text x="480" y="203.57500000000002" text-anchor="middle" font-family="Inter, &quot;IBM Plex Sans&quot;, system-ui, sans-serif" font-size="10" font-weight="400" fill="#666">10s rolling window  |  p99 &lt; 500ms</text><text x="480" y="263.52500000000003" text-anchor="middle" font-family="Inter, &quot;IBM Plex Sans&quot;, system-ui, sans-serif" font-size="13" font-weight="700" fill="#8B5FA0" letter-spacing="0.2">Feature Store</text><text x="480" y="285.07500000000005" text-anchor="middle" font-family="Inter, &quot;IBM Plex Sans&quot;, system-ui, sans-serif" font-size="10" font-weight="400" fill="#777">per-domain aggregates, top-K apps</text><text x="245" y="356.84999999999997" text-anchor="middle" font-family="Inter, &quot;IBM Plex Sans&quot;, system-ui, sans-serif" font-size="12" font-weight="700" fill="#2D3142" letter-spacing="0.2">Commander Inference</text><text x="245" y="377.04999999999995" text-anchor="middle" font-family="Inter, &quot;IBM Plex Sans&quot;, system-ui, sans-serif" font-size="10" font-weight="400" fill="#666">60s tick → budget allocations</text><text x="555" y="356.84999999999997" text-anchor="middle" font-family="Inter, &quot;IBM Plex Sans&quot;, system-ui, sans-serif" font-size="12" font-weight="700" fill="#3B7DD8" letter-spacing="0.2">Soldier Inference</text><text x="555" y="377.04999999999995" text-anchor="middle" font-family="Inter, &quot;IBM Plex Sans&quot;, system-ui, sans-serif" font-size="10" font-weight="400" fill="#666">10s tick → replica deltas</text><text x="400" y="362" text-anchor="middle" font-family="Inter, &quot;IBM Plex Sans&quot;, system-ui, sans-serif" font-size="10" font-weight="500" fill="#888">budget directive</text><text x="480" y="466.52500000000003" text-anchor="middle" font-family="Inter, &quot;IBM Plex Sans&quot;, system-ui, sans-serif" font-size="13" font-weight="700" fill="#2D3142" letter-spacing="0.2">Action Executor</text><text x="480" y="488.07500000000005" text-anchor="middle" font-family="Inter, &quot;IBM Plex Sans&quot;, system-ui, sans-serif" font-size="10" font-weight="400" fill="#777">circuit breakers + validation</text><text x="480" y="555.775" text-anchor="middle" font-family="Inter, &quot;IBM Plex Sans&quot;, system-ui, sans-serif" font-size="13" font-weight="700" fill="#326CE5" letter-spacing="0.2">Kubernetes Control Plane</text></g></svg>