<?xml version="1.0" encoding="UTF-8"?>
<svg xmlns="http://www.w3.org/2000/svg" width="980" height="720" viewBox="-10 -10 980 720"><defs><filter id="shadow" x="-4%" y="-4%" width="112%" height="112%"><feFlood flood-color="#000000" flood-opacity="0.08" result="color"/><feComposite in="color" in2="SourceGraphic" operator="in" result="shadow"/><feGaussianBlur in="shadow" stdDeviation="3" result="blur"/><feOffset in="blur" dx="2" dy="3" result="offsetBlur"/><feMerge><feMergeNode in="offsetBlur"/><feMergeNode in="SourceGraphic"/></feMerge></filter><filter id="shadow-light" x="-4%" y="-4%" width="112%" height="112%"><feFlood flood-color="#000000" flood-opacity="0.04" result="color"/><feComposite in="color" in2="SourceGraphic" operator="in" result="shadow"/><feGaussianBlur in="shadow" stdDeviation="2" result="blur"/><feOffset in="blur" dx="1" dy="2" result="offsetBlur"/><feMerge><feMergeNode in="offsetBlur"/><feMergeNode in="SourceGraphic"/></feMerge></filter></defs><g id="layer-zones"><rect x="20" y="8" width="920" height="80" fill="#F0ECF3" rx="12" ry="12"/><rect x="20" y="98" width="920" height="130" fill="#DDDEE5" rx="12" ry="12"/><rect x="20" y="240" width="920" height="190" fill="#F4F6F8" rx="12" ry="12"/><rect x="20" y="445" width="920" height="195" fill="#EDF0F6" rx="12" ry="12"/></g><g id="layer-connectors"><path d="M480,74 C480,93 480,93 480,112" fill="none" stroke="#8B5FA0" stroke-width="1.3" stroke-linecap="round"/><polygon points="480,112 476.5289300870595,104.79224905678065 483.4710699129405,104.79224905678065" fill="#8B5FA0" stroke="none"/><circle cx="480" cy="74" r="2.5" fill="#8B5FA0"/><path d="M480,217 C312.5,217 312.5,268 145,268" fill="none" stroke="#888" stroke-width="1.3" stroke-linecap="round"/><polygon points="145,268 152.20775094321937,264.5289300870595 152.20775094321937,271.47106991294044" fill="#888" stroke="none"/><circle cx="480" cy="217" r="2.5" fill="#888"/><path d="M480,217 C396.25,217 396.25,268 312.5,268" fill="none" stroke="#888" stroke-width="1.3" stroke-linecap="round"/><polygon points="312.5,268 319.70775094321937,264.5289300870595 319.70775094321937,271.47106991294044" fill="#888" stroke="none"/><circle cx="480" cy="217" r="2.5" fill="#888"/><path d="M480,217 C480,242.5 480,242.5 480,268" fill="none" stroke="#888" stroke-width="1.3" stroke-linecap="round"/><polygon points="480,268 476.5289300870595,260.79224905678063 483.4710699129405,260.79224905678063" fill="#888" stroke="none"/><circle cx="480" cy="217" r="2.5" fill="#888"/><path d="M480,217 C563.75,217 563.75,268 647.5,268" fill="none" stroke="#888" stroke-width="1.3" stroke-linecap="round"/><polygon points="647.5,268 640.2922490567806,271.4710699129405 640.2922490567806,264.5289300870595" fill="#888" stroke="none"/><circle cx="480" cy="217" r="2.5" fill="#888"/><path d="M480,217 C647.5,217 647.5,268 815,268" fill="none" stroke="#888" stroke-width="1.3" stroke-linecap="round"/><polygon points="815,268 807.7922490567806,271.4710699129405 807.7922490567806,264.5289300870595" fill="#888" stroke="none"/><circle cx="480" cy="217" r="2.5" fill="#888"/><path d="M145,388 C312.5,388 312.5,465 480,465" fill="none" stroke="#AAA" stroke-width="1.3" stroke-linecap="round"/><polygon points="480,465 472.79224905678063,468.4710699129405 472.79224905678063,461.5289300870595" fill="#AAA" stroke="none"/><circle cx="145" cy="388" r="2.5" fill="#AAA"/><path d="M312.5,388 C396.25,388 396.25,465 480,465" fill="none" stroke="#AAA" stroke-width="1.3" stroke-linecap="round"/><polygon points="480,465 472.79224905678063,468.4710699129405 472.79224905678063,461.5289300870595" fill="#AAA" stroke="none"/><circle cx="312.5" cy="388" r="2.5" fill="#AAA"/><path d="M480,388 C480,426.5 480,426.5 480,465" fill="none" stroke="#AAA" stroke-width="1.3" stroke-linecap="round"/><polygon points="480,465 476.5289300870595,457.79224905678063 483.4710699129405,457.79224905678063" fill="#AAA" stroke="none"/><circle cx="480" cy="388" r="2.5" fill="#AAA"/><path d="M647.5,388 C563.75,388 563.75,465 480,465" fill="none" stroke="#AAA" stroke-width="1.3" stroke-linecap="round"/><polygon points="480,465 487.20775094321937,461.5289300870595 487.20775094321937,468.47106991294044" fill="#AAA" stroke="none"/><circle cx="647.5" cy="388" r="2.5" fill="#AAA"/><path d="M815,388 C647.5,388 647.5,465 480,465" fill="none" stroke="#AAA" stroke-width="1.3" stroke-linecap="round"/><polygon points="480,465 487.20775094321937,461.5289300870595 487.20775094321937,468.47106991294044" fill="#AAA" stroke="none"/><circle cx="815" cy="388" r="2.5" fill="#AAA"/><path d="M480,515 C480,535 480,535 480,555" fill="none" stroke="#AAB5CC" stroke-width="1.3" stroke-linecap="round"/><polygon points="480,555 476.5289300870595,547.7922490567806 483.4710699129405,547.7922490567806" fill="#AAB5CC" stroke="none"/><circle cx="480" cy="515" r="2.5" fill="#AAB5CC"/></g><g id="layer-boxes"><g filter="url(#shadow)"><g><path d="M341.61631036729864 24.98811939190399 C439.14716358058007 25.471614849200297, 535.4622647592155 23.592451369153988, 616.7834704375413 21.579463036843183 C621.9519162476063 23.949188202619553, 623.4637286484242 25.44558808207512, 625.7072242081165 30.81974999308586 C622.3777424510836 41.64789355956018, 624.1267546352267 60.51902727410197, 624.078692215681 69.151943141222 C627.9148452460765 70.49487336277961, 621.8320947349072 75.64494870305062, 621.2473699271679 76.79375432133675 C548.0472474191276 75.9092287539415, 480.0305493108297 74.62879374393182, 339.2713279263889 76.07739007837525 C334.7592212021351 75.76664826273918, 332.8782906830311 74.16956059336663, 331.93129552006724 66.56604916453361 C336.8771806548238 61.307184994593264, 334.36161154013877 51.32490968182683, 332.871750420332 30.064539843797682 C332.5492486655712 23.382335788011552, 334.93082310557367 21.16212914586067, 339.60279995799067 22.956772166490556 C341 24, 341 24, 341 24" stroke="none" stroke-width="0" fill="#EDE6F2"/><path d="M339.7711780118428 23.065670143126564 C397.00380293846086 23.795432315045772, 451.3655055128732 25.322964990866126, 619.4120995647265 23.06254843687668 M340.8497316527322 24.06969191602748 C423.17022123361824 24.383810221273563, 506.39650245063655 24.42923819556645, 619.3845382803794 24.380834271699115 M619 24 C623.9285333484411 22.833262601494788, 625.4190367549658 26.12319895327091, 625.5615498393774 29.37229658663273 M620.3366733402014 24.958804860711098 C624.3681252975762 23.496239300221205, 625.4072609777749 26.334658170193435, 625.9998460932076 30.370765223950148 M626.4001003891229 30.245883354544638 C625.1315285344184 39.65148653723299, 624.566899456507 48.35062914863229, 624.9479123741388 68.87821205556392 M625.7571195051074 29.71563103944063 C624.7203436809599 37.66603940837085, 625.5152444320738 46.7337649770081, 624.2342533990741 67.84582670480013 M625 68 C623.8949085086584 72.12862145006656, 623.68601616323 75.08621527254581, 618.0017348140478 75.54120890200139 M625.6974210590124 69.21193958818913 C625.6813183040917 71.75585681006312, 621.3240785570442 73.03602708384395, 618.0062406988442 73.04477390810847 M618.2950915640093 73.59629749685597 C510.1999664872148 75.83525940796245, 402.86808709680815 74.99127223928572, 342.13999895686874 74.51511133211487 M618.6988542506199 74.30629967075824 C548.1651019758611 73.68295653154404, 478.66662154418776 72.56041683328077, 341.2018218683183 73.94796751126141 M341 74 C335.92626169621946 73.9783382087946, 335.7636767238379 71.43913637697696, 335.698694691062 66.69143225252628 M339.5520530551672 74.5530259758234 C337.3082204170525 73.86775154158472, 336.03466383650897 71.29805212542415, 335.8244108171761 67.61455590769648 M334.6845680862665 67.38609217107296 C336.37826904482245 53.52978465221822, 334.59387678331734 38.590844687074416, 335.3355905205011 30.890015110373497 M335.20270609110594 67.22572377473116 C334.15139226376414 60.325178696587685, 334.6927957004249 51.651911755651234, 335.5380980417132 30.130571539700032 M335 30 C336.4827491611242 25.384756627678872, 337.7871746867895 24.90930601656437, 341.8375857204199 23.100310388207436 M333.71072557866574 29.03440777361393 C336.1230113239586 24.799618807286024, 338.679446503669 22.162178607434036, 342.26228613570333 22.374056535214187 M341 24 C341 24, 341 24, 341 24 M341 24 C341 24, 341 24, 341 24" stroke="#8B5FA0" stroke-width="1.5" fill="none"/></g></g><g filter="url(#shadow)"><g><path d="M276.4428676284111 112.71004174990205 C418.80440564097876 113.58633410440201, 560.2923298886515 112.23600687000466, 682.4072486157718 110.26065320131936 C686.9519162476063 111.94918820261955, 688.4637286484242 113.44558808207512, 690.7072242081165 118.81974999308586 C687.5227240230857 150.92998861093074, 689.2717362072289 191.0832173768431, 689.078692215681 212.151943141222 C692.9148452460765 213.49487336277963, 686.8320947349072 218.6449487030506, 686.2473699271679 219.79375432133673 C580.1827174196195 219.03298624527386, 478.4752216449583 218.1128926588184, 274.7578127155378 218.49276868621766 C269.7592212021351 218.76664826273918, 267.8782906830311 217.1695605933666, 266.93129552006724 209.5660491645336 C271.37999230620267 192.51758711915463, 268.86442319151763 170.74571393094956, 267.871750420332 118.06453984379769 C267.5492486655712 111.38233578801155, 269.93082310557367 109.16212914586067, 274.60279995799067 110.95677216649055 C276 112, 276 112, 276 112" stroke="none" stroke-width="0" fill="#E2E3E8"/><path d="M275.1169944422323 111.3286102752403 C357.9294821064771 112.02163066012612, 438.6789855326885 113.1192834165224, 684.2961260536629 111.32636708298386 M275.89202033567693 112.05007914065408 C396.8456770805524 112.57545052189123, 518.4502165867981 112.60809410588088, 684.276321096157 112.2736594736582 M684 112 C688.9285333484411 110.8332626014948, 690.4190367549658 114.12319895327092, 690.5615498393774 117.37229658663273 M685.3366733402014 112.9588048607111 C689.3681252975762 111.4962393002212, 690.4072609777749 114.33465817019344, 690.9998460932076 118.37076522395014 M691.4001003891229 118.24588335454465 C689.9811777990669 141.41503748279067, 689.4165487211556 163.87773103974763, 689.9479123741388 211.87821205556392 M690.7571195051074 117.71563103944064 C689.8570314789087 137.2646254675463, 690.6519322300226 157.93093709535898, 689.2342533990741 210.84582670480012 M690 211 C688.8949085086584 215.12862145006656, 688.68601616323 218.08621527254581, 683.0017348140478 218.5412089020014 M690.6974210590124 212.21193958818913 C690.6813183040917 214.75585681006314, 686.3240785570442 216.03602708384395, 683.0062406988442 216.04477390810848 M683.4934676684696 216.70990789764798 C524.5235740246317 218.5880426742097, 366.1021326297915 217.98157129934134, 276.81917920127233 217.3701481365976 M683.783603017391 217.22010048178544 C580.3207103095027 216.48887495977408, 477.60174210821896 215.6822416134195, 276.1450249369897 216.96261055125686 M276 217 C270.92626169621946 216.97833820879458, 270.7636767238379 214.43913637697696, 270.698694691062 209.69143225252628 M274.5520530551672 217.5530259758234 C272.3082204170525 216.86775154158474, 271.03466383650897 214.29805212542414, 270.8244108171761 210.61455590769648 M269.6845680862665 210.38609217107296 C271.55640996610225 174.90597763080152, 269.77201770459715 138.34323064424098, 270.3355905205011 118.8900151103735 M270.20270609110594 210.22572377473116 C268.9184559974164 191.22726581227033, 269.45985943407715 170.45608598701656, 270.5380980417132 118.13057153970003 M270 118 C271.4827491611242 113.38475662767887, 272.7871746867895 112.90930601656437, 276.8375857204199 111.10031038820743 M268.71072557866574 117.03440777361394 C271.1230113239586 112.79961880728602, 273.679446503669 110.16217860743403, 277.26228613570333 110.37405653521418 M276 112 C276 112, 276 112, 276 112 M276 112 C276 112, 276 112, 276 112" stroke="#2D3142" stroke-width="1.5" fill="none"/></g></g><g filter="url(#shadow)"><g><path d="M89.30044091343879 269.28333260416986 C129.87018270697445 268.6980603490293, 168.8609511118382 266.25747292379737, 198.6212540924549 264.856296890974 C204.45191624760628 267.94918820261955, 205.96372864842414 269.4455880820751, 208.20722420811654 274.81974999308585 C205.06226445181372 312.73419635221364, 206.81127663595677 358.69163285940886, 206.5786922156811 383.151943141222 C210.4148452460766 384.49487336277963, 204.33209473490714 389.6449487030506, 203.74736992716788 390.79375432133673 C172.2844756403938 388.96316670756937, 146.88218929953874 387.3001854835093, 86.25486519932747 390.69803673624995 C82.25922120213508 389.7666482627392, 80.37829068303108 388.1695605933666, 79.43129552006721 380.56604916453364 C83.74439548385143 360.30224224403497, 81.22882636916637 335.3150241807103, 80.37175042033195 274.06453984379766 C80.04924866557121 267.3823357880116, 82.43082310557365 265.16212914586066, 87.10279995799064 266.95677216649057 C88.5 268, 88.5 268, 88.5 268" stroke="none" stroke-width="0" fill="#E3EDFA"/><path d="M86.90405184328556 266.7865272372961 C111.57760757710784 267.34747867810427, 132.5225164603442 269.3313811324805, 202.03521954119205 266.7824728816748 M88.30483707636594 268.09051326066253 C121.60168415848166 267.8110713575989, 156.07493962682784 267.8700715159088, 201.9994239732623 268.4946133449674 M201.5 268 C206.42853334844114 266.83326260149477, 207.9190367549658 270.1231989532709, 208.0615498393774 273.37229658663273 M202.83667334020137 268.9588048607111 C206.8681252975762 267.4962393002212, 207.90726097777485 270.33465817019345, 208.4998460932076 274.3707652239502 M208.90010038912297 274.2458833545446 C207.44017305306195 301.16873319521545, 206.87554397515058 327.38512246459726, 207.44791237413884 382.87821205556395 M208.2571195051074 273.7156310394406 C207.39430996925833 296.4278762109577, 208.18921072037222 320.2574385821819, 206.73425339907408 381.8458267048001 M207.5 382 C206.3949085086584 386.1286214500666, 206.18601616322994 389.0862152725458, 200.5017348140478 389.54120890200136 M208.1974210590124 383.2119395881891 C208.1813183040917 385.7558568100631, 203.82407855704426 387.0360270838439, 200.50624069884418 387.0447739081085 M200.5844912201166 387.4756862491369 C157.03570610377938 389.7658712993413, 114.4781960118562 388.6697322498113, 89.98058811724187 388.66900738179686 M201.10888313502073 388.39781058579683 C172.374042073451 388.23813958869874, 144.9837734606117 386.7802269052118, 88.76211871355773 387.93242214471104 M88.5 388 C83.42626169621944 387.9783382087946, 83.26367672383785 385.439136376977, 83.19869469106197 380.6914322525263 M87.05205305516719 388.5530259758234 C84.80822041705251 387.8677515415847, 83.53466383650898 385.29805212542414, 83.3244108171761 381.6145559076965 M82.18456808626652 381.38609217107296 C84.10499385372401 340.00857571586965, 82.32060159221888 297.5484268143773, 82.83559052050114 274.8900151103735 M82.70270609110594 381.22572377473114 C81.35492792477608 358.92783502563833, 81.89633136143685 334.85722441375253, 83.03809804171324 274.13057153970004 M82.5 274 C83.98274916112423 269.3847566276789, 85.28717468678951 268.90930601656436, 89.33758572041988 267.10031038820745 M81.21072557866573 273.0344077736139 C83.62301132395864 268.79961880728604, 86.17944650366903 266.16217860743404, 89.76228613570332 266.3740565352142 M88.5 268 C88.5 268, 88.5 268, 88.5 268 M88.5 268 C88.5 268, 88.5 268, 88.5 268" stroke="#3B7DD8" stroke-width="1.5" fill="none"/></g></g><g filter="url(#shadow)"><g><path d="M256.8004409134388 269.28333260416986 C297.37018270697445 268.6980603490293, 336.36095111183823 266.25747292379737, 366.12125409245493 264.856296890974 C371.9519162476063 267.94918820261955, 373.46372864842414 269.4455880820751, 375.70722420811654 274.81974999308585 C372.5622644518137 312.73419635221364, 374.31127663595674 358.69163285940886, 374.0786922156811 383.151943141222 C377.9148452460766 384.49487336277963, 371.8320947349072 389.6449487030506, 371.2473699271679 390.79375432133673 C339.7844756403938 388.96316670756937, 314.3821892995387 387.3001854835093, 253.75486519932747 390.69803673624995 C249.75922120213508 389.7666482627392, 247.87829068303108 388.1695605933666, 246.9312955200672 380.56604916453364 C251.24439548385143 360.30224224403497, 248.72882636916637 335.3150241807103, 247.87175042033195 274.06453984379766 C247.5492486655712 267.3823357880116, 249.93082310557367 265.16212914586066, 254.60279995799064 266.95677216649057 C256 268, 256 268, 256 268" stroke="none" stroke-width="0" fill="#FBEAE5"/><path d="M254.40405184328557 266.7865272372961 C279.07760757710787 267.34747867810427, 300.0225164603442 269.3313811324805, 369.5352195411921 266.7824728816748 M255.80483707636594 268.09051326066253 C289.10168415848165 267.8110713575989, 323.57493962682787 267.8700715159088, 369.4994239732623 268.4946133449674 M369 268 C373.92853334844114 266.83326260149477, 375.41903675496576 270.1231989532709, 375.5615498393774 273.37229658663273 M370.3366733402014 268.9588048607111 C374.36812529757617 267.4962393002212, 375.40726097777485 270.33465817019345, 375.9998460932076 274.3707652239502 M376.40010038912294 274.2458833545446 C374.940173053062 301.16873319521545, 374.3755439751506 327.38512246459726, 374.9479123741388 382.87821205556395 M375.7571195051074 273.7156310394406 C374.8943099692583 296.4278762109577, 375.68921072037216 320.2574385821819, 374.2342533990741 381.8458267048001 M375 382 C373.89490850865843 386.1286214500666, 373.68601616322997 389.0862152725458, 368.00173481404784 389.54120890200136 M375.6974210590124 383.2119395881891 C375.6813183040917 385.7558568100631, 371.3240785570443 387.0360270838439, 368.0062406988442 387.0447739081085 M368.0844912201166 387.4756862491369 C324.5357061037794 389.7658712993413, 281.9781960118562 388.6697322498113, 257.48058811724184 388.66900738179686 M368.60888313502073 388.39781058579683 C339.874042073451 388.23813958869874, 312.4837734606117 386.7802269052118, 256.2621187135577 387.93242214471104 M256 388 C250.92626169621946 387.9783382087946, 250.76367672383785 385.439136376977, 250.69869469106197 380.6914322525263 M254.5520530551672 388.5530259758234 C252.3082204170525 387.8677515415847, 251.034663836509 385.29805212542414, 250.8244108171761 381.6145559076965 M249.68456808626652 381.38609217107296 C251.60499385372398 340.00857571586965, 249.82060159221888 297.5484268143773, 250.33559052050114 274.8900151103735 M250.20270609110594 381.22572377473114 C248.8549279247761 358.92783502563833, 249.39633136143684 334.85722441375253, 250.53809804171323 274.13057153970004 M250 274 C251.48274916112422 269.3847566276789, 252.7871746867895 268.90930601656436, 256.8375857204199 267.10031038820745 M248.71072557866574 273.0344077736139 C251.12301132395862 268.79961880728604, 253.67944650366903 266.16217860743404, 257.26228613570333 266.3740565352142 M256 268 C256 268, 256 268, 256 268 M256 268 C256 268, 256 268, 256 268" stroke="#D4644B" stroke-width="1.5" fill="none"/></g></g><g filter="url(#shadow)"><g><path d="M424.3004409134388 269.28333260416986 C464.87018270697445 268.6980603490293, 503.86095111183823 266.25747292379737, 533.6212540924549 264.856296890974 C539.4519162476063 267.94918820261955, 540.9637286484242 269.4455880820751, 543.2072242081165 274.81974999308585 C540.0622644518137 312.73419635221364, 541.8112766359568 358.69163285940886, 541.578692215681 383.151943141222 C545.4148452460765 384.49487336277963, 539.3320947349072 389.6449487030506, 538.7473699271679 390.79375432133673 C507.2844756403938 388.96316670756937, 481.8821892995387 387.3001854835093, 421.25486519932747 390.69803673624995 C417.2592212021351 389.7666482627392, 415.3782906830311 388.1695605933666, 414.43129552006724 380.56604916453364 C418.7443954838514 360.30224224403497, 416.22882636916637 335.3150241807103, 415.371750420332 274.06453984379766 C415.0492486655712 267.3823357880116, 417.43082310557367 265.16212914586066, 422.10279995799067 266.95677216649057 C423.5 268, 423.5 268, 423.5 268" stroke="none" stroke-width="0" fill="#E4F1EA"/><path d="M421.9040518432856 266.7865272372961 C446.57760757710787 267.34747867810427, 467.5225164603442 269.3313811324805, 537.0352195411921 266.7824728816748 M423.30483707636597 268.09051326066253 C456.60168415848165 267.8110713575989, 491.07493962682787 267.8700715159088, 536.9994239732623 268.4946133449674 M536.5 268 C541.4285333484411 266.83326260149477, 542.9190367549658 270.1231989532709, 543.0615498393774 273.37229658663273 M537.8366733402014 268.9588048607111 C541.8681252975762 267.4962393002212, 542.9072609777749 270.33465817019345, 543.4998460932076 274.3707652239502 M543.9001003891229 274.2458833545446 C542.440173053062 301.16873319521545, 541.8755439751507 327.38512246459726, 542.4479123741388 382.87821205556395 M543.2571195051074 273.7156310394406 C542.3943099692583 296.4278762109577, 543.1892107203722 320.2574385821819, 541.7342533990741 381.8458267048001 M542.5 382 C541.3949085086584 386.1286214500666, 541.18601616323 389.0862152725458, 535.5017348140478 389.54120890200136 M543.1974210590124 383.2119395881891 C543.1813183040917 385.7558568100631, 538.8240785570442 387.0360270838439, 535.5062406988442 387.0447739081085 M535.5844912201167 387.4756862491369 C492.0357061037794 389.7658712993413, 449.4781960118562 388.6697322498113, 424.98058811724184 388.66900738179686 M536.1088831350207 388.39781058579683 C507.374042073451 388.23813958869874, 479.9837734606117 386.7802269052118, 423.7621187135577 387.93242214471104 M423.5 388 C418.42626169621946 387.9783382087946, 418.2636767238379 385.439136376977, 418.198694691062 380.6914322525263 M422.0520530551672 388.5530259758234 C419.8082204170525 387.8677515415847, 418.53466383650897 385.29805212542414, 418.3244108171761 381.6145559076965 M417.1845680862665 381.38609217107296 C419.104993853724 340.00857571586965, 417.3206015922189 297.5484268143773, 417.8355905205011 274.8900151103735 M417.70270609110594 381.22572377473114 C416.35492792477606 358.92783502563833, 416.8963313614368 334.85722441375253, 418.0380980417132 274.13057153970004 M417.5 274 C418.9827491611242 269.3847566276789, 420.2871746867895 268.90930601656436, 424.3375857204199 267.10031038820745 M416.21072557866574 273.0344077736139 C418.6230113239586 268.79961880728604, 421.179446503669 266.16217860743404, 424.76228613570333 266.3740565352142 M423.5 268 C423.5 268, 423.5 268, 423.5 268 M423.5 268 C423.5 268, 423.5 268, 423.5 268" stroke="#5FA384" stroke-width="1.5" fill="none"/></g></g><g filter="url(#shadow)"><g><path d="M591.8004409134388 269.28333260416986 C632.3701827069744 268.6980603490293, 671.3609511118383 266.25747292379737, 701.1212540924549 264.856296890974 C706.9519162476063 267.94918820261955, 708.4637286484242 269.4455880820751, 710.7072242081165 274.81974999308585 C707.5622644518137 312.73419635221364, 709.3112766359568 358.69163285940886, 709.078692215681 383.151943141222 C712.9148452460765 384.49487336277963, 706.8320947349072 389.6449487030506, 706.2473699271679 390.79375432133673 C674.7844756403938 388.96316670756937, 649.3821892995387 387.3001854835093, 588.7548651993275 390.69803673624995 C584.7592212021351 389.7666482627392, 582.8782906830311 388.1695605933666, 581.9312955200672 380.56604916453364 C586.2443954838515 360.30224224403497, 583.7288263691664 335.3150241807103, 582.871750420332 274.06453984379766 C582.5492486655712 267.3823357880116, 584.9308231055736 265.16212914586066, 589.6027999579907 266.95677216649057 C591 268, 591 268, 591 268" stroke="none" stroke-width="0" fill="#EDE6F2"/><path d="M589.4040518432855 266.7865272372961 C614.0776075771079 267.34747867810427, 635.0225164603441 269.3313811324805, 704.5352195411921 266.7824728816748 M590.804837076366 268.09051326066253 C624.1016841584816 267.8110713575989, 658.5749396268278 267.8700715159088, 704.4994239732623 268.4946133449674 M704 268 C708.9285333484411 266.83326260149477, 710.4190367549658 270.1231989532709, 710.5615498393774 273.37229658663273 M705.3366733402014 268.9588048607111 C709.3681252975762 267.4962393002212, 710.4072609777749 270.33465817019345, 710.9998460932076 274.3707652239502 M711.4001003891229 274.2458833545446 C709.940173053062 301.16873319521545, 709.3755439751507 327.38512246459726, 709.9479123741388 382.87821205556395 M710.7571195051074 273.7156310394406 C709.8943099692583 296.4278762109577, 710.6892107203722 320.2574385821819, 709.2342533990741 381.8458267048001 M710 382 C708.8949085086584 386.1286214500666, 708.68601616323 389.0862152725458, 703.0017348140478 389.54120890200136 M710.6974210590124 383.2119395881891 C710.6813183040917 385.7558568100631, 706.3240785570442 387.0360270838439, 703.0062406988442 387.0447739081085 M703.0844912201167 387.4756862491369 C659.5357061037794 389.7658712993413, 616.9781960118562 388.6697322498113, 592.4805881172418 388.66900738179686 M703.6088831350207 388.39781058579683 C674.8740420734509 388.23813958869874, 647.4837734606117 386.7802269052118, 591.2621187135577 387.93242214471104 M591 388 C585.9262616962194 387.9783382087946, 585.7636767238379 385.439136376977, 585.698694691062 380.6914322525263 M589.5520530551672 388.5530259758234 C587.3082204170526 387.8677515415847, 586.034663836509 385.29805212542414, 585.8244108171762 381.6145559076965 M584.6845680862665 381.38609217107296 C586.6049938537241 340.00857571586965, 584.8206015922188 297.5484268143773, 585.3355905205011 274.8900151103735 M585.2027060911059 381.22572377473114 C583.854927924776 358.92783502563833, 584.3963313614369 334.85722441375253, 585.5380980417133 274.13057153970004 M585 274 C586.4827491611243 269.3847566276789, 587.7871746867895 268.90930601656436, 591.8375857204198 267.10031038820745 M583.7107255786657 273.0344077736139 C586.1230113239586 268.79961880728604, 588.679446503669 266.16217860743404, 592.2622861357033 266.3740565352142 M591 268 C591 268, 591 268, 591 268 M591 268 C591 268, 591 268, 591 268" stroke="#8B5FA0" stroke-width="1.5" fill="none"/></g></g><g filter="url(#shadow)"><g><path d="M759.3004409134388 269.28333260416986 C799.8701827069744 268.6980603490293, 838.8609511118383 266.25747292379737, 868.6212540924549 264.856296890974 C874.4519162476063 267.94918820261955, 875.9637286484242 269.4455880820751, 878.2072242081165 274.81974999308585 C875.0622644518137 312.73419635221364, 876.8112766359568 358.69163285940886, 876.578692215681 383.151943141222 C880.4148452460765 384.49487336277963, 874.3320947349072 389.6449487030506, 873.7473699271679 390.79375432133673 C842.2844756403938 388.96316670756937, 816.8821892995387 387.3001854835093, 756.2548651993275 390.69803673624995 C752.2592212021351 389.7666482627392, 750.3782906830311 388.1695605933666, 749.4312955200672 380.56604916453364 C753.7443954838515 360.30224224403497, 751.2288263691664 335.3150241807103, 750.371750420332 274.06453984379766 C750.0492486655712 267.3823357880116, 752.4308231055736 265.16212914586066, 757.1027999579907 266.95677216649057 C758.5 268, 758.5 268, 758.5 268" stroke="none" stroke-width="0" fill="#EEEEEE"/><path d="M756.9040518432855 266.7865272372961 C781.5776075771079 267.34747867810427, 802.5225164603441 269.3313811324805, 872.0352195411921 266.7824728816748 M758.304837076366 268.09051326066253 C791.6016841584816 267.8110713575989, 826.0749396268278 267.8700715159088, 871.9994239732623 268.4946133449674 M871.5 268 C876.4285333484411 266.83326260149477, 877.9190367549658 270.1231989532709, 878.0615498393774 273.37229658663273 M872.8366733402014 268.9588048607111 C876.8681252975762 267.4962393002212, 877.9072609777749 270.33465817019345, 878.4998460932076 274.3707652239502 M878.9001003891229 274.2458833545446 C877.440173053062 301.16873319521545, 876.8755439751507 327.38512246459726, 877.4479123741388 382.87821205556395 M878.2571195051074 273.7156310394406 C877.3943099692583 296.4278762109577, 878.1892107203722 320.2574385821819, 876.7342533990741 381.8458267048001 M877.5 382 C876.3949085086584 386.1286214500666, 876.18601616323 389.0862152725458, 870.5017348140478 389.54120890200136 M878.1974210590124 383.2119395881891 C878.1813183040917 385.7558568100631, 873.8240785570442 387.0360270838439, 870.5062406988442 387.0447739081085 M870.5844912201167 387.4756862491369 C827.0357061037794 389.7658712993413, 784.4781960118562 388.6697322498113, 759.9805881172418 388.66900738179686 M871.1088831350207 388.39781058579683 C842.3740420734509 388.23813958869874, 814.9837734606117 386.7802269052118, 758.7621187135577 387.93242214471104 M758.5 388 C753.4262616962194 387.9783382087946, 753.2636767238379 385.439136376977, 753.198694691062 380.6914322525263 M757.0520530551672 388.5530259758234 C754.8082204170526 387.8677515415847, 753.534663836509 385.29805212542414, 753.3244108171762 381.6145559076965 M752.1845680862665 381.38609217107296 C754.1049938537241 340.00857571586965, 752.3206015922188 297.5484268143773, 752.8355905205011 274.8900151103735 M752.7027060911059 381.22572377473114 C751.354927924776 358.92783502563833, 751.8963313614369 334.85722441375253, 753.0380980417133 274.13057153970004 M752.5 274 C753.9827491611243 269.3847566276789, 755.2871746867895 268.90930601656436, 759.3375857204198 267.10031038820745 M751.2107255786657 273.0344077736139 C753.6230113239586 268.79961880728604, 756.179446503669 266.16217860743404, 759.7622861357033 266.3740565352142 M758.5 268 C758.5 268, 758.5 268, 758.5 268 M758.5 268 C758.5 268, 758.5 268, 758.5 268" stroke="#7A7A7A" stroke-width="1.5" fill="none"/></g></g><g filter="url(#shadow)"><g><path d="M341.61631036729864 465.988119391904 C439.14716358058007 466.4716148492003, 535.4622647592155 464.592451369154, 616.7834704375413 462.5794630368432 C621.9519162476063 464.94918820261955, 623.4637286484242 466.4455880820751, 625.7072242081165 471.81974999308585 C622.3777424510836 482.6478935595602, 624.1267546352267 501.519027274102, 624.078692215681 510.151943141222 C627.9148452460765 511.49487336277963, 621.8320947349072 516.6449487030507, 621.2473699271679 517.7937543213368 C548.0472474191276 516.9092287539415, 480.0305493108297 515.6287937439319, 339.2713279263889 517.0773900783753 C334.7592212021351 516.7666482627392, 332.8782906830311 515.1695605933667, 331.93129552006724 507.56604916453364 C336.8771806548238 502.30718499459323, 334.36161154013877 492.3249096818268, 332.871750420332 471.06453984379766 C332.5492486655712 464.3823357880116, 334.93082310557367 462.16212914586066, 339.60279995799067 463.95677216649057 C341 465, 341 465, 341 465" stroke="none" stroke-width="0" fill="#EDEEF2"/><path d="M339.7711780118428 464.06567014312657 C397.00380293846086 464.7954323150458, 451.3655055128732 466.3229649908661, 619.4120995647265 464.0625484368767 M340.8497316527322 465.06969191602747 C423.17022123361824 465.38381022127356, 506.39650245063655 465.4292381955665, 619.3845382803794 465.3808342716991 M619 465 C623.9285333484411 463.83326260149477, 625.4190367549658 467.1231989532709, 625.5615498393774 470.37229658663273 M620.3366733402014 465.9588048607111 C624.3681252975762 464.4962393002212, 625.4072609777749 467.33465817019345, 625.9998460932076 471.3707652239502 M626.4001003891229 471.2458833545446 C625.1315285344184 480.651486537233, 624.566899456507 489.3506291486323, 624.9479123741388 509.87821205556395 M625.7571195051074 470.7156310394406 C624.7203436809599 478.6660394083708, 625.5152444320738 487.7337649770081, 624.2342533990741 508.8458267048001 M625 509 C623.8949085086584 513.1286214500666, 623.68601616323 516.0862152725458, 618.0017348140478 516.5412089020014 M625.6974210590124 510.2119395881891 C625.6813183040917 512.7558568100632, 621.3240785570442 514.0360270838439, 618.0062406988442 514.0447739081085 M618.2950915640093 514.596297496856 C510.1999664872148 516.8352594079624, 402.86808709680815 515.9912722392858, 342.13999895686874 515.5151113321149 M618.6988542506199 515.3062996707582 C548.1651019758611 514.682956531544, 478.66662154418776 513.5604168332808, 341.2018218683183 514.9479675112614 M341 515 C335.92626169621946 514.9783382087946, 335.7636767238379 512.439136376977, 335.698694691062 507.6914322525263 M339.5520530551672 515.5530259758234 C337.3082204170525 514.8677515415848, 336.03466383650897 512.2980521254242, 335.8244108171761 508.6145559076965 M334.6845680862665 508.38609217107296 C336.37826904482245 494.5297846522182, 334.59387678331734 479.5908446870744, 335.3355905205011 471.8900151103735 M335.20270609110594 508.22572377473114 C334.15139226376414 501.32517869658767, 334.6927957004249 492.6519117556512, 335.5380980417132 471.13057153970004 M335 471 C336.4827491611242 466.3847566276789, 337.7871746867895 465.90930601656436, 341.8375857204199 464.10031038820745 M333.71072557866574 470.0344077736139 C336.1230113239586 465.79961880728604, 338.679446503669 463.16217860743404, 342.26228613570333 463.3740565352142 M341 465 C341 465, 341 465, 341 465 M341 465 C341 465, 341 465, 341 465" stroke="#2D3142" stroke-width="1.5" fill="none"/></g></g><g filter="url(#shadow)"><g><path d="M296.49623462499187 555.7956041012873 C425.06371577624077 556.5951564238727, 552.6523098488251 555.0821103446602, 662.215316868624 553.0510562276344 C666.9519162476063 554.9491882026196, 668.4637286484242 556.4455880820751, 670.7072242081165 561.8197499930859 C667.3909225939929 574.5826294733212, 669.139934778136 595.3884991016239, 669.078692215681 605.151943141222 C672.9148452460765 606.4948733627796, 666.8320947349072 611.6449487030507, 666.2473699271679 612.7937543213368 C570.2948804963912 612.050055733218, 478.953784003688 611.019087862592, 294.6081250881074 611.6726521914969 C289.7592212021351 611.7666482627392, 287.8782906830311 610.1695605933667, 286.93129552006724 602.5660491645336 C291.83198171404007 596.2354033695534, 289.31641259935503 585.1813464317471, 287.871750420332 561.0645398437977 C287.5492486655712 554.3823357880116, 289.93082310557367 552.1621291458607, 294.60279995799067 553.9567721664905 C296 555, 296 555, 296 555" stroke="none" stroke-width="0" fill="#E0E8F8"/><path d="M295.0105893867278 554.2477056192052 C369.9523500547798 554.9660990744609, 442.58253014197606 556.1960225752954, 664.3318102109133 554.2451921149509 M295.8790084332324 555.056113840769 C404.9455368199573 555.5414828949008, 514.7413814679792 555.5780601374453, 664.3096186913024 555.3066363345939 M664 555 C668.9285333484411 553.8332626014948, 670.4190367549658 557.123198953271, 670.5615498393774 560.3722965866327 M665.3366733402014 555.9588048607111 C669.3681252975762 554.4962393002212, 670.4072609777749 557.3346581701934, 670.9998460932076 561.3707652239501 M671.4001003891229 561.2458833545446 C670.11786028575 571.9027184413745, 669.5532312078386 581.8530929569155, 669.9479123741388 604.878212055564 M670.7571195051074 560.7156310394406 C669.7327698444097 569.7204563228413, 670.5276705955237 579.842598805949, 669.2342533990741 603.8458267048002 M670 604 C668.8949085086584 608.1286214500666, 668.68601616323 611.0862152725458, 663.0017348140478 611.5412089020014 M670.6974210590124 605.2119395881891 C670.6813183040917 607.7558568100632, 666.3240785570442 609.0360270838439, 663.0062406988442 609.0447739081085 M663.4324288670972 609.6749508512504 C520.1163101669649 611.6865728004467, 377.4147340042582 611.007019642868, 296.9178929722251 610.4147521967568 M663.7575264737691 610.2466233091617 C570.4266769760745 609.5249576097289, 477.9293973192863 608.6211223089409, 296.16250091586005 609.958105000489 M296 610 C290.92626169621946 609.9783382087946, 290.7636767238379 607.439136376977, 290.698694691062 602.6914322525263 M294.5520530551672 610.5530259758234 C292.3082204170525 609.8677515415848, 291.03466383650897 607.2980521254242, 290.8244108171761 603.6145559076965 M289.6845680862665 603.386092171073 C291.3944636740297 587.5639840139075, 289.6100714125246 570.6592434104532, 290.3355905205011 561.8900151103735 M290.20270609110594 603.2257237747311 C289.13021623955075 595.2253684343771, 289.6716196762115 585.4522912312299, 290.5380980417132 561.1305715397 M290 561 C291.4827491611242 556.3847566276788, 292.7871746867895 555.9093060165644, 296.8375857204199 554.1003103882074 M288.71072557866574 560.0344077736139 C291.1230113239586 555.799618807286, 293.679446503669 553.162178607434, 297.26228613570333 553.3740565352142 M296 555 C296 555, 296 555, 296 555 M296 555 C296 555, 296 555, 296 555" stroke="#326CE5" stroke-width="1.5" fill="none"/></g></g></g><g id="layer-text"><text x="34" y="26" text-anchor="start" font-family="Inter, &quot;IBM Plex Sans&quot;, system-ui, sans-serif" font-size="10" font-weight="600" fill="#B0B0B0" letter-spacing="1">FORECASTING</text><text x="34" y="116" text-anchor="start" font-family="Inter, &quot;IBM Plex Sans&quot;, system-ui, sans-serif" font-size="10" font-weight="600" fill="#888" letter-spacing="1">STRATEGIC LAYER</text><text x="34" y="258" text-anchor="start" font-family="Inter, &quot;IBM Plex Sans&quot;, system-ui, sans-serif" font-size="10" font-weight="600" fill="#B0B0B0" letter-spacing="1">EXECUTION LAYER</text><text x="34" y="463" text-anchor="start" font-family="Inter, &quot;IBM Plex Sans&quot;, system-ui, sans-serif" font-size="10" font-weight="600" fill="#B0B0B0" letter-spacing="1">INFRASTRUCTURE</text><text x="480" y="35.525" text-anchor="middle" font-family="Inter, &quot;IBM Plex Sans&quot;, system-ui, sans-serif" font-size="13" font-weight="700" fill="#8B5FA0" letter-spacing="0.2">Traffic Forecaster (TFT)</text><text x="480" y="57.075" text-anchor="middle" font-family="Inter, &quot;IBM Plex Sans&quot;, system-ui, sans-serif" font-size="10" font-weight="400" fill="#777">per-domain, 30m ahead</text><text x="480" y="135.54999999999998" text-anchor="middle" font-family="Inter, &quot;IBM Plex Sans&quot;, system-ui, sans-serif" font-size="16" font-weight="700" fill="#2D3142" letter-spacing="0.5">COMMANDER AGENT</text><text x="480" y="161.14999999999998" text-anchor="middle" font-family="Inter, &quot;IBM Plex Sans&quot;, system-ui, sans-serif" font-size="10" font-weight="400" fill="#555">Observation: cluster-wide aggregated state</text><text x="480" y="175.64999999999998" text-anchor="middle" font-family="Inter, &quot;IBM Plex Sans&quot;, system-ui, sans-serif" font-size="10" font-weight="400" fill="#555">Actor → domain-level budgets + priority directives</text><text x="480" y="190.14999999999998" text-anchor="middle" font-family="Inter, &quot;IBM Plex Sans&quot;, system-ui, sans-serif" font-size="10" font-weight="400" fill="#555">Critic → cluster SLO adherence + cost efficiency</text><rect x="461" y="83" width="62" height="14" fill="#FFFFFF" opacity="0.85" rx="3"/><text x="492" y="93" text-anchor="middle" font-family="Inter, &quot;IBM Plex Sans&quot;, system-ui, sans-serif" font-size="10" font-weight="500" fill="#888">forecasts</text><rect x="358.9" y="227.25" width="242.2" height="15" fill="white" opacity="0.75" rx="4"/><text x="480" y="237" text-anchor="middle" font-family="Inter, &quot;IBM Plex Sans&quot;, system-ui, sans-serif" font-size="10" font-weight="500" fill="#AAA" letter-spacing="0.5">Directives (budget, priority, headroom)</text><text x="145" y="289.8" text-anchor="middle" font-family="Inter, &quot;IBM Plex Sans&quot;, system-ui, sans-serif" font-size="11" font-weight="700" fill="#3B7DD8" letter-spacing="0.2">SOLDIER 1</text><text x="145" y="308.65000000000003" text-anchor="middle" font-family="Inter, &quot;IBM Plex Sans&quot;, system-ui, sans-serif" font-size="9" font-weight="400" fill="#777">Payment</text><text x="145" y="321.70000000000005" text-anchor="middle" font-family="Inter, &quot;IBM Plex Sans&quot;, system-ui, sans-serif" font-size="9" font-weight="400" fill="#777">~500 apps</text><text x="145" y="334.75000000000006" text-anchor="middle" font-family="Inter, &quot;IBM Plex Sans&quot;, system-ui, sans-serif" font-size="9" font-weight="400" fill="#777">Actor → replica</text><text x="145" y="347.8" text-anchor="middle" font-family="Inter, &quot;IBM Plex Sans&quot;, system-ui, sans-serif" font-size="9" font-weight="400" fill="#777">targets per app</text><text x="145" y="360.85" text-anchor="middle" font-family="Inter, &quot;IBM Plex Sans&quot;, system-ui, sans-serif" font-size="9" font-weight="400" fill="#777">Critic → domain SLO</text><text x="312.5" y="289.8" text-anchor="middle" font-family="Inter, &quot;IBM Plex Sans&quot;, system-ui, sans-serif" font-size="11" font-weight="700" fill="#D4644B" letter-spacing="0.2">SOLDIER 2</text><text x="312.5" y="308.65000000000003" text-anchor="middle" font-family="Inter, &quot;IBM Plex Sans&quot;, system-ui, sans-serif" font-size="9" font-weight="400" fill="#777">Fraud</text><text x="312.5" y="321.70000000000005" text-anchor="middle" font-family="Inter, &quot;IBM Plex Sans&quot;, system-ui, sans-serif" font-size="9" font-weight="400" fill="#777">~300 apps</text><text x="312.5" y="334.75000000000006" text-anchor="middle" font-family="Inter, &quot;IBM Plex Sans&quot;, system-ui, sans-serif" font-size="9" font-weight="400" fill="#777">Actor → replica</text><text x="312.5" y="347.8" text-anchor="middle" font-family="Inter, &quot;IBM Plex Sans&quot;, system-ui, sans-serif" font-size="9" font-weight="400" fill="#777">targets per app</text><text x="312.5" y="360.85" text-anchor="middle" font-family="Inter, &quot;IBM Plex Sans&quot;, system-ui, sans-serif" font-size="9" font-weight="400" fill="#777">Critic → domain SLO</text><text x="480" y="289.8" text-anchor="middle" font-family="Inter, &quot;IBM Plex Sans&quot;, system-ui, sans-serif" font-size="11" font-weight="700" fill="#5FA384" letter-spacing="0.2">SOLDIER 3</text><text x="480" y="308.65000000000003" text-anchor="middle" font-family="Inter, &quot;IBM Plex Sans&quot;, system-ui, sans-serif" font-size="9" font-weight="400" fill="#777">Merchant</text><text x="480" y="321.70000000000005" text-anchor="middle" font-family="Inter, &quot;IBM Plex Sans&quot;, system-ui, sans-serif" font-size="9" font-weight="400" fill="#777">~400 apps</text><text x="480" y="334.75000000000006" text-anchor="middle" font-family="Inter, &quot;IBM Plex Sans&quot;, system-ui, sans-serif" font-size="9" font-weight="400" fill="#777">Actor → replica</text><text x="480" y="347.8" text-anchor="middle" font-family="Inter, &quot;IBM Plex Sans&quot;, system-ui, sans-serif" font-size="9" font-weight="400" fill="#777">targets per app</text><text x="480" y="360.85" text-anchor="middle" font-family="Inter, &quot;IBM Plex Sans&quot;, system-ui, sans-serif" font-size="9" font-weight="400" fill="#777">Critic → domain SLO</text><text x="647.5" y="289.8" text-anchor="middle" font-family="Inter, &quot;IBM Plex Sans&quot;, system-ui, sans-serif" font-size="11" font-weight="700" fill="#8B5FA0" letter-spacing="0.2">SOLDIER 4</text><text x="647.5" y="308.65000000000003" text-anchor="middle" font-family="Inter, &quot;IBM Plex Sans&quot;, system-ui, sans-serif" font-size="9" font-weight="400" fill="#777">Data</text><text x="647.5" y="321.70000000000005" text-anchor="middle" font-family="Inter, &quot;IBM Plex Sans&quot;, system-ui, sans-serif" font-size="9" font-weight="400" fill="#777">~200 apps</text><text x="647.5" y="334.75000000000006" text-anchor="middle" font-family="Inter, &quot;IBM Plex Sans&quot;, system-ui, sans-serif" font-size="9" font-weight="400" fill="#777">Actor → replica</text><text x="647.5" y="347.8" text-anchor="middle" font-family="Inter, &quot;IBM Plex Sans&quot;, system-ui, sans-serif" font-size="9" font-weight="400" fill="#777">targets per app</text><text x="647.5" y="360.85" text-anchor="middle" font-family="Inter, &quot;IBM Plex Sans&quot;, system-ui, sans-serif" font-size="9" font-weight="400" fill="#777">Critic → domain SLO</text><text x="815" y="289.8" text-anchor="middle" font-family="Inter, &quot;IBM Plex Sans&quot;, system-ui, sans-serif" font-size="11" font-weight="700" fill="#7A7A7A" letter-spacing="0.2">SOLDIER 5</text><text x="815" y="308.65000000000003" text-anchor="middle" font-family="Inter, &quot;IBM Plex Sans&quot;, system-ui, sans-serif" font-size="9" font-weight="400" fill="#777">Platform</text><text x="815" y="321.70000000000005" text-anchor="middle" font-family="Inter, &quot;IBM Plex Sans&quot;, system-ui, sans-serif" font-size="9" font-weight="400" fill="#777">~150 apps</text><text x="815" y="334.75000000000006" text-anchor="middle" font-family="Inter, &quot;IBM Plex Sans&quot;, system-ui, sans-serif" font-size="9" font-weight="400" fill="#777">Actor → replica</text><text x="815" y="347.8" text-anchor="middle" font-family="Inter, &quot;IBM Plex Sans&quot;, system-ui, sans-serif" font-size="9" font-weight="400" fill="#777">targets per app</text><text x="815" y="360.85" text-anchor="middle" font-family="Inter, &quot;IBM Plex Sans&quot;, system-ui, sans-serif" font-size="9" font-weight="400" fill="#777">Critic → domain SLO</text><text x="480" y="476.52500000000003" text-anchor="middle" font-family="Inter, &quot;IBM Plex Sans&quot;, system-ui, sans-serif" font-size="13" font-weight="700" fill="#2D3142" letter-spacing="0.2">Action Executor</text><text x="480" y="498.07500000000005" text-anchor="middle" font-family="Inter, &quot;IBM Plex Sans&quot;, system-ui, sans-serif" font-size="10" font-weight="400" fill="#777">circuit breakers + validation</text><text x="480" y="568.6999999999999" text-anchor="middle" font-family="Inter, &quot;IBM Plex Sans&quot;, system-ui, sans-serif" font-size="14" font-weight="700" fill="#326CE5" letter-spacing="0.5">Kubernetes Control Plane</text><text x="480" y="591.5999999999999" text-anchor="middle" font-family="Inter, &quot;IBM Plex Sans&quot;, system-ui, sans-serif" font-size="10" font-weight="400" fill="#5577AA">HPA patch  |  KEDA ScaledObject  |  Karpenter</text><text x="480" y="685" text-anchor="middle" font-family="Inter, &quot;IBM Plex Sans&quot;, system-ui, sans-serif" font-size="9" font-weight="400" fill="#BBB">Priority: D1 (P0) Payment → D2 (P0/P1) Fraud → D3 (P1) Merchant → D4 (P2) Data → D5 (P3) Platform</text></g></svg>