<?xml version="1.0" encoding="UTF-8"?>
<svg xmlns="http://www.w3.org/2000/svg" width="980" height="640" viewBox="-10 -10 980 640"><defs><filter id="shadow" x="-4%" y="-4%" width="112%" height="112%"><feFlood flood-color="#000000" flood-opacity="0.08" result="color"/><feComposite in="color" in2="SourceGraphic" operator="in" result="shadow"/><feGaussianBlur in="shadow" stdDeviation="3" result="blur"/><feOffset in="blur" dx="2" dy="3" result="offsetBlur"/><feMerge><feMergeNode in="offsetBlur"/><feMergeNode in="SourceGraphic"/></feMerge></filter><filter id="shadow-light" x="-4%" y="-4%" width="112%" height="112%"><feFlood flood-color="#000000" flood-opacity="0.04" result="color"/><feComposite in="color" in2="SourceGraphic" operator="in" result="shadow"/><feGaussianBlur in="shadow" stdDeviation="2" result="blur"/><feOffset in="blur" dx="1" dy="2" result="offsetBlur"/><feMerge><feMergeNode in="offsetBlur"/><feMergeNode in="SourceGraphic"/></feMerge></filter></defs><g id="layer-zones"><rect x="20" y="8" width="920" height="75" fill="#F0ECF3" rx="12" ry="12"/><rect x="20" y="92" width="920" height="105" fill="#DDDEE5" rx="12" ry="12"/><rect x="20" y="206" width="920" height="120" fill="#F4F6F8" rx="12" ry="12"/></g><g id="layer-connectors"><path d="M480,64 C480,84.5 480,84.5 480,105" fill="none" stroke="#8B5FA0" stroke-width="1.3" stroke-linecap="round"/><polygon points="480,105 476.5289300870595,97.79224905678065 483.4710699129405,97.79224905678065" fill="#8B5FA0" stroke="none"/><circle cx="480" cy="64" r="2.5" fill="#8B5FA0"/><path d="M480,185 C313.3333333333333,185 313.3333333333333,228 146.66666666666666,228" fill="none" stroke="#888" stroke-width="1.3" stroke-linecap="round"/><polygon points="146.66666666666666,228 153.874417609886,224.52893008705954 153.87441760988602,231.47106991294046" fill="#888" stroke="none"/><circle cx="480" cy="185" r="2.5" fill="#888"/><path d="M480,185 C396.66666666666663,185 396.66666666666663,228 313.3333333333333,228" fill="none" stroke="#888" stroke-width="1.3" stroke-linecap="round"/><polygon points="313.3333333333333,228 320.5410842765527,224.52893008705954 320.5410842765527,231.47106991294046" fill="#888" stroke="none"/><circle cx="480" cy="185" r="2.5" fill="#888"/><path d="M480,185 C480,206.5 480,206.5 480,228" fill="none" stroke="#888" stroke-width="1.3" stroke-linecap="round"/><polygon points="480,228 476.5289300870595,220.79224905678063 483.4710699129405,220.79224905678063" fill="#888" stroke="none"/><circle cx="480" cy="185" r="2.5" fill="#888"/><path d="M480,185 C563.3333333333333,185 563.3333333333333,228 646.6666666666666,228" fill="none" stroke="#888" stroke-width="1.3" stroke-linecap="round"/><polygon points="646.6666666666666,228 639.4589157234473,231.47106991294046 639.4589157234473,224.52893008705954" fill="#888" stroke="none"/><circle cx="480" cy="185" r="2.5" fill="#888"/><path d="M480,185 C646.6666666666666,185 646.6666666666666,228 813.3333333333333,228" fill="none" stroke="#888" stroke-width="1.3" stroke-linecap="round"/><polygon points="813.3333333333333,228 806.1255823901139,231.47106991294046 806.1255823901139,224.52893008705954" fill="#888" stroke="none"/><circle cx="480" cy="185" r="2.5" fill="#888"/><path d="M146.66666666666666,298 C313.3333333333333,298 313.3333333333333,455 480,455" fill="none" stroke="#AAA" stroke-width="1.3" stroke-linecap="round"/><polygon points="480,455 472.79224905678063,458.4710699129405 472.79224905678063,451.5289300870595" fill="#AAA" stroke="none"/><circle cx="146.66666666666666" cy="298" r="2.5" fill="#AAA"/><path d="M313.3333333333333,298 C313.3333333333333,376.5 480,376.5 480,455" fill="none" stroke="#AAA" stroke-width="1.3" stroke-linecap="round"/><polygon points="480,455 476.5289300870595,447.79224905678063 483.4710699129405,447.79224905678063" fill="#AAA" stroke="none"/><circle cx="313.3333333333333" cy="298" r="2.5" fill="#AAA"/><path d="M480,298 C480,376.5 480,376.5 480,455" fill="none" stroke="#AAA" stroke-width="1.3" stroke-linecap="round"/><polygon points="480,455 476.5289300870595,447.79224905678063 483.4710699129405,447.79224905678063" fill="#AAA" stroke="none"/><circle cx="480" cy="298" r="2.5" fill="#AAA"/><path d="M646.6666666666666,298 C646.6666666666666,376.5 480,376.5 480,455" fill="none" stroke="#AAA" stroke-width="1.3" stroke-linecap="round"/><polygon points="480,455 476.5289300870595,447.79224905678063 483.4710699129405,447.79224905678063" fill="#AAA" stroke="none"/><circle cx="646.6666666666666" cy="298" r="2.5" fill="#AAA"/><path d="M813.3333333333333,298 C646.6666666666666,298 646.6666666666666,455 480,455" fill="none" stroke="#AAA" stroke-width="1.3" stroke-linecap="round"/><polygon points="480,455 487.20775094321937,451.5289300870595 487.20775094321937,458.47106991294044" fill="#AAA" stroke="none"/><circle cx="813.3333333333333" cy="298" r="2.5" fill="#AAA"/><path d="M480,500 C480,515 480,515 480,530" fill="none" stroke="#AAB5CC" stroke-width="1.3" stroke-linecap="round"/><polygon points="480,530 476.5289300870595,522.7922490567806 483.4710699129405,522.7922490567806" fill="#AAB5CC" stroke="none"/><circle cx="480" cy="500" r="2.5" fill="#AAB5CC"/></g><g id="layer-boxes"><g filter="url(#shadow)"><g><path d="M356.65633561473425 23.052291155442898 C443.8416461820265 23.38631377246914, 529.7322497293457 21.385111158811533, 601.6395216271804 19.422265306579447 C606.9519162476063 21.949188202619553, 608.4637286484242 23.44558808207512, 610.7072242081165 28.81974999308586 C607.3566542224288 36.55231609754264, 609.1056664065719 52.3278723500669, 609.078692215681 59.151943141222 C612.9148452460765 60.494873362779614, 606.8320947349072 65.64494870305062, 606.2473699271679 66.79375432133675 C540.6313697267065 65.80713771146966, 480.3894710798769 64.44354698833207, 354.15906220581604 66.21230270733469 C349.7592212021351 65.76664826273918, 347.8782906830311 64.16956059336663, 346.93129552006724 56.56604916453362 C351.9494989600778 53.02203559465706, 349.43392984539275 44.754610881954434, 347.871750420332 28.064539843797682 C347.5492486655712 21.382335788011552, 349.93082310557367 19.16212914586067, 354.60279995799067 20.956772166490556 C356 22, 356 22, 356 22" stroke="none" stroke-width="0" fill="#EDE6F2"/><path d="M354.6913742202144 21.00499165110032 C406.0209538996879 21.724475490112006, 454.2931639698389 23.351211224260982, 604.4388626826643 21.00166721085194 M355.8399727258988 22.074217941113652 C429.24511603817194 22.30625404404435, 503.6148761115224 22.35463226225337, 604.4095114767383 22.40556691740086 M604 22 C608.9285333484411 20.833262601494788, 610.4190367549658 24.12319895327091, 610.5615498393774 27.37229658663273 M605.3366733402014 22.958804860711098 C609.3681252975762 21.496239300221205, 610.4072609777749 24.334658170193435, 610.9998460932076 28.370765223950148 M611.4001003891229 28.245883354544638 C610.1533977322877 35.649515490606426, 609.5887686543763 42.34668705537915, 609.9479123741388 58.87821205556393 M610.7571195051074 27.71563103944063 C609.7004618194401 33.97897234521806, 610.495362570554 41.35963085070252, 609.2342533990741 57.84582670480013 M610 58 C608.8949085086584 62.12862145006657, 608.68601616323 65.08621527254581, 603.0017348140478 65.54120890200139 M610.6974210590124 59.211939588189125 C610.6813183040917 61.75585681006312, 606.3240785570442 63.03602708384395, 603.0062406988442 63.044773908108475 M603.2493124629801 63.570079712057804 C506.89451859396473 65.86235817153924, 411.3525381276582 64.96355966582982, 357.2140342850833 64.54856437723424 M603.6792968429035 64.32619179129043 C540.74457697579 63.759257595559426, 478.91236295248825 62.563816431471075, 356.214928852471 63.94458834818555 M356 64 C350.92626169621946 63.9783382087946, 350.7636767238379 61.43913637697697, 350.698694691062 56.69143225252628 M354.5520530551672 64.5530259758234 C352.3082204170525 63.86775154158473, 351.03466383650897 61.29805212542415, 350.8244108171761 57.614555907696484 M349.6845680862665 57.38609217107296 C351.35235763809084 46.6750656735152, 349.56796537658573 34.88140672966838, 350.3355905205011 28.890015110373497 M350.20270609110594 57.22572377473116 C349.1852739025056 52.08487511612475, 349.7266773391664 45.17130459472537, 350.5380980417132 28.130571539700032 M350 28 C351.4827491611242 23.384756627678872, 352.7871746867895 22.90930601656437, 356.8375857204199 21.100310388207436 M348.71072557866574 27.03440777361393 C351.1230113239586 22.799618807286024, 353.679446503669 20.162178607434036, 357.26228613570333 20.374056535214187 M356 22 C356 22, 356 22, 356 22 M356 22 C356 22, 356 22, 356 22" stroke="#8B5FA0" stroke-width="1.5" fill="none"/></g></g><g filter="url(#shadow)"><g><path d="M316.54960162157266 105.88116645267247 C431.32302591150267 106.56476047504069, 545.0122898089986 104.88899555101321, 642.0233851214762 102.84145925394941 C646.9519162476063 104.94918820261955, 648.4637286484242 106.44558808207512, 650.7072242081165 111.81974999308586 C647.4568233085394 134.25630904212593, 649.2058354926825 164.7358582392335, 649.078692215681 180.151943141222 C652.9148452460765 181.49487336277963, 646.8320947349072 186.6449487030506, 646.2473699271679 187.79375432133673 C560.4070435731629 187.01810414023197, 479.4323463624176 185.87626198543543, 314.4584374606769 186.8525356967762 C309.7592212021351 186.76664826273918, 307.8782906830311 185.1695605933666, 306.93129552006724 177.5660491645336 C311.60598701012134 165.876495244354, 309.0904178954363 149.46353018134832, 307.871750420332 111.06453984379769 C307.5492486655712 104.38233578801155, 309.93082310557367 102.16212914586067, 314.60279995799067 103.95677216649055 C316 105, 316 105, 316 105" stroke="none" stroke-width="0" fill="#E2E3E8"/><path d="M314.90418433122335 104.1668009631703 C381.97521800308255 104.89806268423679, 446.4860747512637 106.26025692950944, 644.3674943681636 104.1640171469179 M315.86599653078787 105.06214854088387 C413.0453965593622 105.48529427292951, 511.03254634916027 105.52580517402885, 644.3429162864477 105.33961319552954 M644 105 C648.9285333484411 103.8332626014948, 650.4190367549658 107.12319895327092, 650.5615498393774 110.37229658663273 M645.3366733402014 105.9588048607111 C649.3681252975762 104.4962393002212, 650.4072609777749 107.33465817019344, 650.9998460932076 111.37076522395014 M651.4001003891229 111.24588335454465 C650.0495190424085 128.15887796208264, 649.4848899644971 144.36541199833155, 649.9479123741388 179.87821205556392 M650.7571195051074 110.71563103944064 C649.7949006616592 124.99254089519383, 650.5898014127731 140.38676795065405, 649.2342533990741 178.84582670480012 M650 179 C648.8949085086584 183.12862145006656, 648.68601616323 186.08621527254581, 643.0017348140478 186.5412089020014 M650.6974210590124 180.21193958818913 C650.6813183040917 182.75585681006314, 646.3240785570442 184.03602708384395, 643.0062406988442 184.04477390810848 M643.3713900657249 184.63999380485288 C515.7090463092982 186.76513542541394, 388.72733537872483 186.01250048512506, 317.0166067431778 185.45935625691592 M643.7314499301473 185.27314613653792 C560.5326436426463 184.5820489323447, 478.2570525303536 183.58101167712323, 316.1799768947304 184.9535994497212 M316 185 C310.92626169621946 184.97833820879458, 310.7636767238379 182.43913637697696, 310.698694691062 177.69143225252628 M314.5520530551672 185.5530259758234 C312.3082204170525 184.86775154158474, 311.03466383650897 182.29805212542414, 310.8244108171761 178.61455590769648 M309.6845680862665 178.38609217107296 C311.47543682006597 152.73498082235457, 309.69104455856086 126.00123702734709, 310.3355905205011 111.8900151103735 M310.20270609110594 178.22572377473116 C309.0243361184836 164.72631712332367, 309.5657395551443 149.45418860912324, 310.5380980417132 111.13057153970003 M310 111 C311.4827491611242 106.38475662767887, 312.7871746867895 105.90930601656437, 316.8375857204199 104.10031038820743 M308.71072557866574 110.03440777361394 C311.1230113239586 105.79961880728602, 313.679446503669 103.16217860743403, 317.26228613570333 103.37405653521418 M316 105 C316 105, 316 105, 316 105 M316 105 C316 105, 316 105, 316 105" stroke="#2D3142" stroke-width="1.5" fill="none"/></g></g><g filter="url(#shadow)"><g><path d="M93.46710758010545 229.28333260416986 C132.3013605761031 228.66129616363048, 169.5566401834289 226.22070873839854, 197.78792075912156 224.85629689097405 C203.61858291427293 227.94918820261955, 205.1303953150908 229.44558808207512, 207.3738908747832 234.81974999308585 C204.0971296893875 253.38683721460404, 205.84614187353054 279.99691458418965, 205.74535888234774 293.151943141222 C209.58151191274325 294.49487336277963, 203.4987614015738 299.6449487030506, 202.91403659383454 300.79375432133673 C172.7197118314604 298.91721312048435, 148.58599501500527 297.2542318964243, 90.42153186599413 300.69803673624995 C86.42588786880174 299.7666482627392, 84.54495734969774 298.1695605933666, 83.59796218673387 290.56604916453364 C88.36305155835548 281.0200584944337, 85.84748244367042 266.7506566815078, 84.5384170869986 234.0645398437977 C84.21591533223787 227.38233578801155, 86.59748977224031 225.16212914586066, 91.2694666246573 226.95677216649057 C92.66666666666666 228, 92.66666666666666 228, 92.66666666666666 228" stroke="none" stroke-width="0" fill="#E3EDFA"/><path d="M91.07071850995221 226.7865272372961 C114.74333017046251 227.33575636161567, 134.6872949803869 229.3196588159919, 201.2018862078587 226.78247288167478 M92.4715037430326 228.09051326066256 C124.28445353681842 227.79024084124566, 157.2738117168347 227.84924099955558, 201.16609063992897 228.49461334496738 M200.66666666666666 228 C205.5952000151078 226.8332626014948, 207.08570342163245 230.1231989532709, 207.22821650604405 233.37229658663273 M202.00334000686803 228.9588048607111 C206.03479196424286 227.4962393002212, 207.0739276444415 230.33465817019342, 207.66651275987425 234.37076522395014 M208.06676705578963 234.24588335454465 C206.74352220641174 248.65641415379943, 206.17889312850036 262.36048438176516, 206.6145790408055 292.87821205556395 M207.42378617177405 233.71563103944064 C206.43671500142614 245.88370706625284, 207.23161575254002 259.16910029277204, 205.90092006574073 291.8458267048001 M206.66666666666666 292 C205.56157517532506 296.1286214500666, 205.3526828298966 299.0862152725458, 199.66840148071446 299.54120890200136 M207.36408772567907 293.2119395881891 C207.34798497075835 295.7558568100631, 202.99074522371092 297.0360270838439, 199.67290736551084 297.0447739081085 M199.75115788678326 297.4756862491369 C158.15437392021218 299.74715326434375, 117.54886497805515 298.65101421481376, 94.14725478390852 298.66900738179686 M200.2755498016874 298.39781058579683 C172.80799833859007 298.2578336437941, 146.6850193242232 296.79992096030713, 92.92878538022438 297.93242214471104 M92.66666666666666 298 C87.5929283628861 297.9783382087946, 87.4303433905045 295.439136376977, 87.36536135772863 290.6914322525263 M91.21871972183385 298.5530259758234 C88.97488708371917 297.8677515415847, 87.70133050317564 295.29805212542414, 87.49107748384276 291.6145559076965 M86.35123475293318 291.38609217107296 C88.10971422831813 269.66658209897577, 86.325321966813 246.86443958058953, 87.0022571871678 234.8900151103735 M86.8693727577726 291.22572377473114 C85.73335483357707 279.925937647745, 86.27475827023784 266.8534296579659, 87.2047647083799 234.13057153970004 M86.66666666666666 234 C88.14941582779089 229.38475662767888, 89.45384135345617 228.90930601656436, 93.50425238708654 227.10031038820745 M85.37739224533239 233.03440777361394 C87.7896779906253 228.79961880728604, 90.34611317033568 226.16217860743404, 93.92895280236998 226.37405653521418 M92.66666666666666 228 C92.66666666666666 228, 92.66666666666666 228, 92.66666666666666 228 M92.66666666666666 228 C92.66666666666666 228, 92.66666666666666 228, 92.66666666666666 228" stroke="#3B7DD8" stroke-width="1.5" fill="none"/></g></g><g filter="url(#shadow)"><g><path d="M260.13377424677213 229.28333260416986 C298.9680272427698 228.66129616363048, 336.2233068500955 226.22070873839854, 364.45458742578825 224.85629689097405 C370.2852495809396 227.94918820261955, 371.79706198175745 229.44558808207512, 374.04055754144986 234.81974999308585 C370.7637963560541 253.38683721460404, 372.51280854019717 279.99691458418965, 372.4120255490144 293.151943141222 C376.2481785794099 294.49487336277963, 370.1654280682405 299.6449487030506, 369.5807032605012 300.79375432133673 C339.38637849812704 298.91721312048435, 315.2526616816719 297.2542318964243, 257.0881985326608 300.69803673624995 C253.0925545354684 299.7666482627392, 251.2116240163644 298.1695605933666, 250.26462885340052 290.56604916453364 C255.02971822502215 281.0200584944337, 252.5141491103371 266.7506566815078, 251.20508375366526 234.0645398437977 C250.88258199890453 227.38233578801155, 253.26415643890698 225.16212914586066, 257.936133291324 226.95677216649057 C259.3333333333333 228, 259.3333333333333 228, 259.3333333333333 228" stroke="none" stroke-width="0" fill="#FBEAE5"/><path d="M257.7373851766189 226.7865272372961 C281.4099968371292 227.33575636161567, 301.35396164705355 229.3196588159919, 367.8685528745254 226.78247288167478 M259.1381704096993 228.09051326066256 C290.9511202034851 227.79024084124566, 323.9404783835014 227.84924099955558, 367.8327573065956 228.49461334496738 M367.3333333333333 228 C372.26186668177445 226.8332626014948, 373.7523700882991 230.1231989532709, 373.8948831727107 233.37229658663273 M368.6700066735347 228.9588048607111 C372.7014586309095 227.4962393002212, 373.74059431110817 230.33465817019342, 374.33317942654094 234.37076522395014 M374.73343372245625 234.24588335454465 C373.4101888730784 248.65641415379943, 372.84555979516705 262.36048438176516, 373.2812457074721 292.87821205556395 M374.09045283844074 233.71563103944064 C373.1033816680928 245.88370706625284, 373.8982824192067 259.16910029277204, 372.5675867324074 291.8458267048001 M373.3333333333333 292 C372.22824184199175 296.1286214500666, 372.0193494965633 299.0862152725458, 366.33506814738115 299.54120890200136 M374.0307543923457 293.2119395881891 C374.014651637425 295.7558568100631, 369.6574118903776 297.0360270838439, 366.3395740321775 297.0447739081085 M366.4178245534499 297.4756862491369 C324.82104058687884 299.74715326434375, 284.2155316447218 298.65101421481376, 260.81392145057515 298.66900738179686 M366.94221646835405 298.39781058579683 C339.4746650052567 298.2578336437941, 313.35168599088985 296.79992096030713, 259.595452046891 297.93242214471104 M259.3333333333333 298 C254.25959502955277 297.9783382087946, 254.09701005717116 295.439136376977, 254.0320280243953 290.6914322525263 M257.88538638850054 298.5530259758234 C255.6415537503858 297.8677515415847, 254.3679971698423 295.29805212542414, 254.15774415050942 291.6145559076965 M253.01790141959984 291.38609217107296 C254.77638089498478 269.66658209897577, 252.99198863347968 246.86443958058953, 253.66892385383446 234.8900151103735 M253.53603942443925 291.22572377473114 C252.40002150024372 279.925937647745, 252.94142493690447 266.8534296579659, 253.87143137504654 234.13057153970004 M253.33333333333331 234 C254.81608249445753 229.38475662767888, 256.1205080201228 228.90930601656436, 260.1709190537532 227.10031038820745 M252.04405891199906 233.03440777361394 C254.45634465729194 228.79961880728604, 257.0127798370023 226.16217860743404, 260.59561946903665 226.37405653521418 M259.3333333333333 228 C259.3333333333333 228, 259.3333333333333 228, 259.3333333333333 228 M259.3333333333333 228 C259.3333333333333 228, 259.3333333333333 228, 259.3333333333333 228" stroke="#D4644B" stroke-width="1.5" fill="none"/></g></g><g filter="url(#shadow)"><g><path d="M426.8004409134388 229.28333260416986 C465.63469390943646 228.66129616363048, 502.88997351676227 226.22070873839854, 531.1212540924549 224.85629689097405 C536.9519162476063 227.94918820261955, 538.4637286484242 229.44558808207512, 540.7072242081165 234.81974999308585 C537.4304630227208 253.38683721460404, 539.1794752068639 279.99691458418965, 539.078692215681 293.151943141222 C542.9148452460765 294.49487336277963, 536.8320947349072 299.6449487030506, 536.2473699271679 300.79375432133673 C506.05304516479373 298.91721312048435, 481.9193283483386 297.2542318964243, 423.75486519932747 300.69803673624995 C419.7592212021351 299.7666482627392, 417.8782906830311 298.1695605933666, 416.93129552006724 290.56604916453364 C421.6963848916888 281.0200584944337, 419.1808157770038 266.7506566815078, 417.871750420332 234.0645398437977 C417.5492486655712 227.38233578801155, 419.93082310557367 225.16212914586066, 424.60279995799067 226.95677216649057 C426 228, 426 228, 426 228" stroke="none" stroke-width="0" fill="#E4F1EA"/><path d="M424.4040518432856 226.7865272372961 C448.0766635037959 227.33575636161567, 468.02062831372024 229.3196588159919, 534.5352195411921 226.78247288167478 M425.80483707636597 228.09051326066256 C457.61778687015175 227.79024084124566, 490.60714505016807 227.84924099955558, 534.4994239732623 228.49461334496738 M534 228 C538.9285333484411 226.8332626014948, 540.4190367549658 230.1231989532709, 540.5615498393774 233.37229658663273 M535.3366733402014 228.9588048607111 C539.3681252975762 227.4962393002212, 540.4072609777749 230.33465817019342, 540.9998460932076 234.37076522395014 M541.4001003891229 234.24588335454465 C540.0768555397451 248.65641415379943, 539.5122264618337 262.36048438176516, 539.9479123741388 292.87821205556395 M540.7571195051074 233.71563103944064 C539.7700483347594 245.88370706625284, 540.5649490858733 259.16910029277204, 539.2342533990741 291.8458267048001 M540 292 C538.8949085086584 296.1286214500666, 538.68601616323 299.0862152725458, 533.0017348140478 299.54120890200136 M540.6974210590124 293.2119395881891 C540.6813183040917 295.7558568100631, 536.3240785570442 297.0360270838439, 533.0062406988442 297.0447739081085 M533.0844912201167 297.4756862491369 C491.4877072535455 299.74715326434375, 450.8821983113885 298.65101421481376, 427.48058811724184 298.66900738179686 M533.6088831350207 298.39781058579683 C506.1413316719234 298.2578336437941, 480.01835265755653 296.79992096030713, 426.2621187135577 297.93242214471104 M426 298 C420.92626169621946 297.9783382087946, 420.7636767238379 295.439136376977, 420.698694691062 290.6914322525263 M424.5520530551672 298.5530259758234 C422.3082204170525 297.8677515415847, 421.03466383650897 295.29805212542414, 420.8244108171761 291.6145559076965 M419.6845680862665 291.38609217107296 C421.44304756165144 269.66658209897577, 419.65865530014634 246.86443958058953, 420.3355905205011 234.8900151103735 M420.20270609110594 291.22572377473114 C419.0666881669104 279.925937647745, 419.60809160357115 266.8534296579659, 420.5380980417132 234.13057153970004 M420 234 C421.4827491611242 229.38475662767888, 422.7871746867895 228.90930601656436, 426.8375857204199 227.10031038820745 M418.71072557866574 233.03440777361394 C421.1230113239586 228.79961880728604, 423.679446503669 226.16217860743404, 427.26228613570333 226.37405653521418 M426 228 C426 228, 426 228, 426 228 M426 228 C426 228, 426 228, 426 228" stroke="#5FA384" stroke-width="1.5" fill="none"/></g></g><g filter="url(#shadow)"><g><path d="M593.4671075801054 229.28333260416986 C632.3013605761031 228.66129616363048, 669.556640183429 226.22070873839854, 697.7879207591216 224.85629689097405 C703.6185829142729 227.94918820261955, 705.1303953150908 229.44558808207512, 707.3738908747831 234.81974999308585 C704.0971296893874 253.38683721460404, 705.8461418735305 279.99691458418965, 705.7453588823477 293.151943141222 C709.5815119127432 294.49487336277963, 703.4987614015738 299.6449487030506, 702.9140365938346 300.79375432133673 C672.7197118314604 298.91721312048435, 648.5859950150052 297.2542318964243, 590.4215318659941 300.69803673624995 C586.4258878688017 299.7666482627392, 584.5449573496977 298.1695605933666, 583.5979621867339 290.56604916453364 C588.3630515583554 281.0200584944337, 585.8474824436704 266.7506566815078, 584.5384170869986 234.0645398437977 C584.2159153322378 227.38233578801155, 586.5974897722402 225.16212914586066, 591.2694666246573 226.95677216649057 C592.6666666666666 228, 592.6666666666666 228, 592.6666666666666 228" stroke="none" stroke-width="0" fill="#EDE6F2"/><path d="M591.0707185099521 226.7865272372961 C614.7433301704625 227.33575636161567, 634.6872949803868 229.3196588159919, 701.2018862078587 226.78247288167478 M592.4715037430326 228.09051326066256 C624.2844535368183 227.79024084124566, 657.2738117168348 227.84924099955558, 701.1660906399289 228.49461334496738 M700.6666666666666 228 C705.5952000151077 226.8332626014948, 707.0857034216324 230.1231989532709, 707.2282165060441 233.37229658663273 M702.003340006868 228.9588048607111 C706.0347919642428 227.4962393002212, 707.0739276444415 230.33465817019342, 707.6665127598742 234.37076522395014 M708.0667670557896 234.24588335454465 C706.7435222064117 248.65641415379943, 706.1788931285004 262.36048438176516, 706.6145790408054 292.87821205556395 M707.423786171774 233.71563103944064 C706.436715001426 245.88370706625284, 707.2316157525399 259.16910029277204, 705.9009200657407 291.8458267048001 M706.6666666666666 292 C705.5615751753251 296.1286214500666, 705.3526828298966 299.0862152725458, 699.6684014807145 299.54120890200136 M707.364087725679 293.2119395881891 C707.3479849707584 295.7558568100631, 702.9907452237109 297.0360270838439, 699.6729073655108 297.0447739081085 M699.7511578867833 297.4756862491369 C658.1543739202122 299.74715326434375, 617.5488649780551 298.65101421481376, 594.1472547839085 298.66900738179686 M700.2755498016874 298.39781058579683 C672.80799833859 298.2578336437941, 646.6850193242232 296.79992096030713, 592.9287853802243 297.93242214471104 M592.6666666666666 298 C587.592928362886 297.9783382087946, 587.4303433905045 295.439136376977, 587.3653613577286 290.6914322525263 M591.2187197218338 298.5530259758234 C588.9748870837192 297.8677515415847, 587.7013305031757 295.29805212542414, 587.4910774838428 291.6145559076965 M586.3512347529331 291.38609217107296 C588.1097142283181 269.66658209897577, 586.3253219668129 246.86443958058953, 587.0022571871677 234.8900151103735 M586.8693727577726 291.22572377473114 C585.733354833577 279.925937647745, 586.2747582702378 266.8534296579659, 587.2047647083799 234.13057153970004 M586.6666666666666 234 C588.1494158277909 229.38475662767888, 589.4538413534561 228.90930601656436, 593.5042523870865 227.10031038820745 M585.3773922453323 233.03440777361394 C587.7896779906253 228.79961880728604, 590.3461131703357 226.16217860743404, 593.92895280237 226.37405653521418 M592.6666666666666 228 C592.6666666666666 228, 592.6666666666666 228, 592.6666666666666 228 M592.6666666666666 228 C592.6666666666666 228, 592.6666666666666 228, 592.6666666666666 228" stroke="#8B5FA0" stroke-width="1.5" fill="none"/></g></g><g filter="url(#shadow)"><g><path d="M760.1337742467721 229.28333260416986 C798.9680272427697 228.66129616363048, 836.2233068500956 226.22070873839854, 864.4545874257882 224.85629689097405 C870.2852495809395 227.94918820261955, 871.7970619817575 229.44558808207512, 874.0405575414497 234.81974999308585 C870.7637963560541 253.38683721460404, 872.5128085401972 279.99691458418965, 872.4120255490143 293.151943141222 C876.2481785794098 294.49487336277963, 870.1654280682404 299.6449487030506, 869.5807032605012 300.79375432133673 C839.386378498127 298.91721312048435, 815.2526616816718 297.2542318964243, 757.0881985326607 300.69803673624995 C753.0925545354684 299.7666482627392, 751.2116240163643 298.1695605933666, 750.2646288534005 290.56604916453364 C755.0297182250221 281.0200584944337, 752.514149110337 266.7506566815078, 751.2050837536652 234.0645398437977 C750.8825819989045 227.38233578801155, 753.2641564389069 225.16212914586066, 757.9361332913239 226.95677216649057 C759.3333333333333 228, 759.3333333333333 228, 759.3333333333333 228" stroke="none" stroke-width="0" fill="#EEEEEE"/><path d="M757.7373851766188 226.7865272372961 C781.4099968371291 227.33575636161567, 801.3539616470534 229.3196588159919, 867.8685528745253 226.78247288167478 M759.1381704096992 228.09051326066256 C790.951120203485 227.79024084124566, 823.9404783835013 227.84924099955558, 867.8327573065956 228.49461334496738 M867.3333333333333 228 C872.2618666817743 226.8332626014948, 873.752370088299 230.1231989532709, 873.8948831727107 233.37229658663273 M868.6700066735347 228.9588048607111 C872.7014586309094 227.4962393002212, 873.7405943111081 230.33465817019342, 874.3331794265408 234.37076522395014 M874.7334337224562 234.24588335454465 C873.4101888730784 248.65641415379943, 872.845559795167 262.36048438176516, 873.2812457074721 292.87821205556395 M874.0904528384407 233.71563103944064 C873.1033816680927 245.88370706625284, 873.8982824192066 259.16910029277204, 872.5675867324073 291.8458267048001 M873.3333333333333 292 C872.2282418419917 296.1286214500666, 872.0193494965632 299.0862152725458, 866.3350681473811 299.54120890200136 M874.0307543923457 293.2119395881891 C874.014651637425 295.7558568100631, 869.6574118903775 297.0360270838439, 866.3395740321774 297.0447739081085 M866.4178245534499 297.4756862491369 C824.8210405868788 299.74715326434375, 784.2155316447218 298.65101421481376, 760.8139214505751 298.66900738179686 M866.942216468354 298.39781058579683 C839.4746650052566 298.2578336437941, 813.3516859908898 296.79992096030713, 759.595452046891 297.93242214471104 M759.3333333333333 298 C754.2595950295527 297.9783382087946, 754.0970100571711 295.439136376977, 754.0320280243952 290.6914322525263 M757.8853863885005 298.5530259758234 C755.6415537503858 297.8677515415847, 754.3679971698423 295.29805212542414, 754.1577441505094 291.6145559076965 M753.0179014195998 291.38609217107296 C754.7763808949848 269.66658209897577, 752.9919886334795 246.86443958058953, 753.6689238538344 234.8900151103735 M753.5360394244392 291.22572377473114 C752.4000215002436 279.925937647745, 752.9414249369045 266.8534296579659, 753.8714313750465 234.13057153970004 M753.3333333333333 234 C754.8160824944575 229.38475662767888, 756.1205080201228 228.90930601656436, 760.1709190537531 227.10031038820745 M752.044058911999 233.03440777361394 C754.4563446572919 228.79961880728604, 757.0127798370023 226.16217860743404, 760.5956194690366 226.37405653521418 M759.3333333333333 228 C759.3333333333333 228, 759.3333333333333 228, 759.3333333333333 228 M759.3333333333333 228 C759.3333333333333 228, 759.3333333333333 228, 759.3333333333333 228" stroke="#7A7A7A" stroke-width="1.5" fill="none"/></g></g><g><g><path d="M196.24013227403165 335.38499978125094 C393.79596816509957 336.2130803660965, 590.878112039566 335.4809041385269, 763.1363762277365 334.0568890672922 C767.2139371857047 334.96189115196466, 768.8477964863181 336.58419106155634, 770.5304181560874 341.6148124948144 C768.1123876957685 368.88980571590366, 769.4241468338757 402.1970415480435, 769.3090191617608 419.8639573559165 C772.1861339345575 421.87115502208474, 767.1240710511804 426.23371152728794, 765.6855274453759 427.09531574100254 C619.726746095717 426.54348293969156, 476.59746359705923 426.0445885724735, 195.32645955979825 425.80941102087496 C190.3194159016013 426.3249861970544, 188.4087180122733 424.62717044502494, 187.6984716400504 417.9245368734002 C191.1366918464154 403.3697506580502, 189.2500150104016 385.27240608558054, 188.40381281524895 341.0484048828483 C188.1619364991784 335.03675184100865, 190.44811732918023 332.8715968593955, 194.95209996849297 334.21757912486794 C196 335, 196 335, 196 335" stroke="none" stroke-width="0" fill="#F8F8FA"/><path d="M195.68081036865712 334.7573054474592 C309.79850103229285 335.0828418957138, 423.1704623258114 335.479622386589, 764.1070439082384 334.75649457633494 M195.9609674152732 335.0181026521325 C364.48385304272176 335.34132966914893, 533.2420203474164 335.35312970081094, 764.0998847946524 335.09892266899345 M764 335 C768.4642666742205 334.4166313007474, 770.2095183774829 337.0615994766355, 770.2807749196887 340.68614829331636 M764.6683366701006 335.47940243035555 C768.6840626487881 334.7481196501106, 770.2036304888875 337.1673290850967, 770.4999230466038 341.18538261197506 M770.7000501945615 341.1229416772723 C770.0110912725359 360.59027973748744, 769.7287767335802 379.704387512058, 769.9739561870695 419.439106027782 M770.3785597525537 340.8578155197203 C769.9098764942795 357.2751392949372, 770.3073268698365 374.2511216700077, 769.617126699537 418.9229133524001 M770 419 C769.4474542543292 423.0643107250333, 768.3430080816149 425.5431076362729, 763.5008674070239 425.7706044510007 M770.3487105295062 419.60596979409456 C770.3406591520459 422.8779284050316, 767.1620392785221 424.51801354192196, 763.5031203494221 424.52238695405424 M763.8168982440234 424.89513724982737 C542.1828558042646 425.6938424968243, 320.74706836938856 425.4746146869183, 196.29611762344837 425.1338014763594 M763.9217766270042 425.07956211715936 C619.938859013319 424.689196115005, 476.22485588937997 424.39761357830764, 196.05242374271154 424.9864844289422 M196 425 C191.46313084810973 424.9891691043973, 190.38183836191894 422.7195681884885, 190.349347345531 418.34571612626314 M195.2760265275836 425.2765129879117 C192.15411020852625 424.9338757707924, 190.51733191825448 422.6490260627121, 190.41220540858805 418.80727795384826 M189.84228404313325 418.6930460855365 C190.75391303924025 388.5684447940439, 189.8617169084877 357.9025272794068, 190.16779526025056 341.44500755518675 M190.10135304555297 418.61286188736557 C189.49099203502834 402.18482825420796, 189.7616937533587 384.87043368965385, 190.2690490208566 341.06528576985 M190 341 C190.7413745805621 336.6923783138394, 192.39358734339476 335.4546530082822, 196.41879286020995 334.5501551941037 M189.35536278933287 340.51720388680695 C190.5615056619793 336.399809403643, 192.8397232518345 334.081089303717, 196.63114306785167 334.1870282676071 M196 335 C196 335, 196 335, 196 335 M196 335 C196 335, 196 335, 196 335" stroke="#BBBBBB" stroke-width="1.5" fill="none"/></g></g><g filter="url(#shadow)"><g><path d="M346.6296521164438 456.0095099797503 C440.7119911143955 456.44563229872546, 533.5522597492588 454.5257891074754, 611.7354875007544 452.5270637934219 C616.9519162476063 454.94918820261955, 618.4637286484242 456.4455880820751, 620.7072242081165 461.81974999308585 C617.3645623081743 470.71315764579924, 619.1135744923174 487.64955544658005, 619.078692215681 495.151943141222 C622.9148452460765 496.49487336277963, 616.8320947349072 501.6449487030506, 616.2473699271679 502.79375432133673 C545.5752881883205 501.878262224009, 480.1501899005121 500.5701086429567, 344.2339060195313 502.12236095469507 C339.7592212021351 501.7666482627392, 337.8782906830311 500.1695605933666, 336.93129552006724 492.56604916453364 C341.92237959560754 488.3789666196331, 339.4068104809225 479.46847293190655, 337.871750420332 461.06453984379766 C337.5492486655712 454.3823357880116, 339.93082310557367 452.16212914586066, 344.60279995799067 453.95677216649057 C346 455, 346 455, 346 455" stroke="none" stroke-width="0" fill="#EDEEF2"/><path d="M344.7445767479667 454.0454439791178 C400.00951992553655 454.7725615903528, 452.3413916651951 456.3331619522827, 614.4210206040392 454.0422546948684 M345.84647867712107 455.0712005910562 C425.1951861684695 455.35934697438347, 505.46929367093185 455.40575836331504, 614.3928626791657 455.38907848693304 M614 455 C618.9285333484411 453.83326260149477, 620.4190367549658 457.1231989532709, 620.5615498393774 460.37229658663273 M615.3366733402014 455.9588048607111 C619.3681252975762 454.4962393002212, 620.4072609777749 457.33465817019345, 620.9998460932076 461.3707652239502 M621.4001003891229 461.2458833545446 C620.1451967830867 469.4002546330914, 619.5805677051753 476.8481653403491, 619.9479123741388 494.87821205556395 M620.7571195051074 460.7156310394406 C619.70791751751 467.6116224939003, 620.502818268624 475.6249311480671, 619.2342533990741 493.8458267048001 M620 494 C618.8949085086584 498.1286214500666, 618.68601616323 501.0862152725458, 613.0017348140478 501.54120890200136 M620.6974210590124 495.2119395881891 C620.6813183040917 497.7558568100631, 616.3240785570442 499.0360270838439, 613.0062406988442 499.0447739081085 M613.2798318636662 499.58755823525655 C509.0981505227981 501.8455402979841, 405.69623744042485 500.9832826836298, 347.16467739960694 500.52626234715467 M613.6923351147144 500.3129303776023 C545.6915936425041 499.70707717750787, 478.74853534695455 498.5602369906362, 346.20619086303583 499.94684112356947 M346 500 C340.92626169621946 499.9783382087946, 340.7636767238379 497.439136376977, 340.698694691062 492.6914322525263 M344.5520530551672 500.5530259758234 C342.3082204170525 499.8677515415847, 341.03466383650897 497.29805212542414, 340.8244108171761 493.6145559076965 M339.6845680862665 493.38609217107296 C341.3620744156152 481.4955852905288, 339.5776821541101 468.52244596369565, 340.3355905205011 461.8900151103735 M340.20270609110594 493.22572377473114 C339.1725682879776 487.42498895879834, 339.7139717246383 479.85153228007255, 340.5380980417132 461.13057153970004 M340 461 C341.4827491611242 456.3847566276789, 342.7871746867895 455.90930601656436, 346.8375857204199 454.10031038820745 M338.71072557866574 460.0344077736139 C341.1230113239586 455.79961880728604, 343.679446503669 453.16217860743404, 347.26228613570333 453.3740565352142 M346 455 C346 455, 346 455, 346 455 M346 455 C346 455, 346 455, 346 455" stroke="#2D3142" stroke-width="1.5" fill="none"/></g></g><g filter="url(#shadow)"><g><path d="M306.52291812328224 530.8383852769799 C428.1933708438717 531.5848607329945, 548.8322998289119 529.9904552313745, 652.11935099505 527.9462577407919 C656.9519162476063 529.9491882026196, 658.4637286484242 531.4455880820751, 660.7072242081165 536.8197499930859 C657.3777424510836 547.6478935595602, 659.1267546352267 566.519027274102, 659.078692215681 575.151943141222 C662.9148452460765 576.4948733627796, 656.8320947349072 581.6449487030507, 656.2473699271679 582.7937543213368 C565.350962034777 582.0402075718413, 479.1930651830528 580.9538025591299, 304.53328127439215 581.7625939441366 C299.7592212021351 581.7666482627392, 297.8782906830311 580.1695605933667, 296.93129552006724 572.5660491645336 C301.8771806548238 567.3071849945933, 299.36161154013877 557.3249096818269, 297.871750420332 536.0645398437977 C297.5492486655712 529.3823357880116, 299.93082310557367 527.1621291458607, 304.60279995799067 528.9567721664905 C306 530, 306 530, 306 530" stroke="none" stroke-width="0" fill="#E0E8F8"/><path d="M304.9573868589756 529.2072532911878 C375.9637840289312 529.9336439799187, 444.5343024466199 531.2297028529722, 654.3496522895384 529.2046046309343 M305.87250248201013 530.0591311908264 C408.99546668965974 530.5161662082877, 512.8869639085698 530.5547102801097, 654.326267488875 530.3231247650617 M654 530 C658.9285333484411 528.8332626014948, 660.4190367549658 532.123198953271, 660.5615498393774 535.3722965866327 M655.3366733402014 530.9588048607111 C659.3681252975762 529.4962393002212, 660.4072609777749 532.3346581701934, 660.9998460932076 536.3707652239501 M661.4001003891229 536.2458833545446 C660.1315285344184 545.6514865372329, 659.566899456507 554.3506291486323, 659.9479123741388 574.878212055564 M660.7571195051074 535.7156310394406 C659.7203436809599 543.6660394083708, 660.5152444320738 552.733764977008, 659.2342533990741 573.8458267048002 M660 574 C658.8949085086584 578.1286214500666, 658.68601616323 581.0862152725458, 653.0017348140478 581.5412089020014 M660.6974210590124 575.2119395881891 C660.6813183040917 577.7558568100632, 656.3240785570442 579.0360270838439, 653.0062406988442 579.0447739081085 M653.4019094664111 579.6574723280517 C517.9126782381315 581.728350050589, 383.07103469149155 581.0122560016553, 306.96724985770146 580.4370542268364 M653.7444882019581 580.2598847228498 C565.4796603093604 579.5508771869542, 478.09322492481994 578.5984409089493, 306.1712389052952 579.9558522251051 M306 580 C300.92626169621946 579.9783382087946, 300.7636767238379 577.439136376977, 300.698694691062 572.6914322525263 M304.5520530551672 580.5530259758234 C302.3082204170525 579.8677515415848, 301.03466383650897 577.2980521254242, 300.8244108171761 573.6145559076965 M299.6845680862665 573.386092171073 C301.37826904482245 559.5297846522182, 299.59387678331734 544.5908446870744, 300.3355905205011 536.8900151103735 M300.20270609110594 573.2257237747311 C299.15139226376414 566.3251786965877, 299.6927957004249 557.6519117556512, 300.5380980417132 536.1305715397 M300 536 C301.4827491611242 531.3847566276788, 302.7871746867895 530.9093060165644, 306.8375857204199 529.1003103882074 M298.71072557866574 535.0344077736139 C301.1230113239586 530.799618807286, 303.679446503669 528.162178607434, 307.26228613570333 528.3740565352142 M306 530 C306 530, 306 530, 306 530 M306 530 C306 530, 306 530, 306 530" stroke="#326CE5" stroke-width="1.5" fill="none"/></g></g></g><g id="layer-text"><text x="34" y="26" text-anchor="start" font-family="Inter, &quot;IBM Plex Sans&quot;, system-ui, sans-serif" font-size="10" font-weight="600" fill="#B0B0B0" letter-spacing="1">FORECASTING</text><text x="34" y="110" text-anchor="start" font-family="Inter, &quot;IBM Plex Sans&quot;, system-ui, sans-serif" font-size="10" font-weight="600" fill="#888" letter-spacing="1">STRATEGIC LAYER</text><text x="34" y="224" text-anchor="start" font-family="Inter, &quot;IBM Plex Sans&quot;, system-ui, sans-serif" font-size="10" font-weight="600" fill="#B0B0B0" letter-spacing="1">EXECUTION LAYER</text><text x="480" y="39.099999999999994" text-anchor="middle" font-family="Inter, &quot;IBM Plex Sans&quot;, system-ui, sans-serif" font-size="12" font-weight="700" fill="#8B5FA0" letter-spacing="0.2">Traffic Forecaster (TFT, frozen)</text><text x="480" y="123.3" text-anchor="middle" font-family="Inter, &quot;IBM Plex Sans&quot;, system-ui, sans-serif" font-size="16" font-weight="700" fill="#2D3142" letter-spacing="0.5">COMMANDER</text><text x="480" y="148.9" text-anchor="middle" font-family="Inter, &quot;IBM Plex Sans&quot;, system-ui, sans-serif" font-size="10" font-weight="400" fill="#666">Actor-Critic  |  60s tick</text><text x="480" y="163.4" text-anchor="middle" font-family="Inter, &quot;IBM Plex Sans&quot;, system-ui, sans-serif" font-size="10" font-weight="400" fill="#666">Obs: cluster-wide → budget allocations</text><rect x="461" y="74.5" width="62" height="14" fill="#FFFFFF" opacity="0.85" rx="3"/><text x="492" y="84.5" text-anchor="middle" font-family="Inter, &quot;IBM Plex Sans&quot;, system-ui, sans-serif" font-size="10" font-weight="500" fill="#888">forecasts</text><rect x="414" y="192.25" width="132" height="15" fill="white" opacity="0.75" rx="4"/><text x="480" y="202" text-anchor="middle" font-family="Inter, &quot;IBM Plex Sans&quot;, system-ui, sans-serif" font-size="10" font-weight="500" fill="#AAA" letter-spacing="0.5">directive per domain</text><text x="146.66666666666666" y="242.92499999999998" text-anchor="middle" font-family="Inter, &quot;IBM Plex Sans&quot;, system-ui, sans-serif" font-size="11" font-weight="700" fill="#3B7DD8" letter-spacing="0.2">Soldier 1</text><text x="146.66666666666666" y="261.775" text-anchor="middle" font-family="Inter, &quot;IBM Plex Sans&quot;, system-ui, sans-serif" font-size="10" font-weight="400" fill="#777">Payment</text><text x="146.66666666666666" y="276.275" text-anchor="middle" font-family="Inter, &quot;IBM Plex Sans&quot;, system-ui, sans-serif" font-size="10" font-weight="400" fill="#777">~500 apps</text><text x="313.3333333333333" y="242.92499999999998" text-anchor="middle" font-family="Inter, &quot;IBM Plex Sans&quot;, system-ui, sans-serif" font-size="11" font-weight="700" fill="#D4644B" letter-spacing="0.2">Soldier 2</text><text x="313.3333333333333" y="261.775" text-anchor="middle" font-family="Inter, &quot;IBM Plex Sans&quot;, system-ui, sans-serif" font-size="10" font-weight="400" fill="#777">Fraud</text><text x="313.3333333333333" y="276.275" text-anchor="middle" font-family="Inter, &quot;IBM Plex Sans&quot;, system-ui, sans-serif" font-size="10" font-weight="400" fill="#777">~300 apps</text><text x="480" y="242.92499999999998" text-anchor="middle" font-family="Inter, &quot;IBM Plex Sans&quot;, system-ui, sans-serif" font-size="11" font-weight="700" fill="#5FA384" letter-spacing="0.2">Soldier 3</text><text x="480" y="261.775" text-anchor="middle" font-family="Inter, &quot;IBM Plex Sans&quot;, system-ui, sans-serif" font-size="10" font-weight="400" fill="#777">Merchant</text><text x="480" y="276.275" text-anchor="middle" font-family="Inter, &quot;IBM Plex Sans&quot;, system-ui, sans-serif" font-size="10" font-weight="400" fill="#777">~400 apps</text><text x="646.6666666666666" y="242.92499999999998" text-anchor="middle" font-family="Inter, &quot;IBM Plex Sans&quot;, system-ui, sans-serif" font-size="11" font-weight="700" fill="#8B5FA0" letter-spacing="0.2">Soldier 4</text><text x="646.6666666666666" y="261.775" text-anchor="middle" font-family="Inter, &quot;IBM Plex Sans&quot;, system-ui, sans-serif" font-size="10" font-weight="400" fill="#777">Data</text><text x="646.6666666666666" y="276.275" text-anchor="middle" font-family="Inter, &quot;IBM Plex Sans&quot;, system-ui, sans-serif" font-size="10" font-weight="400" fill="#777">~200 apps</text><text x="813.3333333333333" y="242.92499999999998" text-anchor="middle" font-family="Inter, &quot;IBM Plex Sans&quot;, system-ui, sans-serif" font-size="11" font-weight="700" fill="#7A7A7A" letter-spacing="0.2">Soldier 5</text><text x="813.3333333333333" y="261.775" text-anchor="middle" font-family="Inter, &quot;IBM Plex Sans&quot;, system-ui, sans-serif" font-size="10" font-weight="400" fill="#777">Platform</text><text x="813.3333333333333" y="276.275" text-anchor="middle" font-family="Inter, &quot;IBM Plex Sans&quot;, system-ui, sans-serif" font-size="10" font-weight="400" fill="#777">~150 apps</text><text x="480" y="352.675" text-anchor="middle" font-family="Inter, &quot;IBM Plex Sans&quot;, system-ui, sans-serif" font-size="11" font-weight="700" fill="#BBBBBB" letter-spacing="0.2">Each Soldier:</text><text x="480" y="371.52500000000003" text-anchor="middle" font-family="Inter, &quot;IBM Plex Sans&quot;, system-ui, sans-serif" font-size="10" font-weight="400" fill="#888">Obs: domain agg + cross-attention over app embeddings + top-20 at-risk</text><text x="480" y="386.02500000000003" text-anchor="middle" font-family="Inter, &quot;IBM Plex Sans&quot;, system-ui, sans-serif" font-size="10" font-weight="400" fill="#888">Action: replica deltas, constrained by commander budget (simplex)</text><text x="480" y="400.52500000000003" text-anchor="middle" font-family="Inter, &quot;IBM Plex Sans&quot;, system-ui, sans-serif" font-size="10" font-weight="400" fill="#888">Reward: domain SLO + commander alignment bonus - oscillation penalty</text><text x="480" y="473.59999999999997" text-anchor="middle" font-family="Inter, &quot;IBM Plex Sans&quot;, system-ui, sans-serif" font-size="12" font-weight="700" fill="#2D3142" letter-spacing="0.2">Action Executor (circuit breakers)</text><text x="480" y="541.525" text-anchor="middle" font-family="Inter, &quot;IBM Plex Sans&quot;, system-ui, sans-serif" font-size="13" font-weight="700" fill="#326CE5" letter-spacing="0.2">Kubernetes Control Plane</text><text x="480" y="563.0749999999999" text-anchor="middle" font-family="Inter, &quot;IBM Plex Sans&quot;, system-ui, sans-serif" font-size="10" font-weight="400" fill="#5577AA">HPA patch  |  KEDA  |  Karpenter</text></g></svg>