<?xml version="1.0" encoding="UTF-8"?>
<svg xmlns="http://www.w3.org/2000/svg" width="980" height="540" viewBox="-10 -10 980 540"><defs><filter id="shadow" x="-4%" y="-4%" width="112%" height="112%"><feFlood flood-color="#000000" flood-opacity="0.08" result="color"/><feComposite in="color" in2="SourceGraphic" operator="in" result="shadow"/><feGaussianBlur in="shadow" stdDeviation="3" result="blur"/><feOffset in="blur" dx="2" dy="3" result="offsetBlur"/><feMerge><feMergeNode in="offsetBlur"/><feMergeNode in="SourceGraphic"/></feMerge></filter><filter id="shadow-light" x="-4%" y="-4%" width="112%" height="112%"><feFlood flood-color="#000000" flood-opacity="0.04" result="color"/><feComposite in="color" in2="SourceGraphic" operator="in" result="shadow"/><feGaussianBlur in="shadow" stdDeviation="2" result="blur"/><feOffset in="blur" dx="1" dy="2" result="offsetBlur"/><feMerge><feMergeNode in="offsetBlur"/><feMergeNode in="SourceGraphic"/></feMerge></filter></defs><g id="layer-zones"><rect x="20" y="10" width="920" height="135" fill="#DDDEE5" rx="12" ry="12"/><rect x="20" y="160" width="920" height="210" fill="#F4F6F8" rx="12" ry="12"/></g><g id="layer-connectors"><path d="M480,133 C343.75,133 343.75,195 207.5,195" fill="none" stroke="#888" stroke-width="1.3" stroke-linecap="round"/><polygon points="207.5,195 214.70775094321937,191.52893008705954 214.70775094321937,198.47106991294046" fill="#888" stroke="none"/><circle cx="480" cy="133" r="2.5" fill="#888"/><path d="M480,133 C480,164 480,164 480,195" fill="none" stroke="#888" stroke-width="1.3" stroke-linecap="round"/><polygon points="480,195 476.5289300870595,187.79224905678063 483.4710699129405,187.79224905678063" fill="#888" stroke="none"/><circle cx="480" cy="133" r="2.5" fill="#888"/><path d="M480,133 C616.25,133 616.25,195 752.5,195" fill="none" stroke="#888" stroke-width="1.3" stroke-linecap="round"/><polygon points="752.5,195 745.2922490567806,198.47106991294046 745.2922490567806,191.52893008705954" fill="#888" stroke="none"/><circle cx="480" cy="133" r="2.5" fill="#888"/><path d="M207.5,325 C343.75,325 343.75,420 480,420" fill="none" stroke="#AAB5CC" stroke-width="1.3" stroke-linecap="round"/><polygon points="480,420 472.79224905678063,423.4710699129405 472.79224905678063,416.5289300870595" fill="#AAB5CC" stroke="none"/><circle cx="207.5" cy="325" r="2.5" fill="#AAB5CC"/><path d="M480,325 C480,372.5 480,372.5 480,420" fill="none" stroke="#AAB5CC" stroke-width="1.3" stroke-linecap="round"/><polygon points="480,420 476.5289300870595,412.79224905678063 483.4710699129405,412.79224905678063" fill="#AAB5CC" stroke="none"/><circle cx="480" cy="325" r="2.5" fill="#AAB5CC"/><path d="M752.5,325 C616.25,325 616.25,420 480,420" fill="none" stroke="#AAB5CC" stroke-width="1.3" stroke-linecap="round"/><polygon points="480,420 487.20775094321937,416.5289300870595 487.20775094321937,423.47106991294044" fill="#AAB5CC" stroke="none"/><circle cx="752.5" cy="325" r="2.5" fill="#AAB5CC"/></g><g id="layer-boxes"><g filter="url(#shadow)"><g><path d="M306.52291812328224 28.838385276979867 C428.1933708438717 29.584860732994482, 548.8322998289119 27.990455231374533, 652.11935099505 25.946257740791896 C656.9519162476063 27.949188202619553, 658.4637286484242 29.44558808207512, 660.7072242081165 34.819749993085864 C657.5227240230857 66.92998861093074, 659.2717362072289 107.0832173768431, 659.078692215681 128.151943141222 C662.9148452460765 129.49487336277963, 656.8320947349072 134.6449487030506, 656.2473699271679 135.79375432133673 C565.350962034777 135.04020757184122, 479.1930651830528 133.95380255912997, 304.53328127439215 134.76259394413654 C299.7592212021351 134.76664826273918, 297.8782906830311 133.1695605933666, 296.93129552006724 125.56604916453361 C301.37999230620267 108.51758711915464, 298.86442319151763 86.74571393094958, 297.871750420332 34.06453984379768 C297.5492486655712 27.382335788011552, 299.93082310557367 25.16212914586067, 304.60279995799067 26.956772166490556 C306 28, 306 28, 306 28" stroke="none" stroke-width="0" fill="#E2E3E8"/><path d="M304.9573868589756 27.207253291187804 C375.9637840289312 27.933643979918706, 444.5343024466199 29.229702852972256, 654.3496522895384 27.20460463093439 M305.87250248201013 28.059131190826417 C408.99546668965974 28.51616620828776, 512.8869639085698 28.554710280109678, 654.326267488875 28.323124765061703 M654 28 C658.9285333484411 26.833262601494788, 660.4190367549658 30.12319895327091, 660.5615498393774 33.37229658663273 M655.3366733402014 28.958804860711098 C659.3681252975762 27.496239300221205, 660.4072609777749 30.334658170193435, 660.9998460932076 34.370765223950144 M661.4001003891229 34.24588335454464 C659.9811777990669 57.41503748279065, 659.4165487211556 79.8777310397476, 659.9479123741388 127.87821205556392 M660.7571195051074 33.71563103944063 C659.8570314789087 53.26462546754629, 660.6519322300226 73.93093709535898, 659.2342533990741 126.84582670480013 M660 127 C658.8949085086584 131.12862145006656, 658.68601616323 134.08621527254581, 653.0017348140478 134.5412089020014 M660.6974210590124 128.21193958818913 C660.6813183040917 130.75585681006314, 656.3240785570442 132.03602708384395, 653.0062406988442 132.04477390810848 M653.4019094664111 132.65747232805165 C517.9126782381315 134.72835005058903, 383.07103469149155 134.0122560016553, 306.96724985770146 133.43705422683635 M653.7444882019581 133.25988472284982 C565.4796603093604 132.55087718695415, 478.09322492481994 131.5984409089494, 306.1712389052952 132.9558522251051 M306 133 C300.92626169621946 132.97833820879458, 300.7636767238379 130.43913637697696, 300.698694691062 125.69143225252628 M304.5520530551672 133.5530259758234 C302.3082204170525 132.86775154158474, 301.03466383650897 130.29805212542414, 300.8244108171761 126.61455590769648 M299.6845680862665 126.38609217107296 C301.55640996610225 90.9059776308015, 299.77201770459715 54.34323064424097, 300.3355905205011 34.8900151103735 M300.20270609110594 126.22572377473116 C298.9184559974164 107.22726581227035, 299.45985943407715 86.45608598701656, 300.5380980417132 34.13057153970003 M300 34 C301.4827491611242 29.384756627678872, 302.7871746867895 28.90930601656437, 306.8375857204199 27.100310388207436 M298.71072557866574 33.03440777361393 C301.1230113239586 28.799618807286024, 303.679446503669 26.162178607434036, 307.26228613570333 26.374056535214187 M306 28 C306 28, 306 28, 306 28 M306 28 C306 28, 306 28, 306 28" stroke="#2D3142" stroke-width="1.5" fill="none"/></g></g><g filter="url(#shadow)"><g><path d="M109.30044091343879 196.28333260416986 C179.37349226512015 196.32305150080919, 247.8675702281296 193.88246407557725, 303.62125409245493 191.85629689097405 C309.4519162476063 194.94918820261955, 310.96372864842414 196.44558808207512, 313.20722420811654 201.81974999308585 C310.0886247376323 243.60366817973554, 311.83763692177536 293.4305765144527, 311.5786922156811 320.151943141222 C315.4148452460766 321.49487336277963, 309.3320947349072 326.6449487030506, 308.7473699271679 327.79375432133673 C255.71879372559488 326.74437768801454, 208.7508254699409 325.0813964639545, 106.25486519932747 327.69803673624995 C102.25922120213508 326.7666482627392, 100.37829068303108 325.1695605933666, 99.43129552006721 317.56604916453364 C103.65399760228395 295.1586789939552, 101.13842848759889 268.0278976805508, 100.37175042033195 201.0645398437977 C100.04924866557121 194.38233578801155, 102.43082310557365 192.16212914586066, 107.10279995799064 193.95677216649057 C108.5 195, 108.5 195, 108.5 195" stroke="none" stroke-width="0" fill="#E3EDFA"/><path d="M106.90405184328556 193.7865272372961 C148.59365682341158 194.5467580584109, 186.55461495295168 196.5306605127871, 307.0352195411921 193.78247288167478 M108.30483707636594 195.09051326066256 C166.82793806008996 195.16519013560415, 226.52744743004442 195.22419029391406, 306.9994239732623 195.49461334496738 M306.5 195 C311.42853334844114 193.8332626014948, 312.91903675496576 197.1231989532709, 313.0615498393774 200.37229658663273 M307.8366733402014 195.9588048607111 C311.86812529757617 194.4962393002212, 312.90726097777485 197.33465817019342, 313.4998460932076 201.37076522395014 M313.90010038912294 201.24588335454465 C312.41283655572533 230.6711970034987, 311.84820747781396 259.3900500811637, 312.4479123741388 319.87821205556395 M313.2571195051074 200.71563103944064 C312.4191622961581 225.53671003989876, 313.21406304727196 251.47510624006392, 311.7342533990741 318.8458267048001 M312.5 319 C311.39490850865843 323.1286214500666, 311.18601616322997 326.0862152725458, 305.50173481404784 326.54120890200136 M313.1974210590124 320.2119395881891 C313.1813183040917 322.7558568100631, 308.8240785570443 324.0360270838439, 305.5062406988442 324.0447739081085 M305.5844912201166 324.4756862491369 C228.85168655775487 327.0840778943002, 153.1101569198072 325.9879388447702, 109.98058811724187 325.66900738179686 M306.10888313502073 325.39781058579683 C255.83011889941992 324.9033406520784, 206.89592711254954 323.44542796859145, 108.76211871355773 324.93242214471104 M108.5 325 C103.42626169621944 324.9783382087946, 103.26367672383785 322.439136376977, 103.19869469106197 317.6914322525263 M107.05205305516719 325.5530259758234 C104.80822041705251 324.8677515415847, 103.53466383650898 322.29805212542414, 103.3244108171761 318.6145559076965 M102.18456808626652 318.38609217107296 C104.13738311213851 273.07697443924843, 102.35299085063338 226.68522426113486, 102.83559052050114 201.8900151103735 M102.70270609110594 318.22572377473114 C101.31257587634921 293.728214501217, 101.85397931300999 267.45798336490986, 103.03809804171324 201.13057153970004 M102.5 201 C103.98274916112423 196.38475662767888, 105.28717468678951 195.90930601656436, 109.33758572041988 194.10031038820745 M101.21072557866573 200.03440777361394 C103.62301132395864 195.79961880728604, 106.17944650366903 193.16217860743404, 109.76228613570332 193.37405653521418 M108.5 195 C108.5 195, 108.5 195, 108.5 195 M108.5 195 C108.5 195, 108.5 195, 108.5 195" stroke="#3B7DD8" stroke-width="1.5" fill="none"/></g></g><g filter="url(#shadow)"><g><path d="M381.8004409134388 196.28333260416986 C451.87349226512015 196.32305150080919, 520.3675702281297 193.88246407557725, 576.1212540924549 191.85629689097405 C581.9519162476063 194.94918820261955, 583.4637286484242 196.44558808207512, 585.7072242081165 201.81974999308585 C582.5886247376322 243.60366817973554, 584.3376369217754 293.4305765144527, 584.078692215681 320.151943141222 C587.9148452460765 321.49487336277963, 581.8320947349072 326.6449487030506, 581.2473699271679 327.79375432133673 C528.2187937255949 326.74437768801454, 481.2508254699409 325.0813964639545, 378.75486519932747 327.69803673624995 C374.7592212021351 326.7666482627392, 372.8782906830311 325.1695605933666, 371.93129552006724 317.56604916453364 C376.15399760228394 295.1586789939552, 373.6384284875989 268.0278976805508, 372.871750420332 201.0645398437977 C372.5492486655712 194.38233578801155, 374.93082310557367 192.16212914586066, 379.60279995799067 193.95677216649057 C381 195, 381 195, 381 195" stroke="none" stroke-width="0" fill="#FBEAE5"/><path d="M379.4040518432856 193.7865272372961 C421.0936568234116 194.5467580584109, 459.0546149529517 196.5306605127871, 579.5352195411921 193.78247288167478 M380.80483707636597 195.09051326066256 C439.32793806008993 195.16519013560415, 499.02744743004445 195.22419029391406, 579.4994239732623 195.49461334496738 M579 195 C583.9285333484411 193.8332626014948, 585.4190367549658 197.1231989532709, 585.5615498393774 200.37229658663273 M580.3366733402014 195.9588048607111 C584.3681252975762 194.4962393002212, 585.4072609777749 197.33465817019342, 585.9998460932076 201.37076522395014 M586.4001003891229 201.24588335454465 C584.9128365557253 230.6711970034987, 584.348207477814 259.3900500811637, 584.9479123741388 319.87821205556395 M585.7571195051074 200.71563103944064 C584.919162296158 225.53671003989876, 585.7140630472719 251.47510624006392, 584.2342533990741 318.8458267048001 M585 319 C583.8949085086584 323.1286214500666, 583.68601616323 326.0862152725458, 578.0017348140478 326.54120890200136 M585.6974210590124 320.2119395881891 C585.6813183040917 322.7558568100631, 581.3240785570442 324.0360270838439, 578.0062406988442 324.0447739081085 M578.0844912201167 324.4756862491369 C501.3516865577549 327.0840778943002, 425.6101569198072 325.9879388447702, 382.48058811724184 325.66900738179686 M578.6088831350207 325.39781058579683 C528.3301188994199 324.9033406520784, 479.39592711254954 323.44542796859145, 381.2621187135577 324.93242214471104 M381 325 C375.92626169621946 324.9783382087946, 375.7636767238379 322.439136376977, 375.698694691062 317.6914322525263 M379.5520530551672 325.5530259758234 C377.3082204170525 324.8677515415847, 376.03466383650897 322.29805212542414, 375.8244108171761 318.6145559076965 M374.6845680862665 318.38609217107296 C376.6373831121385 273.07697443924843, 374.8529908506334 226.68522426113486, 375.3355905205011 201.8900151103735 M375.20270609110594 318.22572377473114 C373.81257587634923 293.728214501217, 374.35397931301 267.45798336490986, 375.5380980417132 201.13057153970004 M375 201 C376.4827491611242 196.38475662767888, 377.7871746867895 195.90930601656436, 381.8375857204199 194.10031038820745 M373.71072557866574 200.03440777361394 C376.1230113239586 195.79961880728604, 378.679446503669 193.16217860743404, 382.26228613570333 193.37405653521418 M381 195 C381 195, 381 195, 381 195 M381 195 C381 195, 381 195, 381 195" stroke="#D4644B" stroke-width="1.5" fill="none"/></g></g><g filter="url(#shadow)"><g><path d="M654.3004409134388 196.28333260416986 C724.3734922651201 196.32305150080919, 792.8675702281297 193.88246407557725, 848.6212540924549 191.85629689097405 C854.4519162476063 194.94918820261955, 855.9637286484242 196.44558808207512, 858.2072242081165 201.81974999308585 C855.0886247376322 243.60366817973554, 856.8376369217754 293.4305765144527, 856.578692215681 320.151943141222 C860.4148452460765 321.49487336277963, 854.3320947349072 326.6449487030506, 853.7473699271679 327.79375432133673 C800.7187937255949 326.74437768801454, 753.7508254699409 325.0813964639545, 651.2548651993275 327.69803673624995 C647.2592212021351 326.7666482627392, 645.3782906830311 325.1695605933666, 644.4312955200672 317.56604916453364 C648.653997602284 295.1586789939552, 646.138428487599 268.0278976805508, 645.371750420332 201.0645398437977 C645.0492486655712 194.38233578801155, 647.4308231055736 192.16212914586066, 652.1027999579907 193.95677216649057 C653.5 195, 653.5 195, 653.5 195" stroke="none" stroke-width="0" fill="#E4F1EA"/><path d="M651.9040518432855 193.7865272372961 C693.5936568234116 194.5467580584109, 731.5546149529516 196.5306605127871, 852.0352195411921 193.78247288167478 M653.304837076366 195.09051326066256 C711.8279380600899 195.16519013560415, 771.5274474300444 195.22419029391406, 851.9994239732623 195.49461334496738 M851.5 195 C856.4285333484411 193.8332626014948, 857.9190367549658 197.1231989532709, 858.0615498393774 200.37229658663273 M852.8366733402014 195.9588048607111 C856.8681252975762 194.4962393002212, 857.9072609777749 197.33465817019342, 858.4998460932076 201.37076522395014 M858.9001003891229 201.24588335454465 C857.4128365557253 230.6711970034987, 856.848207477814 259.3900500811637, 857.4479123741388 319.87821205556395 M858.2571195051074 200.71563103944064 C857.419162296158 225.53671003989876, 858.2140630472719 251.47510624006392, 856.7342533990741 318.8458267048001 M857.5 319 C856.3949085086584 323.1286214500666, 856.18601616323 326.0862152725458, 850.5017348140478 326.54120890200136 M858.1974210590124 320.2119395881891 C858.1813183040917 322.7558568100631, 853.8240785570442 324.0360270838439, 850.5062406988442 324.0447739081085 M850.5844912201167 324.4756862491369 C773.8516865577549 327.0840778943002, 698.1101569198072 325.9879388447702, 654.9805881172418 325.66900738179686 M851.1088831350207 325.39781058579683 C800.8301188994199 324.9033406520784, 751.8959271125495 323.44542796859145, 653.7621187135577 324.93242214471104 M653.5 325 C648.4262616962194 324.9783382087946, 648.2636767238379 322.439136376977, 648.198694691062 317.6914322525263 M652.0520530551672 325.5530259758234 C649.8082204170526 324.8677515415847, 648.534663836509 322.29805212542414, 648.3244108171762 318.6145559076965 M647.1845680862665 318.38609217107296 C649.1373831121385 273.07697443924843, 647.3529908506333 226.68522426113486, 647.8355905205011 201.8900151103735 M647.7027060911059 318.22572377473114 C646.3125758763491 293.728214501217, 646.85397931301 267.45798336490986, 648.0380980417133 201.13057153970004 M647.5 201 C648.9827491611243 196.38475662767888, 650.2871746867895 195.90930601656436, 654.3375857204198 194.10031038820745 M646.2107255786657 200.03440777361394 C648.6230113239586 195.79961880728604, 651.179446503669 193.16217860743404, 654.7622861357033 193.37405653521418 M653.5 195 C653.5 195, 653.5 195, 653.5 195 M653.5 195 C653.5 195, 653.5 195, 653.5 195" stroke="#5FA384" stroke-width="1.5" fill="none"/></g></g><g filter="url(#shadow)"><g><path d="M326.57628511986303 420.92394762836506 C434.4526809791336 421.53485565001125, 541.1922797890853 419.7777313035763, 631.9274192479022 417.7366607671069 C636.9519162476063 419.94918820261955, 638.4637286484242 421.4455880820751, 640.7072242081165 426.81974999308585 C637.3777424510836 437.6478935595602, 639.1267546352267 456.519027274102, 639.078692215681 465.151943141222 C642.9148452460765 466.49487336277963, 636.8320947349072 471.6449487030506, 636.2473699271679 472.79375432133673 C555.4631251115488 471.9837454383902, 479.67162754178247 470.7864661415084, 324.38359364696174 471.9424774494158 C319.7592212021351 471.7666482627392, 317.8782906830311 470.1695605933666, 316.93129552006724 462.56604916453364 C321.8771806548238 457.30718499459323, 319.36161154013877 447.3249096818268, 317.871750420332 426.06453984379766 C317.5492486655712 419.3823357880116, 319.93082310557367 417.16212914586066, 324.60279995799067 418.95677216649057 C326 420, 326 420, 326 420" stroke="none" stroke-width="0" fill="#E0E8F8"/><path d="M324.85098180347114 419.1263486351528 C387.98665197723386 419.8593551874152, 448.43784705590747 421.28768480490686, 634.3853364467889 419.1234296629014 M325.8594905795656 420.06516589094133 C417.09532642906464 420.44886708882603, 509.1781287897508 420.49134481920277, 634.3595650840203 420.3561016259974 M634 420 C638.9285333484411 418.83326260149477, 640.4190367549658 422.1231989532709, 640.5615498393774 425.37229658663273 M635.3366733402014 420.9588048607111 C639.3681252975762 419.4962393002212, 640.4072609777749 422.33465817019345, 640.9998460932076 426.3707652239502 M641.4001003891229 426.2458833545446 C640.1315285344184 435.651486537233, 639.566899456507 444.3506291486323, 639.9479123741388 464.87821205556395 M640.7571195051074 425.7156310394406 C639.7203436809599 433.6660394083708, 640.5152444320738 442.7337649770081, 639.2342533990741 463.8458267048001 M640 464 C638.8949085086584 468.1286214500666, 638.68601616323 471.0862152725458, 633.0017348140478 471.54120890200136 M640.6974210590124 465.2119395881891 C640.6813183040917 467.7558568100631, 636.3240785570442 469.0360270838439, 633.0062406988442 469.0447739081085 M633.3408706650387 469.6225152816541 C513.5054143804649 471.7969289249214, 394.38363606595817 471.00775309327736, 327.0659636286542 470.4816582869955 M633.7184116583363 470.28640755022604 C555.5856269759323 469.6184728459005, 478.4208801358873 468.5688346134623, 326.1887148841655 469.9513466743373 M326 470 C320.92626169621946 469.9783382087946, 320.7636767238379 467.439136376977, 320.698694691062 462.6914322525263 M324.5520530551672 470.5530259758234 C322.3082204170525 469.8677515415847, 321.03466383650897 467.29805212542414, 320.8244108171761 463.6145559076965 M319.6845680862665 463.38609217107296 C321.37826904482245 449.5297846522182, 319.59387678331734 434.5908446870744, 320.3355905205011 426.8900151103735 M320.20270609110594 463.22572377473114 C319.15139226376414 456.32517869658767, 319.6927957004249 447.6519117556512, 320.5380980417132 426.13057153970004 M320 426 C321.4827491611242 421.3847566276789, 322.7871746867895 420.90930601656436, 326.8375857204199 419.10031038820745 M318.71072557866574 425.0344077736139 C321.1230113239586 420.79961880728604, 323.679446503669 418.16217860743404, 327.26228613570333 418.3740565352142 M326 420 C326 420, 326 420, 326 420 M326 420 C326 420, 326 420, 326 420" stroke="#326CE5" stroke-width="1.5" fill="none"/></g></g></g><g id="layer-text"><text x="34" y="28" text-anchor="start" font-family="Inter, &quot;IBM Plex Sans&quot;, system-ui, sans-serif" font-size="10" font-weight="600" fill="#888" letter-spacing="1">COMMANDER (60S TICK)</text><text x="34" y="178" text-anchor="start" font-family="Inter, &quot;IBM Plex Sans&quot;, system-ui, sans-serif" font-size="10" font-weight="600" fill="#B0B0B0" letter-spacing="1">SOLDIERS (10S TICK)</text><text x="480" y="49.37500000000001" text-anchor="middle" font-family="Inter, &quot;IBM Plex Sans&quot;, system-ui, sans-serif" font-size="16" font-weight="700" fill="#2D3142" letter-spacing="0.5">COMMANDER</text><text x="480" y="74.97500000000001" text-anchor="middle" font-family="Inter, &quot;IBM Plex Sans&quot;, system-ui, sans-serif" font-size="11" font-weight="400" fill="#555">Observes: 5-domain aggregates</text><text x="480" y="90.92500000000001" text-anchor="middle" font-family="Inter, &quot;IBM Plex Sans&quot;, system-ui, sans-serif" font-size="11" font-weight="400" fill="#555">Decides: resource budgets</text><text x="480" y="106.875" text-anchor="middle" font-family="Inter, &quot;IBM Plex Sans&quot;, system-ui, sans-serif" font-size="11" font-weight="400" fill="#555">Tick: every 60 seconds</text><text x="207.5" y="224.775" text-anchor="middle" font-family="Inter, &quot;IBM Plex Sans&quot;, system-ui, sans-serif" font-size="13" font-weight="700" fill="#3B7DD8" letter-spacing="0.2">SOLDIER 1</text><text x="207.5" y="246.32500000000002" text-anchor="middle" font-family="Inter, &quot;IBM Plex Sans&quot;, system-ui, sans-serif" font-size="10" font-weight="400" fill="#666">Payment Processing</text><text x="207.5" y="260.82500000000005" text-anchor="middle" font-family="Inter, &quot;IBM Plex Sans&quot;, system-ui, sans-serif" font-size="10" font-weight="400" fill="#666">Obs: ~500 apps</text><text x="207.5" y="275.32500000000005" text-anchor="middle" font-family="Inter, &quot;IBM Plex Sans&quot;, system-ui, sans-serif" font-size="10" font-weight="400" fill="#666">Decides: replica deltas</text><text x="207.5" y="289.82500000000005" text-anchor="middle" font-family="Inter, &quot;IBM Plex Sans&quot;, system-ui, sans-serif" font-size="10" font-weight="400" fill="#666">Tick: 10s</text><text x="480" y="224.775" text-anchor="middle" font-family="Inter, &quot;IBM Plex Sans&quot;, system-ui, sans-serif" font-size="13" font-weight="700" fill="#D4644B" letter-spacing="0.2">SOLDIER 2</text><text x="480" y="246.32500000000002" text-anchor="middle" font-family="Inter, &quot;IBM Plex Sans&quot;, system-ui, sans-serif" font-size="10" font-weight="400" fill="#666">Fraud &amp; Risk</text><text x="480" y="260.82500000000005" text-anchor="middle" font-family="Inter, &quot;IBM Plex Sans&quot;, system-ui, sans-serif" font-size="10" font-weight="400" fill="#666">Obs: ~300 apps</text><text x="480" y="275.32500000000005" text-anchor="middle" font-family="Inter, &quot;IBM Plex Sans&quot;, system-ui, sans-serif" font-size="10" font-weight="400" fill="#666">Decides: replica deltas</text><text x="480" y="289.82500000000005" text-anchor="middle" font-family="Inter, &quot;IBM Plex Sans&quot;, system-ui, sans-serif" font-size="10" font-weight="400" fill="#666">Tick: 10s</text><text x="752.5" y="224.775" text-anchor="middle" font-family="Inter, &quot;IBM Plex Sans&quot;, system-ui, sans-serif" font-size="13" font-weight="700" fill="#5FA384" letter-spacing="0.2">SOLDIER 3–5</text><text x="752.5" y="246.32500000000002" text-anchor="middle" font-family="Inter, &quot;IBM Plex Sans&quot;, system-ui, sans-serif" font-size="10" font-weight="400" fill="#666">Merchant / Data / Platform</text><text x="752.5" y="260.82500000000005" text-anchor="middle" font-family="Inter, &quot;IBM Plex Sans&quot;, system-ui, sans-serif" font-size="10" font-weight="400" fill="#666">Obs: ~750 apps total</text><text x="752.5" y="275.32500000000005" text-anchor="middle" font-family="Inter, &quot;IBM Plex Sans&quot;, system-ui, sans-serif" font-size="10" font-weight="400" fill="#666">Decides: replica deltas</text><text x="752.5" y="289.82500000000005" text-anchor="middle" font-family="Inter, &quot;IBM Plex Sans&quot;, system-ui, sans-serif" font-size="10" font-weight="400" fill="#666">Tick: 10s</text><rect x="422.7" y="145.25" width="114.6" height="15" fill="white" opacity="0.75" rx="4"/><text x="480" y="155" text-anchor="middle" font-family="Inter, &quot;IBM Plex Sans&quot;, system-ui, sans-serif" font-size="10" font-weight="500" fill="#AAA" letter-spacing="0.5">budget directives</text><rect x="267.84000000000003" y="384.275" width="424.32" height="16.5" fill="white" opacity="0.75" rx="4"/><text x="480" y="395" text-anchor="middle" font-family="Inter, &quot;IBM Plex Sans&quot;, system-ui, sans-serif" font-size="11" font-weight="400" fill="#AAA">Each Soldier operates independently within its budget constraint</text><text x="480" y="440.77500000000003" text-anchor="middle" font-family="Inter, &quot;IBM Plex Sans&quot;, system-ui, sans-serif" font-size="13" font-weight="700" fill="#326CE5" letter-spacing="0.2">Kubernetes Control Plane</text></g></svg>