<?xml version="1.0" encoding="UTF-8"?>
<svg xmlns="http://www.w3.org/2000/svg" width="1120" height="637" viewBox="-10 -10 1120 637"><defs><filter id="shadow" x="-4%" y="-4%" width="112%" height="112%"><feFlood flood-color="#000000" flood-opacity="0.08" result="color"/><feComposite in="color" in2="SourceGraphic" operator="in" result="shadow"/><feGaussianBlur in="shadow" stdDeviation="3" result="blur"/><feOffset in="blur" dx="2" dy="3" result="offsetBlur"/><feMerge><feMergeNode in="offsetBlur"/><feMergeNode in="SourceGraphic"/></feMerge></filter><filter id="shadow-light" x="-4%" y="-4%" width="112%" height="112%"><feFlood flood-color="#000000" flood-opacity="0.04" result="color"/><feComposite in="color" in2="SourceGraphic" operator="in" result="shadow"/><feGaussianBlur in="shadow" stdDeviation="2" result="blur"/><feOffset in="blur" dx="1" dy="2" result="offsetBlur"/><feMerge><feMergeNode in="offsetBlur"/><feMergeNode in="SourceGraphic"/></feMerge></filter><marker id="arrowDownBlue" markerWidth="8" markerHeight="6" refX="4" refY="3" orient="auto"><path d="M0,0 L8,3 L0,6 Z" fill="#2A5FA4"/></marker><marker id="arrowDownTeal" markerWidth="8" markerHeight="6" refX="4" refY="3" orient="auto"><path d="M0,0 L8,3 L0,6 Z" fill="#2E8B8B"/></marker></defs><rect x="-10" y="-10" width="1120" height="637" fill="#ffffff" rx="8"/><g id="layer-zones"><rect x="60" y="22" width="980" height="140" fill="#E3EDFA" rx="10" ry="10"/><rect x="60" y="210" width="980" height="170" fill="#E8F5F5" rx="10" ry="10"/><rect x="60" y="405" width="980" height="140" fill="#F9F9F9" rx="10" ry="10"/></g><g id="layer-connectors"><line x1="28" y1="70" x2="28" y2="547" stroke="#999" stroke-width="1.2"/><polygon points="28,547 24,537 32,537" fill="#999"/><polygon points="28,70 24,80 32,80" fill="#999"/><line x1="1075" y1="70" x2="1075" y2="547" stroke="#999" stroke-width="1.2"/><polygon points="1075,547 1071,537 1079,537" fill="#999"/><polygon points="1075,70 1071,80 1079,80" fill="#999"/><line x1="278" y1="82" x2="330" y2="82" stroke="#2A5FA4" stroke-width="1.5" marker-end="url(#arrowDownBlue)"/><path d="M420,162 L420,170 Q420,180 410,185 L175,205 Q165,210 165,215 L165,220" fill="none" stroke="#2A5FA4" stroke-width="1.5" stroke-dasharray="4,3"/><polygon points="165,220 161,212 169,212" fill="#2A5FA4"/><path d="M470,162 L470,170 Q470,180 460,185 L362,205 Q352,210 352,215 L352,220" fill="none" stroke="#2A5FA4" stroke-width="1.5" stroke-dasharray="4,3"/><polygon points="352,220 348,212 356,212" fill="#2A5FA4"/><line x1="555" y1="162" x2="539.5" y2="220" stroke="#2A5FA4" stroke-width="1.5" stroke-dasharray="4,3"/><polygon points="540,220 536,212 544,212" fill="#2A5FA4"/><path d="M645,162 L645,170 Q645,180 655,185 L716.5,205 Q726.5,210 726.5,215 L726.5,220" fill="none" stroke="#2A5FA4" stroke-width="1.5" stroke-dasharray="4,3"/><polygon points="726,220 722,212 730,212" fill="#2A5FA4"/><path d="M695,162 L695,170 Q695,180 705,185 L903.5,205 Q913.5,210 913.5,215 L913.5,220" fill="none" stroke="#2A5FA4" stroke-width="1.5" stroke-dasharray="4,3"/><polygon points="913,220 909,212 917,212" fill="#2A5FA4"/><line x1="110" y1="310" x2="1000" y2="310" stroke="#2E8B8B" stroke-width="1" stroke-dasharray="6,4" opacity="0.6"/><line x1="165" y1="300" x2="165" y2="412" stroke="#2E8B8B" stroke-width="1.2" stroke-dasharray="3,2"/><polygon points="165,412 162,406 168,406" fill="#2E8B8B"/><line x1="352" y1="300" x2="352" y2="412" stroke="#2E8B8B" stroke-width="1.2" stroke-dasharray="3,2"/><polygon points="352,412 349,406 355,406" fill="#2E8B8B"/><line x1="540" y1="300" x2="540" y2="412" stroke="#2E8B8B" stroke-width="1.2" stroke-dasharray="3,2"/><polygon points="540,412 537,406 543,406" fill="#2E8B8B"/><line x1="726" y1="300" x2="726" y2="412" stroke="#2E8B8B" stroke-width="1.2" stroke-dasharray="3,2"/><polygon points="726,412 723,406 729,406" fill="#2E8B8B"/><line x1="913" y1="300" x2="913" y2="412" stroke="#2E8B8B" stroke-width="1.2" stroke-dasharray="3,2"/><polygon points="913,412 910,406 916,406" fill="#2E8B8B"/></g><g id="layer-boxes"><rect x="82" y="55" width="90" height="18" fill="#fff" stroke="#C5D5ED" stroke-width="0.8" rx="3"/><rect x="82" y="76" width="90" height="18" fill="#fff" stroke="#C5D5ED" stroke-width="0.8" rx="3"/><rect x="82" y="97" width="90" height="18" fill="#fff" stroke="#C5D5ED" stroke-width="0.8" rx="3"/><rect x="180" y="55" width="90" height="18" fill="#fff" stroke="#C5D5ED" stroke-width="0.8" rx="3"/><rect x="180" y="76" width="90" height="18" fill="#fff" stroke="#C5D5ED" stroke-width="0.8" rx="3"/><rect x="175" y="97" width="100" height="18" fill="#fff" stroke="#C5D5ED" stroke-width="0.8" rx="3"/><g filter="url(#shadow)"><rect x="340" y="40" width="440" height="90" fill="#2A5FA4" rx="8"/></g><g filter="url(#shadow)"><rect x="92" y="225" width="147" height="75" fill="#2E8B8B" rx="6"/></g><rect x="106" y="269" width="24" height="14" fill="#D4644B" rx="3" opacity="1"/><g filter="url(#shadow)"><rect x="279" y="225" width="147" height="75" fill="#2E8B8B" rx="6"/></g><rect x="293" y="269" width="38" height="14" fill="#D4644B" rx="3" opacity="1"/><g filter="url(#shadow)"><rect x="466" y="225" width="147" height="75" fill="#2E8B8B" rx="6"/></g><rect x="480" y="269" width="24" height="14" fill="#D4644B" rx="3" opacity="0.7"/><g filter="url(#shadow)"><rect x="653" y="225" width="147" height="75" fill="#2E8B8B" rx="6"/></g><rect x="667" y="269" width="24" height="14" fill="#D4644B" rx="3" opacity="0.5"/><g filter="url(#shadow)"><rect x="840" y="225" width="147" height="75" fill="#2E8B8B" rx="6"/></g><rect x="854" y="269" width="24" height="14" fill="#D4644B" rx="3" opacity="0.35"/><g filter="url(#shadow-light)"><rect x="100" y="435" width="130" height="80" fill="#fff" stroke="#DDD" stroke-width="1" rx="5"/></g><g><rect x="110" y="455" width="14" height="10" fill="#E3EDFA" stroke="#C5D5ED" stroke-width="0.6" rx="2"/><rect x="127" y="455" width="14" height="10" fill="#E3EDFA" stroke="#C5D5ED" stroke-width="0.6" rx="2"/><rect x="144" y="455" width="14" height="10" fill="#E3EDFA" stroke="#C5D5ED" stroke-width="0.6" rx="2"/><rect x="161" y="455" width="14" height="10" fill="#E3EDFA" stroke="#C5D5ED" stroke-width="0.6" rx="2"/><rect x="178" y="455" width="14" height="10" fill="#E3EDFA" stroke="#C5D5ED" stroke-width="0.6" rx="2"/><rect x="195" y="455" width="14" height="10" fill="#E3EDFA" stroke="#C5D5ED" stroke-width="0.6" rx="2"/><rect x="110" y="469" width="14" height="10" fill="#E3EDFA" stroke="#C5D5ED" stroke-width="0.6" rx="2"/><rect x="127" y="469" width="14" height="10" fill="#E3EDFA" stroke="#C5D5ED" stroke-width="0.6" rx="2"/><rect x="144" y="469" width="14" height="10" fill="#E3EDFA" stroke="#C5D5ED" stroke-width="0.6" rx="2"/><rect x="161" y="469" width="14" height="10" fill="#E3EDFA" stroke="#C5D5ED" stroke-width="0.6" rx="2"/><rect x="178" y="469" width="14" height="10" fill="#E3EDFA" stroke="#C5D5ED" stroke-width="0.6" rx="2"/><rect x="195" y="469" width="14" height="10" fill="#E3EDFA" stroke="#C5D5ED" stroke-width="0.6" rx="2"/><rect x="110" y="483" width="14" height="10" fill="#E3EDFA" stroke="#C5D5ED" stroke-width="0.6" rx="2"/><rect x="127" y="483" width="14" height="10" fill="#E3EDFA" stroke="#C5D5ED" stroke-width="0.6" rx="2"/><rect x="144" y="483" width="14" height="10" fill="#E3EDFA" stroke="#C5D5ED" stroke-width="0.6" rx="2"/><rect x="161" y="483" width="14" height="10" fill="#E3EDFA" stroke="#C5D5ED" stroke-width="0.6" rx="2"/><rect x="178" y="483" width="14" height="10" fill="#E3EDFA" stroke="#C5D5ED" stroke-width="0.6" rx="2"/><rect x="195" y="483" width="14" height="10" fill="#E3EDFA" stroke="#C5D5ED" stroke-width="0.6" rx="2"/></g><g filter="url(#shadow-light)"><rect x="287" y="435" width="130" height="80" fill="#fff" stroke="#DDD" stroke-width="1" rx="5"/></g><g><rect x="297" y="455" width="14" height="10" fill="#E8F5F5" stroke="#B8DCDC" stroke-width="0.6" rx="2"/><rect x="314" y="455" width="14" height="10" fill="#E8F5F5" stroke="#B8DCDC" stroke-width="0.6" rx="2"/><rect x="331" y="455" width="14" height="10" fill="#E8F5F5" stroke="#B8DCDC" stroke-width="0.6" rx="2"/><rect x="348" y="455" width="14" height="10" fill="#E8F5F5" stroke="#B8DCDC" stroke-width="0.6" rx="2"/><rect x="365" y="455" width="14" height="10" fill="#E8F5F5" stroke="#B8DCDC" stroke-width="0.6" rx="2"/><rect x="382" y="455" width="14" height="10" fill="#E8F5F5" stroke="#B8DCDC" stroke-width="0.6" rx="2"/><rect x="297" y="469" width="14" height="10" fill="#E8F5F5" stroke="#B8DCDC" stroke-width="0.6" rx="2"/><rect x="314" y="469" width="14" height="10" fill="#E8F5F5" stroke="#B8DCDC" stroke-width="0.6" rx="2"/><rect x="331" y="469" width="14" height="10" fill="#E8F5F5" stroke="#B8DCDC" stroke-width="0.6" rx="2"/><rect x="348" y="469" width="14" height="10" fill="#E8F5F5" stroke="#B8DCDC" stroke-width="0.6" rx="2"/><rect x="365" y="469" width="14" height="10" fill="#E8F5F5" stroke="#B8DCDC" stroke-width="0.6" rx="2"/><rect x="382" y="469" width="14" height="10" fill="#E8F5F5" stroke="#B8DCDC" stroke-width="0.6" rx="2"/></g><g filter="url(#shadow-light)"><rect x="475" y="435" width="130" height="80" fill="#fff" stroke="#DDD" stroke-width="1" rx="5"/></g><g><rect x="485" y="455" width="14" height="10" fill="#E8F5F5" stroke="#B8DCDC" stroke-width="0.6" rx="2"/><rect x="502" y="455" width="14" height="10" fill="#E8F5F5" stroke="#B8DCDC" stroke-width="0.6" rx="2"/><rect x="519" y="455" width="14" height="10" fill="#E8F5F5" stroke="#B8DCDC" stroke-width="0.6" rx="2"/><rect x="536" y="455" width="14" height="10" fill="#E8F5F5" stroke="#B8DCDC" stroke-width="0.6" rx="2"/><rect x="553" y="455" width="14" height="10" fill="#E8F5F5" stroke="#B8DCDC" stroke-width="0.6" rx="2"/><rect x="570" y="455" width="14" height="10" fill="#E8F5F5" stroke="#B8DCDC" stroke-width="0.6" rx="2"/><rect x="485" y="469" width="14" height="10" fill="#E8F5F5" stroke="#B8DCDC" stroke-width="0.6" rx="2"/><rect x="502" y="469" width="14" height="10" fill="#E8F5F5" stroke="#B8DCDC" stroke-width="0.6" rx="2"/><rect x="519" y="469" width="14" height="10" fill="#E8F5F5" stroke="#B8DCDC" stroke-width="0.6" rx="2"/><rect x="536" y="469" width="14" height="10" fill="#E8F5F5" stroke="#B8DCDC" stroke-width="0.6" rx="2"/><rect x="553" y="469" width="14" height="10" fill="#E8F5F5" stroke="#B8DCDC" stroke-width="0.6" rx="2"/><rect x="570" y="469" width="14" height="10" fill="#E8F5F5" stroke="#B8DCDC" stroke-width="0.6" rx="2"/><rect x="485" y="483" width="14" height="10" fill="#E8F5F5" stroke="#B8DCDC" stroke-width="0.6" rx="2"/><rect x="502" y="483" width="14" height="10" fill="#E8F5F5" stroke="#B8DCDC" stroke-width="0.6" rx="2"/><rect x="519" y="483" width="14" height="10" fill="#E8F5F5" stroke="#B8DCDC" stroke-width="0.6" rx="2"/><rect x="536" y="483" width="14" height="10" fill="#E8F5F5" stroke="#B8DCDC" stroke-width="0.6" rx="2"/><rect x="553" y="483" width="14" height="10" fill="#E8F5F5" stroke="#B8DCDC" stroke-width="0.6" rx="2"/><rect x="570" y="483" width="14" height="10" fill="#E8F5F5" stroke="#B8DCDC" stroke-width="0.6" rx="2"/></g><g filter="url(#shadow-light)"><rect x="661" y="435" width="130" height="80" fill="#fff" stroke="#DDD" stroke-width="1" rx="5"/></g><g><rect x="671" y="455" width="14" height="10" fill="#EDF0F6" stroke="#CDD3E0" stroke-width="0.6" rx="2"/><rect x="688" y="455" width="14" height="10" fill="#EDF0F6" stroke="#CDD3E0" stroke-width="0.6" rx="2"/><rect x="705" y="455" width="14" height="10" fill="#EDF0F6" stroke="#CDD3E0" stroke-width="0.6" rx="2"/><rect x="722" y="455" width="14" height="10" fill="#EDF0F6" stroke="#CDD3E0" stroke-width="0.6" rx="2"/><rect x="739" y="455" width="14" height="10" fill="#EDF0F6" stroke="#CDD3E0" stroke-width="0.6" rx="2"/><rect x="756" y="455" width="14" height="10" fill="#EDF0F6" stroke="#CDD3E0" stroke-width="0.6" rx="2"/><rect x="671" y="469" width="14" height="10" fill="#EDF0F6" stroke="#CDD3E0" stroke-width="0.6" rx="2"/><rect x="688" y="469" width="14" height="10" fill="#EDF0F6" stroke="#CDD3E0" stroke-width="0.6" rx="2"/><rect x="705" y="469" width="14" height="10" fill="#EDF0F6" stroke="#CDD3E0" stroke-width="0.6" rx="2"/><rect x="722" y="469" width="14" height="10" fill="#EDF0F6" stroke="#CDD3E0" stroke-width="0.6" rx="2"/><rect x="739" y="469" width="14" height="10" fill="#EDF0F6" stroke="#CDD3E0" stroke-width="0.6" rx="2"/><rect x="756" y="469" width="14" height="10" fill="#EDF0F6" stroke="#CDD3E0" stroke-width="0.6" rx="2"/></g><g filter="url(#shadow-light)"><rect x="848" y="435" width="130" height="80" fill="#fff" stroke="#DDD" stroke-width="1" rx="5"/></g><g><rect x="858" y="455" width="14" height="10" fill="#EDF0F6" stroke="#CDD3E0" stroke-width="0.6" rx="2"/><rect x="875" y="455" width="14" height="10" fill="#EDF0F6" stroke="#CDD3E0" stroke-width="0.6" rx="2"/><rect x="892" y="455" width="14" height="10" fill="#EDF0F6" stroke="#CDD3E0" stroke-width="0.6" rx="2"/><rect x="909" y="455" width="14" height="10" fill="#EDF0F6" stroke="#CDD3E0" stroke-width="0.6" rx="2"/><rect x="926" y="455" width="14" height="10" fill="#EDF0F6" stroke="#CDD3E0" stroke-width="0.6" rx="2"/><rect x="943" y="455" width="14" height="10" fill="#EDF0F6" stroke="#CDD3E0" stroke-width="0.6" rx="2"/><rect x="858" y="469" width="14" height="10" fill="#EDF0F6" stroke="#CDD3E0" stroke-width="0.6" rx="2"/><rect x="875" y="469" width="14" height="10" fill="#EDF0F6" stroke="#CDD3E0" stroke-width="0.6" rx="2"/><rect x="892" y="469" width="14" height="10" fill="#EDF0F6" stroke="#CDD3E0" stroke-width="0.6" rx="2"/><rect x="909" y="469" width="14" height="10" fill="#EDF0F6" stroke="#CDD3E0" stroke-width="0.6" rx="2"/><rect x="926" y="469" width="14" height="10" fill="#EDF0F6" stroke="#CDD3E0" stroke-width="0.6" rx="2"/><rect x="943" y="469" width="14" height="10" fill="#EDF0F6" stroke="#CDD3E0" stroke-width="0.6" rx="2"/></g></g><g id="layer-text"><text x="18" y="309" text-anchor="middle" font-family="Inter, &quot;IBM Plex Sans&quot;, system-ui, sans-serif" font-size="9" font-weight="500" fill="#999" letter-spacing="0.8" transform="rotate(-90, 18, 309)">Temporal hierarchy: coarse → fine</text><text x="1085" y="309" text-anchor="middle" font-family="Inter, &quot;IBM Plex Sans&quot;, system-ui, sans-serif" font-size="9" font-weight="500" fill="#999" letter-spacing="0.8" transform="rotate(90, 1085, 309)">Spatial hierarchy: cluster → domain → app</text><text x="82" y="48" text-anchor="start" font-family="Inter, &quot;IBM Plex Sans&quot;, system-ui, sans-serif" font-size="9" font-weight="600" fill="#999" letter-spacing="0.8">OBSERVATION VECTOR</text><text x="127" y="67" text-anchor="middle" font-family="Inter, &quot;IBM Plex Sans&quot;, system-ui, sans-serif" font-size="9" font-weight="400" fill="#666">CPU p75</text><text x="127" y="88" text-anchor="middle" font-family="Inter, &quot;IBM Plex Sans&quot;, system-ui, sans-serif" font-size="9" font-weight="400" fill="#666">Memory p75</text><text x="127" y="109" text-anchor="middle" font-family="Inter, &quot;IBM Plex Sans&quot;, system-ui, sans-serif" font-size="9" font-weight="400" fill="#666">Latency p99</text><text x="225" y="67" text-anchor="middle" font-family="Inter, &quot;IBM Plex Sans&quot;, system-ui, sans-serif" font-size="9" font-weight="400" fill="#666">SLO headroom</text><text x="225" y="88" text-anchor="middle" font-family="Inter, &quot;IBM Plex Sans&quot;, system-ui, sans-serif" font-size="9" font-weight="400" fill="#666">Traffic forecast</text><text x="225" y="109" text-anchor="middle" font-family="Inter, &quot;IBM Plex Sans&quot;, system-ui, sans-serif" font-size="9" font-weight="400" fill="#666">Cross-domain deps</text><text x="560" y="68" text-anchor="middle" font-family="Inter, &quot;IBM Plex Sans&quot;, system-ui, sans-serif" font-size="16" font-weight="700" fill="#FFF" letter-spacing="0.5">Commander Agent</text><text x="560" y="88" text-anchor="middle" font-family="Inter, &quot;IBM Plex Sans&quot;, system-ui, sans-serif" font-size="10" font-weight="400" fill="rgba(255,255,255,0.75)">60s tick  |  Domain-level observation  |  Budget allocation</text><text x="560" y="106" text-anchor="middle" font-family="Inter, &quot;IBM Plex Sans&quot;, system-ui, sans-serif" font-size="10" font-weight="500" fill="rgba(255,255,255,0.6)">State: ~120-dim  |  Action: (D+1) softmax</text><rect x="380" y="138" width="360" height="20" fill="#fff" rx="4" fill-opacity="0.85"/><text x="560" y="152" text-anchor="middle" font-family="Inter, &quot;IBM Plex Sans&quot;, system-ui, sans-serif" font-size="9.5" font-weight="500" fill="#666" letter-spacing="0.3">(D+1) softmax → 5 domain budgets + reserve</text><rect x="480" y="185" width="100" height="16" fill="#E3EDFA" rx="3"/><text x="530" y="196" text-anchor="middle" font-family="Inter, &quot;IBM Plex Sans&quot;, system-ui, sans-serif" font-size="9" font-weight="500" fill="#2A5FA4" letter-spacing="0.3">budget directives</text><rect x="360" y="302" width="305" height="16" fill="#E8F5F5" rx="3"/><text x="512" y="313" text-anchor="middle" font-family="Inter, &quot;IBM Plex Sans&quot;, system-ui, sans-serif" font-size="8.5" font-weight="500" fill="#2E8B8B" letter-spacing="0.3" opacity="0.8">Shared weights, differentiated by domain embedding</text><text x="165" y="247" text-anchor="middle" font-family="Inter, &quot;IBM Plex Sans&quot;, system-ui, sans-serif" font-size="12" font-weight="700" fill="#FFF">Soldier D1</text><text x="165" y="262" text-anchor="middle" font-family="Inter, &quot;IBM Plex Sans&quot;, system-ui, sans-serif" font-size="9.5" font-weight="500" fill="rgba(255,255,255,0.8)">Payment Processing</text><text x="118" y="279" text-anchor="middle" font-family="Inter, &quot;IBM Plex Sans&quot;, system-ui, sans-serif" font-size="7.5" font-weight="700" fill="#FFF">P0</text><text x="165" y="293" text-anchor="middle" font-family="Inter, &quot;IBM Plex Sans&quot;, system-ui, sans-serif" font-size="8.5" font-weight="400" fill="rgba(255,255,255,0.65)">10s tick  |  ~50-dim action</text><text x="352" y="247" text-anchor="middle" font-family="Inter, &quot;IBM Plex Sans&quot;, system-ui, sans-serif" font-size="12" font-weight="700" fill="#FFF">Soldier D2</text><text x="352" y="262" text-anchor="middle" font-family="Inter, &quot;IBM Plex Sans&quot;, system-ui, sans-serif" font-size="9.5" font-weight="500" fill="rgba(255,255,255,0.8)">Fraud &amp; Risk</text><text x="312" y="279" text-anchor="middle" font-family="Inter, &quot;IBM Plex Sans&quot;, system-ui, sans-serif" font-size="7.5" font-weight="700" fill="#FFF">P0/P1</text><text x="352" y="293" text-anchor="middle" font-family="Inter, &quot;IBM Plex Sans&quot;, system-ui, sans-serif" font-size="8.5" font-weight="400" fill="rgba(255,255,255,0.65)">10s tick  |  ~50-dim action</text><text x="540" y="247" text-anchor="middle" font-family="Inter, &quot;IBM Plex Sans&quot;, system-ui, sans-serif" font-size="12" font-weight="700" fill="#FFF">Soldier D3</text><text x="540" y="262" text-anchor="middle" font-family="Inter, &quot;IBM Plex Sans&quot;, system-ui, sans-serif" font-size="9.5" font-weight="500" fill="rgba(255,255,255,0.8)">Merchant Services</text><text x="492" y="279" text-anchor="middle" font-family="Inter, &quot;IBM Plex Sans&quot;, system-ui, sans-serif" font-size="7.5" font-weight="700" fill="#FFF">P1</text><text x="540" y="293" text-anchor="middle" font-family="Inter, &quot;IBM Plex Sans&quot;, system-ui, sans-serif" font-size="8.5" font-weight="400" fill="rgba(255,255,255,0.65)">10s tick  |  ~50-dim action</text><text x="726" y="247" text-anchor="middle" font-family="Inter, &quot;IBM Plex Sans&quot;, system-ui, sans-serif" font-size="12" font-weight="700" fill="#FFF">Soldier D4</text><text x="726" y="262" text-anchor="middle" font-family="Inter, &quot;IBM Plex Sans&quot;, system-ui, sans-serif" font-size="9.5" font-weight="500" fill="rgba(255,255,255,0.8)">Data Pipelines</text><text x="679" y="279" text-anchor="middle" font-family="Inter, &quot;IBM Plex Sans&quot;, system-ui, sans-serif" font-size="7.5" font-weight="700" fill="#FFF">P2</text><text x="726" y="293" text-anchor="middle" font-family="Inter, &quot;IBM Plex Sans&quot;, system-ui, sans-serif" font-size="8.5" font-weight="400" fill="rgba(255,255,255,0.65)">10s tick  |  ~50-dim action</text><text x="913" y="247" text-anchor="middle" font-family="Inter, &quot;IBM Plex Sans&quot;, system-ui, sans-serif" font-size="12" font-weight="700" fill="#FFF">Soldier D5</text><text x="913" y="262" text-anchor="middle" font-family="Inter, &quot;IBM Plex Sans&quot;, system-ui, sans-serif" font-size="9.5" font-weight="500" fill="rgba(255,255,255,0.8)">Internal Platform</text><text x="866" y="279" text-anchor="middle" font-family="Inter, &quot;IBM Plex Sans&quot;, system-ui, sans-serif" font-size="7.5" font-weight="700" fill="#FFF">P3</text><text x="913" y="293" text-anchor="middle" font-family="Inter, &quot;IBM Plex Sans&quot;, system-ui, sans-serif" font-size="8.5" font-weight="400" fill="rgba(255,255,255,0.65)">10s tick  |  ~50-dim action</text><text x="178" y="368" text-anchor="start" font-family="Inter, &quot;IBM Plex Sans&quot;, system-ui, sans-serif" font-size="7.5" font-weight="400" fill="#2E8B8B" opacity="0.7">replica Δ</text><text x="365" y="368" text-anchor="start" font-family="Inter, &quot;IBM Plex Sans&quot;, system-ui, sans-serif" font-size="7.5" font-weight="400" fill="#2E8B8B" opacity="0.7">replica Δ</text><text x="553" y="368" text-anchor="start" font-family="Inter, &quot;IBM Plex Sans&quot;, system-ui, sans-serif" font-size="7.5" font-weight="400" fill="#2E8B8B" opacity="0.7">replica Δ</text><text x="739" y="368" text-anchor="start" font-family="Inter, &quot;IBM Plex Sans&quot;, system-ui, sans-serif" font-size="7.5" font-weight="400" fill="#2E8B8B" opacity="0.7">replica Δ</text><text x="926" y="368" text-anchor="start" font-family="Inter, &quot;IBM Plex Sans&quot;, system-ui, sans-serif" font-size="7.5" font-weight="400" fill="#2E8B8B" opacity="0.7">replica Δ</text><text x="550" y="425" text-anchor="middle" font-family="Inter, &quot;IBM Plex Sans&quot;, system-ui, sans-serif" font-size="9" font-weight="600" fill="#999" letter-spacing="0.8">KUBERNETES DEPLOYMENTS</text><text x="165" y="449" text-anchor="middle" font-family="Inter, &quot;IBM Plex Sans&quot;, system-ui, sans-serif" font-size="8.5" font-weight="600" fill="#666">~500 apps</text><text x="157" y="504" text-anchor="start" font-family="Inter, &quot;IBM Plex Sans&quot;, system-ui, sans-serif" font-size="7" font-weight="400" fill="#999">...</text><text x="352" y="449" text-anchor="middle" font-family="Inter, &quot;IBM Plex Sans&quot;, system-ui, sans-serif" font-size="8.5" font-weight="600" fill="#666">~300 apps</text><text x="344" y="490" text-anchor="start" font-family="Inter, &quot;IBM Plex Sans&quot;, system-ui, sans-serif" font-size="7" font-weight="400" fill="#999">...</text><text x="540" y="449" text-anchor="middle" font-family="Inter, &quot;IBM Plex Sans&quot;, system-ui, sans-serif" font-size="8.5" font-weight="600" fill="#666">~400 apps</text><text x="532" y="504" text-anchor="start" font-family="Inter, &quot;IBM Plex Sans&quot;, system-ui, sans-serif" font-size="7" font-weight="400" fill="#999">...</text><text x="726" y="449" text-anchor="middle" font-family="Inter, &quot;IBM Plex Sans&quot;, system-ui, sans-serif" font-size="8.5" font-weight="600" fill="#666">~200 apps</text><text x="718" y="490" text-anchor="start" font-family="Inter, &quot;IBM Plex Sans&quot;, system-ui, sans-serif" font-size="7" font-weight="400" fill="#999">...</text><text x="913" y="449" text-anchor="middle" font-family="Inter, &quot;IBM Plex Sans&quot;, system-ui, sans-serif" font-size="8.5" font-weight="600" fill="#666">~150 apps</text><text x="905" y="490" text-anchor="start" font-family="Inter, &quot;IBM Plex Sans&quot;, system-ui, sans-serif" font-size="7" font-weight="400" fill="#999">...</text><text x="1030" y="36" text-anchor="end" font-family="Inter, &quot;IBM Plex Sans&quot;, system-ui, sans-serif" font-size="9" font-weight="600" fill="#2A5FA4" letter-spacing="0.5" opacity="0.6">STRATEGIC LAYER</text><text x="1030" y="222" text-anchor="end" font-family="Inter, &quot;IBM Plex Sans&quot;, system-ui, sans-serif" font-size="9" font-weight="600" fill="#2E8B8B" letter-spacing="0.5" opacity="0.6">EXECUTION LAYER</text><text x="1030" y="418" text-anchor="end" font-family="Inter, &quot;IBM Plex Sans&quot;, system-ui, sans-serif" font-size="9" font-weight="600" fill="#999" letter-spacing="0.5" opacity="0.6">APPLICATION LAYER</text><text x="550" y="572" text-anchor="middle" font-family="Inter, &quot;IBM Plex Sans&quot;, system-ui, sans-serif" font-size="10" font-weight="500" fill="#999">Commander decides how much budget each domain gets; Soldiers decide how to spend it across their apps</text><text x="550" y="589" text-anchor="middle" font-family="Inter, &quot;IBM Plex Sans&quot;, system-ui, sans-serif" font-size="9" font-weight="400" fill="#BBB">~1,550 total applications  |  5 domains  |  Two-level temporal abstraction (60s / 10s)</text></g></svg>