<?xml version="1.0" encoding="UTF-8"?>
<svg xmlns="http://www.w3.org/2000/svg" width="1120" height="520" viewBox="-10 -10 1120 520"><defs><filter id="shadow" x="-4%" y="-4%" width="112%" height="112%"><feFlood flood-color="#000000" flood-opacity="0.08" result="color"/><feComposite in="color" in2="SourceGraphic" operator="in" result="shadow"/><feGaussianBlur in="shadow" stdDeviation="3" result="blur"/><feOffset in="blur" dx="2" dy="3" result="offsetBlur"/><feMerge><feMergeNode in="offsetBlur"/><feMergeNode in="SourceGraphic"/></feMerge></filter><filter id="shadow-light" x="-4%" y="-4%" width="112%" height="112%"><feFlood flood-color="#000000" flood-opacity="0.04" result="color"/><feComposite in="color" in2="SourceGraphic" operator="in" result="shadow"/><feGaussianBlur in="shadow" stdDeviation="2" result="blur"/><feOffset in="blur" dx="1" dy="2" result="offsetBlur"/><feMerge><feMergeNode in="offsetBlur"/><feMergeNode in="SourceGraphic"/></feMerge></filter><marker id="arrowBlue" markerWidth="8" markerHeight="8" refX="7" refY="4" orient="auto"><path d="M0,0 L8,4 L0,8 Z" fill="#3B7DD8"/></marker></defs><rect x="-10" y="-10" width="1120" height="520" fill="#ffffff" rx="8"/><g id="layer-zones"><rect x="20" y="50" width="330" height="440" fill="#FBEAE5" rx="12" ry="12"/><rect x="370" y="50" width="330" height="440" fill="#FBEAE5" rx="12" ry="12"/><rect x="720" y="50" width="360" height="440" fill="#F0FFF0" rx="12" ry="12"/></g><g id="layer-connectors"><line x1="185" y1="205" x2="185" y2="240" stroke="#3B7DD8" stroke-width="1.5" stroke-dasharray="4,3"/><line x1="185" y1="240" x2="42" y2="275" stroke="#3B7DD8" stroke-width="1" opacity="0.5"/><line x1="185" y1="240" x2="90" y2="275" stroke="#3B7DD8" stroke-width="1" opacity="0.5"/><line x1="185" y1="240" x2="138" y2="275" stroke="#3B7DD8" stroke-width="1" opacity="0.5"/><line x1="185" y1="240" x2="185" y2="275" stroke="#3B7DD8" stroke-width="1" opacity="0.5"/><line x1="185" y1="240" x2="232" y2="275" stroke="#3B7DD8" stroke-width="1" opacity="0.5"/><line x1="185" y1="240" x2="280" y2="275" stroke="#3B7DD8" stroke-width="1" opacity="0.5"/><line x1="185" y1="240" x2="328" y2="275" stroke="#3B7DD8" stroke-width="1" opacity="0.5"/><g stroke="#3B7DD8" stroke-width="0.8" opacity="0.4"><line x1="408" y1="232" x2="408" y2="275"/><line x1="443" y1="232" x2="443" y2="275"/><line x1="478" y1="232" x2="478" y2="275"/><line x1="513" y1="232" x2="513" y2="275"/><line x1="548" y1="232" x2="548" y2="275"/><line x1="583" y1="232" x2="583" y2="275"/><line x1="618" y1="232" x2="618" y2="275"/><line x1="653" y1="232" x2="653" y2="275"/></g><g stroke="#3B7DD8" stroke-width="1.5" fill="none" marker-end="url(#arrowBlue)"><line x1="846" y1="190" x2="770" y2="245"/><line x1="870" y1="190" x2="836" y2="245"/><line x1="900" y1="190" x2="900" y2="245"/><line x1="930" y1="190" x2="968" y2="245"/><line x1="954" y1="190" x2="1034" y2="245"/></g><g stroke="#326CE5" stroke-width="1" opacity="0.4" stroke-dasharray="3,2"><line x1="758" y1="284" x2="742" y2="318"/><line x1="764" y1="284" x2="758" y2="318"/><line x1="770" y1="284" x2="774" y2="318"/><line x1="776" y1="284" x2="790" y2="318"/><line x1="824" y1="284" x2="808" y2="318"/><line x1="830" y1="284" x2="824" y2="318"/><line x1="836" y1="284" x2="840" y2="318"/><line x1="842" y1="284" x2="856" y2="318"/><line x1="888" y1="284" x2="872" y2="318"/><line x1="894" y1="284" x2="888" y2="318"/><line x1="900" y1="284" x2="904" y2="318"/><line x1="906" y1="284" x2="920" y2="318"/><line x1="956" y1="284" x2="940" y2="318"/><line x1="962" y1="284" x2="956" y2="318"/><line x1="968" y1="284" x2="972" y2="318"/><line x1="974" y1="284" x2="988" y2="318"/><line x1="1022" y1="284" x2="1006" y2="318"/><line x1="1028" y1="284" x2="1022" y2="318"/><line x1="1034" y1="284" x2="1038" y2="318"/><line x1="1040" y1="284" x2="1054" y2="318"/></g></g><g id="layer-boxes"><circle cx="185" cy="118" r="12" fill="#D4644B"/><g filter="url(#shadow)"><rect x="95" y="145" width="180" height="60" fill="#E3EDFA" stroke="#3B7DD8" stroke-width="1.5" rx="8"/></g><rect x="35" y="275" width="300" height="30" fill="#EDF0F6" stroke="#999" stroke-width="0.5" rx="4"/><g opacity="0.6"><rect x="39" y="278" width="4" height="10" fill="#3B7DD8" rx="0.5"/><rect x="44" y="278" width="4" height="10" fill="#3B7DD8" rx="0.5"/><rect x="49" y="278" width="4" height="10" fill="#3B7DD8" rx="0.5"/><rect x="54" y="278" width="4" height="10" fill="#3B7DD8" rx="0.5"/><rect x="59" y="278" width="4" height="10" fill="#3B7DD8" rx="0.5"/><rect x="64" y="278" width="4" height="10" fill="#3B7DD8" rx="0.5"/><rect x="69" y="278" width="4" height="10" fill="#3B7DD8" rx="0.5"/><rect x="74" y="278" width="4" height="10" fill="#3B7DD8" rx="0.5"/><rect x="79" y="278" width="4" height="10" fill="#3B7DD8" rx="0.5"/><rect x="84" y="278" width="4" height="10" fill="#3B7DD8" rx="0.5"/><rect x="89" y="278" width="4" height="10" fill="#3B7DD8" rx="0.5"/><rect x="94" y="278" width="4" height="10" fill="#3B7DD8" rx="0.5"/><rect x="99" y="278" width="4" height="10" fill="#3B7DD8" rx="0.5"/><rect x="104" y="278" width="4" height="10" fill="#3B7DD8" rx="0.5"/><rect x="109" y="278" width="4" height="10" fill="#3B7DD8" rx="0.5"/><rect x="114" y="278" width="4" height="10" fill="#3B7DD8" rx="0.5"/><rect x="119" y="278" width="4" height="10" fill="#3B7DD8" rx="0.5"/><rect x="124" y="278" width="4" height="10" fill="#3B7DD8" rx="0.5"/><rect x="129" y="278" width="4" height="10" fill="#3B7DD8" rx="0.5"/><rect x="134" y="278" width="4" height="10" fill="#3B7DD8" rx="0.5"/><rect x="139" y="278" width="4" height="10" fill="#3B7DD8" rx="0.5"/><rect x="144" y="278" width="4" height="10" fill="#3B7DD8" rx="0.5"/><rect x="149" y="278" width="4" height="10" fill="#3B7DD8" rx="0.5"/><rect x="154" y="278" width="4" height="10" fill="#3B7DD8" rx="0.5"/><rect x="159" y="278" width="4" height="10" fill="#3B7DD8" rx="0.5"/><rect x="164" y="278" width="4" height="10" fill="#3B7DD8" rx="0.5"/><rect x="169" y="278" width="4" height="10" fill="#3B7DD8" rx="0.5"/><rect x="174" y="278" width="4" height="10" fill="#3B7DD8" rx="0.5"/><rect x="179" y="278" width="4" height="10" fill="#3B7DD8" rx="0.5"/><rect x="184" y="278" width="4" height="10" fill="#3B7DD8" rx="0.5"/><rect x="189" y="278" width="4" height="10" fill="#3B7DD8" rx="0.5"/><rect x="194" y="278" width="4" height="10" fill="#3B7DD8" rx="0.5"/><rect x="199" y="278" width="4" height="10" fill="#3B7DD8" rx="0.5"/><rect x="204" y="278" width="4" height="10" fill="#3B7DD8" rx="0.5"/><rect x="209" y="278" width="4" height="10" fill="#3B7DD8" rx="0.5"/><rect x="214" y="278" width="4" height="10" fill="#3B7DD8" rx="0.5"/><rect x="219" y="278" width="4" height="10" fill="#3B7DD8" rx="0.5"/><rect x="224" y="278" width="4" height="10" fill="#3B7DD8" rx="0.5"/><rect x="229" y="278" width="4" height="10" fill="#3B7DD8" rx="0.5"/><rect x="234" y="278" width="4" height="10" fill="#3B7DD8" rx="0.5"/><rect x="239" y="278" width="4" height="10" fill="#3B7DD8" rx="0.5"/><rect x="244" y="278" width="4" height="10" fill="#3B7DD8" rx="0.5"/><rect x="249" y="278" width="4" height="10" fill="#3B7DD8" rx="0.5"/><rect x="254" y="278" width="4" height="10" fill="#3B7DD8" rx="0.5"/><rect x="259" y="278" width="4" height="10" fill="#3B7DD8" rx="0.5"/><rect x="264" y="278" width="4" height="10" fill="#3B7DD8" rx="0.5"/><rect x="269" y="278" width="4" height="10" fill="#3B7DD8" rx="0.5"/><rect x="274" y="278" width="4" height="10" fill="#3B7DD8" rx="0.5"/><rect x="279" y="278" width="4" height="10" fill="#3B7DD8" rx="0.5"/><rect x="284" y="278" width="4" height="10" fill="#3B7DD8" rx="0.5"/><rect x="289" y="278" width="4" height="10" fill="#3B7DD8" rx="0.5"/><rect x="294" y="278" width="4" height="10" fill="#3B7DD8" rx="0.5"/><rect x="299" y="278" width="4" height="10" fill="#3B7DD8" rx="0.5"/><rect x="304" y="278" width="4" height="10" fill="#3B7DD8" rx="0.5"/><rect x="309" y="278" width="4" height="10" fill="#3B7DD8" rx="0.5"/><rect x="314" y="278" width="4" height="10" fill="#3B7DD8" rx="0.5"/><rect x="319" y="278" width="4" height="10" fill="#3B7DD8" rx="0.5"/><rect x="324" y="278" width="4" height="10" fill="#3B7DD8" rx="0.5"/><rect x="329" y="278" width="4" height="10" fill="#3B7DD8" rx="0.5"/><rect x="39" y="291" width="4" height="10" fill="#326CE5" rx="0.5"/><rect x="44" y="291" width="4" height="10" fill="#326CE5" rx="0.5"/><rect x="49" y="291" width="4" height="10" fill="#326CE5" rx="0.5"/><rect x="54" y="291" width="4" height="10" fill="#326CE5" rx="0.5"/><rect x="59" y="291" width="4" height="10" fill="#326CE5" rx="0.5"/><rect x="64" y="291" width="4" height="10" fill="#326CE5" rx="0.5"/><rect x="69" y="291" width="4" height="10" fill="#326CE5" rx="0.5"/><rect x="74" y="291" width="4" height="10" fill="#326CE5" rx="0.5"/><rect x="79" y="291" width="4" height="10" fill="#326CE5" rx="0.5"/><rect x="84" y="291" width="4" height="10" fill="#326CE5" rx="0.5"/><rect x="89" y="291" width="4" height="10" fill="#326CE5" rx="0.5"/><rect x="94" y="291" width="4" height="10" fill="#326CE5" rx="0.5"/><rect x="99" y="291" width="4" height="10" fill="#326CE5" rx="0.5"/><rect x="104" y="291" width="4" height="10" fill="#326CE5" rx="0.5"/><rect x="109" y="291" width="4" height="10" fill="#326CE5" rx="0.5"/><rect x="114" y="291" width="4" height="10" fill="#326CE5" rx="0.5"/><rect x="119" y="291" width="4" height="10" fill="#326CE5" rx="0.5"/><rect x="124" y="291" width="4" height="10" fill="#326CE5" rx="0.5"/><rect x="129" y="291" width="4" height="10" fill="#326CE5" rx="0.5"/><rect x="134" y="291" width="4" height="10" fill="#326CE5" rx="0.5"/><rect x="139" y="291" width="4" height="10" fill="#326CE5" rx="0.5"/><rect x="144" y="291" width="4" height="10" fill="#326CE5" rx="0.5"/><rect x="149" y="291" width="4" height="10" fill="#326CE5" rx="0.5"/><rect x="154" y="291" width="4" height="10" fill="#326CE5" rx="0.5"/><rect x="159" y="291" width="4" height="10" fill="#326CE5" rx="0.5"/><rect x="164" y="291" width="4" height="10" fill="#326CE5" rx="0.5"/><rect x="169" y="291" width="4" height="10" fill="#326CE5" rx="0.5"/><rect x="174" y="291" width="4" height="10" fill="#326CE5" rx="0.5"/><rect x="179" y="291" width="4" height="10" fill="#326CE5" rx="0.5"/><rect x="184" y="291" width="4" height="10" fill="#326CE5" rx="0.5"/><rect x="189" y="291" width="4" height="10" fill="#326CE5" rx="0.5"/><rect x="194" y="291" width="4" height="10" fill="#326CE5" rx="0.5"/><rect x="199" y="291" width="4" height="10" fill="#326CE5" rx="0.5"/><rect x="204" y="291" width="4" height="10" fill="#326CE5" rx="0.5"/><rect x="209" y="291" width="4" height="10" fill="#326CE5" rx="0.5"/><rect x="214" y="291" width="4" height="10" fill="#326CE5" rx="0.5"/><rect x="219" y="291" width="4" height="10" fill="#326CE5" rx="0.5"/><rect x="224" y="291" width="4" height="10" fill="#326CE5" rx="0.5"/><rect x="229" y="291" width="4" height="10" fill="#326CE5" rx="0.5"/><rect x="234" y="291" width="4" height="10" fill="#326CE5" rx="0.5"/><rect x="239" y="291" width="4" height="10" fill="#326CE5" rx="0.5"/><rect x="244" y="291" width="4" height="10" fill="#326CE5" rx="0.5"/><rect x="249" y="291" width="4" height="10" fill="#326CE5" rx="0.5"/><rect x="254" y="291" width="4" height="10" fill="#326CE5" rx="0.5"/><rect x="259" y="291" width="4" height="10" fill="#326CE5" rx="0.5"/><rect x="264" y="291" width="4" height="10" fill="#326CE5" rx="0.5"/><rect x="269" y="291" width="4" height="10" fill="#326CE5" rx="0.5"/><rect x="274" y="291" width="4" height="10" fill="#326CE5" rx="0.5"/><rect x="279" y="291" width="4" height="10" fill="#326CE5" rx="0.5"/><rect x="284" y="291" width="4" height="10" fill="#326CE5" rx="0.5"/><rect x="289" y="291" width="4" height="10" fill="#326CE5" rx="0.5"/><rect x="294" y="291" width="4" height="10" fill="#326CE5" rx="0.5"/><rect x="299" y="291" width="4" height="10" fill="#326CE5" rx="0.5"/><rect x="304" y="291" width="4" height="10" fill="#326CE5" rx="0.5"/><rect x="309" y="291" width="4" height="10" fill="#326CE5" rx="0.5"/><rect x="314" y="291" width="4" height="10" fill="#326CE5" rx="0.5"/><rect x="319" y="291" width="4" height="10" fill="#326CE5" rx="0.5"/><rect x="324" y="291" width="4" height="10" fill="#326CE5" rx="0.5"/><rect x="329" y="291" width="4" height="10" fill="#326CE5" rx="0.5"/></g><g filter="url(#shadow-light)"><rect x="62" y="345" width="246" height="22" fill="#fff" stroke="#D4644B" stroke-width="1" rx="4" opacity="0.9"/></g><g filter="url(#shadow-light)"><rect x="72" y="375" width="226" height="22" fill="#fff" stroke="#D4644B" stroke-width="1" rx="4" opacity="0.9"/></g><rect x="42" y="420" width="286" height="30" fill="#D4644B" rx="6" opacity="0.1"/><circle cx="535" cy="118" r="12" fill="#D4644B"/><g filter="url(#shadow-light)"><rect x="393" y="148" width="30" height="24" fill="#E3EDFA" stroke="#3B7DD8" stroke-width="1" rx="3"/><rect x="428" y="148" width="30" height="24" fill="#E3EDFA" stroke="#3B7DD8" stroke-width="1" rx="3"/><rect x="463" y="148" width="30" height="24" fill="#E3EDFA" stroke="#3B7DD8" stroke-width="1" rx="3"/><rect x="498" y="148" width="30" height="24" fill="#E3EDFA" stroke="#3B7DD8" stroke-width="1" rx="3"/><rect x="533" y="148" width="30" height="24" fill="#E3EDFA" stroke="#3B7DD8" stroke-width="1" rx="3"/><rect x="568" y="148" width="30" height="24" fill="#E3EDFA" stroke="#3B7DD8" stroke-width="1" rx="3"/><rect x="603" y="148" width="30" height="24" fill="#E3EDFA" stroke="#3B7DD8" stroke-width="1" rx="3"/><rect x="638" y="148" width="30" height="24" fill="#E3EDFA" stroke="#3B7DD8" stroke-width="1" rx="3"/></g><g filter="url(#shadow-light)"><rect x="393" y="178" width="30" height="24" fill="#E3EDFA" stroke="#3B7DD8" stroke-width="1" rx="3"/><rect x="428" y="178" width="30" height="24" fill="#E3EDFA" stroke="#3B7DD8" stroke-width="1" rx="3"/><rect x="463" y="178" width="30" height="24" fill="#E3EDFA" stroke="#3B7DD8" stroke-width="1" rx="3"/><rect x="498" y="178" width="30" height="24" fill="#E3EDFA" stroke="#3B7DD8" stroke-width="1" rx="3"/><rect x="533" y="178" width="30" height="24" fill="#E3EDFA" stroke="#3B7DD8" stroke-width="1" rx="3"/><rect x="568" y="178" width="30" height="24" fill="#E3EDFA" stroke="#3B7DD8" stroke-width="1" rx="3"/><rect x="603" y="178" width="30" height="24" fill="#E3EDFA" stroke="#3B7DD8" stroke-width="1" rx="3"/><rect x="638" y="178" width="30" height="24" fill="#E3EDFA" stroke="#3B7DD8" stroke-width="1" rx="3"/></g><g filter="url(#shadow-light)"><rect x="393" y="208" width="30" height="24" fill="#E3EDFA" stroke="#3B7DD8" stroke-width="1" rx="3"/><rect x="428" y="208" width="30" height="24" fill="#E3EDFA" stroke="#3B7DD8" stroke-width="1" rx="3"/><rect x="463" y="208" width="30" height="24" fill="#E3EDFA" stroke="#3B7DD8" stroke-width="1" rx="3"/><rect x="498" y="208" width="30" height="24" fill="#E3EDFA" stroke="#3B7DD8" stroke-width="1" rx="3"/><rect x="533" y="208" width="30" height="24" fill="#E3EDFA" stroke="#3B7DD8" stroke-width="1" rx="3"/><rect x="568" y="208" width="30" height="24" fill="#E3EDFA" stroke="#3B7DD8" stroke-width="1" rx="3"/><rect x="603" y="208" width="30" height="24" fill="#E3EDFA" stroke="#3B7DD8" stroke-width="1" rx="3"/><rect x="638" y="208" width="30" height="24" fill="#E3EDFA" stroke="#3B7DD8" stroke-width="1" rx="3"/></g><g opacity="0.6"><rect x="398" y="275" width="20" height="14" fill="#326CE5" rx="2"/><rect x="433" y="275" width="20" height="14" fill="#326CE5" rx="2"/><rect x="468" y="275" width="20" height="14" fill="#326CE5" rx="2"/><rect x="503" y="275" width="20" height="14" fill="#326CE5" rx="2"/><rect x="538" y="275" width="20" height="14" fill="#326CE5" rx="2"/><rect x="573" y="275" width="20" height="14" fill="#326CE5" rx="2"/><rect x="608" y="275" width="20" height="14" fill="#326CE5" rx="2"/><rect x="643" y="275" width="20" height="14" fill="#326CE5" rx="2"/></g><g filter="url(#shadow-light)"><rect x="412" y="330" width="246" height="22" fill="#fff" stroke="#999" stroke-width="1" rx="4" opacity="0.9"/></g><g filter="url(#shadow-light)"><rect x="412" y="362" width="246" height="22" fill="#fff" stroke="#D4644B" stroke-width="1" rx="4" opacity="0.9"/></g><rect x="392" y="420" width="286" height="30" fill="#D4644B" rx="6" opacity="0.1"/><circle cx="900" cy="118" r="12" fill="#4CAF50"/><g filter="url(#shadow)"><rect x="825" y="142" width="150" height="48" fill="#E3EDFA" stroke="#3B7DD8" stroke-width="1.5" rx="8"/></g><g filter="url(#shadow)"><rect x="742" y="248" width="56" height="36" fill="#E3EDFA" stroke="#326CE5" stroke-width="1.5" rx="6"/><rect x="808" y="248" width="56" height="36" fill="#E3EDFA" stroke="#326CE5" stroke-width="1.5" rx="6"/><rect x="874" y="248" width="56" height="36" fill="#E3EDFA" stroke="#326CE5" stroke-width="1.5" rx="6"/><rect x="940" y="248" width="56" height="36" fill="#E3EDFA" stroke="#326CE5" stroke-width="1.5" rx="6"/><rect x="1006" y="248" width="56" height="36" fill="#E3EDFA" stroke="#326CE5" stroke-width="1.5" rx="6"/></g><g opacity="0.6"><rect x="737" y="318" width="10" height="10" fill="#3B7DD8" rx="1.5"/><rect x="750" y="318" width="10" height="10" fill="#3B7DD8" rx="1.5"/><rect x="763" y="318" width="10" height="10" fill="#3B7DD8" rx="1.5"/><rect x="776" y="318" width="10" height="10" fill="#3B7DD8" rx="1.5"/><rect x="737" y="331" width="10" height="10" fill="#3B7DD8" rx="1.5"/><rect x="750" y="331" width="10" height="10" fill="#3B7DD8" rx="1.5"/><rect x="763" y="331" width="10" height="10" fill="#3B7DD8" rx="1.5"/><rect x="776" y="331" width="10" height="10" fill="#3B7DD8" rx="1.5"/><rect x="803" y="318" width="10" height="10" fill="#326CE5" rx="1.5"/><rect x="816" y="318" width="10" height="10" fill="#326CE5" rx="1.5"/><rect x="829" y="318" width="10" height="10" fill="#326CE5" rx="1.5"/><rect x="842" y="318" width="10" height="10" fill="#326CE5" rx="1.5"/><rect x="803" y="331" width="10" height="10" fill="#326CE5" rx="1.5"/><rect x="816" y="331" width="10" height="10" fill="#326CE5" rx="1.5"/><rect x="829" y="331" width="10" height="10" fill="#326CE5" rx="1.5"/><rect x="842" y="331" width="10" height="10" fill="#326CE5" rx="1.5"/><rect x="869" y="318" width="10" height="10" fill="#3B7DD8" rx="1.5"/><rect x="882" y="318" width="10" height="10" fill="#3B7DD8" rx="1.5"/><rect x="895" y="318" width="10" height="10" fill="#3B7DD8" rx="1.5"/><rect x="908" y="318" width="10" height="10" fill="#3B7DD8" rx="1.5"/><rect x="869" y="331" width="10" height="10" fill="#3B7DD8" rx="1.5"/><rect x="882" y="331" width="10" height="10" fill="#3B7DD8" rx="1.5"/><rect x="895" y="331" width="10" height="10" fill="#3B7DD8" rx="1.5"/><rect x="908" y="331" width="10" height="10" fill="#3B7DD8" rx="1.5"/><rect x="935" y="318" width="10" height="10" fill="#326CE5" rx="1.5"/><rect x="948" y="318" width="10" height="10" fill="#326CE5" rx="1.5"/><rect x="961" y="318" width="10" height="10" fill="#326CE5" rx="1.5"/><rect x="974" y="318" width="10" height="10" fill="#326CE5" rx="1.5"/><rect x="935" y="331" width="10" height="10" fill="#326CE5" rx="1.5"/><rect x="948" y="331" width="10" height="10" fill="#326CE5" rx="1.5"/><rect x="961" y="331" width="10" height="10" fill="#326CE5" rx="1.5"/><rect x="974" y="331" width="10" height="10" fill="#326CE5" rx="1.5"/><rect x="1001" y="318" width="10" height="10" fill="#3B7DD8" rx="1.5"/><rect x="1014" y="318" width="10" height="10" fill="#3B7DD8" rx="1.5"/><rect x="1027" y="318" width="10" height="10" fill="#3B7DD8" rx="1.5"/><rect x="1040" y="318" width="10" height="10" fill="#3B7DD8" rx="1.5"/><rect x="1001" y="331" width="10" height="10" fill="#3B7DD8" rx="1.5"/><rect x="1014" y="331" width="10" height="10" fill="#3B7DD8" rx="1.5"/><rect x="1027" y="331" width="10" height="10" fill="#3B7DD8" rx="1.5"/><rect x="1040" y="331" width="10" height="10" fill="#3B7DD8" rx="1.5"/></g><g filter="url(#shadow-light)"><rect x="773" y="372" width="254" height="22" fill="#fff" stroke="#4CAF50" stroke-width="1" rx="4" opacity="0.9"/></g><g filter="url(#shadow-light)"><rect x="775" y="402" width="250" height="22" fill="#fff" stroke="#4CAF50" stroke-width="1" rx="4" opacity="0.9"/></g><rect x="762" y="420" width="276" height="30" fill="#4CAF50" rx="6" opacity="0.1"/></g><g id="layer-text"><text x="550" y="30" text-anchor="middle" font-family="Inter, &quot;IBM Plex Sans&quot;, system-ui, sans-serif" font-size="14" font-weight="700" fill="#333" letter-spacing="0.5">THREE DESIGN OPTIONS FOR RL-BASED AUTOSCALING</text><text x="185" y="76" text-anchor="middle" font-family="Inter, &quot;IBM Plex Sans&quot;, system-ui, sans-serif" font-size="12" font-weight="700" fill="#D4644B" letter-spacing="0.8">OPTION A</text><text x="185" y="94" text-anchor="middle" font-family="Inter, &quot;IBM Plex Sans&quot;, system-ui, sans-serif" font-size="13" font-weight="700" fill="#333">"One Big Agent"</text><text x="185" y="123" text-anchor="middle" font-family="Inter, &quot;IBM Plex Sans&quot;, system-ui, sans-serif" font-size="14" font-weight="700" fill="#fff">✗</text><text x="185" y="172" text-anchor="middle" font-family="Inter, &quot;IBM Plex Sans&quot;, system-ui, sans-serif" font-size="13" font-weight="700" fill="#3B7DD8">Single Agent</text><text x="185" y="192" text-anchor="middle" font-family="Inter, &quot;IBM Plex Sans&quot;, system-ui, sans-serif" font-size="9" font-weight="400" fill="#666">(one monolithic policy)</text><text x="185" y="323" text-anchor="middle" font-family="Inter, &quot;IBM Plex Sans&quot;, system-ui, sans-serif" font-size="9" font-weight="600" fill="#999">1,500 services</text><text x="185" y="360" text-anchor="middle" font-family="Inter, &quot;IBM Plex Sans&quot;, system-ui, sans-serif" font-size="10" font-weight="600" fill="#D4644B">30,000-dim observation space</text><text x="185" y="390" text-anchor="middle" font-family="Inter, &quot;IBM Plex Sans&quot;, system-ui, sans-serif" font-size="10" font-weight="600" fill="#D4644B">1,500-dim action space</text><text x="185" y="440" text-anchor="middle" font-family="Inter, &quot;IBM Plex Sans&quot;, system-ui, sans-serif" font-size="11" font-weight="700" fill="#D4644B">Intractable credit assignment</text><text x="535" y="76" text-anchor="middle" font-family="Inter, &quot;IBM Plex Sans&quot;, system-ui, sans-serif" font-size="12" font-weight="700" fill="#D4644B" letter-spacing="0.8">OPTION B</text><text x="535" y="94" text-anchor="middle" font-family="Inter, &quot;IBM Plex Sans&quot;, system-ui, sans-serif" font-size="13" font-weight="700" fill="#333">"1,500 Independent Agents"</text><text x="535" y="123" text-anchor="middle" font-family="Inter, &quot;IBM Plex Sans&quot;, system-ui, sans-serif" font-size="14" font-weight="700" fill="#fff">✗</text><text x="408" y="164" text-anchor="middle" font-family="Inter, &quot;IBM Plex Sans&quot;, system-ui, sans-serif" font-size="8" font-weight="600" fill="#3B7DD8">A</text><text x="443" y="164" text-anchor="middle" font-family="Inter, &quot;IBM Plex Sans&quot;, system-ui, sans-serif" font-size="8" font-weight="600" fill="#3B7DD8">A</text><text x="478" y="164" text-anchor="middle" font-family="Inter, &quot;IBM Plex Sans&quot;, system-ui, sans-serif" font-size="8" font-weight="600" fill="#3B7DD8">A</text><text x="513" y="164" text-anchor="middle" font-family="Inter, &quot;IBM Plex Sans&quot;, system-ui, sans-serif" font-size="8" font-weight="600" fill="#3B7DD8">A</text><text x="548" y="164" text-anchor="middle" font-family="Inter, &quot;IBM Plex Sans&quot;, system-ui, sans-serif" font-size="8" font-weight="600" fill="#3B7DD8">A</text><text x="583" y="164" text-anchor="middle" font-family="Inter, &quot;IBM Plex Sans&quot;, system-ui, sans-serif" font-size="8" font-weight="600" fill="#3B7DD8">A</text><text x="618" y="164" text-anchor="middle" font-family="Inter, &quot;IBM Plex Sans&quot;, system-ui, sans-serif" font-size="8" font-weight="600" fill="#3B7DD8">A</text><text x="653" y="164" text-anchor="middle" font-family="Inter, &quot;IBM Plex Sans&quot;, system-ui, sans-serif" font-size="8" font-weight="600" fill="#3B7DD8">A</text><text x="408" y="194" text-anchor="middle" font-family="Inter, &quot;IBM Plex Sans&quot;, system-ui, sans-serif" font-size="8" font-weight="600" fill="#3B7DD8">A</text><text x="443" y="194" text-anchor="middle" font-family="Inter, &quot;IBM Plex Sans&quot;, system-ui, sans-serif" font-size="8" font-weight="600" fill="#3B7DD8">A</text><text x="478" y="194" text-anchor="middle" font-family="Inter, &quot;IBM Plex Sans&quot;, system-ui, sans-serif" font-size="8" font-weight="600" fill="#3B7DD8">A</text><text x="513" y="194" text-anchor="middle" font-family="Inter, &quot;IBM Plex Sans&quot;, system-ui, sans-serif" font-size="8" font-weight="600" fill="#3B7DD8">A</text><text x="548" y="194" text-anchor="middle" font-family="Inter, &quot;IBM Plex Sans&quot;, system-ui, sans-serif" font-size="8" font-weight="600" fill="#3B7DD8">A</text><text x="583" y="194" text-anchor="middle" font-family="Inter, &quot;IBM Plex Sans&quot;, system-ui, sans-serif" font-size="8" font-weight="600" fill="#3B7DD8">A</text><text x="618" y="194" text-anchor="middle" font-family="Inter, &quot;IBM Plex Sans&quot;, system-ui, sans-serif" font-size="8" font-weight="600" fill="#3B7DD8">A</text><text x="653" y="194" text-anchor="middle" font-family="Inter, &quot;IBM Plex Sans&quot;, system-ui, sans-serif" font-size="8" font-weight="600" fill="#3B7DD8">A</text><text x="408" y="224" text-anchor="middle" font-family="Inter, &quot;IBM Plex Sans&quot;, system-ui, sans-serif" font-size="8" font-weight="600" fill="#3B7DD8">A</text><text x="443" y="224" text-anchor="middle" font-family="Inter, &quot;IBM Plex Sans&quot;, system-ui, sans-serif" font-size="8" font-weight="600" fill="#3B7DD8">A</text><text x="478" y="224" text-anchor="middle" font-family="Inter, &quot;IBM Plex Sans&quot;, system-ui, sans-serif" font-size="8" font-weight="600" fill="#3B7DD8">A</text><text x="513" y="224" text-anchor="middle" font-family="Inter, &quot;IBM Plex Sans&quot;, system-ui, sans-serif" font-size="8" font-weight="600" fill="#3B7DD8">A</text><text x="548" y="224" text-anchor="middle" font-family="Inter, &quot;IBM Plex Sans&quot;, system-ui, sans-serif" font-size="8" font-weight="600" fill="#3B7DD8">A</text><text x="583" y="224" text-anchor="middle" font-family="Inter, &quot;IBM Plex Sans&quot;, system-ui, sans-serif" font-size="8" font-weight="600" fill="#3B7DD8">A</text><text x="618" y="224" text-anchor="middle" font-family="Inter, &quot;IBM Plex Sans&quot;, system-ui, sans-serif" font-size="8" font-weight="600" fill="#3B7DD8">A</text><text x="653" y="224" text-anchor="middle" font-family="Inter, &quot;IBM Plex Sans&quot;, system-ui, sans-serif" font-size="8" font-weight="600" fill="#3B7DD8">A</text><text x="535" y="250" text-anchor="middle" font-family="Inter, &quot;IBM Plex Sans&quot;, system-ui, sans-serif" font-size="16" font-weight="700" fill="#999">. . . × 1,500</text><text x="535" y="308" text-anchor="middle" font-family="Inter, &quot;IBM Plex Sans&quot;, system-ui, sans-serif" font-size="9" font-weight="600" fill="#999">1 agent : 1 service</text><text x="535" y="345" text-anchor="middle" font-family="Inter, &quot;IBM Plex Sans&quot;, system-ui, sans-serif" font-size="9" font-weight="500" fill="#666">Per-service observation / Per-service action</text><text x="535" y="377" text-anchor="middle" font-family="Inter, &quot;IBM Plex Sans&quot;, system-ui, sans-serif" font-size="10" font-weight="600" fill="#D4644B">No cross-service coordination</text><text x="535" y="440" text-anchor="middle" font-family="Inter, &quot;IBM Plex Sans&quot;, system-ui, sans-serif" font-size="11" font-weight="700" fill="#D4644B">Same coordination problem as HPA</text><text x="900" y="76" text-anchor="middle" font-family="Inter, &quot;IBM Plex Sans&quot;, system-ui, sans-serif" font-size="12" font-weight="700" fill="#4CAF50" letter-spacing="0.8">OPTION C</text><text x="900" y="94" text-anchor="middle" font-family="Inter, &quot;IBM Plex Sans&quot;, system-ui, sans-serif" font-size="13" font-weight="700" fill="#333">"Hierarchical RL"</text><text x="900" y="123.5" text-anchor="middle" font-family="Inter, &quot;IBM Plex Sans&quot;, system-ui, sans-serif" font-size="14" font-weight="700" fill="#fff">✓</text><text x="900" y="164" text-anchor="middle" font-family="Inter, &quot;IBM Plex Sans&quot;, system-ui, sans-serif" font-size="12" font-weight="700" fill="#3B7DD8">Commander</text><text x="900" y="180" text-anchor="middle" font-family="Inter, &quot;IBM Plex Sans&quot;, system-ui, sans-serif" font-size="9" font-weight="400" fill="#666">(global policy)</text><rect x="932" y="208" width="50" height="16" fill="#F0FFF0" rx="2"/><text x="957" y="220" text-anchor="middle" font-family="Inter, &quot;IBM Plex Sans&quot;, system-ui, sans-serif" font-size="9" font-weight="600" fill="#3B7DD8">Budget</text><text x="770" y="264" text-anchor="middle" font-family="Inter, &quot;IBM Plex Sans&quot;, system-ui, sans-serif" font-size="9" font-weight="600" fill="#326CE5">Soldier</text><text x="836" y="264" text-anchor="middle" font-family="Inter, &quot;IBM Plex Sans&quot;, system-ui, sans-serif" font-size="9" font-weight="600" fill="#326CE5">Soldier</text><text x="900" y="264" text-anchor="middle" font-family="Inter, &quot;IBM Plex Sans&quot;, system-ui, sans-serif" font-size="9" font-weight="600" fill="#326CE5">Soldier</text><text x="968" y="264" text-anchor="middle" font-family="Inter, &quot;IBM Plex Sans&quot;, system-ui, sans-serif" font-size="9" font-weight="600" fill="#326CE5">Soldier</text><text x="1034" y="264" text-anchor="middle" font-family="Inter, &quot;IBM Plex Sans&quot;, system-ui, sans-serif" font-size="9" font-weight="600" fill="#326CE5">Soldier</text><text x="770" y="276" text-anchor="middle" font-family="Inter, &quot;IBM Plex Sans&quot;, system-ui, sans-serif" font-size="7" font-weight="400" fill="#666">D1</text><text x="836" y="276" text-anchor="middle" font-family="Inter, &quot;IBM Plex Sans&quot;, system-ui, sans-serif" font-size="7" font-weight="400" fill="#666">D2</text><text x="900" y="276" text-anchor="middle" font-family="Inter, &quot;IBM Plex Sans&quot;, system-ui, sans-serif" font-size="7" font-weight="400" fill="#666">D3</text><text x="968" y="276" text-anchor="middle" font-family="Inter, &quot;IBM Plex Sans&quot;, system-ui, sans-serif" font-size="7" font-weight="400" fill="#666">D4</text><text x="1034" y="276" text-anchor="middle" font-family="Inter, &quot;IBM Plex Sans&quot;, system-ui, sans-serif" font-size="7" font-weight="400" fill="#666">D5</text><text x="770" y="354" text-anchor="middle" font-family="Inter, &quot;IBM Plex Sans&quot;, system-ui, sans-serif" font-size="7" font-weight="400" fill="#999">~300 svc</text><text x="836" y="354" text-anchor="middle" font-family="Inter, &quot;IBM Plex Sans&quot;, system-ui, sans-serif" font-size="7" font-weight="400" fill="#999">~300 svc</text><text x="900" y="354" text-anchor="middle" font-family="Inter, &quot;IBM Plex Sans&quot;, system-ui, sans-serif" font-size="7" font-weight="400" fill="#999">~300 svc</text><text x="968" y="354" text-anchor="middle" font-family="Inter, &quot;IBM Plex Sans&quot;, system-ui, sans-serif" font-size="7" font-weight="400" fill="#999">~300 svc</text><text x="1034" y="354" text-anchor="middle" font-family="Inter, &quot;IBM Plex Sans&quot;, system-ui, sans-serif" font-size="7" font-weight="400" fill="#999">~300 svc</text><text x="900" y="387" text-anchor="middle" font-family="Inter, &quot;IBM Plex Sans&quot;, system-ui, sans-serif" font-size="10" font-weight="600" fill="#4CAF50">5-dim commander + 300-dim soldiers</text><text x="900" y="417" text-anchor="middle" font-family="Inter, &quot;IBM Plex Sans&quot;, system-ui, sans-serif" font-size="10" font-weight="600" fill="#4CAF50">Coordination via budget allocation</text><text x="900" y="440" text-anchor="middle" font-family="Inter, &quot;IBM Plex Sans&quot;, system-ui, sans-serif" font-size="11" font-weight="700" fill="#4CAF50">Tractable decomposition</text></g></svg>