<?xml version="1.0" encoding="UTF-8"?>
<svg xmlns="http://www.w3.org/2000/svg" width="980" height="540" viewBox="-10 -10 980 540"><defs><filter id="shadow" x="-4%" y="-4%" width="112%" height="112%"><feFlood flood-color="#000000" flood-opacity="0.08" result="color"/><feComposite in="color" in2="SourceGraphic" operator="in" result="shadow"/><feGaussianBlur in="shadow" stdDeviation="3" result="blur"/><feOffset in="blur" dx="2" dy="3" result="offsetBlur"/><feMerge><feMergeNode in="offsetBlur"/><feMergeNode in="SourceGraphic"/></feMerge></filter><filter id="shadow-light" x="-4%" y="-4%" width="112%" height="112%"><feFlood flood-color="#000000" flood-opacity="0.04" result="color"/><feComposite in="color" in2="SourceGraphic" operator="in" result="shadow"/><feGaussianBlur in="shadow" stdDeviation="2" result="blur"/><feOffset in="blur" dx="1" dy="2" result="offsetBlur"/><feMerge><feMergeNode in="offsetBlur"/><feMergeNode in="SourceGraphic"/></feMerge></filter></defs><rect x="-10" y="-10" width="980" height="540" fill="#ffffff" rx="8"/><g id="layer-zones"><rect x="20" y="15" width="920" height="120" fill="#DDDEE5" rx="12" ry="12"/><rect x="20" y="150" width="920" height="200" fill="#F4F6F8" rx="12" ry="12"/><rect x="20" y="370" width="920" height="100" fill="#EDF0F6" rx="12" ry="12"/></g><g id="layer-connectors"><path d="M480,108 C324.75,108 324.75,195 169.5,195" fill="none" stroke="#888" stroke-width="1.3" stroke-linecap="round"/><polygon points="169.5,195 176.70775094321937,191.52893008705954 176.70775094321937,198.47106991294046" fill="#888" stroke="none"/><circle cx="480" cy="108" r="2.5" fill="#888"/><path d="M480,108 C480,151.5 376.5,151.5 376.5,195" fill="none" stroke="#888" stroke-width="1.3" stroke-linecap="round"/><polygon points="376.5,195 373.0289300870595,187.79224905678063 379.9710699129405,187.79224905678063" fill="#888" stroke="none"/><circle cx="480" cy="108" r="2.5" fill="#888"/><path d="M480,108 C480,151.5 583.5,151.5 583.5,195" fill="none" stroke="#888" stroke-width="1.3" stroke-linecap="round"/><polygon points="583.5,195 580.0289300870595,187.79224905678063 586.9710699129405,187.79224905678063" fill="#888" stroke="none"/><circle cx="480" cy="108" r="2.5" fill="#888"/><path d="M480,108 C635.25,108 635.25,195 790.5,195" fill="none" stroke="#888" stroke-width="1.3" stroke-linecap="round"/><polygon points="790.5,195 783.2922490567806,198.47106991294046 783.2922490567806,191.52893008705954" fill="#888" stroke="none"/><circle cx="480" cy="108" r="2.5" fill="#888"/><path d="M169.5,295 C324.75,295 324.75,390 480,390" fill="none" stroke="#AAB5CC" stroke-width="1.3" stroke-linecap="round"/><polygon points="480,390 472.79224905678063,393.4710699129405 472.79224905678063,386.5289300870595" fill="#AAB5CC" stroke="none"/><circle cx="169.5" cy="295" r="2.5" fill="#AAB5CC"/><path d="M376.5,295 C376.5,342.5 480,342.5 480,390" fill="none" stroke="#AAB5CC" stroke-width="1.3" stroke-linecap="round"/><polygon points="480,390 476.5289300870595,382.79224905678063 483.4710699129405,382.79224905678063" fill="#AAB5CC" stroke="none"/><circle cx="376.5" cy="295" r="2.5" fill="#AAB5CC"/><path d="M583.5,295 C583.5,342.5 480,342.5 480,390" fill="none" stroke="#AAB5CC" stroke-width="1.3" stroke-linecap="round"/><polygon points="480,390 476.5289300870595,382.79224905678063 483.4710699129405,382.79224905678063" fill="#AAB5CC" stroke="none"/><circle cx="583.5" cy="295" r="2.5" fill="#AAB5CC"/><path d="M790.5,295 C635.25,295 635.25,390 480,390" fill="none" stroke="#AAB5CC" stroke-width="1.3" stroke-linecap="round"/><polygon points="480,390 487.20775094321937,386.5289300870595 487.20775094321937,393.47106991294044" fill="#AAB5CC" stroke="none"/><circle cx="790.5" cy="295" r="2.5" fill="#AAB5CC"/></g><g id="layer-boxes"><g filter="url(#shadow)"><g><path d="M356.65633561473425 39.0522911554429 C443.8416461820265 39.386313772469144, 529.7322497293457 37.38511115881153, 601.6395216271804 35.42226530657945 C606.9519162476063 37.94918820261955, 608.4637286484242 39.44558808207512, 610.7072242081165 44.819749993085864 C607.4304630227208 63.386837214604014, 609.1794752068639 89.99691458418965, 609.078692215681 103.151943141222 C612.9148452460765 104.49487336277961, 606.8320947349072 109.64494870305062, 606.2473699271679 110.79375432133675 C540.6313697267065 109.80713771146966, 480.3894710798769 108.44354698833207, 354.15906220581604 110.21230270733469 C349.7592212021351 109.76664826273918, 347.8782906830311 108.16956059336663, 346.93129552006724 100.56604916453361 C351.6963848916888 91.02005849443377, 349.1808157770038 76.75065668150783, 347.871750420332 44.06453984379768 C347.5492486655712 37.38233578801155, 349.93082310557367 35.162129145860675, 354.60279995799067 36.95677216649055 C356 38, 356 38, 356 38" stroke="none" stroke-width="0" fill="#E2E3E8"/><path d="M354.6913742202144 37.00499165110032 C406.0209538996879 37.724475490112, 454.2931639698389 39.35121122426098, 604.4388626826643 37.00166721085194 M355.8399727258988 38.07421794111365 C429.24511603817194 38.30625404404435, 503.6148761115224 38.354632262253375, 604.4095114767383 38.40556691740086 M604 38 C608.9285333484411 36.83326260149479, 610.4190367549658 40.123198953270915, 610.5615498393774 43.37229658663273 M605.3366733402014 38.9588048607111 C609.3681252975762 37.496239300221205, 610.4072609777749 40.334658170193435, 610.9998460932076 44.370765223950144 M611.4001003891229 44.24588335454464 C610.0768555397451 58.65641415379942, 609.5122264618337 72.36048438176513, 609.9479123741388 102.87821205556392 M610.7571195051074 43.71563103944063 C609.7700483347594 55.883707066252825, 610.5649490858733 69.16910029277206, 609.2342533990741 101.84582670480013 M610 102 C608.8949085086584 106.12862145006656, 608.68601616323 109.08621527254581, 603.0017348140478 109.54120890200139 M610.6974210590124 103.21193958818913 C610.6813183040917 105.75585681006312, 606.3240785570442 107.03602708384395, 603.0062406988442 107.04477390810847 M603.2493124629801 107.5700797120578 C506.89451859396473 109.86235817153924, 411.3525381276582 108.96355966582982, 357.2140342850833 108.54856437723424 M603.6792968429035 108.32619179129043 C540.74457697579 107.75925759555942, 478.91236295248825 106.56381643147107, 356.214928852471 107.94458834818555 M356 108 C350.92626169621946 107.9783382087946, 350.7636767238379 105.43913637697696, 350.698694691062 100.69143225252628 M354.5520530551672 108.5530259758234 C352.3082204170525 107.86775154158472, 351.03466383650897 105.29805212542415, 350.8244108171761 101.61455590769648 M349.6845680862665 101.38609217107296 C351.44304756165144 79.66658209897578, 349.65865530014634 56.864439580589526, 350.3355905205011 44.8900151103735 M350.20270609110594 101.22572377473116 C349.0666881669104 89.92593764774502, 349.60809160357115 76.8534296579659, 350.5380980417132 44.13057153970003 M350 44 C351.4827491611242 39.38475662767887, 352.7871746867895 38.90930601656437, 356.8375857204199 37.10031038820743 M348.71072557866574 43.03440777361393 C351.1230113239586 38.79961880728602, 353.679446503669 36.162178607434036, 357.26228613570333 36.37405653521419 M356 38 C356 38, 356 38, 356 38 M356 38 C356 38, 356 38, 356 38" stroke="#2D3142" stroke-width="1.5" fill="none"/></g></g><g filter="url(#shadow)"><g><path d="M98.80044091343879 196.28333260416986 C149.78311549220234 195.91864546142222, 199.186816682294 193.47805803619028, 238.1212540924549 191.85629689097405 C243.95191624760628 194.94918820261955, 245.46372864842414 196.44558808207512, 247.70722420811654 201.81974999308585 C244.50954388017655 231.99525269716978, 246.2585560643196 270.2137455493212, 246.0786922156811 290.151943141222 C249.9148452460766 291.49487336277963, 243.83209473490714 296.6449487030506, 243.24736992716788 297.79375432133673 C204.17305849399418 296.2388882300794, 171.1593550067395 294.57590700601935, 95.75486519932747 297.69803673624995 C91.75922120213508 296.7666482627392, 89.87829068303108 295.1695605933666, 88.93129552006721 287.56604916453364 C93.42519124698639 271.5893687441945, 90.90962213230132 250.8892771810293, 89.87175042033195 201.0645398437977 C89.54924866557121 194.38233578801155, 91.93082310557365 192.16212914586066, 96.60279995799064 193.95677216649057 C98 195, 98 195, 98 195" stroke="none" stroke-width="0" fill="#E3EDFA"/><path d="M96.40405184328556 193.7865272372961 C127.08327201697975 194.41781257703602, 154.03384534008802 196.40171503141224, 241.53521954119205 193.78247288167478 M97.80483707636594 195.09051326066256 C140.00506788846107 194.93605445571842, 183.38170708678663 194.99505461402833, 241.4994239732623 195.49461334496738 M241 195 C245.92853334844114 193.8332626014948, 247.4190367549658 197.1231989532709, 247.5615498393774 200.37229658663273 M242.33667334020137 195.9588048607111 C246.3681252975762 194.4962393002212, 247.40726097777485 197.33465817019342, 247.9998460932076 201.37076522395014 M248.40010038912297 201.24588335454465 C246.9948460477352 223.16380557864906, 246.43021696982382 244.37526723146442, 246.94791237413884 289.87821205556395 M247.7571195051074 200.71563103944064 C246.84460531545878 219.2102085530758, 247.63950606657266 238.822103266418, 246.23425339907408 288.8458267048001 M247 289 C245.8949085086584 293.1286214500666, 245.68601616322994 296.0862152725458, 240.0017348140478 296.54120890200136 M247.6974210590124 290.2119395881891 C247.6813183040917 292.7558568100631, 243.32407855704426 294.0360270838439, 240.00624069884418 294.0447739081085 M240.0844912201166 294.4756862491369 C184.8236992051825 296.8781795093268, 130.55418221466243 295.7820404597968, 99.48058811724187 295.66900738179686 M240.60888313502073 295.39781058579683 C204.2703044826165 295.11997525812683, 169.2762982789427 293.6620625746399, 98.26211871355773 294.93242214471104 M98 295 C92.92626169621944 294.9783382087946, 92.76367672383785 292.439136376977, 92.69869469106197 287.6914322525263 M96.55205305516719 295.5530259758234 C94.30822041705251 294.8677515415847, 93.03466383650898 292.29805212542414, 92.8244108171761 288.6145559076965 M91.68456808626652 288.38609217107296 C93.54021533689499 254.87177826911213, 91.75582307538986 220.2748319208622, 92.33559052050114 201.8900151103735 M92.20270609110594 288.22572377473114 C90.9396320216298 270.327076074481, 91.48103545829058 250.6557065114379, 92.53809804171324 201.13057153970004 M92 201 C93.48274916112423 196.38475662767888, 94.78717468678951 195.90930601656436, 98.83758572041988 194.10031038820745 M90.71072557866573 200.03440777361394 C93.12301132395864 195.79961880728604, 95.67944650366903 193.16217860743404, 99.26228613570332 193.37405653521418 M98 195 C98 195, 98 195, 98 195 M98 195 C98 195, 98 195, 98 195" stroke="#3B7DD8" stroke-width="1.5" fill="none"/></g></g><g filter="url(#shadow)"><g><path d="M305.8004409134388 196.28333260416986 C356.78311549220234 195.91864546142222, 406.186816682294 193.47805803619028, 445.12125409245493 191.85629689097405 C450.9519162476063 194.94918820261955, 452.46372864842414 196.44558808207512, 454.70722420811654 201.81974999308585 C451.5095438801766 231.99525269716978, 453.25855606431963 270.2137455493212, 453.0786922156811 290.151943141222 C456.9148452460766 291.49487336277963, 450.8320947349072 296.6449487030506, 450.2473699271679 297.79375432133673 C411.1730584939942 296.2388882300794, 378.1593550067395 294.57590700601935, 302.75486519932747 297.69803673624995 C298.7592212021351 296.7666482627392, 296.8782906830311 295.1695605933666, 295.93129552006724 287.56604916453364 C300.4251912469864 271.5893687441945, 297.90962213230137 250.8892771810293, 296.871750420332 201.0645398437977 C296.5492486655712 194.38233578801155, 298.93082310557367 192.16212914586066, 303.60279995799067 193.95677216649057 C305 195, 305 195, 305 195" stroke="none" stroke-width="0" fill="#FBEAE5"/><path d="M303.4040518432856 193.7865272372961 C334.0832720169798 194.41781257703602, 361.033845340088 196.40171503141224, 448.5352195411921 193.78247288167478 M304.80483707636597 195.09051326066256 C347.00506788846104 194.93605445571842, 390.38170708678666 194.99505461402833, 448.4994239732623 195.49461334496738 M448 195 C452.92853334844114 193.8332626014948, 454.41903675496576 197.1231989532709, 454.5615498393774 200.37229658663273 M449.3366733402014 195.9588048607111 C453.36812529757617 194.4962393002212, 454.40726097777485 197.33465817019342, 454.9998460932076 201.37076522395014 M455.40010038912294 201.24588335454465 C453.9948460477352 223.16380557864906, 453.43021696982385 244.37526723146442, 453.9479123741388 289.87821205556395 M454.7571195051074 200.71563103944064 C453.8446053154588 219.2102085530758, 454.63950606657266 238.822103266418, 453.2342533990741 288.8458267048001 M454 289 C452.89490850865843 293.1286214500666, 452.68601616322997 296.0862152725458, 447.00173481404784 296.54120890200136 M454.6974210590124 290.2119395881891 C454.6813183040917 292.7558568100631, 450.3240785570443 294.0360270838439, 447.0062406988442 294.0447739081085 M447.0844912201166 294.4756862491369 C391.8236992051825 296.8781795093268, 337.55418221466243 295.7820404597968, 306.48058811724184 295.66900738179686 M447.60888313502073 295.39781058579683 C411.2703044826165 295.11997525812683, 376.2762982789427 293.6620625746399, 305.2621187135577 294.93242214471104 M305 295 C299.92626169621946 294.9783382087946, 299.7636767238379 292.439136376977, 299.698694691062 287.6914322525263 M303.5520530551672 295.5530259758234 C301.3082204170525 294.8677515415847, 300.03466383650897 292.29805212542414, 299.8244108171761 288.6145559076965 M298.6845680862665 288.38609217107296 C300.54021533689496 254.87177826911213, 298.75582307538986 220.2748319208622, 299.3355905205011 201.8900151103735 M299.20270609110594 288.22572377473114 C297.93963202162985 270.327076074481, 298.4810354582906 250.6557065114379, 299.5380980417132 201.13057153970004 M299 201 C300.4827491611242 196.38475662767888, 301.7871746867895 195.90930601656436, 305.8375857204199 194.10031038820745 M297.71072557866574 200.03440777361394 C300.1230113239586 195.79961880728604, 302.679446503669 193.16217860743404, 306.26228613570333 193.37405653521418 M305 195 C305 195, 305 195, 305 195 M305 195 C305 195, 305 195, 305 195" stroke="#D4644B" stroke-width="1.5" fill="none"/></g></g><g filter="url(#shadow)"><g><path d="M512.8004409134388 196.28333260416986 C563.7831154922023 195.91864546142222, 613.1868166822941 193.47805803619028, 652.1212540924549 191.85629689097405 C657.9519162476063 194.94918820261955, 659.4637286484242 196.44558808207512, 661.7072242081165 201.81974999308585 C658.5095438801765 231.99525269716978, 660.2585560643196 270.2137455493212, 660.078692215681 290.151943141222 C663.9148452460765 291.49487336277963, 657.8320947349072 296.6449487030506, 657.2473699271679 297.79375432133673 C618.1730584939942 296.2388882300794, 585.1593550067395 294.57590700601935, 509.75486519932747 297.69803673624995 C505.7592212021351 296.7666482627392, 503.8782906830311 295.1695605933666, 502.93129552006724 287.56604916453364 C507.4251912469864 271.5893687441945, 504.90962213230137 250.8892771810293, 503.871750420332 201.0645398437977 C503.5492486655712 194.38233578801155, 505.93082310557367 192.16212914586066, 510.60279995799067 193.95677216649057 C512 195, 512 195, 512 195" stroke="none" stroke-width="0" fill="#E4F1EA"/><path d="M510.4040518432856 193.7865272372961 C541.0832720169798 194.41781257703602, 568.033845340088 196.40171503141224, 655.5352195411921 193.78247288167478 M511.80483707636597 195.09051326066256 C554.005067888461 194.93605445571842, 597.3817070867866 194.99505461402833, 655.4994239732623 195.49461334496738 M655 195 C659.9285333484411 193.8332626014948, 661.4190367549658 197.1231989532709, 661.5615498393774 200.37229658663273 M656.3366733402014 195.9588048607111 C660.3681252975762 194.4962393002212, 661.4072609777749 197.33465817019342, 661.9998460932076 201.37076522395014 M662.4001003891229 201.24588335454465 C660.9948460477352 223.16380557864906, 660.4302169698238 244.37526723146442, 660.9479123741388 289.87821205556395 M661.7571195051074 200.71563103944064 C660.8446053154587 219.2102085530758, 661.6395060665726 238.822103266418, 660.2342533990741 288.8458267048001 M661 289 C659.8949085086584 293.1286214500666, 659.68601616323 296.0862152725458, 654.0017348140478 296.54120890200136 M661.6974210590124 290.2119395881891 C661.6813183040917 292.7558568100631, 657.3240785570442 294.0360270838439, 654.0062406988442 294.0447739081085 M654.0844912201167 294.4756862491369 C598.8236992051825 296.8781795093268, 544.5541822146624 295.7820404597968, 513.4805881172418 295.66900738179686 M654.6088831350207 295.39781058579683 C618.2703044826164 295.11997525812683, 583.2762982789427 293.6620625746399, 512.2621187135577 294.93242214471104 M512 295 C506.92626169621946 294.9783382087946, 506.7636767238379 292.439136376977, 506.698694691062 287.6914322525263 M510.5520530551672 295.5530259758234 C508.3082204170525 294.8677515415847, 507.03466383650897 292.29805212542414, 506.8244108171761 288.6145559076965 M505.6845680862665 288.38609217107296 C507.54021533689496 254.87177826911213, 505.75582307538986 220.2748319208622, 506.3355905205011 201.8900151103735 M506.20270609110594 288.22572377473114 C504.93963202162985 270.327076074481, 505.4810354582906 250.6557065114379, 506.5380980417132 201.13057153970004 M506 201 C507.4827491611242 196.38475662767888, 508.7871746867895 195.90930601656436, 512.8375857204198 194.10031038820745 M504.71072557866574 200.03440777361394 C507.1230113239586 195.79961880728604, 509.679446503669 193.16217860743404, 513.2622861357033 193.37405653521418 M512 195 C512 195, 512 195, 512 195 M512 195 C512 195, 512 195, 512 195" stroke="#5FA384" stroke-width="1.5" fill="none"/></g></g><g filter="url(#shadow)"><g><path d="M719.8004409134388 196.28333260416986 C770.7831154922023 195.91864546142222, 820.1868166822941 193.47805803619028, 859.1212540924549 191.85629689097405 C864.9519162476063 194.94918820261955, 866.4637286484242 196.44558808207512, 868.7072242081165 201.81974999308585 C865.5095438801765 231.99525269716978, 867.2585560643196 270.2137455493212, 867.078692215681 290.151943141222 C870.9148452460765 291.49487336277963, 864.8320947349072 296.6449487030506, 864.2473699271679 297.79375432133673 C825.1730584939942 296.2388882300794, 792.1593550067395 294.57590700601935, 716.7548651993275 297.69803673624995 C712.7592212021351 296.7666482627392, 710.8782906830311 295.1695605933666, 709.9312955200672 287.56604916453364 C714.4251912469864 271.5893687441945, 711.9096221323014 250.8892771810293, 710.871750420332 201.0645398437977 C710.5492486655712 194.38233578801155, 712.9308231055736 192.16212914586066, 717.6027999579907 193.95677216649057 C719 195, 719 195, 719 195" stroke="none" stroke-width="0" fill="#EDE6F2"/><path d="M717.4040518432855 193.7865272372961 C748.0832720169798 194.41781257703602, 775.033845340088 196.40171503141224, 862.5352195411921 193.78247288167478 M718.804837076366 195.09051326066256 C761.005067888461 194.93605445571842, 804.3817070867866 194.99505461402833, 862.4994239732623 195.49461334496738 M862 195 C866.9285333484411 193.8332626014948, 868.4190367549658 197.1231989532709, 868.5615498393774 200.37229658663273 M863.3366733402014 195.9588048607111 C867.3681252975762 194.4962393002212, 868.4072609777749 197.33465817019342, 868.9998460932076 201.37076522395014 M869.4001003891229 201.24588335454465 C867.9948460477352 223.16380557864906, 867.4302169698238 244.37526723146442, 867.9479123741388 289.87821205556395 M868.7571195051074 200.71563103944064 C867.8446053154587 219.2102085530758, 868.6395060665726 238.822103266418, 867.2342533990741 288.8458267048001 M868 289 C866.8949085086584 293.1286214500666, 866.68601616323 296.0862152725458, 861.0017348140478 296.54120890200136 M868.6974210590124 290.2119395881891 C868.6813183040917 292.7558568100631, 864.3240785570442 294.0360270838439, 861.0062406988442 294.0447739081085 M861.0844912201167 294.4756862491369 C805.8236992051825 296.8781795093268, 751.5541822146624 295.7820404597968, 720.4805881172418 295.66900738179686 M861.6088831350207 295.39781058579683 C825.2703044826164 295.11997525812683, 790.2762982789427 293.6620625746399, 719.2621187135577 294.93242214471104 M719 295 C713.9262616962194 294.9783382087946, 713.7636767238379 292.439136376977, 713.698694691062 287.6914322525263 M717.5520530551672 295.5530259758234 C715.3082204170526 294.8677515415847, 714.034663836509 292.29805212542414, 713.8244108171762 288.6145559076965 M712.6845680862665 288.38609217107296 C714.540215336895 254.87177826911213, 712.7558230753898 220.2748319208622, 713.3355905205011 201.8900151103735 M713.2027060911059 288.22572377473114 C711.9396320216298 270.327076074481, 712.4810354582906 250.6557065114379, 713.5380980417133 201.13057153970004 M713 201 C714.4827491611243 196.38475662767888, 715.7871746867895 195.90930601656436, 719.8375857204198 194.10031038820745 M711.7107255786657 200.03440777361394 C714.1230113239586 195.79961880728604, 716.679446503669 193.16217860743404, 720.2622861357033 193.37405653521418 M719 195 C719 195, 719 195, 719 195 M719 195 C719 195, 719 195, 719 195" stroke="#8B5FA0" stroke-width="1.5" fill="none"/></g></g><g filter="url(#shadow)"><g><path d="M306.52291812328224 390.83838527697986 C428.1933708438717 391.58486073299446, 548.8322998289119 389.99045523137454, 652.11935099505 387.9462577407919 C656.9519162476063 389.94918820261955, 658.4637286484242 391.4455880820751, 660.7072242081165 396.81974999308585 C657.4041027369022 411.5173653870821, 659.1531149210454 434.2579709291458, 659.078692215681 445.151943141222 C662.9148452460765 446.49487336277963, 656.8320947349072 451.6449487030506, 656.2473699271679 452.79375432133673 C565.350962034777 452.0402075718412, 479.1930651830528 450.95380255913, 304.53328127439215 451.76259394413654 C299.7592212021351 451.7666482627392, 297.8782906830311 450.1695605933666, 296.93129552006724 442.56604916453364 C301.7867827732563 435.1636217445135, 299.27121365857124 423.0377831816673, 297.871750420332 396.06453984379766 C297.5492486655712 389.3823357880116, 299.93082310557367 387.16212914586066, 304.60279995799067 388.95677216649057 C306 390, 306 390, 306 390" stroke="none" stroke-width="0" fill="#E0E8F8"/><path d="M304.9573868589756 389.2072532911878 C375.9637840289312 389.9336439799187, 444.5343024466199 391.22970285297225, 654.3496522895384 389.2046046309344 M305.87250248201013 390.0591311908264 C408.99546668965974 390.51616620828776, 512.8869639085698 390.55471028010965, 654.326267488875 390.3231247650617 M654 390 C658.9285333484411 388.83326260149477, 660.4190367549658 392.1231989532709, 660.5615498393774 395.37229658663273 M655.3366733402014 390.9588048607111 C659.3681252975762 389.4962393002212, 660.4072609777749 392.33465817019345, 660.9998460932076 396.3707652239502 M661.4001003891229 396.2458833545446 C660.1041920370817 408.1539503455162, 659.5395629591703 419.35555676519874, 659.9479123741388 444.87821205556395 M660.7571195051074 395.7156310394406 C659.7451960078597 405.7748732373118, 660.5400967589736 416.95143263489007, 659.2342533990741 443.8458267048001 M660 444 C658.8949085086584 448.1286214500666, 658.68601616323 451.0862152725458, 653.0017348140478 451.54120890200136 M660.6974210590124 445.2119395881891 C660.6813183040917 447.7558568100631, 656.3240785570442 449.0360270838439, 653.0062406988442 449.0447739081085 M653.4019094664111 449.65747232805165 C517.9126782381315 451.72835005058903, 383.07103469149155 451.01225600165526, 306.96724985770146 450.4370542268363 M653.7444882019581 450.2598847228498 C565.4796603093604 449.55087718695415, 478.09322492481994 448.5984409089494, 306.1712389052952 449.9558522251051 M306 450 C300.92626169621946 449.9783382087946, 300.7636767238379 447.439136376977, 300.698694691062 442.6914322525263 M304.5520530551672 450.5530259758234 C302.3082204170525 449.8677515415847, 301.03466383650897 447.29805212542414, 300.8244108171761 443.6145559076965 M299.6845680862665 443.38609217107296 C301.41065830323697 425.598183375597, 299.62626604173187 406.727642133832, 300.3355905205011 396.8900151103735 M300.20270609110594 443.22572377473114 C299.1090402153373 434.12555817216634, 299.65044365199805 423.25267070680854, 300.5380980417132 396.13057153970004 M300 396 C301.4827491611242 391.3847566276789, 302.7871746867895 390.90930601656436, 306.8375857204199 389.10031038820745 M298.71072557866574 395.0344077736139 C301.1230113239586 390.79961880728604, 303.679446503669 388.16217860743404, 307.26228613570333 388.3740565352142 M306 390 C306 390, 306 390, 306 390 M306 390 C306 390, 306 390, 306 390" stroke="#326CE5" stroke-width="1.5" fill="none"/></g></g></g><g id="layer-text"><text x="34" y="33" text-anchor="start" font-family="Inter, &quot;IBM Plex Sans&quot;, system-ui, sans-serif" font-size="10" font-weight="600" fill="#888" letter-spacing="1">STRATEGIC LAYER</text><text x="34" y="168" text-anchor="start" font-family="Inter, &quot;IBM Plex Sans&quot;, system-ui, sans-serif" font-size="10" font-weight="600" fill="#999" letter-spacing="1">EXECUTION LAYER</text><text x="34" y="388" text-anchor="start" font-family="Inter, &quot;IBM Plex Sans&quot;, system-ui, sans-serif" font-size="10" font-weight="600" fill="#999" letter-spacing="1">INFRASTRUCTURE</text><text x="480" y="58.550000000000004" text-anchor="middle" font-family="Inter, &quot;IBM Plex Sans&quot;, system-ui, sans-serif" font-size="16" font-weight="700" fill="#2D3142" letter-spacing="0.5">COMMANDER</text><text x="480" y="84.15" text-anchor="middle" font-family="Inter, &quot;IBM Plex Sans&quot;, system-ui, sans-serif" font-size="10" font-weight="400" fill="#666">cluster-wide view  |  60s tick</text><text x="169.5" y="217.35" text-anchor="middle" font-family="Inter, &quot;IBM Plex Sans&quot;, system-ui, sans-serif" font-size="12" font-weight="700" fill="#3B7DD8" letter-spacing="0.2">SOLDIER 1</text><text x="169.5" y="237.55" text-anchor="middle" font-family="Inter, &quot;IBM Plex Sans&quot;, system-ui, sans-serif" font-size="10" font-weight="400" fill="#777">Payment Processing</text><text x="169.5" y="252.05" text-anchor="middle" font-family="Inter, &quot;IBM Plex Sans&quot;, system-ui, sans-serif" font-size="10" font-weight="400" fill="#777">~500 apps</text><text x="169.5" y="266.55" text-anchor="middle" font-family="Inter, &quot;IBM Plex Sans&quot;, system-ui, sans-serif" font-size="10" font-weight="400" fill="#777">10s tick</text><text x="376.5" y="217.35" text-anchor="middle" font-family="Inter, &quot;IBM Plex Sans&quot;, system-ui, sans-serif" font-size="12" font-weight="700" fill="#D4644B" letter-spacing="0.2">SOLDIER 2</text><text x="376.5" y="237.55" text-anchor="middle" font-family="Inter, &quot;IBM Plex Sans&quot;, system-ui, sans-serif" font-size="10" font-weight="400" fill="#777">Fraud &amp; Risk</text><text x="376.5" y="252.05" text-anchor="middle" font-family="Inter, &quot;IBM Plex Sans&quot;, system-ui, sans-serif" font-size="10" font-weight="400" fill="#777">~300 apps</text><text x="376.5" y="266.55" text-anchor="middle" font-family="Inter, &quot;IBM Plex Sans&quot;, system-ui, sans-serif" font-size="10" font-weight="400" fill="#777">10s tick</text><text x="583.5" y="217.35" text-anchor="middle" font-family="Inter, &quot;IBM Plex Sans&quot;, system-ui, sans-serif" font-size="12" font-weight="700" fill="#5FA384" letter-spacing="0.2">SOLDIER 3</text><text x="583.5" y="237.55" text-anchor="middle" font-family="Inter, &quot;IBM Plex Sans&quot;, system-ui, sans-serif" font-size="10" font-weight="400" fill="#777">Merchant Services</text><text x="583.5" y="252.05" text-anchor="middle" font-family="Inter, &quot;IBM Plex Sans&quot;, system-ui, sans-serif" font-size="10" font-weight="400" fill="#777">~400 apps</text><text x="583.5" y="266.55" text-anchor="middle" font-family="Inter, &quot;IBM Plex Sans&quot;, system-ui, sans-serif" font-size="10" font-weight="400" fill="#777">10s tick</text><text x="790.5" y="217.35" text-anchor="middle" font-family="Inter, &quot;IBM Plex Sans&quot;, system-ui, sans-serif" font-size="12" font-weight="700" fill="#8B5FA0" letter-spacing="0.2">SOLDIER 4/5</text><text x="790.5" y="237.55" text-anchor="middle" font-family="Inter, &quot;IBM Plex Sans&quot;, system-ui, sans-serif" font-size="10" font-weight="400" fill="#777">Data / Platform</text><text x="790.5" y="252.05" text-anchor="middle" font-family="Inter, &quot;IBM Plex Sans&quot;, system-ui, sans-serif" font-size="10" font-weight="400" fill="#777">~350 apps</text><text x="790.5" y="266.55" text-anchor="middle" font-family="Inter, &quot;IBM Plex Sans&quot;, system-ui, sans-serif" font-size="10" font-weight="400" fill="#777">10s tick</text><rect x="385" y="136.25" width="190" height="15" fill="white" opacity="0.75" rx="4"/><text x="480" y="146" text-anchor="middle" font-family="Inter, &quot;IBM Plex Sans&quot;, system-ui, sans-serif" font-size="10" font-weight="500" fill="#AAA" letter-spacing="0.5">budget directives (per domain)</text><text x="480" y="406.2" text-anchor="middle" font-family="Inter, &quot;IBM Plex Sans&quot;, system-ui, sans-serif" font-size="14" font-weight="700" fill="#326CE5" letter-spacing="0.5">Kubernetes Control Plane</text><text x="480" y="429.09999999999997" text-anchor="middle" font-family="Inter, &quot;IBM Plex Sans&quot;, system-ui, sans-serif" font-size="10" font-weight="400" fill="#5577AA">HPA patch  |  Karpenter</text><rect x="408.2" y="356.25" width="143.6" height="15" fill="white" opacity="0.75" rx="4"/><text x="480" y="366" text-anchor="middle" font-family="Inter, &quot;IBM Plex Sans&quot;, system-ui, sans-serif" font-size="10" font-weight="500" fill="#AAA" letter-spacing="0.5">replica deltas per app</text><text x="480" y="502" text-anchor="middle" font-family="Inter, &quot;IBM Plex Sans&quot;, system-ui, sans-serif" font-size="10" font-weight="400" fill="#B0B0B0">Neither level can override the other — coordination without central planning as bottleneck</text></g></svg>