<?xml version="1.0" encoding="UTF-8"?>
<svg xmlns="http://www.w3.org/2000/svg" width="980" height="420" viewBox="-10 -10 980 420"><defs><filter id="shadow" x="-4%" y="-4%" width="112%" height="112%"><feFlood flood-color="#000000" flood-opacity="0.08" result="color"/><feComposite in="color" in2="SourceGraphic" operator="in" result="shadow"/><feGaussianBlur in="shadow" stdDeviation="3" result="blur"/><feOffset in="blur" dx="2" dy="3" result="offsetBlur"/><feMerge><feMergeNode in="offsetBlur"/><feMergeNode in="SourceGraphic"/></feMerge></filter><filter id="shadow-light" x="-4%" y="-4%" width="112%" height="112%"><feFlood flood-color="#000000" flood-opacity="0.04" result="color"/><feComposite in="color" in2="SourceGraphic" operator="in" result="shadow"/><feGaussianBlur in="shadow" stdDeviation="2" result="blur"/><feOffset in="blur" dx="1" dy="2" result="offsetBlur"/><feMerge><feMergeNode in="offsetBlur"/><feMergeNode in="SourceGraphic"/></feMerge></filter></defs><rect x="-10" y="-10" width="980" height="420" fill="#ffffff" rx="8"/><g id="layer-zones"><rect x="10" y="8" width="280" height="280" fill="#E3EDFA" rx="12" ry="12"/><rect x="310" y="8" width="340" height="280" fill="#EDF0F6" rx="12" ry="12"/><rect x="670" y="8" width="280" height="280" fill="#FBEAE5" rx="12" ry="12"/></g><g id="layer-connectors"><g><path d="M263.0025324020535 99.24157952331007 C280.7070751583297 102.54958241735771, 296.0747909771372 106.7923536712788, 346.33451221324503 114.23904555104673 M263.8780231727287 100.0565707879141 C288.03795937753284 104.25289321262017, 312.9596103761997 108.74146017655357, 346.31213998328894 115.3091333406046" stroke="#3B7DD8" stroke-width="1.3" fill="none"/></g><polygon points="346,115 338.2853104908494,117.1174432170429 339.5344859971155,110.2886171161214" fill="#3B7DD8" stroke="none"/><g><path d="M613.0025324020535 114.24157952331007 C630.6942298466247 111.5439179774858, 646.0619456654322 109.78102479153499, 696.334512213245 99.23904555104673 M613.8780231727287 115.0565707879141 C638.0908784824703 110.34950948264077, 663.0125294811372 105.93469271659478, 696.312139983289 100.3091333406046" stroke="#D4644B" stroke-width="1.3" fill="none"/></g><polygon points="696,100 689.5344859971154,104.7113828838786 688.2853104908494,97.8825567829571" fill="#D4644B" stroke="none"/><line x1="30" y1="300" x2="930" y2="300" stroke="#DDD" stroke-width="1.2" stroke-dasharray="6,4" stroke-linecap="round"/></g><g id="layer-boxes"><g filter="url(#shadow)"><g><path d="M46.70970261131501 61.13785350682811 C120.10095631728841 61.238263018729526, 192.09222968951912 59.074341560256855, 251.44758988003258 57.212668332894474 C256.9519162476063 59.94918820261955, 258.46372864842414 61.44558808207512, 260.70722420811654 66.81974999308586 C257.4568233085394 89.25630904212593, 259.20583549268247 119.7358582392335, 259.0786922156811 135.151943141222 C262.9148452460766 136.49487336277963, 256.8320947349072 141.6449487030506, 256.2473699271679 142.79375432133673 C200.74353280347813 141.62812287569335, 150.86803343860657 140.15365786838524, 44.009374578385625 142.39218621261395 C39.75922120213509 141.76664826273918, 37.87829068303108 140.1695605933666, 36.931295520067216 132.5660491645336 C41.605987010121346 120.87649524435402, 39.09041789543629 104.46353018134833, 37.871750420331956 66.06453984379769 C37.54924866557121 59.38233578801155, 39.93082310557365 57.162129145860675, 44.60279995799065 58.95677216649055 C46 60, 46 60, 46 60" stroke="none" stroke-width="0" fill="#E3EDFA"/><path d="M44.584969164709975 58.92408699506532 C88.04382184799061 59.618924686211294, 128.19670857912647 61.37793116479845, 254.4745468399147 58.920492242818966 M45.82696082345427 60.08025264122855 C107.34497577757683 60.18340243713048, 169.90604099270342 60.23571431389434, 254.44280907188372 60.43854377833652 M254 60 C258.92853334844114 58.83326260149479, 260.41903675496576 62.123198953270915, 260.5615498393774 65.37229658663273 M255.33667334020137 60.9588048607111 C259.36812529757617 59.496239300221205, 260.40726097777485 62.334658170193435, 260.9998460932076 66.37076522395014 M261.40010038912294 66.24588335454465 C260.04951904240846 83.15887796208263, 259.4848899644971 99.36541199833154, 259.9479123741388 134.87821205556392 M260.7571195051074 65.71563103944064 C259.79490066165926 79.99254089519383, 260.5898014127731 95.38676795065403, 259.2342533990741 133.84582670480012 M260 134 C258.89490850865843 138.12862145006656, 258.68601616322997 141.08621527254581, 253.0017348140478 141.5412089020014 M260.6974210590124 135.21193958818913 C260.6813183040917 137.75585681006314, 256.3240785570443 139.03602708384395, 253.00624069884418 139.04477390810848 M253.1882736616077 139.53512266566025 C172.48725473629804 141.88101829269726, 92.66513950212483 140.9091380042776, 47.31274805603608 140.5931684373934 M253.65322029928154 140.35271461866668 C200.85054364236183 139.87937493615834, 149.24001816355556 138.58673181763655, 46.232404831341334 139.94008279741772 M46 140 C40.92626169621944 139.97833820879458, 40.763676723837854 137.43913637697696, 40.698694691061974 132.69143225252628 M44.5520530551672 140.5530259758234 C42.30822041705251 139.86775154158474, 41.03466383650899 137.29805212542414, 40.8244108171761 133.61455590769648 M39.684568086266516 133.38609217107296 C41.47543682006598 107.73498082235456, 39.69104455856085 81.00123702734709, 40.335590520501135 66.8900151103735 M40.20270609110594 133.22572377473116 C39.02433611848354 119.72631712332368, 39.56573955514431 104.45418860912324, 40.53809804171324 66.13057153970003 M40 66 C41.48274916112423 61.38475662767887, 42.78717468678951 60.90930601656437, 46.83758572041988 59.10031038820743 M38.71072557866573 65.03440777361394 C41.123011323958636 60.79961880728602, 43.67944650366903 58.162178607434036, 47.26228613570333 58.37405653521419 M46 60 C46 60, 46 60, 46 60 M46 60 C46 60, 46 60, 46 60" stroke="#3B7DD8" stroke-width="1.5" fill="none"/></g></g><g><path d="M59.51478699892759 155.68322523385285 L76.76526331156492 154.2253125503659 L76.26211871355773 174.932422144711 L60.34934734553099 174.34571612626314" stroke="none" stroke-width="0" fill="#E3EDFA"/><path d="M59.361620737314226 154.51461089491843 C63.38552964270115 154.65177743656636, 65.9179798078537 155.44533841831685, 76.21408781647682 154.51298915266992 M59.92193483054638 155.03620530426502 C64.57471349954605 154.76944950137138, 69.69805552303791 154.79304956469534, 76.19976958930492 155.19784533798693 M75.4166313007474 155.20951837748288 C76.04276837423443 162.37027396932245, 76.46057132795453 168.83859029114245, 76.16120227128268 175.5948370859027 M75.80098552331329 154.7721958555281 C75.67676639711857 160.8024591192603, 76.07209503805637 165.96371985003353, 76.0355310164392 174.91769453659654 M75.42965365052223 175.33136435866356 C72.27705284297467 175.62677269341947, 67.50869642019272 174.7218009603262, 59.72197668671608 175.33664447188377 M75.80034696280956 175.30824178040027 C69.56572594761849 175.0183239718437, 63.71069172441959 175.20984273633957, 60.13948421180248 175.2423879176378 M59.89385078698397 174.27133850306274 C59.60580028232932 170.80337499305605, 59.3009195202291 165.78428080677986, 59.54224561005831 154.73784312456846 M60.06167616471648 175.37014702931046 C60.12696653419733 169.25016656816007, 59.828680978357795 163.54443552717566, 59.804441567510366 155.19890529289842" stroke="#3B7DD8" stroke-width="1.5" fill="none"/></g><g><path d="M81.51478699892759 150.68322523385285 L98.76526331156492 149.2253125503659 L98.26211871355773 174.932422144711 L82.34934734553099 174.34571612626314" stroke="none" stroke-width="0" fill="#E3EDFA"/><path d="M81.36162073731423 149.51461089491843 C85.38552964270114 149.65177743656636, 87.9179798078537 150.44533841831685, 98.21408781647682 149.51298915266992 M81.92193483054638 150.03620530426502 C86.57471349954605 149.76944950137138, 91.69805552303791 149.79304956469534, 98.19976958930492 150.19784533798693 M97.4166313007474 150.20951837748288 C98.03806059863417 159.0457582941279, 98.45586355235427 167.18955894075333, 98.16120227128268 175.5948370859027 M97.80098552331329 149.7721958555281 C97.67942244697362 157.1655676247552, 98.07475108791142 163.6899368610233, 98.0355310164392 174.91769453659654 M97.42965365052223 175.33136435866356 C94.27705284297467 175.62677269341947, 89.50869642019272 174.7218009603262, 81.72197668671608 175.33664447188377 M97.80034696280956 175.30824178040027 C91.56572594761849 175.0183239718437, 85.71069172441959 175.20984273633957, 82.13948421180248 175.2423879176378 M81.89385078698396 174.27133850306274 C81.61203001771122 169.5734182814136, 81.30714925561101 163.32436738349497, 81.5422456100583 149.73784312456846 M82.06167616471649 175.37014702931046 C82.11689520638437 167.8592502905056, 81.81860965054483 160.76260297186673, 81.80444156751037 150.19890529289842" stroke="#3B7DD8" stroke-width="1.5" fill="none"/></g><g><path d="M103.51478699892759 157.68322523385285 L120.76526331156492 156.2253125503659 L120.26211871355773 174.932422144711 L104.34934734553099 174.34571612626314" stroke="none" stroke-width="0" fill="#E3EDFA"/><path d="M103.36162073731423 156.51461089491843 C107.38552964270114 156.65177743656636, 109.9179798078537 157.44533841831685, 120.21408781647682 156.51298915266992 M103.92193483054638 157.03620530426502 C108.57471349954605 156.76944950137138, 113.69805552303791 156.79304956469534, 120.19976958930492 157.19784533798693 M119.47496817067265 157.1885665397346 C120.038491536811 163.6332465723902, 120.41451419515907 169.45473126202822, 120.1450820441544 175.53535337731242 M119.82088697098196 156.7949762699753 C119.70908975740672 162.22221320733428, 120.06488553425073 166.86734786503018, 120.03197791479528 174.92592508293689 M119.42965365052223 175.33136435866356 C116.27705284297467 175.62677269341947, 111.50869642019272 174.7218009603262, 103.72197668671608 175.33664447188377 M119.80034696280956 175.30824178040027 C113.56572594761849 175.0183239718437, 107.71069172441959 175.20984273633957, 104.13948421180248 175.2423879176378 M103.90446570828557 174.34420465275645 C103.64522025409639 171.22303749375047, 103.3708275682062 166.70585272610188, 103.58802104905247 156.7640588121116 M104.05550854824483 175.33313232637943 C104.1142698807776 169.82514991134406, 103.84581288052202 164.68999197445808, 103.82399741075933 157.17901476360856" stroke="#3B7DD8" stroke-width="1.5" fill="none"/></g><g><path d="M125.51478699892759 130.68322523385285 L142.76526331156492 129.2253125503659 L142.26211871355773 174.932422144711 L126.34934734553099 174.34571612626314" stroke="none" stroke-width="0" fill="#E3EDFA"/><path d="M125.36162073731423 129.51461089491843 C129.38552964270116 129.65177743656636, 131.9179798078537 130.44533841831685, 142.21408781647682 129.51298915266992 M125.92193483054638 130.03620530426502 C130.57471349954605 129.76944950137138, 135.6980555230379 129.79304956469534, 142.19976958930494 130.19784533798693 M141.41663130074738 130.20951837748288 C142.01922949623315 145.74769559334965, 142.43703244995325 160.59343353919684, 142.16120227128266 175.5948370859027 M141.80098552331327 129.7721958555281 C141.69004664639382 142.61800164673477, 142.08537528733163 154.59480490498245, 142.0355310164392 174.91769453659654 M141.42965365052223 175.33136435866356 C138.27705284297465 175.62677269341947, 133.50869642019273 174.7218009603262, 125.72197668671608 175.33664447188377 M141.80034696280956 175.30824178040027 C135.5657259476185 175.0183239718437, 129.7106917244196 175.20984273633957, 126.13948421180248 175.2423879176378 M125.89385078698396 174.27133850306274 C125.63694895923882 164.65359143484383, 125.33206819713861 153.48471369035542, 125.5422456100583 129.73784312456846 M126.06167616471649 175.37014702931046 C126.07660989513249 162.29558517988772, 125.77832433929295 149.63527275063097, 125.80444156751037 130.19890529289842" stroke="#3B7DD8" stroke-width="1.5" fill="none"/></g><g><path d="M147.5147869989276 110.68322523385287 L164.76526331156492 109.22531255036593 L164.26211871355773 174.932422144711 L148.349347345531 174.34571612626314" stroke="none" stroke-width="0" fill="#E3EDFA"/><path d="M147.3616207373142 109.51461089491845 C151.38552964270116 109.65177743656635, 153.9179798078537 110.44533841831684, 164.21408781647682 109.5129891526699 M147.92193483054638 110.03620530426502 C152.57471349954605 109.76944950137138, 157.6980555230379 109.79304956469537, 164.19976958930494 110.19784533798695 M163.41663130074738 110.2095183774829 C164.00039839383214 132.4496328925714, 164.41820134755224 153.99730813764035, 164.16120227128266 175.5948370859027 M163.80098552331327 109.77219585552811 C163.70067084581405 128.07043566871434, 164.09599948675185 145.4996729489416, 164.0355310164392 174.91769453659654 M163.42965365052223 175.33136435866356 C160.27705284297465 175.62677269341947, 155.50869642019273 174.7218009603262, 147.7219766867161 175.33664447188377 M163.80034696280956 175.30824178040027 C157.5657259476185 175.0183239718437, 151.7106917244196 175.20984273633957, 148.13948421180248 175.2423879176378 M147.89385078698396 174.27133850306274 C147.66186790076642 159.73376458827406, 147.3569871386662 143.64505999721587, 147.5422456100583 109.73784312456846 M148.0616761647165 175.37014702931046 C148.0363245838806 156.73192006926985, 147.73803902804104 138.50794252939522, 147.80444156751037 110.19890529289842" stroke="#3B7DD8" stroke-width="1.5" fill="none"/></g><g><path d="M169.5147869989276 95.68322523385287 L186.76526331156492 94.22531255036593 L186.26211871355773 174.932422144711 L170.349347345531 174.34571612626314" stroke="none" stroke-width="0" fill="#E3EDFA"/><path d="M169.3616207373142 94.51461089491845 C173.38552964270116 94.65177743656635, 175.9179798078537 95.44533841831684, 186.21408781647682 94.5129891526699 M169.92193483054638 95.03620530426502 C174.57471349954605 94.76944950137138, 179.6980555230379 94.79304956469537, 186.19976958930494 95.19784533798695 M185.41663130074738 95.2095183774829 C185.98627506703139 122.4760858669877, 186.40407802075148 149.05021408647298, 186.16120227128266 175.5948370859027 M185.80098552331327 94.77219585552811 C185.7086389953792 117.15976118519902, 186.103967636317 138.67832398191095, 186.0355310164392 174.91769453659654 M185.42965365052223 175.33136435866356 C182.27705284297465 175.62677269341947, 177.50869642019273 174.7218009603262, 169.7219766867161 175.33664447188377 M185.80034696280956 175.30824178040027 C179.5657259476185 175.0183239718437, 173.7106917244196 175.20984273633957, 170.13948421180248 175.2423879176378 M169.89385078698396 174.27133850306274 C169.68055710691212 156.04389445334672, 169.3756763448119 136.2653197273612, 169.5422456100583 94.73784312456846 M170.0616761647165 175.37014702931046 C170.0061106004417 152.55917123630644, 169.70782504460215 130.1624448634684, 169.80444156751037 95.19890529289842" stroke="#3B7DD8" stroke-width="1.5" fill="none"/></g><g><path d="M191.5147869989276 103.68322523385287 L208.76526331156492 102.22531255036593 L208.26211871355773 174.932422144711 L192.349347345531 174.34571612626314" stroke="none" stroke-width="0" fill="#E3EDFA"/><path d="M191.3616207373142 102.51461089491845 C195.38552964270116 102.65177743656635, 197.9179798078537 103.44533841831684, 208.21408781647682 102.5129891526699 M191.92193483054638 103.03620530426502 C196.57471349954605 102.76944950137138, 201.6980555230379 102.79304956469537, 208.19976958930494 103.19784533798695 M207.41663130074738 103.2095183774829 C207.9938075079918 127.795310947299, 208.4116104617119 151.68866424709557, 208.16120227128266 175.5948370859027 M207.80098552331327 102.77219585552811 C207.7043893156111 122.97878757640719, 208.09971795654891 142.3163767643273, 208.0355310164392 174.91769453659654 M207.42965365052223 175.33136435866356 C204.27705284297465 175.62677269341947, 199.50869642019273 174.7218009603262, 191.7219766867161 175.33664447188377 M207.80034696280956 175.30824178040027 C201.5657259476185 175.0183239718437, 195.7106917244196 175.20984273633957, 192.13948421180248 175.2423879176378 M191.89385078698396 174.27133850306274 C191.6705895303011 158.01182519197462, 191.36570876820088 140.20118120461703, 191.5422456100583 102.73784312456846 M192.0616761647165 175.37014702931046 C192.02222472494245 154.7846372805536, 191.7239391691029 134.61337695196272, 191.80444156751037 103.19890529289842" stroke="#3B7DD8" stroke-width="1.5" fill="none"/></g><g><path d="M213.5147869989276 120.68322523385287 L230.76526331156492 119.22531255036593 L230.26211871355773 174.932422144711 L214.349347345531 174.34571612626314" stroke="none" stroke-width="0" fill="#E3EDFA"/><path d="M213.3616207373142 119.51461089491845 C217.38552964270116 119.65177743656635, 219.9179798078537 120.44533841831684, 230.21408781647682 119.5129891526699 M213.92193483054638 120.03620530426502 C218.57471349954605 119.76944950137138, 223.6980555230379 119.79304956469537, 230.19976958930494 120.19784533798695 M229.41663130074738 120.2095183774829 C230.00981394503265 139.09866424296052, 230.42761689875275 157.2953708384186, 230.16120227128266 175.5948370859027 M229.80098552331327 119.77219585552811 C229.69535874610395 135.34421865772455, 230.09068738704175 150.04723892696202, 230.0355310164392 174.91769453659654 M229.42965365052223 175.33136435866356 C226.27705284297465 175.62677269341947, 221.50869642019273 174.7218009603262, 213.7219766867161 175.33664447188377 M229.80034696280956 175.30824178040027 C223.5657259476185 175.0183239718437, 217.7106917244196 175.20984273633957, 214.13948421180248 175.2423879176378 M213.89385078698396 174.27133850306274 C213.64940843000264 162.19367801155894, 213.3445276679024 148.56488684378564, 213.5422456100583 119.73784312456846 M214.0616761647165 175.37014702931046 C214.05646723950656 159.51375262457879, 213.758181683667 144.0716076400131, 213.80444156751037 120.19890529289842" stroke="#3B7DD8" stroke-width="1.5" fill="none"/></g><g><path d="M235.5147869989276 145.68322523385285 L252.76526331156492 144.2253125503659 L252.26211871355773 174.932422144711 L236.349347345531 174.34571612626314" stroke="none" stroke-width="0" fill="#E3EDFA"/><path d="M235.3616207373142 144.51461089491843 C239.38552964270116 144.65177743656636, 241.9179798078537 145.44533841831685, 252.21408781647682 144.51298915266992 M235.92193483054638 145.03620530426502 C240.57471349954605 144.76944950137138, 245.6980555230379 144.79304956469534, 252.19976958930494 145.19784533798693 M251.41663130074738 145.20951837748288 C252.03335282303394 155.72124261893333, 252.45115577675404 165.5405275903642, 252.16120227128266 175.5948370859027 M251.80098552331327 144.7721958555281 C251.68207849682867 153.5286761302501, 252.07740713776647 161.4161538720131, 252.0355310164392 174.91769453659654 M251.42965365052223 175.33136435866356 C248.27705284297465 175.62677269341947, 243.50869642019273 174.7218009603262, 235.7219766867161 175.33664447188377 M251.80034696280956 175.30824178040027 C245.5657259476185 175.0183239718437, 239.7106917244196 175.20984273633957, 236.13948421180248 175.2423879176378 M235.89385078698396 174.27133850306274 C235.61825975309313 168.34346156977116, 235.3133789909929 160.86445396021008, 235.5422456100583 144.73784312456846 M236.0616761647165 175.37014702931046 C236.1068238785714 166.46833401285113, 235.80853832273183 157.9807704165578, 235.80444156751037 145.19890529289842" stroke="#3B7DD8" stroke-width="1.5" fill="none"/></g><g filter="url(#shadow)"><g><path d="M356.65633561473425 71.0522911554429 C443.8416461820265 71.38631377246915, 529.7322497293457 69.38511115881154, 601.6395216271804 67.42226530657945 C606.9519162476063 69.94918820261955, 608.4637286484242 71.44558808207512, 610.7072242081165 76.81974999308586 C607.4831835943579 103.12578086964785, 609.232195778501 137.47480189427733, 609.078692215681 155.151943141222 C612.9148452460765 156.49487336277963, 606.8320947349072 161.6449487030506, 606.2473699271679 162.79375432133673 C540.6313697267065 161.80713771146966, 480.3894710798769 160.44354698833206, 354.15906220581604 162.2123027073347 C349.7592212021351 161.76664826273918, 347.8782906830311 160.1695605933666, 346.93129552006724 152.5660491645336 C351.51558912855387 138.73293199427425, 349.00002001386883 120.17640368118883, 347.871750420332 76.06453984379769 C347.5492486655712 69.38233578801155, 349.93082310557367 67.16212914586067, 354.60279995799067 68.95677216649055 C356 70, 356 70, 356 70" stroke="none" stroke-width="0" fill="#E0E8F8"/><path d="M354.6913742202144 69.00499165110031 C406.0209538996879 69.724475490112, 454.2931639698389 71.35121122426098, 604.4388626826643 69.00166721085195 M355.8399727258988 70.07421794111364 C429.24511603817194 70.30625404404435, 503.6148761115224 70.35463226225336, 604.4095114767383 70.40556691740086 M604 70 C608.9285333484411 68.8332626014948, 610.4190367549658 72.12319895327092, 610.5615498393774 75.37229658663273 M605.3366733402014 70.9588048607111 C609.3681252975762 69.4962393002212, 610.4072609777749 72.33465817019344, 610.9998460932076 76.37076522395014 M611.4001003891229 76.24588335454465 C610.0221825450718 95.66134177036585, 609.4575534671604 114.37033961489797, 609.9479123741388 154.87821205556392 M610.7571195051074 75.71563103944064 C609.819752988559 92.10137472413481, 610.6146537396729 109.60443560853602, 609.2342533990741 153.84582670480012 M610 154 C608.8949085086584 158.12862145006656, 608.68601616323 161.08621527254581, 603.0017348140478 161.5412089020014 M610.6974210590124 155.21193958818913 C610.6813183040917 157.75585681006314, 606.3240785570442 159.03602708384395, 603.0062406988442 159.04477390810848 M603.2493124629801 159.5700797120578 C506.89451859396473 161.86235817153926, 411.3525381276582 160.96355966582985, 357.2140342850833 160.54856437723424 M603.6792968429035 160.32619179129043 C540.74457697579 159.7592575955594, 478.91236295248825 158.56381643147108, 356.214928852471 159.94458834818553 M356 160 C350.92626169621946 159.97833820879458, 350.7636767238379 157.43913637697696, 350.698694691062 152.69143225252628 M354.5520530551672 160.5530259758234 C352.3082204170525 159.86775154158474, 351.03466383650897 157.29805212542414, 350.8244108171761 153.61455590769648 M349.6845680862665 153.38609217107296 C351.5078260784805 123.80337954573334, 349.7234338169754 93.13803447410464, 350.3355905205011 76.8900151103735 M350.20270609110594 153.22572377473116 C348.9819840700567 137.52669659890233, 349.5233875067174 120.05494756028057, 350.5380980417132 76.13057153970003 M350 76 C351.4827491611242 71.38475662767887, 352.7871746867895 70.90930601656437, 356.8375857204199 69.10031038820743 M348.71072557866574 75.03440777361394 C351.1230113239586 70.79961880728602, 353.679446503669 68.16217860743403, 357.26228613570333 68.37405653521418 M356 70 C356 70, 356 70, 356 70 M356 70 C356 70, 356 70, 356 70" stroke="#326CE5" stroke-width="1.5" fill="none"/></g></g><g><path d="M379.6360902491957 195.51241892538965 L580.5739474836737 194.41898441277445 L580.1965890351682 212.94931660853325 L380.26201050914824 212.50928709469736" stroke="none" stroke-width="0" fill="#F0F0F0"/><path d="M379.4613830576034 194.59046477394688 C420.1917501219188 194.84861773083153, 459.6637352284682 195.51816546613458, 580.1806313767618 194.58909646845464 M379.934134416112 195.03054734296933 C439.20928760529415 195.05856209863126, 498.8814671548473 195.07847407680933, 580.1685507215923 195.16692718144637 M579.6062261280044 195.14142490480094 C580.0288686526083 201.48287082161755, 580.3108856463693 207.35692023117096, 580.1088115331158 213.40151503298432 M579.8656652282365 194.84623220248147 C579.781817318055 200.1434575604461, 580.0486641506881 204.85410620866344, 580.0239834360965 212.94444381220265 M579.5187841698204 213.27958060061613 C528.6962449704755 213.6888737058283, 476.5104513548198 212.92532586471688, 379.76542460623494 213.28403556744294 M579.8315476164133 213.26007148881934 C502.14782427174214 212.95926586194076, 424.7843680303863 213.12085515121424, 380.1176864037807 213.20450889730142 M379.9283492812142 212.50815348956735 C379.7339151905723 209.06031707983465, 379.52812067615463 204.56546746362, 379.69101578678936 194.82304410908372 M380.04163141118363 213.24984924478457 C380.0857024105832 207.867037783619, 379.8843596603915 202.7638446810655, 379.8679980580695 195.13426107270644" stroke="#CCC" stroke-width="1.5" fill="none"/></g><g><path d="M379.6360902491957 195.51241892538965 L580.5739474836737 194.41898441277445 L580.1965890351682 212.94931660853325 L380.26201050914824 212.50928709469736" stroke="none" stroke-width="0" fill="#D4644B"/><path d="M379.4613830576034 194.59046477394688 C420.1917501219188 194.84861773083153, 459.6637352284682 195.51816546613458, 580.1806313767618 194.58909646845464 M379.934134416112 195.03054734296933 C439.20928760529415 195.05856209863126, 498.8814671548473 195.07847407680933, 580.1685507215923 195.16692718144637 M579.6062261280044 195.14142490480094 C580.0288686526083 201.48287082161755, 580.3108856463693 207.35692023117096, 580.1088115331158 213.40151503298432 M579.8656652282365 194.84623220248147 C579.781817318055 200.1434575604461, 580.0486641506881 204.85410620866344, 580.0239834360965 212.94444381220265 M579.5187841698204 213.27958060061613 C528.6962449704755 213.6888737058283, 476.5104513548198 212.92532586471688, 379.76542460623494 213.28403556744294 M579.8315476164133 213.26007148881934 C502.14782427174214 212.95926586194076, 424.7843680303863 213.12085515121424, 380.1176864037807 213.20450889730142 M379.9283492812142 212.50815348956735 C379.7339151905723 209.06031707983465, 379.52812067615463 204.56546746362, 379.69101578678936 194.82304410908372 M380.04163141118363 213.24984924478457 C380.0857024105832 207.867037783619, 379.8843596603915 202.7638446810655, 379.8679980580695 195.13426107270644" stroke="#D4644B" stroke-width="1.5" fill="none"/></g><g filter="url(#shadow)"><g><path d="M706.709702611315 61.13785350682811 C780.1009563172884 61.238263018729526, 852.0922296895192 59.074341560256855, 911.4475898800326 57.212668332894474 C916.9519162476063 59.94918820261955, 918.4637286484242 61.44558808207512, 920.7072242081165 66.81974999308586 C917.4568233085394 89.25630904212593, 919.2058354926825 119.7358582392335, 919.078692215681 135.151943141222 C922.9148452460765 136.49487336277963, 916.8320947349072 141.6449487030506, 916.2473699271679 142.79375432133673 C860.7435328034782 141.62812287569335, 810.8680334386066 140.15365786838524, 704.0093745783856 142.39218621261395 C699.7592212021351 141.76664826273918, 697.8782906830311 140.1695605933666, 696.9312955200672 132.5660491645336 C701.6059870101213 120.87649524435402, 699.0904178954363 104.46353018134833, 697.871750420332 66.06453984379769 C697.5492486655712 59.38233578801155, 699.9308231055736 57.162129145860675, 704.6027999579907 58.95677216649055 C706 60, 706 60, 706 60" stroke="none" stroke-width="0" fill="#FBEAE5"/><path d="M704.58496916471 58.92408699506532 C748.0438218479906 59.618924686211294, 788.1967085791265 61.37793116479845, 914.4745468399148 58.920492242818966 M705.8269608234543 60.08025264122855 C767.3449757775768 60.18340243713048, 829.9060409927034 60.23571431389434, 914.4428090718837 60.43854377833652 M914 60 C918.9285333484411 58.83326260149479, 920.4190367549658 62.123198953270915, 920.5615498393774 65.37229658663273 M915.3366733402014 60.9588048607111 C919.3681252975762 59.496239300221205, 920.4072609777749 62.334658170193435, 920.9998460932076 66.37076522395014 M921.4001003891229 66.24588335454465 C920.0495190424085 83.15887796208263, 919.4848899644971 99.36541199833154, 919.9479123741388 134.87821205556392 M920.7571195051074 65.71563103944064 C919.7949006616592 79.99254089519383, 920.5898014127731 95.38676795065403, 919.2342533990741 133.84582670480012 M920 134 C918.8949085086584 138.12862145006656, 918.68601616323 141.08621527254581, 913.0017348140478 141.5412089020014 M920.6974210590124 135.21193958818913 C920.6813183040917 137.75585681006314, 916.3240785570442 139.03602708384395, 913.0062406988442 139.04477390810848 M913.1882736616077 139.53512266566025 C832.487254736298 141.88101829269726, 752.6651395021248 140.9091380042776, 707.3127480560361 140.5931684373934 M913.6532202992815 140.35271461866668 C860.8505436423618 139.87937493615834, 809.2400181635555 138.58673181763655, 706.2324048313413 139.94008279741772 M706 140 C700.9262616962194 139.97833820879458, 700.7636767238379 137.43913637697696, 700.698694691062 132.69143225252628 M704.5520530551672 140.5530259758234 C702.3082204170526 139.86775154158474, 701.034663836509 137.29805212542414, 700.8244108171762 133.61455590769648 M699.6845680862665 133.38609217107296 C701.475436820066 107.73498082235456, 699.6910445585607 81.00123702734709, 700.3355905205011 66.8900151103735 M700.2027060911059 133.22572377473116 C699.0243361184835 119.72631712332368, 699.5657395551443 104.45418860912324, 700.5380980417133 66.13057153970003 M700 66 C701.4827491611243 61.38475662767887, 702.7871746867895 60.90930601656437, 706.8375857204198 59.10031038820743 M698.7107255786657 65.03440777361394 C701.1230113239586 60.79961880728602, 703.679446503669 58.162178607434036, 707.2622861357033 58.37405653521419 M706 60 C706 60, 706 60, 706 60 M706 60 C706 60, 706 60, 706 60" stroke="#D4644B" stroke-width="1.5" fill="none"/></g></g><g filter="url(#shadow)"><g><path d="M726.9004960276186 171.44374917969108 C786.7290764652192 171.24027468696832, 844.7813118405641 168.4946138335824, 890.7614108540117 166.4633340023458 C896.8209057785571 169.942836727947, 898.2716947294772 171.3762865923345, 900.7956272341311 176.9222187422216 C897.0499602574691 187.26588113643228, 899.0175989646301 206.6579074472189, 898.9635287426412 215.29593603387474 C903.2792009018361 216.30673253312708, 896.6861065767705 221.85056729093193, 896.5282911680639 223.14297361150383 C850.7619792334735 221.6522381861925, 811.8138512380422 219.78138430912495, 723.4742233492434 223.03529132828118 C719.4791238524019 221.98747929558158, 717.61307701841 220.44075566753745, 716.5477074600756 212.38680531010033 C722.1118282366767 207.48877566270528, 719.281812982656 197.27690847963095, 717.6057192228734 176.07260732427238 C717.2429047487676 169.055127761513, 719.6721759937703 166.80739528909325, 724.4281499527394 168.82636868730188 C726 170, 726 170, 726 170" stroke="none" stroke-width="0" fill="#FFF5F3"/><path d="M724.005064804107 168.48315904662013 C760.2020602636039 169.34553019934893, 791.7382471598685 171.8254082673192, 894.6690244264901 168.47809110209346 M725.7560463454574 170.1131415758282 C775.315955690667 170.05025879685581, 826.3463755186647 170.12400899474324, 894.6242799665779 170.6182666812092 M894 170 C899.1606666855514 168.5415782518685, 900.5237959437072 172.15399869158864, 900.7019372992218 175.2153707332909 M895.6708416752517 171.19850607588887 C899.7101566219702 169.37029912527652, 900.5090762222186 172.4183227127418, 901.2498076165095 176.46345652993767 M901.7501254864037 176.3073541931808 C900.1644106680229 185.6870175536722, 899.4586243206337 194.18360520005226, 899.9348904676735 215.0977650694549 M900.9463993813843 175.6445387993008 C899.6504296011999 183.57915712296963, 900.6440555400923 192.91042194627227, 899.0428167488426 213.80728338100016 M900 214 C898.618635635823 218.1607768125832, 898.8575202040374 221.35776909068227, 892.7521685175598 221.92651112750173 M900.8717763237655 215.5149244852364 C900.8516478801146 217.6948210125789, 895.9050981963053 218.79503385480493, 892.7578008735552 218.8059673851356 M892.8556140251458 219.34460781142116 C827.9764264784753 222.4647121053934, 764.3363327123225 221.09453829348087, 727.8507351465523 220.83625922724605 M893.5111039187759 220.49726323224604 C850.8125532399863 220.02688122831285, 809.7947181221098 218.20449037395417, 726.3276483919472 219.91552768088877 M726 220 C720.6578271202743 219.97292276099324, 720.9545959047973 217.2989204712212, 720.8733683638275 212.36429031565785 M724.190066318959 220.69128246977925 C722.3852755213156 219.8346894269809, 721.2933297956363 217.12256515678018, 721.0305135214701 213.5181948846206 M719.6057101078331 213.2326152138412 C721.7228363060281 199.64725202806295, 719.4923459791466 184.70859828442335, 720.4194881506264 177.11251888796687 M720.2533826138824 213.03215471841395 C718.9392403297052 206.49611286893486, 719.6159946255311 197.74416869096459, 720.6726225521415 176.16321442462504 M720 176 C721.8534364514053 171.2309457845986, 722.9839683584869 171.13663252070546, 727.0469821505249 168.8753879852593 M718.3884069733322 174.7930097170174 C721.4037641549482 170.49952350910752, 724.0993081295862 167.70272325929255, 727.5778576696291 167.96757066901773 M726 170 C726 170, 726 170, 726 170 M726 170 C726 170, 726 170, 726 170" stroke="#D4644B" stroke-width="1.5" fill="none"/></g></g></g><g id="layer-text"><text x="24" y="26" text-anchor="start" font-family="Inter, &quot;IBM Plex Sans&quot;, system-ui, sans-serif" font-size="10" font-weight="600" fill="#3B7DD8" letter-spacing="1">DOMAIN A — PAYMENT PROCESSING</text><text x="324" y="26" text-anchor="start" font-family="Inter, &quot;IBM Plex Sans&quot;, system-ui, sans-serif" font-size="10" font-weight="600" fill="#999" letter-spacing="1">SHARED INFRASTRUCTURE</text><text x="684" y="26" text-anchor="start" font-family="Inter, &quot;IBM Plex Sans&quot;, system-ui, sans-serif" font-size="10" font-weight="600" fill="#D4644B" letter-spacing="1">DOMAIN B — FRAUD DETECTION</text><text x="150" y="79.27499999999999" text-anchor="middle" font-family="Inter, &quot;IBM Plex Sans&quot;, system-ui, sans-serif" font-size="13" font-weight="700" fill="#3B7DD8" letter-spacing="0.2">Payment Processing</text><text x="150" y="100.82499999999999" text-anchor="middle" font-family="Inter, &quot;IBM Plex Sans&quot;, system-ui, sans-serif" font-size="10" font-weight="400" fill="#2A5FA4">Traffic spike: 3× normal</text><text x="150" y="115.32499999999999" text-anchor="middle" font-family="Inter, &quot;IBM Plex Sans&quot;, system-ui, sans-serif" font-size="10" font-weight="400" fill="#2A5FA4">All HPAs scaling out</text><text x="150" y="191" text-anchor="middle" font-family="Inter, &quot;IBM Plex Sans&quot;, system-ui, sans-serif" font-size="9" font-weight="600" fill="#3B7DD8">traffic spike ↑</text><text x="480" y="92.5" text-anchor="middle" font-family="Inter, &quot;IBM Plex Sans&quot;, system-ui, sans-serif" font-size="14" font-weight="700" fill="#326CE5" letter-spacing="0.5">Shared Node Pool</text><text x="480" y="115.4" text-anchor="middle" font-family="Inter, &quot;IBM Plex Sans&quot;, system-ui, sans-serif" font-size="11" font-weight="400" fill="#D4644B">Capacity: 100%</text><text x="480" y="131.35" text-anchor="middle" font-family="Inter, &quot;IBM Plex Sans&quot;, system-ui, sans-serif" font-size="11" font-weight="400" fill="#D4644B">Headroom: 0%</text><text x="480" y="208" text-anchor="middle" font-family="Inter, &quot;IBM Plex Sans&quot;, system-ui, sans-serif" font-size="9" font-weight="700" fill="#FFF">100% allocated</text><text x="810" y="77.825" text-anchor="middle" font-family="Inter, &quot;IBM Plex Sans&quot;, system-ui, sans-serif" font-size="13" font-weight="700" fill="#D4644B" letter-spacing="0.2">Fraud Detection</text><text x="810" y="99.375" text-anchor="middle" font-family="Inter, &quot;IBM Plex Sans&quot;, system-ui, sans-serif" font-size="11" font-weight="400" fill="#B04A33">Pods: Pending</text><text x="810" y="115.325" text-anchor="middle" font-family="Inter, &quot;IBM Plex Sans&quot;, system-ui, sans-serif" font-size="11" font-weight="400" fill="#B04A33">Latency: ↑↑↑</text><text x="810" y="182.17499999999998" text-anchor="middle" font-family="Inter, &quot;IBM Plex Sans&quot;, system-ui, sans-serif" font-size="11" font-weight="700" fill="#D4644B" letter-spacing="0.2">SLO VIOLATION</text><text x="810" y="201.02499999999998" text-anchor="middle" font-family="Inter, &quot;IBM Plex Sans&quot;, system-ui, sans-serif" font-size="10" font-weight="400" fill="#D4644B">p99 &gt; 500ms budget</text><text x="305" y="99.5" text-anchor="middle" font-family="Inter, &quot;IBM Plex Sans&quot;, system-ui, sans-serif" font-size="10" font-weight="500" fill="#888">consumes capacity</text><text x="655" y="99.5" text-anchor="middle" font-family="Inter, &quot;IBM Plex Sans&quot;, system-ui, sans-serif" font-size="10" font-weight="500" fill="#888">no room to schedule</text><text x="480" y="330" text-anchor="middle" font-family="Inter, &quot;IBM Plex Sans&quot;, system-ui, sans-serif" font-size="12" font-weight="600" fill="#999">Domain B had no traffic event — degraded by proximity alone</text><text x="480" y="382" text-anchor="middle" font-family="Inter, &quot;IBM Plex Sans&quot;, system-ui, sans-serif" font-size="10" font-weight="400" fill="#BBB">Cascade propagation: scaling in one domain starves structurally unrelated domains</text></g></svg>