<?xml version="1.0" encoding="UTF-8"?>
<svg xmlns="http://www.w3.org/2000/svg" width="980" height="370" viewBox="-10 -10 980 370"><defs><filter id="shadow" x="-4%" y="-4%" width="112%" height="112%"><feFlood flood-color="#000000" flood-opacity="0.08" result="color"/><feComposite in="color" in2="SourceGraphic" operator="in" result="shadow"/><feGaussianBlur in="shadow" stdDeviation="3" result="blur"/><feOffset in="blur" dx="2" dy="3" result="offsetBlur"/><feMerge><feMergeNode in="offsetBlur"/><feMergeNode in="SourceGraphic"/></feMerge></filter><filter id="shadow-light" x="-4%" y="-4%" width="112%" height="112%"><feFlood flood-color="#000000" flood-opacity="0.04" result="color"/><feComposite in="color" in2="SourceGraphic" operator="in" result="shadow"/><feGaussianBlur in="shadow" stdDeviation="2" result="blur"/><feOffset in="blur" dx="1" dy="2" result="offsetBlur"/><feMerge><feMergeNode in="offsetBlur"/><feMergeNode in="SourceGraphic"/></feMerge></filter></defs><rect x="-10" y="-10" width="980" height="370" fill="#ffffff" rx="8"/><g id="layer-zones"><rect x="10" y="8" width="280" height="240" fill="#FDF6F4" rx="12" ry="12"/><rect x="310" y="8" width="210" height="240" fill="#EDF0F6" rx="12" ry="12"/><rect x="540" y="8" width="410" height="240" fill="#F4F5F8" rx="12" ry="12"/></g><g id="layer-connectors"><g><path d="M96.18431528689771 74.37979740874461 C145.69990091842575 86.83240111476299, 193.28877674945045 99.85769708204192, 339.2735492353353 134.3777252387384 M96.90025276654326 75.04626107856002 C168.51206110280913 92.98488417648177, 240.81167831818337 110.8218064550677, 339.25525421902523 135.25279552013572" stroke="#AAB5CC" stroke-width="0.8" fill="none"/></g><polygon points="339,135 331.1687615709603,136.63453500039992 332.839371781061,129.89640715299382" fill="#AAB5CC" stroke="none"/><g><path d="M180.00253240205348 74.24157952331007 C212.94069304022938 86.6694410838075, 243.52275877337902 99.92070899753645, 339.33451221324503 134.23904555104673 M180.87802317272872 75.0565707879141 C227.51381950274111 92.80585871294514, 274.9907092840225 110.64950127184764, 339.31213998328894 135.3091333406046" stroke="#AAB5CC" stroke-width="0.8" fill="none"/></g><polygon points="339,135 331.02947868999576,135.68614141892752 333.4940142849718,129.19619768549052" fill="#AAB5CC" stroke="none"/><g><path d="M264.0025324020535 74.24157952331007 C280.12483260858806 86.54635676067696, 293.8910379100964 99.79762467440591, 339.33451221324503 134.23904555104673 M264.8780231727287 75.0565707879141 C286.58434505879876 92.58713829123602, 309.1317603961378 110.43078085013852, 339.31213998328894 135.3091333406046" stroke="#AAB5CC" stroke-width="0.8" fill="none"/></g><polygon points="339,135 331.2152513905291,133.15671784923188 335.5874246485028,127.76437083106424" fill="#AAB5CC" stroke="none"/><g><path d="M96.17213341368048 134.37053497043442 C145.68237498807085 134.81840003176094, 193.25845464949506 135.84751024789514, 339.2776345664074 134.36843185352936 M96.89876308783258 135.0469519663318 C168.59529515761437 135.1807768071483, 240.90206584368755 135.21138197401845, 339.2590663225063 135.25657090408825" stroke="#AAB5CC" stroke-width="0.8" fill="none"/></g><polygon points="339,135 331.79224905678063,138.47106991294046 331.79224905678063,131.52893008705954" fill="#AAB5CC" stroke="none"/><g><path d="M180.00253240205348 134.24157952331007 C212.91500241681933 134.65811220406368, 243.49706814996898 135.89805123804882, 339.33451221324503 134.23904555104673 M180.87802317272872 135.0565707879141 C227.61965771261603 134.99909125298635, 275.0965474938974 135.03596635193006, 339.31213998328894 135.3091333406046" stroke="#AAB5CC" stroke-width="0.8" fill="none"/></g><polygon points="339,135 331.79224905678063,138.47106991294046 331.79224905678063,131.52893008705954" fill="#AAB5CC" stroke="none"/><g><path d="M264.0025324020535 134.24157952331007 C280.099141985178 134.53502788093314, 293.8653472866863 135.77496691491828, 339.33451221324503 134.23904555104673 M264.8780231727287 135.0565707879141 C286.6901832686737 134.78037083127722, 309.23759860601274 134.81724593022093, 339.31213998328894 135.3091333406046" stroke="#AAB5CC" stroke-width="0.8" fill="none"/></g><polygon points="339,135 331.79224905678063,138.47106991294046 331.79224905678063,131.52893008705954" fill="#AAB5CC" stroke="none"/><g><path d="M96.18431528689771 194.3797974087446 C145.6578836161519 182.80974335527537, 193.2467594471766 171.81238156306668, 339.2735492353353 134.3777252387384 M96.90025276654326 195.04626107856004 C168.68516068024866 177.3713492565642, 240.9847778956229 159.59473661523253, 339.25525421902523 135.25279552013572" stroke="#AAB5CC" stroke-width="0.8" fill="none"/></g><polygon points="339,135 332.839371781061,140.10359284700618 331.1687615709603,133.36546499960008" fill="#AAB5CC" stroke="none"/><g><path d="M180.00253240205348 194.24157952331007 C212.8893117934093 182.64678332431987, 243.47137752655894 171.8753934785612, 339.33451221324503 134.23904555104673 M180.87802317272872 195.0565707879141 C227.72549592249095 177.19232379302755, 275.2023857037723 159.42243143201247, 339.31213998328894 135.3091333406046" stroke="#AAB5CC" stroke-width="0.8" fill="none"/></g><polygon points="339,135 333.4940142849718,140.80380231450948 331.02947868999576,134.31385858107248" fill="#AAB5CC" stroke="none"/><g><path d="M264.0025324020535 194.24157952331007 C280.0734513617679 182.52369900118933, 293.83965666327623 171.75230915543065, 339.33451221324503 134.23904555104673 M264.8780231727287 195.0565707879141 C286.79602147854865 176.97360337131843, 309.3434368158877 159.20371101030335, 339.31213998328894 135.3091333406046" stroke="#AAB5CC" stroke-width="0.8" fill="none"/></g><polygon points="339,135 335.5874246485028,142.23562916893576 331.2152513905291,136.84328215076812" fill="#AAB5CC" stroke="none"/><g><path d="M491.0025324020535 134.24157952331007 C506.2983867265284 134.5291667226888, 519.2638367693871 135.76910575667395, 562.334512213245 134.23904555104673 M491.8780231727287 135.0565707879141 C512.5030654380098 134.7699555731006, 533.8633629446849 134.8068306720443, 562.312139983289 135.3091333406046" stroke="#D4644B" stroke-width="1.3" fill="none"/></g><polygon points="562,135 554.7922490567806,138.47106991294046 554.7922490567806,131.52893008705954" fill="#D4644B" stroke="none"/><line x1="540" y1="258" x2="940" y2="258" stroke="#D4644B" stroke-width="1.2" stroke-dasharray="4,3" stroke-linecap="round"/></g><g id="layer-boxes"><g><g><path d="M30.700385799258946 56.12291602864862 C52.705484467744824 55.26981498582661, 73.32898142114281 53.13430098874867, 87.48109733089805 52.24925977960229 C93.08292671665549 54.95553967729211, 94.65576256737113 56.51488957181573, 96.61882118210197 61.717281243950126 C93.68245939460695 69.16043415516614, 95.21284505573213 83.64120344594122, 95.19385568872094 90.00795024856924 C98.55048959031701 91.68301419243217, 92.97808289304376 96.43933011516928, 91.9664486862719 97.44453503116965 C74.29954423755407 95.41655134890973, 61.9356717415154 93.96144277785719, 28.035507049411535 97.36078214421869 C24.0393185518682 96.54581722989678, 22.143504347652197 94.89836551919579, 21.31488358005881 87.74529301896692 C25.721631219342353 84.26915757656097, 23.520508243992925 76.66003738418222, 22.13778161779046 61.056472363322975 C21.85559258237481 54.709543814510106, 24.189470217376947 52.516863002628085, 28.777449963241814 54.08717564567924 C30 55, 30 55, 30 55" stroke="none" stroke-width="0" fill="#E3EDFA"/><path d="M28.803038882464172 54.08989542797208 C42.353532519936564 54.41741659249365, 53.1075410194695 55.90534343327582, 90.40141465589404 54.086854661256076 M29.85362780727446 55.067884945496914 C47.48097154162824 54.69270091319084, 65.99062156565488 54.73695103192329, 90.37456797994673 55.370960008725525 M90 55 C94.69640001133084 54.12494695112109, 96.31427756622433 57.09239921495318, 96.42116237953306 60.529222439974546 M91.00250500515104 55.71910364553332 C95.02609397318214 54.6221794751659, 96.30544573333114 57.25099362764507, 96.7498845699057 61.27807391796261 M97.05007529184222 61.18441251590848 C96.11914877381624 68.11349171251058, 95.6956769653827 74.51272548064588, 95.96093428060412 89.65865904167295 M96.56783962883055 60.78672327958047 C95.77161851554513 66.64408786483109, 96.36779407888055 73.33944034986197, 95.42569004930556 88.8843700286001 M96 89 C95.17118138149381 93.09646608754993, 94.51451212242246 95.81466145440936, 89.25130111053586 96.15590667650103 M96.52306579425931 89.90895469114184 C96.51098872806877 92.81689260754735, 92.7430589177832 94.27702031288295, 89.25468052413315 94.28358043108136 M89.31336841508747 94.6067646868527 C66.31418526917696 96.17559509627522, 44.058458391577005 95.35349080912769, 31.110441087931395 95.50175553634763 M89.70666235126555 95.29835793934762 C74.42861506752669 95.33517242953182, 60.1589971203357 94.24173791691662, 30.19658903516829 94.94931660853327 M30 95 C25.194696272164585 94.98375365659595, 24.57275754287839 92.57935228273273, 24.52402101829648 88.01857418939471 M28.914039791375398 95.41476948186755 C26.23116531278938 94.90081365618855, 24.77599787738174 92.47353909406812, 24.618308112882076 88.71091693077237 M23.76342606469989 88.53956912830472 C25.009409839805958 78.34391855299472, 23.671115643677116 67.33629364296793, 24.251692890375853 61.66751133278012 M24.152029568329453 88.41929283104837 C23.395308234143258 83.35386504866183, 23.80136081163883 76.95889586918057, 24.403573531284927 61.097928654775025 M24 61 C25.11206187084317 56.538567470759155, 26.590381015092134 55.681979512423275, 30.628189290314914 54.32523279115558 M23.0330441839993 60.275805830210444 C24.842258492968977 56.09971410546452, 27.259584877751767 53.621633955575525, 30.946714601777494 53.78054240141064 M30 55 C30 55, 30 55, 30 55 M30 55 C30 55, 30 55, 30 55" stroke="#3B7DD8" stroke-width="1.5" fill="none"/></g></g><g><g><path d="M114.70038579925895 56.12291602864862 C136.70548446774484 55.26981498582661, 157.32898142114283 53.13430098874867, 171.48109733089805 52.24925977960229 C177.0829267166555 54.95553967729211, 178.65576256737114 56.51488957181573, 180.61882118210195 61.717281243950126 C177.68245939460692 69.16043415516614, 179.21284505573212 83.64120344594122, 179.19385568872093 90.00795024856924 C182.550489590317 91.68301419243217, 176.97808289304376 96.43933011516928, 175.96644868627192 97.44453503116965 C158.29954423755407 95.41655134890973, 145.9356717415154 93.96144277785719, 112.03550704941154 97.36078214421869 C108.0393185518682 96.54581722989678, 106.1435043476522 94.89836551919579, 105.31488358005882 87.74529301896692 C109.72163121934236 84.26915757656097, 107.52050824399294 76.66003738418222, 106.13778161779047 61.056472363322975 C105.85559258237481 54.709543814510106, 108.18947021737695 52.516863002628085, 112.77744996324182 54.08717564567924 C114 55, 114 55, 114 55" stroke="none" stroke-width="0" fill="#E3EDFA"/><path d="M112.80303888246416 54.08989542797208 C126.35353251993656 54.41741659249365, 137.1075410194695 55.90534343327582, 174.40141465589403 54.086854661256076 M113.85362780727446 55.067884945496914 C131.48097154162824 54.69270091319084, 149.99062156565486 54.73695103192329, 174.37456797994673 55.370960008725525 M174 55 C178.69640001133084 54.12494695112109, 180.31427756622435 57.09239921495318, 180.42116237953306 60.529222439974546 M175.00250500515102 55.71910364553332 C179.02609397318213 54.6221794751659, 180.30544573333114 57.25099362764507, 180.7498845699057 61.27807391796261 M181.05007529184223 61.18441251590848 C180.11914877381622 68.11349171251058, 179.6956769653827 74.51272548064588, 179.96093428060414 89.65865904167295 M180.56783962883054 60.78672327958047 C179.77161851554513 66.64408786483109, 180.36779407888056 73.33944034986197, 179.42569004930556 88.8843700286001 M180 89 C179.1711813814938 93.09646608754993, 178.51451212242245 95.81466145440936, 173.25130111053585 96.15590667650103 M180.5230657942593 89.90895469114184 C180.51098872806878 92.81689260754735, 176.7430589177832 94.27702031288295, 173.25468052413314 94.28358043108136 M173.31336841508747 94.6067646868527 C150.31418526917696 96.17559509627522, 128.058458391577 95.35349080912769, 115.11044108793139 95.50175553634763 M173.70666235126555 95.29835793934762 C158.4286150675267 95.33517242953182, 144.1589971203357 94.24173791691662, 114.19658903516829 94.94931660853327 M114 95 C109.19469627216458 94.98375365659595, 108.57275754287839 92.57935228273273, 108.52402101829648 88.01857418939471 M112.9140397913754 95.41476948186755 C110.23116531278939 94.90081365618855, 108.77599787738174 92.47353909406812, 108.61830811288208 88.71091693077237 M107.76342606469989 88.53956912830472 C109.00940983980597 78.34391855299472, 107.67111564367711 67.33629364296793, 108.25169289037585 61.66751133278012 M108.15202956832945 88.41929283104837 C107.39530823414326 83.35386504866183, 107.80136081163884 76.95889586918057, 108.40357353128493 61.097928654775025 M108 61 C109.11206187084318 56.538567470759155, 110.59038101509213 55.681979512423275, 114.62818929031491 54.32523279115558 M107.0330441839993 60.275805830210444 C108.84225849296898 56.09971410546452, 111.25958487775176 53.621633955575525, 114.9467146017775 53.78054240141064 M114 55 C114 55, 114 55, 114 55 M114 55 C114 55, 114 55, 114 55" stroke="#3B7DD8" stroke-width="1.5" fill="none"/></g></g><g><g><path d="M198.70038579925895 56.12291602864862 C220.70548446774484 55.26981498582661, 241.32898142114283 53.13430098874867, 255.48109733089805 52.24925977960229 C261.0829267166555 54.95553967729211, 262.65576256737114 56.51488957181573, 264.61882118210195 61.717281243950126 C261.68245939460695 69.16043415516614, 263.21284505573215 83.64120344594122, 263.19385568872093 90.00795024856924 C266.550489590317 91.68301419243217, 260.97808289304373 96.43933011516928, 259.9664486862719 97.44453503116965 C242.29954423755407 95.41655134890973, 229.9356717415154 93.96144277785719, 196.03550704941154 97.36078214421869 C192.0393185518682 96.54581722989678, 190.1435043476522 94.89836551919579, 189.31488358005882 87.74529301896692 C193.72163121934236 84.26915757656097, 191.52050824399294 76.66003738418222, 190.13778161779047 61.056472363322975 C189.8555925823748 54.709543814510106, 192.18947021737694 52.516863002628085, 196.77744996324182 54.08717564567924 C198 55, 198 55, 198 55" stroke="none" stroke-width="0" fill="#E3EDFA"/><path d="M196.80303888246416 54.08989542797208 C210.35353251993655 54.41741659249365, 221.1075410194695 55.90534343327582, 258.40141465589403 54.086854661256076 M197.85362780727445 55.067884945496914 C215.48097154162824 54.69270091319084, 233.99062156565486 54.73695103192329, 258.37456797994673 55.370960008725525 M258 55 C262.69640001133087 54.12494695112109, 264.31427756622435 57.09239921495318, 264.42116237953303 60.529222439974546 M259.002505005151 55.71910364553332 C263.0260939731821 54.6221794751659, 264.30544573333117 57.25099362764507, 264.7498845699057 61.27807391796261 M265.05007529184223 61.18441251590848 C264.1191487738162 68.11349171251058, 263.6956769653827 74.51272548064588, 263.96093428060414 89.65865904167295 M264.56783962883054 60.78672327958047 C263.77161851554513 66.64408786483109, 264.36779407888054 73.33944034986197, 263.42569004930556 88.8843700286001 M264 89 C263.1711813814938 93.09646608754993, 262.51451212242245 95.81466145440936, 257.25130111053585 96.15590667650103 M264.5230657942593 89.90895469114184 C264.51098872806875 92.81689260754735, 260.7430589177832 94.27702031288295, 257.25468052413316 94.28358043108136 M257.31336841508744 94.6067646868527 C234.31418526917696 96.17559509627522, 212.058458391577 95.35349080912769, 199.1104410879314 95.50175553634763 M257.70666235126555 95.29835793934762 C242.4286150675267 95.33517242953182, 228.1589971203357 94.24173791691662, 198.1965890351683 94.94931660853327 M198 95 C193.19469627216458 94.98375365659595, 192.57275754287838 92.57935228273273, 192.52402101829648 88.01857418939471 M196.9140397913754 95.41476948186755 C194.2311653127894 94.90081365618855, 192.77599787738174 92.47353909406812, 192.6183081128821 88.71091693077237 M191.7634260646999 88.53956912830472 C193.00940983980595 78.34391855299472, 191.6711156436771 67.33629364296793, 192.25169289037586 61.66751133278012 M192.15202956832945 88.41929283104837 C191.39530823414324 83.35386504866183, 191.80136081163883 76.95889586918057, 192.40357353128493 61.097928654775025 M192 61 C193.11206187084318 56.538567470759155, 194.59038101509213 55.681979512423275, 198.6281892903149 54.32523279115558 M191.0330441839993 60.275805830210444 C192.84225849296897 56.09971410546452, 195.25958487775176 53.621633955575525, 198.9467146017775 53.78054240141064 M198 55 C198 55, 198 55, 198 55 M198 55 C198 55, 198 55, 198 55" stroke="#3B7DD8" stroke-width="1.5" fill="none"/></g></g><g><g><path d="M30.700385799258946 116.12291602864862 C52.705484467744824 115.2698149858266, 73.32898142114281 113.13430098874866, 87.48109733089805 112.24925977960228 C93.08292671665549 114.95553967729211, 94.65576256737113 116.51488957181573, 96.61882118210197 121.71728124395013 C93.68245939460695 129.16043415516614, 95.21284505573213 143.6412034459412, 95.19385568872094 150.00795024856924 C98.55048959031701 151.68301419243215, 92.97808289304376 156.4393301151693, 91.9664486862719 157.44453503116966 C74.29954423755407 155.41655134890973, 61.9356717415154 153.9614427778572, 28.035507049411535 157.3607821442187 C24.0393185518682 156.54581722989678, 22.143504347652197 154.8983655191958, 21.31488358005881 147.74529301896692 C25.721631219342353 144.26915757656096, 23.520508243992925 136.66003738418223, 22.13778161779046 121.05647236332297 C21.85559258237481 114.70954381451011, 24.189470217376947 112.51686300262809, 28.777449963241814 114.08717564567924 C30 115, 30 115, 30 115" stroke="none" stroke-width="0" fill="#E3EDFA"/><path d="M28.803038882464172 114.08989542797208 C42.353532519936564 114.41741659249365, 53.1075410194695 115.90534343327582, 90.40141465589404 114.08685466125607 M29.85362780727446 115.06788494549691 C47.48097154162824 114.69270091319083, 65.99062156565488 114.7369510319233, 90.37456797994673 115.37096000872552 M90 115 C94.69640001133084 114.12494695112109, 96.31427756622433 117.09239921495319, 96.42116237953306 120.52922243997455 M91.00250500515104 115.71910364553332 C95.02609397318214 114.62217947516591, 96.30544573333114 117.25099362764507, 96.7498845699057 121.27807391796262 M97.05007529184222 121.18441251590848 C96.11914877381624 128.1134917125106, 95.6956769653827 134.51272548064588, 95.96093428060412 149.65865904167293 M96.56783962883055 120.78672327958047 C95.77161851554513 126.64408786483109, 96.36779407888055 133.339440349862, 95.42569004930556 148.8843700286001 M96 149 C95.17118138149381 153.0964660875499, 94.51451212242246 155.81466145440936, 89.25130111053586 156.15590667650105 M96.52306579425931 149.90895469114184 C96.51098872806877 152.81689260754735, 92.7430589177832 154.27702031288297, 89.25468052413315 154.28358043108136 M89.31336841508747 154.6067646868527 C66.31418526917696 156.1755950962752, 44.058458391577005 155.35349080912766, 31.110441087931395 155.50175553634762 M89.70666235126555 155.29835793934762 C74.42861506752669 155.3351724295318, 60.1589971203357 154.2417379169166, 30.19658903516829 154.94931660853325 M30 155 C25.194696272164585 154.98375365659595, 24.57275754287839 152.5793522827327, 24.52402101829648 148.0185741893947 M28.914039791375398 155.41476948186755 C26.23116531278938 154.90081365618855, 24.77599787738174 152.47353909406812, 24.618308112882076 148.71091693077236 M23.76342606469989 148.53956912830472 C25.009409839805958 138.34391855299475, 23.671115643677116 127.33629364296793, 24.251692890375853 121.66751133278012 M24.152029568329453 148.41929283104838 C23.395308234143258 143.35386504866182, 23.80136081163883 136.95889586918057, 24.403573531284927 121.09792865477502 M24 121 C25.11206187084317 116.53856747075915, 26.590381015092134 115.68197951242328, 30.628189290314914 114.32523279115557 M23.0330441839993 120.27580583021044 C24.842258492968977 116.09971410546451, 27.259584877751767 113.62163395557553, 30.946714601777494 113.78054240141064 M30 115 C30 115, 30 115, 30 115 M30 115 C30 115, 30 115, 30 115" stroke="#3B7DD8" stroke-width="1.5" fill="none"/></g></g><g><g><path d="M114.70038579925895 116.12291602864862 C136.70548446774484 115.2698149858266, 157.32898142114283 113.13430098874866, 171.48109733089805 112.24925977960228 C177.0829267166555 114.95553967729211, 178.65576256737114 116.51488957181573, 180.61882118210195 121.71728124395013 C177.68245939460692 129.16043415516614, 179.21284505573212 143.6412034459412, 179.19385568872093 150.00795024856924 C182.550489590317 151.68301419243215, 176.97808289304376 156.4393301151693, 175.96644868627192 157.44453503116966 C158.29954423755407 155.41655134890973, 145.9356717415154 153.9614427778572, 112.03550704941154 157.3607821442187 C108.0393185518682 156.54581722989678, 106.1435043476522 154.8983655191958, 105.31488358005882 147.74529301896692 C109.72163121934236 144.26915757656096, 107.52050824399294 136.66003738418223, 106.13778161779047 121.05647236332297 C105.85559258237481 114.70954381451011, 108.18947021737695 112.51686300262809, 112.77744996324182 114.08717564567924 C114 115, 114 115, 114 115" stroke="none" stroke-width="0" fill="#E3EDFA"/><path d="M112.80303888246416 114.08989542797208 C126.35353251993656 114.41741659249365, 137.1075410194695 115.90534343327582, 174.40141465589403 114.08685466125607 M113.85362780727446 115.06788494549691 C131.48097154162824 114.69270091319083, 149.99062156565486 114.7369510319233, 174.37456797994673 115.37096000872552 M174 115 C178.69640001133084 114.12494695112109, 180.31427756622435 117.09239921495319, 180.42116237953306 120.52922243997455 M175.00250500515102 115.71910364553332 C179.02609397318213 114.62217947516591, 180.30544573333114 117.25099362764507, 180.7498845699057 121.27807391796262 M181.05007529184223 121.18441251590848 C180.11914877381622 128.1134917125106, 179.6956769653827 134.51272548064588, 179.96093428060414 149.65865904167293 M180.56783962883054 120.78672327958047 C179.77161851554513 126.64408786483109, 180.36779407888056 133.339440349862, 179.42569004930556 148.8843700286001 M180 149 C179.1711813814938 153.0964660875499, 178.51451212242245 155.81466145440936, 173.25130111053585 156.15590667650105 M180.5230657942593 149.90895469114184 C180.51098872806878 152.81689260754735, 176.7430589177832 154.27702031288297, 173.25468052413314 154.28358043108136 M173.31336841508747 154.6067646868527 C150.31418526917696 156.1755950962752, 128.058458391577 155.35349080912766, 115.11044108793139 155.50175553634762 M173.70666235126555 155.29835793934762 C158.4286150675267 155.3351724295318, 144.1589971203357 154.2417379169166, 114.19658903516829 154.94931660853325 M114 155 C109.19469627216458 154.98375365659595, 108.57275754287839 152.5793522827327, 108.52402101829648 148.0185741893947 M112.9140397913754 155.41476948186755 C110.23116531278939 154.90081365618855, 108.77599787738174 152.47353909406812, 108.61830811288208 148.71091693077236 M107.76342606469989 148.53956912830472 C109.00940983980597 138.34391855299475, 107.67111564367711 127.33629364296793, 108.25169289037585 121.66751133278012 M108.15202956832945 148.41929283104838 C107.39530823414326 143.35386504866182, 107.80136081163884 136.95889586918057, 108.40357353128493 121.09792865477502 M108 121 C109.11206187084318 116.53856747075915, 110.59038101509213 115.68197951242328, 114.62818929031491 114.32523279115557 M107.0330441839993 120.27580583021044 C108.84225849296898 116.09971410546451, 111.25958487775176 113.62163395557553, 114.9467146017775 113.78054240141064 M114 115 C114 115, 114 115, 114 115 M114 115 C114 115, 114 115, 114 115" stroke="#3B7DD8" stroke-width="1.5" fill="none"/></g></g><g><g><path d="M198.70038579925895 116.12291602864862 C220.70548446774484 115.2698149858266, 241.32898142114283 113.13430098874866, 255.48109733089805 112.24925977960228 C261.0829267166555 114.95553967729211, 262.65576256737114 116.51488957181573, 264.61882118210195 121.71728124395013 C261.68245939460695 129.16043415516614, 263.21284505573215 143.6412034459412, 263.19385568872093 150.00795024856924 C266.550489590317 151.68301419243215, 260.97808289304373 156.4393301151693, 259.9664486862719 157.44453503116966 C242.29954423755407 155.41655134890973, 229.9356717415154 153.9614427778572, 196.03550704941154 157.3607821442187 C192.0393185518682 156.54581722989678, 190.1435043476522 154.8983655191958, 189.31488358005882 147.74529301896692 C193.72163121934236 144.26915757656096, 191.52050824399294 136.66003738418223, 190.13778161779047 121.05647236332297 C189.8555925823748 114.70954381451011, 192.18947021737694 112.51686300262809, 196.77744996324182 114.08717564567924 C198 115, 198 115, 198 115" stroke="none" stroke-width="0" fill="#E3EDFA"/><path d="M196.80303888246416 114.08989542797208 C210.35353251993655 114.41741659249365, 221.1075410194695 115.90534343327582, 258.40141465589403 114.08685466125607 M197.85362780727445 115.06788494549691 C215.48097154162824 114.69270091319083, 233.99062156565486 114.7369510319233, 258.37456797994673 115.37096000872552 M258 115 C262.69640001133087 114.12494695112109, 264.31427756622435 117.09239921495319, 264.42116237953303 120.52922243997455 M259.002505005151 115.71910364553332 C263.0260939731821 114.62217947516591, 264.30544573333117 117.25099362764507, 264.7498845699057 121.27807391796262 M265.05007529184223 121.18441251590848 C264.1191487738162 128.1134917125106, 263.6956769653827 134.51272548064588, 263.96093428060414 149.65865904167293 M264.56783962883054 120.78672327958047 C263.77161851554513 126.64408786483109, 264.36779407888054 133.339440349862, 263.42569004930556 148.8843700286001 M264 149 C263.1711813814938 153.0964660875499, 262.51451212242245 155.81466145440936, 257.25130111053585 156.15590667650105 M264.5230657942593 149.90895469114184 C264.51098872806875 152.81689260754735, 260.7430589177832 154.27702031288297, 257.25468052413316 154.28358043108136 M257.31336841508744 154.6067646868527 C234.31418526917696 156.1755950962752, 212.058458391577 155.35349080912766, 199.1104410879314 155.50175553634762 M257.70666235126555 155.29835793934762 C242.4286150675267 155.3351724295318, 228.1589971203357 154.2417379169166, 198.1965890351683 154.94931660853325 M198 155 C193.19469627216458 154.98375365659595, 192.57275754287838 152.5793522827327, 192.52402101829648 148.0185741893947 M196.9140397913754 155.41476948186755 C194.2311653127894 154.90081365618855, 192.77599787738174 152.47353909406812, 192.6183081128821 148.71091693077236 M191.7634260646999 148.53956912830472 C193.00940983980595 138.34391855299475, 191.6711156436771 127.33629364296793, 192.25169289037586 121.66751133278012 M192.15202956832945 148.41929283104838 C191.39530823414324 143.35386504866182, 191.80136081163883 136.95889586918057, 192.40357353128493 121.09792865477502 M192 121 C193.11206187084318 116.53856747075915, 194.59038101509213 115.68197951242328, 198.6281892903149 114.32523279115557 M191.0330441839993 120.27580583021044 C192.84225849296897 116.09971410546451, 195.25958487775176 113.62163395557553, 198.9467146017775 113.78054240141064 M198 115 C198 115, 198 115, 198 115 M198 115 C198 115, 198 115, 198 115" stroke="#3B7DD8" stroke-width="1.5" fill="none"/></g></g><g><g><path d="M30.700385799258946 176.1229160286486 C52.705484467744824 175.2698149858266, 73.32898142114281 173.13430098874866, 87.48109733089805 172.24925977960228 C93.08292671665549 174.9555396772921, 94.65576256737113 176.51488957181573, 96.61882118210197 181.71728124395014 C93.68245939460695 189.16043415516614, 95.21284505573213 203.6412034459412, 95.19385568872094 210.00795024856924 C98.55048959031701 211.68301419243215, 92.97808289304376 216.4393301151693, 91.9664486862719 217.44453503116966 C74.29954423755407 215.41655134890973, 61.9356717415154 213.9614427778572, 28.035507049411535 217.3607821442187 C24.0393185518682 216.54581722989678, 22.143504347652197 214.8983655191958, 21.31488358005881 207.74529301896692 C25.721631219342353 204.26915757656096, 23.520508243992925 196.66003738418223, 22.13778161779046 181.05647236332297 C21.85559258237481 174.7095438145101, 24.189470217376947 172.5168630026281, 28.777449963241814 174.08717564567922 C30 175, 30 175, 30 175" stroke="none" stroke-width="0" fill="#E3EDFA"/><path d="M28.803038882464172 174.08989542797207 C42.353532519936564 174.41741659249365, 53.1075410194695 175.90534343327582, 90.40141465589404 174.08685466125607 M29.85362780727446 175.06788494549693 C47.48097154162824 174.69270091319083, 65.99062156565488 174.7369510319233, 90.37456797994673 175.37096000872552 M90 175 C94.69640001133084 174.1249469511211, 96.31427756622433 177.0923992149532, 96.42116237953306 180.52922243997455 M91.00250500515104 175.71910364553332 C95.02609397318214 174.6221794751659, 96.30544573333114 177.25099362764507, 96.7498845699057 181.27807391796262 M97.05007529184222 181.1844125159085 C96.11914877381624 188.1134917125106, 95.6956769653827 194.51272548064588, 95.96093428060412 209.65865904167293 M96.56783962883055 180.78672327958049 C95.77161851554513 186.6440878648311, 96.36779407888055 193.339440349862, 95.42569004930556 208.8843700286001 M96 209 C95.17118138149381 213.0964660875499, 94.51451212242246 215.81466145440936, 89.25130111053586 216.15590667650105 M96.52306579425931 209.90895469114184 C96.51098872806877 212.81689260754735, 92.7430589177832 214.27702031288297, 89.25468052413315 214.28358043108136 M89.31336841508747 214.6067646868527 C66.31418526917696 216.1755950962752, 44.058458391577005 215.35349080912766, 31.110441087931395 215.50175553634762 M89.70666235126555 215.29835793934762 C74.42861506752669 215.3351724295318, 60.1589971203357 214.2417379169166, 30.19658903516829 214.94931660853325 M30 215 C25.194696272164585 214.98375365659595, 24.57275754287839 212.5793522827327, 24.52402101829648 208.0185741893947 M28.914039791375398 215.41476948186755 C26.23116531278938 214.90081365618855, 24.77599787738174 212.47353909406812, 24.618308112882076 208.71091693077236 M23.76342606469989 208.53956912830472 C25.009409839805958 198.34391855299475, 23.671115643677116 187.33629364296795, 24.251692890375853 181.66751133278012 M24.152029568329453 208.41929283104838 C23.395308234143258 203.35386504866182, 23.80136081163883 196.95889586918057, 24.403573531284927 181.09792865477502 M24 181 C25.11206187084317 176.53856747075915, 26.590381015092134 175.68197951242328, 30.628189290314914 174.32523279115557 M23.0330441839993 180.27580583021046 C24.842258492968977 176.09971410546453, 27.259584877751767 173.62163395557553, 30.946714601777494 173.78054240141063 M30 175 C30 175, 30 175, 30 175 M30 175 C30 175, 30 175, 30 175" stroke="#3B7DD8" stroke-width="1.5" fill="none"/></g></g><g><g><path d="M114.70038579925895 176.1229160286486 C136.70548446774484 175.2698149858266, 157.32898142114283 173.13430098874866, 171.48109733089805 172.24925977960228 C177.0829267166555 174.9555396772921, 178.65576256737114 176.51488957181573, 180.61882118210195 181.71728124395014 C177.68245939460692 189.16043415516614, 179.21284505573212 203.6412034459412, 179.19385568872093 210.00795024856924 C182.550489590317 211.68301419243215, 176.97808289304376 216.4393301151693, 175.96644868627192 217.44453503116966 C158.29954423755407 215.41655134890973, 145.9356717415154 213.9614427778572, 112.03550704941154 217.3607821442187 C108.0393185518682 216.54581722989678, 106.1435043476522 214.8983655191958, 105.31488358005882 207.74529301896692 C109.72163121934236 204.26915757656096, 107.52050824399294 196.66003738418223, 106.13778161779047 181.05647236332297 C105.85559258237481 174.7095438145101, 108.18947021737695 172.5168630026281, 112.77744996324182 174.08717564567922 C114 175, 114 175, 114 175" stroke="none" stroke-width="0" fill="#E3EDFA"/><path d="M112.80303888246416 174.08989542797207 C126.35353251993656 174.41741659249365, 137.1075410194695 175.90534343327582, 174.40141465589403 174.08685466125607 M113.85362780727446 175.06788494549693 C131.48097154162824 174.69270091319083, 149.99062156565486 174.7369510319233, 174.37456797994673 175.37096000872552 M174 175 C178.69640001133084 174.1249469511211, 180.31427756622435 177.0923992149532, 180.42116237953306 180.52922243997455 M175.00250500515102 175.71910364553332 C179.02609397318213 174.6221794751659, 180.30544573333114 177.25099362764507, 180.7498845699057 181.27807391796262 M181.05007529184223 181.1844125159085 C180.11914877381622 188.1134917125106, 179.6956769653827 194.51272548064588, 179.96093428060414 209.65865904167293 M180.56783962883054 180.78672327958049 C179.77161851554513 186.6440878648311, 180.36779407888056 193.339440349862, 179.42569004930556 208.8843700286001 M180 209 C179.1711813814938 213.0964660875499, 178.51451212242245 215.81466145440936, 173.25130111053585 216.15590667650105 M180.5230657942593 209.90895469114184 C180.51098872806878 212.81689260754735, 176.7430589177832 214.27702031288297, 173.25468052413314 214.28358043108136 M173.31336841508747 214.6067646868527 C150.31418526917696 216.1755950962752, 128.058458391577 215.35349080912766, 115.11044108793139 215.50175553634762 M173.70666235126555 215.29835793934762 C158.4286150675267 215.3351724295318, 144.1589971203357 214.2417379169166, 114.19658903516829 214.94931660853325 M114 215 C109.19469627216458 214.98375365659595, 108.57275754287839 212.5793522827327, 108.52402101829648 208.0185741893947 M112.9140397913754 215.41476948186755 C110.23116531278939 214.90081365618855, 108.77599787738174 212.47353909406812, 108.61830811288208 208.71091693077236 M107.76342606469989 208.53956912830472 C109.00940983980597 198.34391855299475, 107.67111564367711 187.33629364296795, 108.25169289037585 181.66751133278012 M108.15202956832945 208.41929283104838 C107.39530823414326 203.35386504866182, 107.80136081163884 196.95889586918057, 108.40357353128493 181.09792865477502 M108 181 C109.11206187084318 176.53856747075915, 110.59038101509213 175.68197951242328, 114.62818929031491 174.32523279115557 M107.0330441839993 180.27580583021046 C108.84225849296898 176.09971410546453, 111.25958487775176 173.62163395557553, 114.9467146017775 173.78054240141063 M114 175 C114 175, 114 175, 114 175 M114 175 C114 175, 114 175, 114 175" stroke="#3B7DD8" stroke-width="1.5" fill="none"/></g></g><g><g><path d="M198.70038579925895 176.1229160286486 C220.70548446774484 175.2698149858266, 241.32898142114283 173.13430098874866, 255.48109733089805 172.24925977960228 C261.0829267166555 174.9555396772921, 262.65576256737114 176.51488957181573, 264.61882118210195 181.71728124395014 C261.68245939460695 189.16043415516614, 263.21284505573215 203.6412034459412, 263.19385568872093 210.00795024856924 C266.550489590317 211.68301419243215, 260.97808289304373 216.4393301151693, 259.9664486862719 217.44453503116966 C242.29954423755407 215.41655134890973, 229.9356717415154 213.9614427778572, 196.03550704941154 217.3607821442187 C192.0393185518682 216.54581722989678, 190.1435043476522 214.8983655191958, 189.31488358005882 207.74529301896692 C193.72163121934236 204.26915757656096, 191.52050824399294 196.66003738418223, 190.13778161779047 181.05647236332297 C189.8555925823748 174.7095438145101, 192.18947021737694 172.5168630026281, 196.77744996324182 174.08717564567922 C198 175, 198 175, 198 175" stroke="none" stroke-width="0" fill="#E3EDFA"/><path d="M196.80303888246416 174.08989542797207 C210.35353251993655 174.41741659249365, 221.1075410194695 175.90534343327582, 258.40141465589403 174.08685466125607 M197.85362780727445 175.06788494549693 C215.48097154162824 174.69270091319083, 233.99062156565486 174.7369510319233, 258.37456797994673 175.37096000872552 M258 175 C262.69640001133087 174.1249469511211, 264.31427756622435 177.0923992149532, 264.42116237953303 180.52922243997455 M259.002505005151 175.71910364553332 C263.0260939731821 174.6221794751659, 264.30544573333117 177.25099362764507, 264.7498845699057 181.27807391796262 M265.05007529184223 181.1844125159085 C264.1191487738162 188.1134917125106, 263.6956769653827 194.51272548064588, 263.96093428060414 209.65865904167293 M264.56783962883054 180.78672327958049 C263.77161851554513 186.6440878648311, 264.36779407888054 193.339440349862, 263.42569004930556 208.8843700286001 M264 209 C263.1711813814938 213.0964660875499, 262.51451212242245 215.81466145440936, 257.25130111053585 216.15590667650105 M264.5230657942593 209.90895469114184 C264.51098872806875 212.81689260754735, 260.7430589177832 214.27702031288297, 257.25468052413316 214.28358043108136 M257.31336841508744 214.6067646868527 C234.31418526917696 216.1755950962752, 212.058458391577 215.35349080912766, 199.1104410879314 215.50175553634762 M257.70666235126555 215.29835793934762 C242.4286150675267 215.3351724295318, 228.1589971203357 214.2417379169166, 198.1965890351683 214.94931660853325 M198 215 C193.19469627216458 214.98375365659595, 192.57275754287838 212.5793522827327, 192.52402101829648 208.0185741893947 M196.9140397913754 215.41476948186755 C194.2311653127894 214.90081365618855, 192.77599787738174 212.47353909406812, 192.6183081128821 208.71091693077236 M191.7634260646999 208.53956912830472 C193.00940983980595 198.34391855299475, 191.6711156436771 187.33629364296795, 192.25169289037586 181.66751133278012 M192.15202956832945 208.41929283104838 C191.39530823414324 203.35386504866182, 191.80136081163883 196.95889586918057, 192.40357353128493 181.09792865477502 M192 181 C193.11206187084318 176.53856747075915, 194.59038101509213 175.68197951242328, 198.6281892903149 174.32523279115557 M191.0330441839993 180.27580583021046 C192.84225849296897 176.09971410546453, 195.25958487775176 173.62163395557553, 198.9467146017775 173.78054240141063 M198 175 C198 175, 198 175, 198 175 M198 175 C198 175, 198 175, 198 175" stroke="#3B7DD8" stroke-width="1.5" fill="none"/></g></g><g filter="url(#shadow)"><g><path d="M346.8004409134388 76.28333260416984 C396.04762669466436 75.88188127602339, 443.71583908721806 73.44129385079145, 481.12125409245493 71.85629689097405 C486.9519162476063 74.94918820261955, 488.46372864842414 76.44558808207512, 490.70722420811654 81.81974999308586 C487.5622644518137 119.73419635221362, 489.31127663595674 165.69163285940886, 489.0786922156811 190.151943141222 C492.9148452460766 191.49487336277963, 486.8320947349072 196.6449487030506, 486.2473699271679 197.79375432133673 C448.4416280183941 196.1929346429944, 416.69649405553935 194.52995341893433, 343.75486519932747 197.69803673624992 C339.7592212021351 196.76664826273918, 337.8782906830311 195.1695605933666, 336.93129552006724 187.5660491645336 C341.2443954838514 167.302242244035, 338.72882636916637 142.3150241807103, 337.871750420332 81.06453984379769 C337.5492486655712 74.38233578801155, 339.93082310557367 72.16212914586067, 344.60279995799067 73.95677216649055 C346 75, 346 75, 346 75" stroke="none" stroke-width="0" fill="#E0E8F8"/><path d="M344.4040518432856 73.7865272372961 C374.0823279436678 74.4060902605474, 400.03195719346405 76.38999271492362, 484.5352195411921 73.78247288167476 M345.80483707636597 75.09051326066256 C386.52117060013114 74.91522393936515, 428.41391251012686 74.97422409767509, 484.4994239732623 75.49461334496736 M484 75 C488.92853334844114 73.8332626014948, 490.41903675496576 77.12319895327092, 490.5615498393774 80.37229658663273 M485.3366733402014 75.9588048607111 C489.36812529757617 74.4962393002212, 490.40726097777485 77.33465817019344, 490.9998460932076 81.37076522395014 M491.40010038912294 81.24588335454465 C489.940173053062 108.16873319521548, 489.3755439751506 134.38512246459726, 489.9479123741388 189.87821205556392 M490.7571195051074 80.71563103944064 C489.8943099692583 103.42787621095778, 490.68921072037216 127.25743858218195, 489.2342533990741 188.84582670480012 M490 189 C488.89490850865843 193.12862145006656, 488.68601616322997 196.08621527254581, 483.00173481404784 196.5412089020014 M490.6974210590124 190.21193958818913 C490.6813183040917 192.75585681006314, 486.3240785570443 194.03602708384395, 483.0062406988442 194.04477390810848 M483.0844912201166 194.4756862491369 C429.77570035494864 196.8594614743292, 377.4581845141947 195.76332242479918, 347.48058811724184 195.66900738179683 M483.60888313502073 195.39781058579683 C448.5375940810889 195.13966931322216, 414.81087747588754 193.68175662973522, 346.2621187135577 194.932422144711 M346 195 C340.92626169621946 194.97833820879458, 340.7636767238379 192.43913637697696, 340.698694691062 187.69143225252628 M344.5520530551672 195.5530259758234 C342.3082204170525 194.86775154158474, 341.03466383650897 192.29805212542414, 340.8244108171761 188.61455590769648 M339.6845680862665 188.38609217107296 C341.604993853724 147.00857571586968, 339.8206015922189 104.54842681437731, 340.3355905205011 81.8900151103735 M340.20270609110594 188.22572377473116 C338.85492792477606 165.92783502563833, 339.3963313614368 141.85722441375256, 340.5380980417132 81.13057153970003 M340 81 C341.4827491611242 76.38475662767887, 342.7871746867895 75.90930601656437, 346.8375857204199 74.10031038820743 M338.71072557866574 80.03440777361394 C341.1230113239586 75.79961880728602, 343.679446503669 73.16217860743403, 347.26228613570333 73.37405653521418 M346 75 C346 75, 346 75, 346 75 M346 75 C346 75, 346 75, 346 75" stroke="#326CE5" stroke-width="1.5" fill="none"/></g></g><g><g><path d="M576.4021949043206 42.64483189861963 C694.3984094616573 43.18202713117653, 811.6012424710002 41.955713221558746, 912.5535260436973 40.42039387302799 C917.2139371857047 41.961891151964664, 918.8477964863181 43.58419106155634, 920.5304181560874 48.614812494814394 C918.3981763619662 52.3574952930212, 919.447583672452 61.04893467903137, 919.4472153294087 64.6911658847332 C922.1861339345575 66.87115502208471, 917.1240710511804 71.23371152728797, 915.6855274453759 72.09531574100257 C827.9704271406185 71.52301582361176, 743.8568794048335 70.68742313579634, 574.8718945256509 71.35567361534227 C570.3194159016014 71.32498619705439, 568.4087180122733 69.62717044502497, 567.6984716400505 62.924536873400214 C571.2239381049872 61.441934006810186, 569.7145966361761 56.91019182920456, 568.7230502521992 48.03872390627861 C568.1619364991784 42.036751841008666, 570.4481173291803 39.8715968593955, 574.952099968493 41.21757912486792 C576 42, 576 42, 576 42" stroke="none" stroke-width="0" fill="#FFF5F3"/><path d="M575.4653927975497 41.593513563589525 C643.8166601859485 41.95812205361011, 710.918913655361 42.622685333191654, 914.1792866644255 41.592155444463074 M575.9346247531995 42.03031993292757 C676.165944157806 42.25071232335089, 776.7913342555337 42.2704760665812, 914.1672959438307 42.16568449014781 M914 42 C918.4642666742205 41.4166313007474, 920.2095183774829 44.06159947663546, 920.2807749196887 47.686148293316364 M914.6683366701006 42.47940243035555 C918.6840626487881 41.7481196501106, 920.2036304888875 44.16732908509672, 920.4999230466038 48.18538261197507 M920.5600401556492 48.098353341817855 C920.0722936918497 52.06079171955586, 919.8464420606853 55.74064586877823, 919.9791649496556 64.35128482222557 M920.302847802043 47.886252415776255 C919.8702437970162 51.235122469663615, 920.1882040974617 55.0309194034338, 919.6937013596296 63.93833068192005 M920 64 C919.4474542543292 68.06431072503328, 918.3430080816149 70.54310763627291, 913.5008674070239 70.7706044510007 M920.3487105295062 64.60596979409456 C920.3406591520459 67.87792840503157, 917.1620392785221 69.51801354192197, 913.5031203494221 69.52238695405424 M913.6933248830339 69.82436653322614 C781.9277922747617 70.87368336120808, 650.4943147933626 70.50650111390242, 576.4959641502198 70.22410262093807 M913.8689845330264 70.13325771484693 C828.168687559634 69.78290326931437, 742.918792507058 69.29453488600782, 576.0878039500064 69.97736291870658 M576 70 C571.4631308481097 69.98916910439729, 570.3818383619189 67.71956818848848, 570.349347345531 63.34571612626314 M575.2760265275836 70.2765129879117 C572.1541102085263 69.93387577079237, 570.5173319182545 67.64902606271207, 570.4122054085881 63.80727795384824 M569.8738272345066 63.75443686842918 C570.5279873518705 57.89738575875759, 569.8142304472684 51.60728167057037, 570.1342362082005 48.356006044149396 M570.0810824364423 63.690289509892466 C569.691050380373 60.754101836681365, 569.9076117550374 57.10882541835308, 570.2152392166853 48.05222861588001 M570 48 C570.7413745805621 43.692378313839434, 572.3935873433948 42.454653008282186, 576.4187928602099 41.550155194103716 M569.3553627893328 47.51720388680697 C570.5615056619794 43.39980940364301, 572.8397232518345 41.081089303717015, 576.6311430678517 41.18702826760709 M576 42 C576 42, 576 42, 576 42 M576 42 C576 42, 576 42, 576 42" stroke="#D4644B" stroke-width="1.5" fill="none"/></g></g><g><g><path d="M576.4021949043206 76.64483189861963 C694.3984094616573 77.18202713117654, 811.6012424710002 75.95571322155875, 912.5535260436973 74.42039387302799 C917.2139371857047 75.96189115196466, 918.8477964863181 77.58419106155634, 920.5304181560874 82.6148124948144 C918.3981763619662 86.3574952930212, 919.447583672452 95.04893467903138, 919.4472153294087 98.6911658847332 C922.1861339345575 100.87115502208471, 917.1240710511804 105.23371152728797, 915.6855274453759 106.09531574100257 C827.9704271406185 105.52301582361176, 743.8568794048335 104.68742313579634, 574.8718945256509 105.35567361534227 C570.3194159016014 105.32498619705439, 568.4087180122733 103.62717044502497, 567.6984716400505 96.92453687340021 C571.2239381049872 95.4419340068102, 569.7145966361761 90.91019182920455, 568.7230502521992 82.0387239062786 C568.1619364991784 76.03675184100867, 570.4481173291803 73.87159685939551, 574.952099968493 75.21757912486791 C576 76, 576 76, 576 76" stroke="none" stroke-width="0" fill="#FFF5F3"/><path d="M575.4653927975497 75.59351356358953 C643.8166601859485 75.95812205361011, 710.918913655361 76.62268533319165, 914.1792866644255 75.59215544446307 M575.9346247531995 76.03031993292757 C676.165944157806 76.2507123233509, 776.7913342555337 76.27047606658121, 914.1672959438307 76.16568449014781 M914 76 C918.4642666742205 75.4166313007474, 920.2095183774829 78.06159947663545, 920.2807749196887 81.68614829331636 M914.6683366701006 76.47940243035555 C918.6840626487881 75.7481196501106, 920.2036304888875 78.16732908509671, 920.4999230466038 82.18538261197507 M920.5600401556492 82.09835334181786 C920.0722936918497 86.06079171955585, 919.8464420606853 89.74064586877823, 919.9791649496556 98.35128482222557 M920.302847802043 81.88625241577626 C919.8702437970162 85.23512246966362, 920.1882040974617 89.0309194034338, 919.6937013596296 97.93833068192005 M920 98 C919.4474542543292 102.06431072503328, 918.3430080816149 104.54310763627291, 913.5008674070239 104.7706044510007 M920.3487105295062 98.60596979409456 C920.3406591520459 101.87792840503157, 917.1620392785221 103.51801354192197, 913.5031203494221 103.52238695405424 M913.6933248830339 103.82436653322614 C781.9277922747617 104.87368336120808, 650.4943147933626 104.50650111390242, 576.4959641502198 104.22410262093807 M913.8689845330264 104.13325771484693 C828.168687559634 103.78290326931437, 742.918792507058 103.29453488600782, 576.0878039500064 103.97736291870658 M576 104 C571.4631308481097 103.98916910439729, 570.3818383619189 101.71956818848848, 570.349347345531 97.34571612626314 M575.2760265275836 104.2765129879117 C572.1541102085263 103.93387577079237, 570.5173319182545 101.64902606271207, 570.4122054085881 97.80727795384824 M569.8738272345066 97.75443686842918 C570.5279873518705 91.89738575875758, 569.8142304472684 85.60728167057037, 570.1342362082005 82.3560060441494 M570.0810824364423 97.69028950989247 C569.691050380373 94.75410183668137, 569.9076117550374 91.10882541835308, 570.2152392166853 82.05222861588001 M570 82 C570.7413745805621 77.69237831383944, 572.3935873433948 76.45465300828218, 576.4187928602099 75.55015519410372 M569.3553627893328 81.51720388680697 C570.5615056619794 77.39980940364302, 572.8397232518345 75.08108930371702, 576.6311430678517 75.18702826760709 M576 76 C576 76, 576 76, 576 76 M576 76 C576 76, 576 76, 576 76" stroke="#D4644B" stroke-width="1.5" fill="none"/></g></g><g><g><path d="M576.4021949043206 110.64483189861963 C694.3984094616573 111.18202713117654, 811.6012424710002 109.95571322155875, 912.5535260436973 108.42039387302799 C917.2139371857047 109.96189115196466, 918.8477964863181 111.58419106155634, 920.5304181560874 116.6148124948144 C918.3981763619662 120.3574952930212, 919.447583672452 129.0489346790314, 919.4472153294087 132.6911658847332 C922.1861339345575 134.8711550220847, 917.1240710511804 139.23371152728797, 915.6855274453759 140.09531574100257 C827.9704271406185 139.52301582361176, 743.8568794048335 138.68742313579634, 574.8718945256509 139.35567361534228 C570.3194159016014 139.3249861970544, 568.4087180122733 137.62717044502497, 567.6984716400505 130.9245368734002 C571.2239381049872 129.4419340068102, 569.7145966361761 124.91019182920455, 568.7230502521992 116.0387239062786 C568.1619364991784 110.03675184100867, 570.4481173291803 107.87159685939551, 574.952099968493 109.21757912486791 C576 110, 576 110, 576 110" stroke="none" stroke-width="0" fill="#FFF5F3"/><path d="M575.4653927975497 109.59351356358953 C643.8166601859485 109.95812205361011, 710.918913655361 110.62268533319165, 914.1792866644255 109.59215544446307 M575.9346247531995 110.03031993292757 C676.165944157806 110.2507123233509, 776.7913342555337 110.27047606658121, 914.1672959438307 110.16568449014781 M914 110 C918.4642666742205 109.4166313007474, 920.2095183774829 112.06159947663545, 920.2807749196887 115.68614829331636 M914.6683366701006 110.47940243035555 C918.6840626487881 109.7481196501106, 920.2036304888875 112.16732908509671, 920.4999230466038 116.18538261197507 M920.5600401556492 116.09835334181786 C920.0722936918497 120.06079171955585, 919.8464420606853 123.74064586877823, 919.9791649496556 132.35128482222558 M920.302847802043 115.88625241577626 C919.8702437970162 119.23512246966362, 920.1882040974617 123.0309194034338, 919.6937013596296 131.93833068192006 M920 132 C919.4474542543292 136.0643107250333, 918.3430080816149 138.5431076362729, 913.5008674070239 138.77060445100068 M920.3487105295062 132.60596979409456 C920.3406591520459 135.87792840503155, 917.1620392785221 137.51801354192196, 913.5031203494221 137.52238695405424 M913.6933248830339 137.82436653322614 C781.9277922747617 138.8736833612081, 650.4943147933626 138.50650111390243, 576.4959641502198 138.22410262093805 M913.8689845330264 138.13325771484693 C828.168687559634 137.78290326931437, 742.918792507058 137.29453488600782, 576.0878039500064 137.97736291870658 M576 138 C571.4631308481097 137.9891691043973, 570.3818383619189 135.7195681884885, 570.349347345531 131.34571612626314 M575.2760265275836 138.2765129879117 C572.1541102085263 137.93387577079235, 570.5173319182545 135.64902606271207, 570.4122054085881 131.80727795384826 M569.8738272345066 131.7544368684292 C570.5279873518705 125.89738575875758, 569.8142304472684 119.60728167057037, 570.1342362082005 116.3560060441494 M570.0810824364423 131.69028950989247 C569.691050380373 128.75410183668137, 569.9076117550374 125.10882541835308, 570.2152392166853 116.05222861588001 M570 116 C570.7413745805621 111.69237831383944, 572.3935873433948 110.45465300828218, 576.4187928602099 109.55015519410372 M569.3553627893328 115.51720388680697 C570.5615056619794 111.39980940364302, 572.8397232518345 109.08108930371702, 576.6311430678517 109.18702826760709 M576 110 C576 110, 576 110, 576 110 M576 110 C576 110, 576 110, 576 110" stroke="#D4644B" stroke-width="1.5" fill="none"/></g></g><g><g><path d="M576.4021949043206 144.64483189861963 C694.3984094616573 145.18202713117654, 811.6012424710002 143.95571322155874, 912.5535260436973 142.420393873028 C917.2139371857047 143.96189115196466, 918.8477964863181 145.58419106155634, 920.5304181560874 150.6148124948144 C918.3981763619662 154.3574952930212, 919.447583672452 163.0489346790314, 919.4472153294087 166.6911658847332 C922.1861339345575 168.8711550220847, 917.1240710511804 173.23371152728797, 915.6855274453759 174.09531574100257 C827.9704271406185 173.52301582361176, 743.8568794048335 172.68742313579634, 574.8718945256509 173.35567361534228 C570.3194159016014 173.3249861970544, 568.4087180122733 171.62717044502497, 567.6984716400505 164.9245368734002 C571.2239381049872 163.4419340068102, 569.7145966361761 158.91019182920456, 568.7230502521992 150.03872390627862 C568.1619364991784 144.03675184100865, 570.4481173291803 141.8715968593955, 574.952099968493 143.2175791248679 C576 144, 576 144, 576 144" stroke="none" stroke-width="0" fill="#FFF5F3"/><path d="M575.4653927975497 143.59351356358954 C643.8166601859485 143.9581220536101, 710.918913655361 144.62268533319167, 914.1792866644255 143.59215544446306 M575.9346247531995 144.03031993292757 C676.165944157806 144.2507123233509, 776.7913342555337 144.2704760665812, 914.1672959438307 144.1656844901478 M914 144 C918.4642666742205 143.41663130074738, 920.2095183774829 146.06159947663545, 920.2807749196887 149.68614829331636 M914.6683366701006 144.47940243035555 C918.6840626487881 143.7481196501106, 920.2036304888875 146.16732908509672, 920.4999230466038 150.1853826119751 M920.5600401556492 150.09835334181787 C920.0722936918497 154.06079171955585, 919.8464420606853 157.74064586877822, 919.9791649496556 166.35128482222558 M920.302847802043 149.88625241577626 C919.8702437970162 153.23512246966362, 920.1882040974617 157.03091940343378, 919.6937013596296 165.93833068192006 M920 166 C919.4474542543292 170.0643107250333, 918.3430080816149 172.5431076362729, 913.5008674070239 172.77060445100068 M920.3487105295062 166.60596979409456 C920.3406591520459 169.87792840503155, 917.1620392785221 171.51801354192196, 913.5031203494221 171.52238695405424 M913.6933248830339 171.82436653322614 C781.9277922747617 172.8736833612081, 650.4943147933626 172.50650111390243, 576.4959641502198 172.22410262093805 M913.8689845330264 172.13325771484693 C828.168687559634 171.78290326931437, 742.918792507058 171.29453488600782, 576.0878039500064 171.97736291870658 M576 172 C571.4631308481097 171.9891691043973, 570.3818383619189 169.7195681884885, 570.349347345531 165.34571612626314 M575.2760265275836 172.2765129879117 C572.1541102085263 171.93387577079235, 570.5173319182545 169.64902606271207, 570.4122054085881 165.80727795384826 M569.8738272345066 165.7544368684292 C570.5279873518705 159.8973857587576, 569.8142304472684 153.60728167057036, 570.1342362082005 150.3560060441494 M570.0810824364423 165.69028950989247 C569.691050380373 162.75410183668137, 569.9076117550374 159.1088254183531, 570.2152392166853 150.05222861588 M570 150 C570.7413745805621 145.69237831383944, 572.3935873433948 144.45465300828218, 576.4187928602099 143.55015519410372 M569.3553627893328 149.51720388680695 C570.5615056619794 145.39980940364302, 572.8397232518345 143.08108930371702, 576.6311430678517 143.1870282676071 M576 144 C576 144, 576 144, 576 144 M576 144 C576 144, 576 144, 576 144" stroke="#D4644B" stroke-width="1.5" fill="none"/></g></g><g><g><path d="M576.4021949043206 178.64483189861963 C694.3984094616573 179.18202713117654, 811.6012424710002 177.95571322155874, 912.5535260436973 176.420393873028 C917.2139371857047 177.96189115196466, 918.8477964863181 179.58419106155634, 920.5304181560874 184.6148124948144 C918.3981763619662 188.3574952930212, 919.447583672452 197.0489346790314, 919.4472153294087 200.6911658847332 C922.1861339345575 202.8711550220847, 917.1240710511804 207.23371152728797, 915.6855274453759 208.09531574100257 C827.9704271406185 207.52301582361176, 743.8568794048335 206.68742313579634, 574.8718945256509 207.35567361534228 C570.3194159016014 207.3249861970544, 568.4087180122733 205.62717044502497, 567.6984716400505 198.9245368734002 C571.2239381049872 197.4419340068102, 569.7145966361761 192.91019182920456, 568.7230502521992 184.03872390627862 C568.1619364991784 178.03675184100865, 570.4481173291803 175.8715968593955, 574.952099968493 177.2175791248679 C576 178, 576 178, 576 178" stroke="none" stroke-width="0" fill="#FFF5F3"/><path d="M575.4653927975497 177.59351356358954 C643.8166601859485 177.9581220536101, 710.918913655361 178.62268533319167, 914.1792866644255 177.59215544446306 M575.9346247531995 178.03031993292757 C676.165944157806 178.2507123233509, 776.7913342555337 178.2704760665812, 914.1672959438307 178.1656844901478 M914 178 C918.4642666742205 177.41663130074738, 920.2095183774829 180.06159947663545, 920.2807749196887 183.68614829331636 M914.6683366701006 178.47940243035555 C918.6840626487881 177.7481196501106, 920.2036304888875 180.16732908509672, 920.4999230466038 184.1853826119751 M920.5600401556492 184.09835334181787 C920.0722936918497 188.06079171955585, 919.8464420606853 191.74064586877822, 919.9791649496556 200.35128482222558 M920.302847802043 183.88625241577626 C919.8702437970162 187.23512246966362, 920.1882040974617 191.03091940343378, 919.6937013596296 199.93833068192006 M920 200 C919.4474542543292 204.0643107250333, 918.3430080816149 206.5431076362729, 913.5008674070239 206.77060445100068 M920.3487105295062 200.60596979409456 C920.3406591520459 203.87792840503155, 917.1620392785221 205.51801354192196, 913.5031203494221 205.52238695405424 M913.6933248830339 205.82436653322614 C781.9277922747617 206.8736833612081, 650.4943147933626 206.50650111390243, 576.4959641502198 206.22410262093805 M913.8689845330264 206.13325771484693 C828.168687559634 205.78290326931437, 742.918792507058 205.29453488600782, 576.0878039500064 205.97736291870658 M576 206 C571.4631308481097 205.9891691043973, 570.3818383619189 203.7195681884885, 570.349347345531 199.34571612626314 M575.2760265275836 206.2765129879117 C572.1541102085263 205.93387577079235, 570.5173319182545 203.64902606271207, 570.4122054085881 199.80727795384826 M569.8738272345066 199.7544368684292 C570.5279873518705 193.8973857587576, 569.8142304472684 187.60728167057036, 570.1342362082005 184.3560060441494 M570.0810824364423 199.69028950989247 C569.691050380373 196.75410183668137, 569.9076117550374 193.1088254183531, 570.2152392166853 184.05222861588 M570 184 C570.7413745805621 179.69237831383944, 572.3935873433948 178.45465300828218, 576.4187928602099 177.55015519410372 M569.3553627893328 183.51720388680695 C570.5615056619794 179.39980940364302, 572.8397232518345 177.08108930371702, 576.6311430678517 177.1870282676071 M576 178 C576 178, 576 178, 576 178 M576 178 C576 178, 576 178, 576 178" stroke="#D4644B" stroke-width="1.5" fill="none"/></g></g><g><g><path d="M576.4021949043206 212.64483189861963 C694.3984094616573 213.18202713117654, 811.6012424710002 211.95571322155874, 912.5535260436973 210.420393873028 C917.2139371857047 211.96189115196466, 918.8477964863181 213.58419106155634, 920.5304181560874 218.6148124948144 C918.3981763619662 222.3574952930212, 919.447583672452 231.0489346790314, 919.4472153294087 234.6911658847332 C922.1861339345575 236.8711550220847, 917.1240710511804 241.23371152728797, 915.6855274453759 242.09531574100257 C827.9704271406185 241.52301582361176, 743.8568794048335 240.68742313579634, 574.8718945256509 241.35567361534228 C570.3194159016014 241.3249861970544, 568.4087180122733 239.62717044502497, 567.6984716400505 232.9245368734002 C571.2239381049872 231.4419340068102, 569.7145966361761 226.91019182920456, 568.7230502521992 218.03872390627862 C568.1619364991784 212.03675184100865, 570.4481173291803 209.8715968593955, 574.952099968493 211.2175791248679 C576 212, 576 212, 576 212" stroke="none" stroke-width="0" fill="#F4F4F4"/><path d="M575.4653927975497 211.59351356358954 C643.8166601859485 211.9581220536101, 710.918913655361 212.62268533319167, 914.1792866644255 211.59215544446306 M575.9346247531995 212.03031993292757 C676.165944157806 212.2507123233509, 776.7913342555337 212.2704760665812, 914.1672959438307 212.1656844901478 M914 212 C918.4642666742205 211.41663130074738, 920.2095183774829 214.06159947663545, 920.2807749196887 217.68614829331636 M914.6683366701006 212.47940243035555 C918.6840626487881 211.7481196501106, 920.2036304888875 214.16732908509672, 920.4999230466038 218.1853826119751 M920.5600401556492 218.09835334181787 C920.0722936918497 222.06079171955585, 919.8464420606853 225.74064586877822, 919.9791649496556 234.35128482222558 M920.302847802043 217.88625241577626 C919.8702437970162 221.23512246966362, 920.1882040974617 225.03091940343378, 919.6937013596296 233.93833068192006 M920 234 C919.4474542543292 238.0643107250333, 918.3430080816149 240.5431076362729, 913.5008674070239 240.77060445100068 M920.3487105295062 234.60596979409456 C920.3406591520459 237.87792840503155, 917.1620392785221 239.51801354192196, 913.5031203494221 239.52238695405424 M913.6933248830339 239.82436653322614 C781.9277922747617 240.8736833612081, 650.4943147933626 240.50650111390243, 576.4959641502198 240.22410262093805 M913.8689845330264 240.13325771484693 C828.168687559634 239.78290326931437, 742.918792507058 239.29453488600782, 576.0878039500064 239.97736291870658 M576 240 C571.4631308481097 239.9891691043973, 570.3818383619189 237.7195681884885, 570.349347345531 233.34571612626314 M575.2760265275836 240.2765129879117 C572.1541102085263 239.93387577079235, 570.5173319182545 237.64902606271207, 570.4122054085881 233.80727795384826 M569.8738272345066 233.7544368684292 C570.5279873518705 227.8973857587576, 569.8142304472684 221.60728167057036, 570.1342362082005 218.3560060441494 M570.0810824364423 233.69028950989247 C569.691050380373 230.75410183668137, 569.9076117550374 227.1088254183531, 570.2152392166853 218.05222861588 M570 218 C570.7413745805621 213.69237831383944, 572.3935873433948 212.45465300828218, 576.4187928602099 211.55015519410372 M569.3553627893328 217.51720388680695 C570.5615056619794 213.39980940364302, 572.8397232518345 211.08108930371702, 576.6311430678517 211.1870282676071 M576 212 C576 212, 576 212, 576 212 M576 212 C576 212, 576 212, 576 212" stroke="#999" stroke-width="1.5" fill="none"/></g></g></g><g id="layer-text"><text x="24" y="26" text-anchor="start" font-family="Inter, &quot;IBM Plex Sans&quot;, system-ui, sans-serif" font-size="10" font-weight="600" fill="#C97755" letter-spacing="1">CORRELATED TRAFFIC EVENT</text><text x="324" y="26" text-anchor="start" font-family="Inter, &quot;IBM Plex Sans&quot;, system-ui, sans-serif" font-size="10" font-weight="600" fill="#999" letter-spacing="1">PROVISIONER</text><text x="554" y="26" text-anchor="start" font-family="Inter, &quot;IBM Plex Sans&quot;, system-ui, sans-serif" font-size="10" font-weight="600" fill="#999" letter-spacing="1">PROVISIONER QUEUE</text><text x="60" y="63.95" text-anchor="middle" font-family="Inter, &quot;IBM Plex Sans&quot;, system-ui, sans-serif" font-size="10" font-weight="700" fill="#3B7DD8" letter-spacing="0.2">HPA</text><text x="60" y="81.45" text-anchor="middle" font-family="Inter, &quot;IBM Plex Sans&quot;, system-ui, sans-serif" font-size="8" font-weight="400" fill="#888">svc-1</text><text x="144" y="63.95" text-anchor="middle" font-family="Inter, &quot;IBM Plex Sans&quot;, system-ui, sans-serif" font-size="10" font-weight="700" fill="#3B7DD8" letter-spacing="0.2">HPA</text><text x="144" y="81.45" text-anchor="middle" font-family="Inter, &quot;IBM Plex Sans&quot;, system-ui, sans-serif" font-size="8" font-weight="400" fill="#888">svc-2</text><text x="228" y="63.95" text-anchor="middle" font-family="Inter, &quot;IBM Plex Sans&quot;, system-ui, sans-serif" font-size="10" font-weight="700" fill="#3B7DD8" letter-spacing="0.2">HPA</text><text x="228" y="81.45" text-anchor="middle" font-family="Inter, &quot;IBM Plex Sans&quot;, system-ui, sans-serif" font-size="8" font-weight="400" fill="#888">svc-3</text><text x="60" y="123.95" text-anchor="middle" font-family="Inter, &quot;IBM Plex Sans&quot;, system-ui, sans-serif" font-size="10" font-weight="700" fill="#3B7DD8" letter-spacing="0.2">HPA</text><text x="60" y="141.45" text-anchor="middle" font-family="Inter, &quot;IBM Plex Sans&quot;, system-ui, sans-serif" font-size="8" font-weight="400" fill="#888">svc-4</text><text x="144" y="123.95" text-anchor="middle" font-family="Inter, &quot;IBM Plex Sans&quot;, system-ui, sans-serif" font-size="10" font-weight="700" fill="#3B7DD8" letter-spacing="0.2">HPA</text><text x="144" y="141.45" text-anchor="middle" font-family="Inter, &quot;IBM Plex Sans&quot;, system-ui, sans-serif" font-size="8" font-weight="400" fill="#888">svc-5</text><text x="228" y="123.95" text-anchor="middle" font-family="Inter, &quot;IBM Plex Sans&quot;, system-ui, sans-serif" font-size="10" font-weight="700" fill="#3B7DD8" letter-spacing="0.2">HPA</text><text x="228" y="141.45" text-anchor="middle" font-family="Inter, &quot;IBM Plex Sans&quot;, system-ui, sans-serif" font-size="8" font-weight="400" fill="#888">svc-6</text><text x="60" y="183.95" text-anchor="middle" font-family="Inter, &quot;IBM Plex Sans&quot;, system-ui, sans-serif" font-size="10" font-weight="700" fill="#3B7DD8" letter-spacing="0.2">HPA</text><text x="60" y="201.45" text-anchor="middle" font-family="Inter, &quot;IBM Plex Sans&quot;, system-ui, sans-serif" font-size="8" font-weight="400" fill="#888">svc-7</text><text x="144" y="183.95" text-anchor="middle" font-family="Inter, &quot;IBM Plex Sans&quot;, system-ui, sans-serif" font-size="10" font-weight="700" fill="#3B7DD8" letter-spacing="0.2">HPA</text><text x="144" y="201.45" text-anchor="middle" font-family="Inter, &quot;IBM Plex Sans&quot;, system-ui, sans-serif" font-size="8" font-weight="400" fill="#888">svc-8</text><text x="228" y="183.95" text-anchor="middle" font-family="Inter, &quot;IBM Plex Sans&quot;, system-ui, sans-serif" font-size="10" font-weight="700" fill="#3B7DD8" letter-spacing="0.2">HPA</text><text x="228" y="201.45" text-anchor="middle" font-family="Inter, &quot;IBM Plex Sans&quot;, system-ui, sans-serif" font-size="8" font-weight="400" fill="#888">svc-9</text><text x="415" y="112.825" text-anchor="middle" font-family="Inter, &quot;IBM Plex Sans&quot;, system-ui, sans-serif" font-size="13" font-weight="700" fill="#326CE5" letter-spacing="0.2">Node</text><text x="415" y="134.375" text-anchor="middle" font-family="Inter, &quot;IBM Plex Sans&quot;, system-ui, sans-serif" font-size="11" font-weight="400" fill="#5577AA">Provisioner</text><text x="415" y="150.325" text-anchor="middle" font-family="Inter, &quot;IBM Plex Sans&quot;, system-ui, sans-serif" font-size="11" font-weight="400" fill="#5577AA">(Karpenter)</text><text x="745" y="52.75" text-anchor="middle" font-family="Inter, &quot;IBM Plex Sans&quot;, system-ui, sans-serif" font-size="10" font-weight="700" fill="#D4644B" letter-spacing="0.2">svc-1: 4 nodes requested</text><text x="928" y="59" text-anchor="start" font-family="Inter, &quot;IBM Plex Sans&quot;, system-ui, sans-serif" font-size="9" font-weight="400" fill="#BBB">+0s</text><text x="745" y="86.75" text-anchor="middle" font-family="Inter, &quot;IBM Plex Sans&quot;, system-ui, sans-serif" font-size="10" font-weight="700" fill="#D4644B" letter-spacing="0.2">svc-3: 2 nodes requested</text><text x="928" y="93" text-anchor="start" font-family="Inter, &quot;IBM Plex Sans&quot;, system-ui, sans-serif" font-size="9" font-weight="400" fill="#BBB">+15s</text><text x="745" y="120.75" text-anchor="middle" font-family="Inter, &quot;IBM Plex Sans&quot;, system-ui, sans-serif" font-size="10" font-weight="700" fill="#D4644B" letter-spacing="0.2">svc-5: 6 nodes requested</text><text x="928" y="127" text-anchor="start" font-family="Inter, &quot;IBM Plex Sans&quot;, system-ui, sans-serif" font-size="9" font-weight="400" fill="#BBB">+45s</text><text x="745" y="154.75" text-anchor="middle" font-family="Inter, &quot;IBM Plex Sans&quot;, system-ui, sans-serif" font-size="10" font-weight="700" fill="#D4644B" letter-spacing="0.2">svc-7: 3 nodes requested</text><text x="928" y="161" text-anchor="start" font-family="Inter, &quot;IBM Plex Sans&quot;, system-ui, sans-serif" font-size="9" font-weight="400" fill="#BBB">+1m 20s</text><text x="745" y="188.75" text-anchor="middle" font-family="Inter, &quot;IBM Plex Sans&quot;, system-ui, sans-serif" font-size="10" font-weight="700" fill="#D4644B" letter-spacing="0.2">svc-9: 5 nodes requested</text><text x="928" y="195" text-anchor="start" font-family="Inter, &quot;IBM Plex Sans&quot;, system-ui, sans-serif" font-size="9" font-weight="400" fill="#BBB">+2m 40s</text><text x="745" y="222.75" text-anchor="middle" font-family="Inter, &quot;IBM Plex Sans&quot;, system-ui, sans-serif" font-size="10" font-weight="700" fill="#999" letter-spacing="0.2">... 4 more pending</text><text x="928" y="229" text-anchor="start" font-family="Inter, &quot;IBM Plex Sans&quot;, system-ui, sans-serif" font-size="9" font-weight="400" fill="#BBB">+3m 50s</text><text x="527" y="127" text-anchor="middle" font-family="Inter, &quot;IBM Plex Sans&quot;, system-ui, sans-serif" font-size="10" font-weight="500" fill="#888">serialized</text><text x="740" y="276" text-anchor="middle" font-family="Inter, &quot;IBM Plex Sans&quot;, system-ui, sans-serif" font-size="11" font-weight="600" fill="#D4644B">≈ 4 min provisioning delay under burst</text><text x="480" y="332" text-anchor="middle" font-family="Inter, &quot;IBM Plex Sans&quot;, system-ui, sans-serif" font-size="11" font-weight="600" fill="#999">400 independent HPAs → 1 serialized provisioner queue</text></g></svg>