<?xml version="1.0" encoding="UTF-8"?>
<svg xmlns="http://www.w3.org/2000/svg" width="980" height="370" viewBox="-10 -10 980 370"><defs><filter id="shadow" x="-4%" y="-4%" width="112%" height="112%"><feFlood flood-color="#000000" flood-opacity="0.08" result="color"/><feComposite in="color" in2="SourceGraphic" operator="in" result="shadow"/><feGaussianBlur in="shadow" stdDeviation="3" result="blur"/><feOffset in="blur" dx="2" dy="3" result="offsetBlur"/><feMerge><feMergeNode in="offsetBlur"/><feMergeNode in="SourceGraphic"/></feMerge></filter><filter id="shadow-light" x="-4%" y="-4%" width="112%" height="112%"><feFlood flood-color="#000000" flood-opacity="0.04" result="color"/><feComposite in="color" in2="SourceGraphic" operator="in" result="shadow"/><feGaussianBlur in="shadow" stdDeviation="2" result="blur"/><feOffset in="blur" dx="1" dy="2" result="offsetBlur"/><feMerge><feMergeNode in="offsetBlur"/><feMergeNode in="SourceGraphic"/></feMerge></filter></defs><rect x="-10" y="-10" width="980" height="370" fill="#ffffff" rx="8"/><g id="layer-zones"><rect x="10" y="8" width="940" height="140" fill="#FDF6F4" rx="12" ry="12"/><rect x="10" y="180" width="940" height="120" fill="#E4F1EA" rx="12" ry="12"/></g><g id="layer-connectors"><g><path d="M211.00253240205348 71.74157952331007 C243.51355434485245 71.65470958828554, 273.6952424486773 72.39417658561469, 368.33451221324503 69.23904555104673 M211.87802317272872 72.5565707879141 C258.0305087226955 71.75193497973308, 304.9138395886449 71.04686143451184, 368.31213998328894 70.3091333406046" stroke="#7A7A7A" stroke-width="1.3" fill="none"/></g><polygon points="368,70 360.84879340885163,73.58611827617494 360.7375554512665,66.64486972286161" fill="#7A7A7A" stroke="none"/><g><path d="M211.00253240205348 126.74157952331007 C243.49856814786327 119.64810107510165, 273.6802562516881 113.3809595592469, 368.33451221324503 89.23904555104673 M211.87802317272872 127.5565707879141 C258.0922476784559 116.36465396142378, 304.9755785444053 105.27229939789325, 368.31213998328894 90.3091333406046" stroke="#3B7DD8" stroke-width="1.3" fill="none"/></g><polygon points="368,90 361.8031677753967,95.0595721538602 360.1806055064238,88.30971311493298" fill="#3B7DD8" stroke="none"/><g><path d="M571.0025324020535 69.24157952331007 C599.5054962810361 67.12351565044001, 625.683408091613 65.86109450114519, 708.334512213245 56.73904555104673 M571.8780231727287 70.0565707879141 C612.1125592710217 66.23206411219016, 653.0603009836516 62.55919599030912, 708.312139983289 57.8091333406046" stroke="#7A7A7A" stroke-width="1.3" fill="none"/></g><polygon points="708,57.5 701.1401953160421,61.61619723749357 700.5048091484891,54.70319573451642" fill="#7A7A7A" stroke="none"/><g><path d="M571.0025324020535 89.24157952331007 C599.5232656288948 95.43135145892948, 625.7011774394717 102.47676611812413, 708.334512213245 118.23904555104673 M571.8780231727287 90.0565707879141 C612.0393545091915 98.54841160532833, 652.9870962218214 107.19189097658546, 708.312139983289 119.3091333406046" stroke="#D4644B" stroke-width="1.3" fill="none"/></g><polygon points="708,119 700.2268498360769,120.89159629125818 701.674610611852,114.10209748072664" fill="#D4644B" stroke="none"/><g><path d="M211.00253240205348 231.74157952331007 C243.51569523013663 232.6556536615975, 273.6973833339615 234.39606473223864, 368.33451221324503 234.23904555104673 M211.87802317272872 232.5565707879141 C258.0216888718726 233.23583226806298, 304.905019737822 234.01465601117164, 368.31213998328894 235.3091333406046" stroke="#3B7DD8" stroke-width="1.3" fill="none"/></g><polygon points="368,235 360.7375554512665,238.3551302771384 360.84879340885163,231.41388172382506" fill="#3B7DD8" stroke="none"/><g><path d="M211.00253240205348 281.74157952331007 C243.50070903314744 275.6490451484136, 273.6823971369723 270.38284770587086, 368.33451221324503 249.23904555104673 M211.87802317272872 282.5565707879141 C258.083427827633 272.8485512497537, 304.9667586935824 263.2400939745531, 368.31213998328894 250.3091333406046" stroke="#BBB" stroke-width="1.3" fill="none"/></g><polygon points="368,250 361.65169243130737,254.8681609477584 360.23581348117864,248.07194198714035" fill="#BBB" stroke="none"/><g><path d="M571.0025324020535 234.24157952331007 C599.5054962810361 232.12351565044, 625.683408091613 230.86109450114517, 708.334512213245 221.73904555104673 M571.8780231727287 235.0565707879141 C612.1125592710217 231.23206411219016, 653.0603009836516 227.55919599030912, 708.312139983289 222.8091333406046" stroke="#5FA384" stroke-width="1.3" fill="none"/></g><polygon points="708,222.5 701.1401953160421,226.61619723749357 700.5048091484891,219.7031957345164" fill="#5FA384" stroke="none"/><g><path d="M571.0025324020535 249.24157952331007 C599.5217670091959 254.73069060761108, 625.6996788197728 261.07544441548737, 708.334512213245 274.73904555104673 M571.8780231727287 250.0565707879141 C612.0455284047675 257.5096835034974, 652.9932701173974 265.1144347729236, 708.312139983289 275.8091333406046" stroke="#BBB" stroke-width="1.3" fill="none"/></g><polygon points="708,275.5 700.2760236782475,277.58331221400124 701.5553804568726,270.7600760613338" fill="#BBB" stroke="none"/><line x1="30" y1="156" x2="930" y2="156" stroke="#D4644B" stroke-width="1.2" stroke-dasharray="6,3" stroke-linecap="round"/></g><g id="layer-boxes"><g filter="url(#shadow)"><g><path d="M46.8004409134388 41.28333260416984 C102.98958188481629 41.02893801761866, 157.5997494675219 38.588350592386725, 201.1212540924549 36.85629689097404 C206.95191624760628 39.94918820261955, 208.46372864842414 41.44558808207512, 210.70722420811654 46.819749993085864 C207.41728287981152 63.452101300843054, 209.16629506395458 88.12744275666773, 209.0786922156811 100.151943141222 C212.9148452460766 101.49487336277961, 206.83209473490714 106.64494870305062, 206.24736992716788 107.79375432133675 C163.36734992079437 106.37674899133444, 126.54793786033989 104.71376776727438, 43.75486519932747 107.69803673624992 C39.75922120213509 106.76664826273918, 37.87829068303108 105.16956059336663, 36.931295520067216 97.56604916453361 C41.741583832472564 89.09184011947364, 39.22601471778751 75.89421993158759, 37.871750420331956 46.06453984379768 C37.54924866557121 39.38233578801155, 39.93082310557365 37.162129145860675, 44.60279995799065 38.95677216649055 C46 40, 46 40, 46 40" stroke="none" stroke-width="0" fill="#EEEEEE"/><path d="M44.40405184328556 38.786527237296106 C78.0861042369157 39.45297952650189, 108.03950977995991 41.43688198087811, 204.53521954119205 38.782472881674764 M45.80483707636595 40.090513260662554 C92.45675975345075 39.99854600477814, 140.28509081676603 40.057546163088084, 204.4994239732623 40.49461334496736 M204 40 C208.92853334844114 38.83326260149479, 210.4190367549658 42.123198953270915, 210.5615498393774 45.37229658663273 M205.33667334020137 40.9588048607111 C209.3681252975762 39.496239300221205, 210.40726097777485 42.334658170193435, 210.9998460932076 46.370765223950144 M211.40010038912297 46.24588335454464 C210.0905237884134 59.40518224965781, 209.52589471050203 71.85802057348192, 209.94791237413884 99.87821205556392 M210.7571195051074 45.71563103944063 C209.7576221713096 56.82929015178233, 210.5525229224235 69.06026646383107, 209.23425339907408 98.84582670480013 M210 99 C208.8949085086584 103.12862145006656, 208.68601616322994 106.08621527254581, 203.0017348140478 106.54120890200139 M210.6974210590124 100.21193958818913 C210.6813183040917 102.75585681006312, 206.32407855704426 104.03602708384395, 203.00624069884418 104.04477390810847 M203.0844912201166 104.47568624913693 C141.96769575588405 106.93433361431957, 81.84217531606555 105.83819456478953, 47.48058811724186 105.66900738179683 M203.60888313502073 105.39781058579683 C163.46843568719925 105.06089309284091, 124.6725606881082 103.60298040935398, 46.26211871355772 104.93242214471101 M46 105 C40.92626169621944 104.9783382087946, 40.763676723837854 102.43913637697696, 40.698694691061974 97.69143225252628 M44.5520530551672 105.5530259758234 C42.30822041705251 104.86775154158472, 41.03466383650899 102.29805212542415, 40.8244108171761 98.61455590769648 M39.684568086266516 98.38609217107296 C41.42685293244422 78.63238273728639, 39.64246067093909 57.79604085721075, 40.335590520501135 46.8900151103735 M40.20270609110594 98.22572377473116 C39.08786419112384 88.02574790995568, 39.629267627784614 76.05305018238724, 40.53809804171324 46.13057153970003 M40 46 C41.48274916112423 41.38475662767887, 42.78717468678951 40.90930601656437, 46.83758572041988 39.10031038820743 M38.71072557866573 45.03440777361393 C41.123011323958636 40.79961880728602, 43.67944650366903 38.162178607434036, 47.26228613570333 38.37405653521419 M46 40 C46 40, 46 40, 46 40 M46 40 C46 40, 46 40, 46 40" stroke="#7A7A7A" stroke-width="1.5" fill="none"/></g></g><g><g><path d="M46.8004409134388 111.28333260416984 C102.98958188481629 111.02893801761866, 157.5997494675219 108.58835059238672, 201.1212540924549 106.85629689097405 C206.95191624760628 109.94918820261955, 208.46372864842414 111.44558808207512, 210.70722420811654 116.81974999308586 C207.3382020223558 121.8436858182773, 209.08721420649886 134.9106117915362, 209.0786922156811 140.151943141222 C212.9148452460766 141.49487336277963, 206.83209473490714 146.6449487030506, 206.24736992716788 147.79375432133673 C163.36734992079437 146.37674899133444, 126.54793786033989 144.71376776727436, 43.75486519932747 147.69803673624992 C39.75922120213509 146.76664826273918, 37.87829068303108 145.1695605933666, 36.931295520067216 137.5660491645336 C42.012777477175 135.52252986971288, 39.49720836248994 128.75559943206608, 37.871750420331956 116.06453984379769 C37.54924866557121 109.38233578801155, 39.93082310557365 107.16212914586067, 44.60279995799065 108.95677216649055 C46 110, 46 110, 46 110" stroke="none" stroke-width="0" fill="#E3EDFA"/><path d="M44.40405184328556 108.7865272372961 C78.0861042369157 109.45297952650189, 108.03950977995991 111.43688198087811, 204.53521954119205 108.78247288167476 M45.80483707636595 110.09051326066256 C92.45675975345075 109.99854600477815, 140.28509081676603 110.05754616308809, 204.4994239732623 110.49461334496736 M204 110 C208.92853334844114 108.8332626014948, 210.4190367549658 112.12319895327092, 210.5615498393774 115.37229658663273 M205.33667334020137 110.9588048607111 C209.3681252975762 109.4962393002212, 210.40726097777485 112.33465817019344, 210.9998460932076 116.37076522395014 M211.40010038912297 116.24588335454465 C210.17253328042327 121.89779082480818, 209.6079042025119 126.84323772378265, 209.94791237413884 139.87821205556392 M210.7571195051074 115.71563103944064 C209.6830651906103 120.50278866495938, 210.4779659417242 126.40726349018514, 209.23425339907408 138.84582670480012 M210 139 C208.8949085086584 143.12862145006656, 208.68601616322994 146.08621527254581, 203.0017348140478 146.5412089020014 M210.6974210590124 140.21193958818913 C210.6813183040917 142.75585681006314, 206.32407855704426 144.03602708384395, 203.00624069884418 144.04477390810848 M203.0844912201166 144.4756862491369 C141.96769575588405 146.93433361431954, 81.84217531606555 145.83819456478952, 47.48058811724186 145.66900738179683 M203.60888313502073 145.39781058579683 C163.46843568719925 145.0608930928409, 124.6725606881082 143.60298040935396, 46.26211871355772 144.932422144711 M46 145 C40.92626169621944 144.97833820879458, 40.763676723837854 142.43913637697696, 40.698694691061974 137.69143225252628 M44.5520530551672 145.5530259758234 C42.30822041705251 144.86775154158474, 41.03466383650899 142.29805212542414, 40.8244108171761 138.61455590769648 M39.684568086266516 138.38609217107296 C41.3296851572007 130.42718656715007, 39.54529289569557 121.38564851693809, 40.335590520501135 116.8900151103735 M40.20270609110594 138.22572377473116 C39.21492033640444 134.62460948321967, 39.75632377306521 129.25077332891524, 40.53809804171324 116.13057153970003 M40 116 C41.48274916112423 111.38475662767887, 42.78717468678951 110.90930601656437, 46.83758572041988 109.10031038820743 M38.71072557866573 115.03440777361394 C41.123011323958636 110.79961880728602, 43.67944650366903 108.16217860743403, 47.26228613570333 108.37405653521418 M46 110 C46 110, 46 110, 46 110 M46 110 C46 110, 46 110, 46 110" stroke="#3B7DD8" stroke-width="1.5" fill="none"/></g></g><g filter="url(#shadow)"><g><path d="M376.8004409134388 46.28333260416984 C443.4025146700442 46.24952313001156, 508.4256150379777 43.80893570477963, 561.1212540924549 41.85629689097404 C566.9519162476063 44.94918820261955, 568.4637286484242 46.44558808207512, 570.7072242081165 51.819749993085864 C567.4304630227208 70.38683721460401, 569.1794752068639 96.99691458418965, 569.078692215681 110.151943141222 C572.9148452460765 111.49487336277961, 566.8320947349072 116.64494870305062, 566.2473699271679 117.79375432133675 C515.7559327743948 116.65247051384449, 471.3251035675406 114.98948928978443, 373.75486519932747 117.69803673624992 C369.7592212021351 116.76664826273918, 367.8782906830311 115.16956059336663, 366.93129552006724 107.56604916453361 C371.6963848916888 98.02005849443377, 369.1808157770038 83.75065668150783, 367.871750420332 51.06453984379768 C367.5492486655712 44.38233578801155, 369.93082310557367 42.162129145860675, 374.60279995799067 43.95677216649055 C376 45, 376 45, 376 45" stroke="none" stroke-width="0" fill="#E0E8F8"/><path d="M374.4040518432856 43.786527237296106 C414.09176867678764 44.523313425433635, 450.05083865970374 46.507215879809856, 564.5352195411921 43.782472881674764 M375.80483707636597 45.090513260662554 C431.36014348343014 45.12352910289764, 488.09185827672485 45.182529261207584, 564.4994239732623 45.49461334496736 M564 45 C568.9285333484411 43.83326260149479, 570.4190367549658 47.123198953270915, 570.5615498393774 50.37229658663273 M565.3366733402014 45.9588048607111 C569.3681252975762 44.496239300221205, 570.4072609777749 47.334658170193435, 570.9998460932076 51.370765223950144 M571.4001003891229 51.24588335454464 C570.0768555397451 65.65641415379942, 569.5122264618337 79.36048438176513, 569.9479123741388 109.87821205556392 M570.7571195051074 50.71563103944063 C569.7700483347594 62.883707066252825, 570.5649490858733 76.16910029277206, 569.2342533990741 108.84582670480013 M570 109 C568.8949085086584 113.12862145006656, 568.68601616323 116.08621527254581, 563.0017348140478 116.54120890200139 M570.6974210590124 110.21193958818913 C570.6813183040917 112.75585681006312, 566.3240785570442 114.03602708384395, 563.0062406988442 114.04477390810847 M563.0844912201167 114.47568624913693 C490.25568885728717 117.04664182430506, 418.4181615188718 115.95050277477502, 377.48058811724184 115.66900738179683 M563.6088831350207 115.39781058579683 C515.8646980963647 114.94272876226903, 469.4650855064392 113.48481607878209, 376.2621187135577 114.93242214471101 M376 115 C370.92626169621946 114.9783382087946, 370.7636767238379 112.43913637697696, 370.698694691062 107.69143225252628 M374.5520530551672 115.5530259758234 C372.3082204170525 114.86775154158472, 371.03466383650897 112.29805212542415, 370.8244108171761 108.61455590769648 M369.6845680862665 108.38609217107296 C371.44304756165144 86.66658209897578, 369.65865530014634 63.864439580589526, 370.3355905205011 51.8900151103735 M370.20270609110594 108.22572377473116 C369.0666881669104 96.92593764774502, 369.60809160357115 83.8534296579659, 370.5380980417132 51.13057153970003 M370 51 C371.4827491611242 46.38475662767887, 372.7871746867895 45.90930601656437, 376.8375857204199 44.10031038820743 M368.71072557866574 50.03440777361393 C371.1230113239586 45.79961880728602, 373.679446503669 43.162178607434036, 377.26228613570333 43.37405653521419 M376 45 C376 45, 376 45, 376 45 M376 45 C376 45, 376 45, 376 45" stroke="#326CE5" stroke-width="1.5" fill="none"/></g></g><g><g><path d="M716.8004409134388 36.28333260416984 C783.4025146700442 36.24952313001156, 848.4256150379778 33.80893570477963, 901.1212540924549 31.856296890974043 C906.9519162476063 34.94918820261955, 908.4637286484242 36.44558808207512, 910.7072242081165 41.819749993085864 C907.3645623081743 50.71315764579922, 909.1135744923174 67.64955544658005, 909.078692215681 75.151943141222 C912.9148452460765 76.49487336277961, 906.8320947349072 81.64494870305062, 906.2473699271679 82.79375432133675 C855.7559327743948 81.65247051384449, 811.3251035675406 79.98948928978443, 713.7548651993275 82.69803673624992 C709.7592212021351 81.76664826273918, 707.8782906830311 80.16956059336663, 706.9312955200672 72.56604916453361 C711.9223795956075 68.37896661963315, 709.4068104809224 59.46847293190658, 707.871750420332 41.06453984379768 C707.5492486655712 34.38233578801155, 709.9308231055736 32.162129145860675, 714.6027999579907 33.95677216649055 C716 35, 716 35, 716 35" stroke="none" stroke-width="0" fill="#E8FFE8"/><path d="M714.4040518432855 33.786527237296106 C754.0917686767876 34.523313425433635, 790.0508386597037 36.507215879809856, 904.5352195411921 33.782472881674764 M715.804837076366 35.090513260662554 C771.3601434834301 35.12352910289764, 828.0918582767248 35.182529261207584, 904.4994239732623 35.49461334496736 M904 35 C908.9285333484411 33.83326260149479, 910.4190367549658 37.123198953270915, 910.5615498393774 40.37229658663273 M905.3366733402014 35.9588048607111 C909.3681252975762 34.496239300221205, 910.4072609777749 37.334658170193435, 910.9998460932076 41.370765223950144 M911.4001003891229 41.24588335454464 C910.1451967830867 49.400254633091386, 909.5805677051753 56.84816534034908, 909.9479123741388 74.87821205556392 M910.7571195051074 40.71563103944063 C909.70791751751 47.611622493900356, 910.502818268624 55.62493114806711, 909.2342533990741 73.84582670480013 M910 74 C908.8949085086584 78.12862145006656, 908.68601616323 81.08621527254581, 903.0017348140478 81.54120890200139 M910.6974210590124 75.21193958818913 C910.6813183040917 77.75585681006312, 906.3240785570442 79.03602708384395, 903.0062406988442 79.04477390810847 M903.0844912201167 79.47568624913693 C830.2556888572872 82.04664182430506, 758.4181615188718 80.95050277477502, 717.4805881172418 80.66900738179683 M903.6088831350207 80.39781058579683 C855.8646980963647 79.94272876226903, 809.4650855064392 78.48481607878209, 716.2621187135577 79.93242214471101 M716 80 C710.9262616962194 79.9783382087946, 710.7636767238379 77.43913637697696, 710.698694691062 72.69143225252628 M714.5520530551672 80.5530259758234 C712.3082204170526 79.86775154158472, 711.034663836509 77.29805212542415, 710.8244108171762 73.61455590769648 M709.6845680862665 73.38609217107296 C711.3620744156152 61.49558529052883, 709.57768215411 48.52244596369564, 710.3355905205011 41.8900151103735 M710.2027060911059 73.22572377473116 C709.1725682879776 67.42498895879835, 709.7139717246384 59.85153228007257, 710.5380980417133 41.13057153970003 M710 41 C711.4827491611243 36.38475662767887, 712.7871746867895 35.90930601656437, 716.8375857204198 34.10031038820743 M708.7107255786657 40.03440777361393 C711.1230113239586 35.79961880728602, 713.679446503669 33.162178607434036, 717.2622861357033 33.37405653521419 M716 35 C716 35, 716 35, 716 35 M716 35 C716 35, 716 35, 716 35" stroke="#7A7A7A" stroke-width="1.5" fill="none"/></g></g><g><g><path d="M716.9004960276186 96.44374917969108 C783.6710316553712 96.40571352126301, 848.6652222208679 93.66005266787708, 900.7614108540117 91.4633340023458 C906.8209057785571 94.942836727947, 908.2716947294772 96.37628659233451, 910.7956272341311 101.92221874222159 C907.0440291931599 111.49198677092791, 909.0116679003208 130.11011871621014, 908.9635287426412 138.29593603387474 C913.2792009018361 139.30673253312708, 906.6861065767705 144.85056729093193, 906.5282911680639 146.14297361150383 C855.6877011358738 144.85902932807505, 811.6652950428427 142.9881754510075, 713.4742233492434 146.03529132828118 C709.4791238524019 144.98747929558158, 707.61307701841 143.44075566753745, 706.5477074600756 135.38680531010033 C712.1321677600295 130.91748831272125, 709.3021525060087 121.13433377966284, 707.6057192228734 101.0726073242724 C707.2429047487676 94.05512776151299, 709.6721759937703 91.80739528909325, 714.4281499527394 93.82636868730188 C716 95, 716 95, 716 95" stroke="none" stroke-width="0" fill="#FFF5F3"/><path d="M714.005064804107 93.48315904662013 C754.2058365568519 94.40414178179205, 789.7457997463644 96.88401984976232, 904.6690244264901 93.47809110209346 M715.7560463454574 95.1131415758282 C771.2515448439866 95.15441137862206, 828.2175538253039 95.22816157650948, 904.6242799665779 95.6182666812092 M904 95 C909.1606666855514 93.54157825186849, 910.5237959437072 97.15399869158864, 910.7019372992218 100.21537073329091 M905.6708416752517 96.19850607588887 C909.7101566219702 94.3702991252765, 910.5090762222186 97.4183227127418, 911.2498076165095 101.46345652993769 M911.7501254864037 101.3073541931808 C910.1712447923571 110.18652479201555, 909.4654584449679 118.18261967673898, 909.9348904676735 138.0977650694549 M910.9463993813843 100.64453879930079 C909.644216519475 108.15739035718143, 910.6378424583673 117.06688841469585, 909.0428167488426 136.80728338100016 M910 137 C908.618635635823 141.1607768125832, 908.8575202040374 144.35776909068227, 902.7521685175598 144.92651112750173 M910.8717763237655 138.5149244852364 C910.8516478801146 140.6948210125789, 905.9050981963053 141.79503385480493, 902.7578008735552 141.8059673851356 M902.8556140251458 142.34460781142116 C830.1684218794107 145.55830228038133, 758.7203235141933 144.1881284684688, 717.8507351465523 143.83625922724605 M903.5111039187759 143.49726323224604 C855.7433948460966 142.9284109528363, 809.6564013343304 141.10602009847761, 716.3276483919472 142.91552768088877 M716 143 C710.6578271202743 142.97292276099324, 710.9545959047973 140.2989204712212, 710.8733683638275 135.36429031565785 M714.190066318959 143.69128246977925 C712.3852755213156 142.8346894269809, 711.2933297956363 140.12256515678018, 711.0305135214701 136.5181948846206 M709.6057101078331 136.2326152138412 C711.7147389914245 123.43357228338718, 709.4842486645431 109.28123879507184, 710.4194881506264 102.11251888796687 M710.2533826138824 136.03215471841395 C708.9498283418119 129.93603697381914, 709.6265826376379 121.62401690073311, 710.6726225521415 101.16321442462504 M710 101 C711.8534364514053 96.23094578459859, 712.9839683584869 96.13663252070546, 717.0469821505249 93.8753879852593 M708.3884069733322 99.79300971701741 C711.4037641549482 95.49952350910753, 714.0993081295862 92.70272325929254, 717.5778576696291 92.96757066901773 M716 95 C716 95, 716 95, 716 95 M716 95 C716 95, 716 95, 716 95" stroke="#D4644B" stroke-width="1.5" fill="none"/></g></g><g filter="url(#shadow)"><g><path d="M46.8004409134388 201.28333260416986 C102.98958188481629 201.02893801761866, 157.5997494675219 198.58835059238672, 201.1212540924549 196.85629689097405 C206.95191624760628 199.94918820261955, 208.46372864842414 201.44558808207512, 210.70722420811654 206.81974999308585 C207.41728287981152 223.45210130084305, 209.16629506395458 248.12744275666773, 209.0786922156811 260.151943141222 C212.9148452460766 261.49487336277963, 206.83209473490714 266.6449487030506, 206.24736992716788 267.79375432133673 C163.36734992079437 266.37674899133447, 126.54793786033989 264.7137677672744, 43.75486519932747 267.69803673624995 C39.75922120213509 266.7666482627392, 37.87829068303108 265.1695605933666, 36.931295520067216 257.56604916453364 C41.741583832472564 249.09184011947363, 39.22601471778751 235.89421993158757, 37.871750420331956 206.0645398437977 C37.54924866557121 199.38233578801155, 39.93082310557365 197.16212914586066, 44.60279995799065 198.95677216649057 C46 200, 46 200, 46 200" stroke="none" stroke-width="0" fill="#E3EDFA"/><path d="M44.40405184328556 198.7865272372961 C78.0861042369157 199.4529795265019, 108.03950977995991 201.43688198087813, 204.53521954119205 198.78247288167478 M45.80483707636595 200.09051326066256 C92.45675975345075 199.99854600477815, 140.28509081676603 200.05754616308806, 204.4994239732623 200.49461334496738 M204 200 C208.92853334844114 198.8332626014948, 210.4190367549658 202.1231989532709, 210.5615498393774 205.37229658663273 M205.33667334020137 200.9588048607111 C209.3681252975762 199.4962393002212, 210.40726097777485 202.33465817019342, 210.9998460932076 206.37076522395014 M211.40010038912297 206.24588335454465 C210.0905237884134 219.40518224965783, 209.52589471050203 231.85802057348192, 209.94791237413884 259.87821205556395 M210.7571195051074 205.71563103944064 C209.7576221713096 216.82929015178235, 210.5525229224235 229.06026646383108, 209.23425339907408 258.8458267048001 M210 259 C208.8949085086584 263.1286214500666, 208.68601616322994 266.0862152725458, 203.0017348140478 266.54120890200136 M210.6974210590124 260.2119395881891 C210.6813183040917 262.7558568100631, 206.32407855704426 264.0360270838439, 203.00624069884418 264.0447739081085 M203.0844912201166 264.4756862491369 C141.96769575588405 266.93433361431954, 81.84217531606555 265.83819456478955, 47.48058811724186 265.66900738179686 M203.60888313502073 265.39781058579683 C163.46843568719925 265.0608930928409, 124.6725606881082 263.60298040935396, 46.26211871355772 264.93242214471104 M46 265 C40.92626169621944 264.9783382087946, 40.763676723837854 262.439136376977, 40.698694691061974 257.6914322525263 M44.5520530551672 265.5530259758234 C42.30822041705251 264.8677515415847, 41.03466383650899 262.29805212542414, 40.8244108171761 258.6145559076965 M39.684568086266516 258.38609217107296 C41.42685293244422 238.6323827372864, 39.64246067093909 217.79604085721076, 40.335590520501135 206.8900151103735 M40.20270609110594 258.22572377473114 C39.08786419112384 248.02574790995567, 39.629267627784614 236.05305018238724, 40.53809804171324 206.13057153970004 M40 206 C41.48274916112423 201.38475662767888, 42.78717468678951 200.90930601656436, 46.83758572041988 199.10031038820745 M38.71072557866573 205.03440777361394 C41.123011323958636 200.79961880728604, 43.67944650366903 198.16217860743404, 47.26228613570333 198.37405653521418 M46 200 C46 200, 46 200, 46 200 M46 200 C46 200, 46 200, 46 200" stroke="#3B7DD8" stroke-width="1.5" fill="none"/></g></g><g><g><path d="M46.8004409134388 271.28333260416986 C102.98958188481629 271.02893801761866, 157.5997494675219 268.58835059238675, 201.1212540924549 266.856296890974 C206.95191624760628 269.94918820261955, 208.46372864842414 271.4455880820751, 210.70722420811654 276.81974999308585 C208.26469105879664 279.0438487755135, 209.40154897848961 286.782803651765, 209.4011499401927 289.7487630417943 C212.9148452460766 291.49487336277963, 206.83209473490714 296.6449487030506, 206.24736992716788 297.79375432133673 C163.36734992079437 296.37674899133447, 126.54793786033989 294.7137677672744, 43.75486519932747 297.69803673624995 C39.75922120213509 296.7666482627392, 37.87829068303108 295.1695605933666, 36.931295520067216 287.56604916453364 C41.325932947069404 287.1576392490789, 39.69081302252412 283.17712929837404, 38.61663777321577 276.0419508984685 C37.54924866557121 269.3823357880116, 39.93082310557365 267.16212914586066, 44.60279995799065 268.95677216649057 C46 270, 46 270, 46 270" stroke="none" stroke-width="0" fill="#EEEEEE"/><path d="M44.40405184328556 268.7865272372961 C78.0861042369157 269.4529795265019, 108.03950977995991 271.4368819808781, 204.53521954119205 268.7824728816748 M45.80483707636595 270.09051326066253 C92.45675975345075 269.9985460047782, 140.28509081676603 270.0575461630881, 204.4994239732623 270.4946133449674 M204 270 C208.92853334844114 268.83326260149477, 210.4190367549658 272.1231989532709, 210.5615498393774 275.37229658663273 M205.33667334020137 270.9588048607111 C209.3681252975762 269.4962393002212, 210.40726097777485 272.33465817019345, 210.9998460932076 276.3707652239502 M210.91006525292994 276.159824180454 C210.11747724925578 279.3455835935101, 209.7504683486134 282.0721436352283, 209.96614304319024 289.57083783611654 M210.4921276783198 275.81516017563644 C209.78914617015124 278.5155900355801, 210.30583165837527 281.9422760753334, 209.50226470939816 288.8997873581201 M210 289 C208.8949085086584 293.1286214500666, 208.68601616322994 296.0862152725458, 203.0017348140478 296.54120890200136 M210.6974210590124 290.2119395881891 C210.6813183040917 292.7558568100631, 206.32407855704426 294.0360270838439, 203.00624069884418 294.0447739081085 M203.0844912201166 294.4756862491369 C141.96769575588405 296.93433361431954, 81.84217531606555 295.83819456478955, 47.48058811724186 295.66900738179686 M203.60888313502073 295.39781058579683 C163.46843568719925 295.0608930928409, 124.6725606881082 293.60298040935396, 46.26211871355772 294.93242214471104 M46 295 C40.92626169621944 294.9783382087946, 40.763676723837854 292.439136376977, 40.698694691061974 287.6914322525263 M44.5520530551672 295.5530259758234 C42.30822041705251 294.8677515415847, 41.03466383650899 292.29805212542414, 40.8244108171761 288.6145559076965 M39.79496925607324 288.60095991119744 C40.85797944678962 284.1943335175887, 39.69812447681129 279.08399603389205, 40.21813383832574 276.5785098217428 M40.13175895921886 288.4967204535753 C39.49795686810612 286.58492216635494, 39.849869101935624 283.5208546683192, 40.349763727113604 276.08487150080504 M40 276 C41.48274916112423 271.3847566276789, 42.78717468678951 270.90930601656436, 46.83758572041988 269.10031038820745 M38.71072557866573 275.0344077736139 C41.123011323958636 270.79961880728604, 43.67944650366903 268.16217860743404, 47.26228613570333 268.3740565352142 M46 270 C46 270, 46 270, 46 270 M46 270 C46 270, 46 270, 46 270" stroke="#7A7A7A" stroke-width="1.5" fill="none"/></g></g><g filter="url(#shadow)"><g><path d="M376.8004409134388 211.28333260416986 C443.4025146700442 211.24952313001157, 508.4256150379777 208.80893570477963, 561.1212540924549 206.85629689097405 C566.9519162476063 209.94918820261955, 568.4637286484242 211.44558808207512, 570.7072242081165 216.81974999308585 C567.4041027369022 231.5173653870821, 569.1531149210454 254.2579709291458, 569.078692215681 265.151943141222 C572.9148452460765 266.49487336277963, 566.8320947349072 271.6449487030506, 566.2473699271679 272.79375432133673 C515.7559327743948 271.6524705138445, 471.3251035675406 269.98948928978444, 373.75486519932747 272.69803673624995 C369.7592212021351 271.7666482627392, 367.8782906830311 270.1695605933666, 366.93129552006724 262.56604916453364 C371.7867827732563 255.1636217445135, 369.27121365857124 243.03778318166732, 367.871750420332 216.0645398437977 C367.5492486655712 209.38233578801155, 369.93082310557367 207.16212914586066, 374.60279995799067 208.95677216649057 C376 210, 376 210, 376 210" stroke="none" stroke-width="0" fill="#E0E8F8"/><path d="M374.4040518432856 208.7865272372961 C414.09176867678764 209.52331342543363, 450.05083865970374 211.50721587980985, 564.5352195411921 208.78247288167478 M375.80483707636597 210.09051326066256 C431.36014348343014 210.12352910289766, 488.09185827672485 210.18252926120758, 564.4994239732623 210.49461334496738 M564 210 C568.9285333484411 208.8332626014948, 570.4190367549658 212.1231989532709, 570.5615498393774 215.37229658663273 M565.3366733402014 210.9588048607111 C569.3681252975762 209.4962393002212, 570.4072609777749 212.33465817019342, 570.9998460932076 216.37076522395014 M571.4001003891229 216.24588335454465 C570.1041920370817 228.15395034551622, 569.5395629591703 239.3555567651987, 569.9479123741388 264.87821205556395 M570.7571195051074 215.71563103944064 C569.7451960078597 225.77487323731185, 570.5400967589736 236.9514326348901, 569.2342533990741 263.8458267048001 M570 264 C568.8949085086584 268.1286214500666, 568.68601616323 271.0862152725458, 563.0017348140478 271.54120890200136 M570.6974210590124 265.2119395881891 C570.6813183040917 267.7558568100631, 566.3240785570442 269.0360270838439, 563.0062406988442 269.0447739081085 M563.0844912201167 269.4756862491369 C490.25568885728717 272.046641824305, 418.4181615188718 270.95050277477503, 377.48058811724184 270.66900738179686 M563.6088831350207 270.39781058579683 C515.8646980963647 269.942728762269, 469.4650855064392 268.48481607878205, 376.2621187135577 269.93242214471104 M376 270 C370.92626169621946 269.9783382087946, 370.7636767238379 267.439136376977, 370.698694691062 262.6914322525263 M374.5520530551672 270.5530259758234 C372.3082204170525 269.8677515415847, 371.03466383650897 267.29805212542414, 370.8244108171761 263.6145559076965 M369.6845680862665 263.38609217107296 C371.41065830323697 245.59818337559702, 369.62626604173187 226.72764213383198, 370.3355905205011 216.8900151103735 M370.20270609110594 263.22572377473114 C369.1090402153373 254.12555817216634, 369.65044365199805 243.25267070680857, 370.5380980417132 216.13057153970004 M370 216 C371.4827491611242 211.38475662767888, 372.7871746867895 210.90930601656436, 376.8375857204199 209.10031038820745 M368.71072557866574 215.03440777361394 C371.1230113239586 210.79961880728604, 373.679446503669 208.16217860743404, 377.26228613570333 208.37405653521418 M376 210 C376 210, 376 210, 376 210 M376 210 C376 210, 376 210, 376 210" stroke="#326CE5" stroke-width="1.5" fill="none"/></g></g><g><g><path d="M716.8004409134388 201.28333260416986 C783.4025146700442 201.24952313001157, 848.4256150379778 198.80893570477963, 901.1212540924549 196.85629689097405 C906.9519162476063 199.94918820261955, 908.4637286484242 201.44558808207512, 910.7072242081165 206.81974999308585 C907.3645623081743 215.7131576457992, 909.1135744923174 232.64955544658005, 909.078692215681 240.151943141222 C912.9148452460765 241.49487336277963, 906.8320947349072 246.6449487030506, 906.2473699271679 247.79375432133673 C855.7559327743948 246.6524705138445, 811.3251035675406 244.98948928978442, 713.7548651993275 247.69803673624992 C709.7592212021351 246.76664826273918, 707.8782906830311 245.1695605933666, 706.9312955200672 237.5660491645336 C711.9223795956075 233.37896661963313, 709.4068104809224 224.46847293190658, 707.871750420332 206.0645398437977 C707.5492486655712 199.38233578801155, 709.9308231055736 197.16212914586066, 714.6027999579907 198.95677216649057 C716 200, 716 200, 716 200" stroke="none" stroke-width="0" fill="#E8FFE8"/><path d="M714.4040518432855 198.7865272372961 C754.0917686767876 199.52331342543363, 790.0508386597037 201.50721587980985, 904.5352195411921 198.78247288167478 M715.804837076366 200.09051326066256 C771.3601434834301 200.12352910289766, 828.0918582767248 200.18252926120758, 904.4994239732623 200.49461334496738 M904 200 C908.9285333484411 198.8332626014948, 910.4190367549658 202.1231989532709, 910.5615498393774 205.37229658663273 M905.3366733402014 200.9588048607111 C909.3681252975762 199.4962393002212, 910.4072609777749 202.33465817019342, 910.9998460932076 206.37076522395014 M911.4001003891229 206.24588335454465 C910.1451967830867 214.4002546330914, 909.5805677051753 221.84816534034908, 909.9479123741388 239.87821205556392 M910.7571195051074 205.71563103944064 C909.70791751751 212.61162249390037, 910.502818268624 220.62493114806713, 909.2342533990741 238.84582670480012 M910 239 C908.8949085086584 243.12862145006656, 908.68601616323 246.08621527254581, 903.0017348140478 246.5412089020014 M910.6974210590124 240.21193958818913 C910.6813183040917 242.75585681006314, 906.3240785570442 244.03602708384395, 903.0062406988442 244.04477390810848 M903.0844912201167 244.4756862491369 C830.2556888572872 247.04664182430506, 758.4181615188718 245.95050277477503, 717.4805881172418 245.66900738179683 M903.6088831350207 245.39781058579683 C855.8646980963647 244.942728762269, 809.4650855064392 243.48481607878207, 716.2621187135577 244.932422144711 M716 245 C710.9262616962194 244.97833820879458, 710.7636767238379 242.43913637697696, 710.698694691062 237.69143225252628 M714.5520530551672 245.5530259758234 C712.3082204170526 244.86775154158474, 711.034663836509 242.29805212542414, 710.8244108171762 238.61455590769648 M709.6845680862665 238.38609217107296 C711.3620744156152 226.49558529052885, 709.57768215411 213.52244596369565, 710.3355905205011 206.8900151103735 M710.2027060911059 238.22572377473116 C709.1725682879776 232.42498895879834, 709.7139717246384 224.85153228007258, 710.5380980417133 206.13057153970004 M710 206 C711.4827491611243 201.38475662767888, 712.7871746867895 200.90930601656436, 716.8375857204198 199.10031038820745 M708.7107255786657 205.03440777361394 C711.1230113239586 200.79961880728604, 713.679446503669 198.16217860743404, 717.2622861357033 198.37405653521418 M716 200 C716 200, 716 200, 716 200 M716 200 C716 200, 716 200, 716 200" stroke="#5FA384" stroke-width="1.5" fill="none"/></g></g><g><g><path d="M716.8004409134388 259.28333260416986 C783.4025146700442 259.24952313001154, 848.4256150379778 256.8089357047796, 901.1212540924549 254.85629689097405 C906.9519162476063 257.94918820261955, 908.4637286484242 259.4455880820751, 910.7072242081165 264.81974999308585 C907.3382020223557 269.8436858182773, 909.0872142064989 282.9106117915362, 909.078692215681 288.151943141222 C912.9148452460765 289.49487336277963, 906.8320947349072 294.6449487030506, 906.2473699271679 295.79375432133673 C855.7559327743948 294.6524705138445, 811.3251035675406 292.98948928978444, 713.7548651993275 295.69803673624995 C709.7592212021351 294.7666482627392, 707.8782906830311 293.1695605933666, 706.9312955200672 285.56604916453364 C712.012777477175 283.52252986971286, 709.4972083624899 276.75559943206605, 707.871750420332 264.06453984379766 C707.5492486655712 257.3823357880116, 709.9308231055736 255.16212914586066, 714.6027999579907 256.95677216649057 C716 258, 716 258, 716 258" stroke="none" stroke-width="0" fill="#F8F8F8"/><path d="M714.4040518432855 256.7865272372961 C754.0917686767876 257.5233134254336, 790.0508386597037 259.50721587980985, 904.5352195411921 256.7824728816748 M715.804837076366 258.09051326066253 C771.3601434834301 258.12352910289763, 828.0918582767248 258.18252926120755, 904.4994239732623 258.4946133449674 M904 258 C908.9285333484411 256.83326260149477, 910.4190367549658 260.1231989532709, 910.5615498393774 263.37229658663273 M905.3366733402014 258.9588048607111 C909.3681252975762 257.4962393002212, 910.4072609777749 260.33465817019345, 910.9998460932076 264.3707652239502 M911.4001003891229 264.2458833545446 C910.1725332804233 269.89779082480817, 909.6079042025119 274.8432377237827, 909.9479123741388 287.87821205556395 M910.7571195051074 263.7156310394406 C909.6830651906103 268.5027886649593, 910.4779659417242 274.40726349018513, 909.2342533990741 286.8458267048001 M910 287 C908.8949085086584 291.1286214500666, 908.68601616323 294.0862152725458, 903.0017348140478 294.54120890200136 M910.6974210590124 288.2119395881891 C910.6813183040917 290.7558568100631, 906.3240785570442 292.0360270838439, 903.0062406988442 292.0447739081085 M903.0844912201167 292.4756862491369 C830.2556888572872 295.046641824305, 758.4181615188718 293.95050277477503, 717.4805881172418 293.66900738179686 M903.6088831350207 293.39781058579683 C855.8646980963647 292.942728762269, 809.4650855064392 291.48481607878205, 716.2621187135577 292.93242214471104 M716 293 C710.9262616962194 292.9783382087946, 710.7636767238379 290.439136376977, 710.698694691062 285.6914322525263 M714.5520530551672 293.5530259758234 C712.3082204170526 292.8677515415847, 711.034663836509 290.29805212542414, 710.8244108171762 286.6145559076965 M709.6845680862665 286.38609217107296 C711.3296851572007 278.42718656715004, 709.5452928956955 269.3856485169381, 710.3355905205011 264.8900151103735 M710.2027060911059 286.22572377473114 C709.2149203364044 282.6246094832197, 709.7563237730652 277.2507733289152, 710.5380980417133 264.13057153970004 M710 264 C711.4827491611243 259.3847566276789, 712.7871746867895 258.90930601656436, 716.8375857204198 257.10031038820745 M708.7107255786657 263.0344077736139 C711.1230113239586 258.79961880728604, 713.679446503669 256.16217860743404, 717.2622861357033 256.3740565352142 M716 258 C716 258, 716 258, 716 258 M716 258 C716 258, 716 258, 716 258" stroke="#7A7A7A" stroke-width="1.5" fill="none"/></g></g></g><g id="layer-text"><text x="24" y="26" text-anchor="start" font-family="Inter, &quot;IBM Plex Sans&quot;, system-ui, sans-serif" font-size="10" font-weight="600" fill="#C97755" letter-spacing="1">WHAT HPA DOES (NO PRIORITY AWARENESS)</text><text x="24" y="198" text-anchor="start" font-family="Inter, &quot;IBM Plex Sans&quot;, system-ui, sans-serif" font-size="10" font-weight="600" fill="#3D7A5E" letter-spacing="1">WHAT SHOULD HAPPEN (PRIORITY-AWARE)</text><text x="125" y="52.099999999999994" text-anchor="middle" font-family="Inter, &quot;IBM Plex Sans&quot;, system-ui, sans-serif" font-size="12" font-weight="700" fill="#7A7A7A" letter-spacing="0.2">D5 Platform</text><text x="125" y="72.3" text-anchor="middle" font-family="Inter, &quot;IBM Plex Sans&quot;, system-ui, sans-serif" font-size="10" font-weight="400" fill="#777">Internal tooling</text><text x="125" y="86.8" text-anchor="middle" font-family="Inter, &quot;IBM Plex Sans&quot;, system-ui, sans-serif" font-size="10" font-weight="400" fill="#777">Priority: P3</text><text x="125" y="123.925" text-anchor="middle" font-family="Inter, &quot;IBM Plex Sans&quot;, system-ui, sans-serif" font-size="11" font-weight="700" fill="#3B7DD8" letter-spacing="0.2">D1 Payment (P0)</text><text x="470" y="66.525" text-anchor="middle" font-family="Inter, &quot;IBM Plex Sans&quot;, system-ui, sans-serif" font-size="13" font-weight="700" fill="#326CE5" letter-spacing="0.2">Node Capacity</text><text x="470" y="88.075" text-anchor="middle" font-family="Inter, &quot;IBM Plex Sans&quot;, system-ui, sans-serif" font-size="10" font-weight="400" fill="#5577AA">Limited availability</text><text x="810" y="45.075" text-anchor="middle" font-family="Inter, &quot;IBM Plex Sans&quot;, system-ui, sans-serif" font-size="12" font-weight="700" fill="#7A7A7A" letter-spacing="0.2">D5: Scheduled ✓</text><text x="810" y="65.275" text-anchor="middle" font-family="Inter, &quot;IBM Plex Sans&quot;, system-ui, sans-serif" font-size="9" font-weight="400" fill="#5FA384">Got nodes first</text><text x="810" y="100.05" text-anchor="middle" font-family="Inter, &quot;IBM Plex Sans&quot;, system-ui, sans-serif" font-size="12" font-weight="700" fill="#D4644B" letter-spacing="0.2">D1: Pending ✗</text><text x="810" y="120.25" text-anchor="middle" font-family="Inter, &quot;IBM Plex Sans&quot;, system-ui, sans-serif" font-size="9" font-weight="400" fill="#D4644B">Stuck waiting for nodes</text><text x="810" y="133.3" text-anchor="middle" font-family="Inter, &quot;IBM Plex Sans&quot;, system-ui, sans-serif" font-size="9" font-weight="400" fill="#D4644B">Revenue impact</text><text x="290" y="63.25" text-anchor="middle" font-family="Inter, &quot;IBM Plex Sans&quot;, system-ui, sans-serif" font-size="10" font-weight="500" fill="#888">requests first</text><text x="125" y="212.1" text-anchor="middle" font-family="Inter, &quot;IBM Plex Sans&quot;, system-ui, sans-serif" font-size="12" font-weight="700" fill="#3B7DD8" letter-spacing="0.2">D1 Payment</text><text x="125" y="232.3" text-anchor="middle" font-family="Inter, &quot;IBM Plex Sans&quot;, system-ui, sans-serif" font-size="10" font-weight="400" fill="#2A5FA4">Auth &amp; checkout</text><text x="125" y="246.8" text-anchor="middle" font-family="Inter, &quot;IBM Plex Sans&quot;, system-ui, sans-serif" font-size="10" font-weight="400" fill="#2A5FA4">Priority: P0</text><text x="125" y="279.25" text-anchor="middle" font-family="Inter, &quot;IBM Plex Sans&quot;, system-ui, sans-serif" font-size="10" font-weight="700" fill="#7A7A7A" letter-spacing="0.2">D5 Platform (P3)</text><text x="470" y="226.525" text-anchor="middle" font-family="Inter, &quot;IBM Plex Sans&quot;, system-ui, sans-serif" font-size="13" font-weight="700" fill="#326CE5" letter-spacing="0.2">Node Capacity</text><text x="470" y="248.07500000000002" text-anchor="middle" font-family="Inter, &quot;IBM Plex Sans&quot;, system-ui, sans-serif" font-size="10" font-weight="400" fill="#5577AA">Priority-aware allocation</text><text x="810" y="210.075" text-anchor="middle" font-family="Inter, &quot;IBM Plex Sans&quot;, system-ui, sans-serif" font-size="12" font-weight="700" fill="#5FA384" letter-spacing="0.2">D1: Scheduled ✓</text><text x="810" y="230.27499999999998" text-anchor="middle" font-family="Inter, &quot;IBM Plex Sans&quot;, system-ui, sans-serif" font-size="9" font-weight="400" fill="#5FA384">SLO protected</text><text x="810" y="263.40000000000003" text-anchor="middle" font-family="Inter, &quot;IBM Plex Sans&quot;, system-ui, sans-serif" font-size="11" font-weight="700" fill="#7A7A7A" letter-spacing="0.2">D5: Deferred (OK)</text><text x="810" y="282.25000000000006" text-anchor="middle" font-family="Inter, &quot;IBM Plex Sans&quot;, system-ui, sans-serif" font-size="9" font-weight="400" fill="#999">Non-critical, can wait</text><text x="290" y="225.75" text-anchor="middle" font-family="Inter, &quot;IBM Plex Sans&quot;, system-ui, sans-serif" font-size="10" font-weight="500" fill="#888">priority: P0</text><rect x="390.8" y="160.25" width="178.4" height="15" fill="white" opacity="0.75" rx="4"/><text x="480" y="170" text-anchor="middle" font-family="Inter, &quot;IBM Plex Sans&quot;, system-ui, sans-serif" font-size="10" font-weight="600" fill="#D4644B">No priority awareness in HPA</text><text x="480" y="332" text-anchor="middle" font-family="Inter, &quot;IBM Plex Sans&quot;, system-ui, sans-serif" font-size="11" font-weight="600" fill="#999">Priority exists in runbooks, not in the autoscaler</text></g></svg>